<svg width="52" height="43" viewBox="0 0 52 43" fill="none" xmlns="http://www.w3.org/2000/svg">
<path d="M33.5837 15.0528H3.25003C2.65416 15.0528 2.16665 14.5691 2.16665 13.9779C2.16665 13.3867 2.65416 12.903 3.42767 12.888L29.4279 8.58412C30.0173 8.48526 30.4181 7.93273 30.3184 7.34796C30.2188 6.76107 29.6511 6.35909 29.0726 6.4644L3.25003 10.7532C1.45815 10.7532 0 12.2 0 13.9779V39.7753C0 41.5532 1.45815 43 3.25003 43H33.5837C36.5716 43 39.0004 40.5901 39.0004 37.6256V20.4273C39.0004 17.4627 36.5715 15.0528 33.5837 15.0528ZM36.8337 37.6256C36.8337 39.4035 35.3756 40.8503 33.5837 40.8503H3.25003C2.65416 40.8503 2.16665 40.3665 2.16665 39.7753V17.0177C2.50466 17.1381 2.87079 17.2026 3.25003 17.2026H33.5837C35.3756 17.2026 36.8337 18.6493 36.8337 20.4273V37.6256Z" fill="#E98D44"/>
<path d="M51.0494 12.9503L38.9462 0.941631C37.6809 -0.313877 35.6161 -0.313877 34.3507 0.941631L19.8143 15.3645C19.3918 15.7837 19.3918 16.4652 19.8143 16.8844C20.2368 17.3036 20.9237 17.3036 21.3462 16.8844L35.8803 2.46146C36.3029 2.04225 36.9897 2.04225 37.4122 2.46146L49.5154 14.4702C49.9379 14.8894 49.9379 15.5709 49.5154 15.9901L37.1457 28.2632C36.7232 28.6824 36.7232 29.3639 37.1457 29.7832C37.3581 29.9916 37.6354 30.0971 37.9127 30.0971C38.1901 30.0971 38.4674 29.9917 38.6797 29.7832L51.0494 17.51C52.3169 16.2524 52.3169 14.208 51.0494 12.9503Z" fill="#E98D44"/>
<path d="M40.6644 2.64846C40.2419 2.22925 39.555 2.22925 39.1325 2.64846L26.3166 15.3645C25.8941 15.7837 25.8941 16.4652 26.3166 16.8844C26.529 17.0929 26.8063 17.1983 27.0836 17.1983C27.361 17.1983 27.6383 17.093 27.8485 16.8844L40.6644 4.16839C41.0869 3.74919 41.0869 3.06767 40.6644 2.64846Z" fill="#E98D44"/>
<path d="M43.9144 5.87314C43.4919 5.45393 42.8051 5.45393 42.3825 5.87314L32.8166 15.3645C32.3941 15.7837 32.3941 16.4652 32.8166 16.8844C33.029 17.0929 33.3062 17.1983 33.5836 17.1983C33.861 17.1983 34.1382 17.093 34.3485 16.8844L43.9144 7.39307C44.3369 6.97386 44.3369 6.29235 43.9144 5.87314Z" fill="#E98D44"/>
<path d="M31.4169 25.7974C29.6251 25.7974 28.1669 27.2442 28.1669 29.0221C28.1669 30.8 29.6251 32.2468 31.4169 32.2468C33.2088 32.2468 34.667 30.8 34.667 29.0221C34.667 27.2442 33.2088 25.7974 31.4169 25.7974ZM31.4169 30.0969C30.8211 30.0969 30.3336 29.6132 30.3336 29.022C30.3336 28.4308 30.8211 27.9471 31.4169 27.9471C32.0128 27.9471 32.5003 28.4308 32.5003 29.022C32.5003 29.6132 32.0128 30.0969 31.4169 30.0969Z" fill="#E98D44"/>
<path d="M37.917 34.3966H29.2503C27.4584 34.3966 26.0003 32.9498 26.0003 31.1719V26.8723C26.0003 25.0944 27.4584 23.6476 29.2503 23.6476H37.917C38.515 23.6476 39.0004 23.166 39.0004 22.5727C39.0004 21.9793 38.515 21.4977 37.917 21.4977H29.2503C26.2624 21.4977 23.8336 23.9077 23.8336 26.8722V31.1718C23.8336 34.1364 26.2625 36.5462 29.2503 36.5462H37.917C38.515 36.5462 39.0004 36.0646 39.0004 35.4713C39.0004 34.8779 38.515 34.3966 37.917 34.3966Z" fill="#E98D44"/>
</svg>
