<svg width="32" height="43" viewBox="0 0 32 43" fill="none" xmlns="http://www.w3.org/2000/svg">
<path d="M27.3105 2.91963H20.4485C19.6709 1.14521 17.9263 0 16.0002 0C14.0737 0 12.3291 1.14521 11.5515 2.91963H4.68913C2.10055 2.92266 0.0030022 5.03537 0 7.64224V38.2774C0.0030022 40.8843 2.10055 42.997 4.68913 43H27.3105C29.8991 42.997 31.997 40.8843 32 38.2774V7.64224C31.997 5.03537 29.8991 2.92266 27.3105 2.91963ZM12.3238 5.06963C12.8248 5.06963 13.2585 4.71858 13.3662 4.22509C13.6284 3.0231 14.7362 2.15 16.0002 2.15C17.2641 2.15 18.3716 3.0231 18.6338 4.22509C18.7412 4.71858 19.1748 5.06963 19.6766 5.06963H21.7931V6.01295C21.7915 7.43295 20.6489 8.58354 19.2389 8.58522H12.7611C11.3507 8.58354 10.2082 7.43295 10.2065 6.01295V5.06963H12.3238ZM29.8651 38.2774C29.8638 39.6977 28.7209 40.8487 27.3105 40.85H4.68913C3.27909 40.8487 2.13658 39.6977 2.13491 38.2774V7.64224C2.13658 6.2219 3.27909 5.07131 4.68913 5.06963H8.07164V6.01295C8.07464 8.61982 10.1725 10.7322 12.7611 10.7352H19.2389C21.8275 10.7322 23.925 8.61982 23.928 6.01295V5.06963H27.3105C28.7209 5.07131 29.8634 6.2219 29.8651 7.64224V38.2774Z" fill="#E98D44"/>
<path d="M21.2831 19.8623L14.2752 26.7531L10.7166 23.2549C10.2979 22.8424 9.62745 22.8474 9.21415 23.2654C8.80118 23.6836 8.79951 24.3588 9.21081 24.7787L13.529 29.025C13.944 29.4328 14.6061 29.4328 15.0208 29.025L22.7742 21.4012C23.1935 20.986 23.2002 20.3078 22.7899 19.8841C22.3789 19.4605 21.7057 19.4511 21.2831 19.863V19.8623Z" fill="#E98D44"/>
</svg>
