<svg width="45" height="43" viewBox="0 0 45 43" fill="none" xmlns="http://www.w3.org/2000/svg">
<path d="M43.3444 8.5813L43.56 8.3644C44.49 7.43897 45 6.20882 45 4.89823C45 2.19668 42.7951 0 40.0839 0C38.7714 0 37.5376 0.510391 36.6095 1.43583L33.5852 4.45146L18.4788 5.70781L6.71524 3.75221C6.21094 3.65687 5.7272 4.00653 5.63905 4.51132L0.0141678 36.2939C-0.0289855 36.5389 0.0272632 36.7913 0.171664 36.995C0.316066 37.1988 0.535436 37.3372 0.78293 37.3783L9.19775 38.7767L9.37774 42.1157C9.39277 42.3718 9.51089 42.6111 9.70776 42.7775C9.87836 42.9215 10.0921 43 10.3134 43C10.349 43 10.3827 42.9982 10.4165 42.9944L24.91 41.3885L34.5323 42.9869C34.5848 42.9963 34.6373 43 34.6879 43C35.1361 43 35.5317 42.6803 35.6086 42.226L35.9742 40.162L44.1659 39.2534C44.6608 39.1992 45.0265 38.7673 44.9983 38.2719L43.3444 8.5813ZM34.6878 5.99762L38.9852 10.2827L25.8099 23.4201C25.5043 22.6498 24.9961 21.7318 24.098 20.8382C23.2037 19.9464 22.285 19.4379 21.5124 19.135L34.6878 5.99762ZM24.2311 24.5436L19.1012 25.8243L20.3855 20.7091C20.9912 20.8848 21.8874 21.2738 22.7743 22.1599C23.663 23.0461 24.0549 23.9417 24.2311 24.5436ZM31.5322 6.49863L30.3491 7.6783L26.0067 6.95855L31.5322 6.49863ZM11.1964 41.0276L11.0914 39.0907L18.1206 40.2592L11.1964 41.0276ZM33.9247 40.9884L2.02409 35.6882L7.32273 5.74707L28.7198 9.30298L19.0244 18.9705C19.0132 18.9817 19.0113 19.0004 19.0019 19.0116C18.9157 19.107 18.8538 19.2173 18.8144 19.3444C18.807 19.3668 18.7863 19.3818 18.7807 19.4042L16.9058 26.8825C16.8252 27.2022 16.9189 27.5387 17.1514 27.7705C17.3276 27.9462 17.5677 28.0435 17.8133 28.0435C17.8902 28.0435 17.9652 28.0341 18.0401 28.0136L25.5399 26.144C25.5625 26.1384 25.5775 26.1178 25.598 26.1104C25.7162 26.0711 25.823 26.0113 25.9149 25.9328C25.9318 25.9178 25.958 25.9159 25.9749 25.8991L38.8709 13.0402L33.9247 40.9884ZM36.3134 38.2438L41.1807 10.735L41.5651 10.3518L43.0763 37.4941L36.3134 38.2438ZM42.2345 7.04268L40.3108 8.96085L36.0134 4.67581L37.9371 2.7558C38.5108 2.18187 39.274 1.86778 40.0876 1.86778C41.762 1.86778 43.1251 3.22693 43.1251 4.90024C43.1251 5.70965 42.8082 6.47059 42.2345 7.04268Z" fill="#E98D44"/>
</svg>
