<svg width="40" height="50" viewBox="0 0 40 50" fill="none" xmlns="http://www.w3.org/2000/svg"><path d="M39.756 48.578L37.5 46.322V17.155l-4.167-4.167V0H0v43.333h4.167V47.5h32.155l2.255 2.256a.831.831 0 001.179 0 .832.832 0 000-1.178zm-5.101-31.911H25V7.012l9.655 9.655zm-32.988 25v-40h30v9.655l-7.155-7.155H4.167v37.5h-2.5zm4.166 4.166v-40h17.5v12.5h12.5v26.322l-6.261-6.262a9.809 9.809 0 002.329-6.349c0-5.435-4.422-9.856-9.857-9.856s-9.857 4.421-9.857 9.856 4.422 9.857 9.857 9.857c2.418 0 4.633-.88 6.35-2.33l6.26 6.262H5.835zm16.211-5.599c-4.516 0-8.19-3.674-8.19-8.19s3.674-8.19 8.19-8.19 8.19 3.674 8.19 8.19-3.674 8.19-8.19 8.19z" fill="#6F7A87"/><path d="M17.187 30h5a.833.833 0 100-1.667h-5a.833.833 0 100 1.667zm10 3.333h-10a.833.833 0 100 1.667h10a.833.833 0 100-1.667z" fill="#6F7A87"/></svg>