<svg width="52" height="52" viewBox="0 0 52 52" fill="none" xmlns="http://www.w3.org/2000/svg">
<path d="M51.6797 3.11328H26.9367V0.160156H24.7324V3.11328H0V42.1262H16.316L10.8949 50.5953L12.7301 51.8504L18.9527 42.1367H32.7797L39.0023 51.8398L40.8375 50.5848L35.4164 42.1262H51.6797V3.11328ZM49.5914 39.8586H2.2043V5.26484H49.5914V39.8586Z" fill="#2281E2"/>
<path d="M23.6355 19.7774L27.3797 30.5563L40.9957 18.1004L40.2469 27.4977L42.3351 27.7192L43.432 14.4512L31.2293 13.3122L31.0078 15.4743L39.6246 16.3391L28.2551 26.6961L24.5215 16.0438L8.6906 29.9868L10.1144 31.6954L23.6355 19.7774Z" fill="#2281E2"/>
</svg>
