<svg width="41" height="41" viewBox="0 0 41 41" fill="none" xmlns="http://www.w3.org/2000/svg">
<path d="M39.2512 0V6.65204H27.1353C26.7253 4.28408 24.7422 2.55204 22.4161 2.55204C20.0231 2.55204 18.1069 4.34265 17.6969 6.65204H14.0571C13.6639 4.28408 11.7394 2.55204 9.33796 2.55204C6.9449 2.55204 5.02878 4.34265 4.61878 6.65204H1.74878V0H0V41H1.74878V34.348H4.61878C5.02878 36.7159 7.01184 38.448 9.33796 38.448C11.731 38.448 13.6471 36.6573 14.0571 34.348H16.4C16.81 36.7159 18.7931 38.448 21.1192 38.448C23.4369 38.448 25.3447 36.6573 25.8133 34.348H39.268V41H41V0H39.2512ZM22.4161 4.46816C24.1649 4.46816 25.4702 5.83204 25.4702 7.65612C25.4702 9.38816 24.0729 10.8441 22.4161 10.8441C20.7594 10.8441 19.362 9.38816 19.362 7.65612C19.362 5.92408 20.7594 4.46816 22.4161 4.46816ZM9.33796 4.46816C11.0867 4.46816 12.392 5.83204 12.392 7.65612C12.392 9.38816 10.9947 10.8441 9.33796 10.8441C7.68122 10.8441 6.28388 9.38816 6.28388 7.65612C6.28388 5.92408 7.67286 4.46816 9.33796 4.46816ZM4.61878 8.47612C5.02878 10.8441 7.01184 12.5761 9.33796 12.5761C11.7394 12.5761 13.6639 10.8441 14.0571 8.47612H17.7053C18.1153 10.8441 20.0984 12.5761 22.4245 12.5761C24.8259 12.5761 26.7504 10.8441 27.1437 8.47612H39.2596V19.588H36.9084C36.4984 17.22 34.5153 15.488 32.1892 15.488C29.7878 15.488 27.8633 17.22 27.47 19.588H21.9057C21.5124 17.22 19.588 15.488 17.1865 15.488C14.7851 15.488 12.8606 17.22 12.4673 19.588H1.74878V8.47612H4.61878ZM35.2433 20.5C35.2433 22.232 33.8459 23.688 32.1892 23.688C30.5324 23.688 29.1351 22.232 29.1351 20.5C29.1351 18.768 30.5324 17.312 32.1892 17.312C33.938 17.312 35.2433 18.768 35.2433 20.5ZM20.2406 20.5C20.2406 22.232 18.8433 23.688 17.1865 23.688C15.5298 23.688 14.1324 22.232 14.1324 20.5C14.1324 18.768 15.5298 17.312 17.1865 17.312C18.8433 17.312 20.2406 18.768 20.2406 20.5ZM9.33796 36.6239C7.68122 36.6239 6.28388 35.168 6.28388 33.4359C6.28388 31.7039 7.68122 30.248 9.33796 30.248C11.0867 30.248 12.392 31.7039 12.392 33.4359C12.3837 35.168 10.9947 36.6239 9.33796 36.6239ZM21.1108 36.6239C19.4541 36.6239 18.0567 35.168 18.0567 33.4359C18.0567 31.7039 19.4541 30.248 21.1108 30.248C22.7675 30.248 24.1649 31.7039 24.1649 33.4359C24.1649 35.168 22.7675 36.6239 21.1108 36.6239ZM25.83 32.5239C25.4367 30.1559 23.5122 28.4239 21.1108 28.4239C18.7178 28.4239 16.8016 30.2145 16.3916 32.5239H14.0571C13.6639 30.1559 11.7394 28.4239 9.33796 28.4239C6.9449 28.4239 5.02878 30.2145 4.61878 32.5239H1.74878V21.412H12.4673C12.8773 23.78 14.8604 25.512 17.1865 25.512C19.5127 25.512 21.4957 23.78 21.9057 21.412H27.47C27.88 23.78 29.8631 25.512 32.1892 25.512C34.5153 25.512 36.4984 23.78 36.9084 21.412H39.2596V32.5239H25.83Z" fill="#2281E2"/>
</svg>
