<svg width="37" height="42" viewBox="0 0 37 42" fill="none" xmlns="http://www.w3.org/2000/svg">
<path d="M32.9044 5.98773C25.4713 5.98773 18.4913 0 18.4913 0C18.4913 0 11.5113 5.90182 4.07819 5.90182C1.66439 5.90182 0 5.4551 0 5.4551V17.1642C0 21.8118 1.44654 26.3735 4.26119 30.2994C7.07584 34.1395 11.6943 39.3283 18.134 41.9141L18.5 42L18.866 41.8196C25.2098 39.3197 29.9242 34.1309 32.7388 30.205C35.5535 26.3649 37 21.8032 37 17.0697V5.54101C36.9826 5.54101 34.9522 5.98773 32.9044 5.98773ZM33.0874 7.7746C33.9065 7.7746 34.6298 7.68869 35.353 7.59419V17.0697C35.353 18.1264 35.2746 19.1659 35.1178 20.1968H19.3104V2.8693C21.6806 4.57885 27.0224 7.7746 33.0874 7.7746ZM1.81253 7.59419C2.5358 7.6801 3.25907 7.6801 4.07819 7.7746C9.99505 7.7746 15.1102 4.8108 17.585 3.06688V20.1968H2.04781C1.89096 19.1659 1.81253 18.1264 1.81253 17.0697V7.59419ZM5.80358 29.2256C4.15662 26.992 3.01507 24.5093 2.37894 21.8977H17.585V39.6805C12.2781 37.1548 8.27838 32.6791 5.80358 29.2256ZM31.362 29.2256C28.8436 32.7392 24.748 37.3095 19.3017 39.8094V21.8977H34.7866C34.1592 24.5093 33.0089 26.992 31.362 29.2256Z" fill="#2281E2"/>
</svg>
