<svg width="45" height="45" viewBox="0 0 45 45" fill="none" xmlns="http://www.w3.org/2000/svg">
<path d="M31.4146 7.08061V3.63673C31.4146 1.62551 29.7887 0 27.7771 0H17.425C15.4133 0 13.7875 1.62551 13.7875 3.63673V7.08061H0V19.8184C0 19.8184 1.09308 20.0847 1.62584 20.2041V45H43.5671V20.149C43.9804 20.0571 45 19.8184 45 19.8184V7.08061H31.4146ZM15.6062 3.63673C15.6062 2.58061 16.4697 1.81837 17.425 1.81837H27.7679C28.8242 1.81837 29.5867 2.68163 29.5867 3.63673V7.08061H15.6062V3.63673ZM2.01164 9H42.9976V18.3857C40.7746 18.9184 33.8212 20.3694 27.7679 21.0306V18.5786H17.526V21.0673C11.1421 20.351 4.20698 18.8449 2.01164 18.3857V9ZM25.7563 20.3969V26.5224H19.3356V20.3969H25.7563ZM41.7575 43.0806H3.45377V20.6082C6.68708 21.3153 12.3362 22.4357 17.5352 22.9224V28.4327H27.7771V22.849C32.8383 22.2704 38.5701 21.1684 41.7575 20.5163V43.0806Z" fill="#2281E2"/>
</svg>
