<svg width="39" height="48" viewBox="0 0 39 48" fill="none" xmlns="http://www.w3.org/2000/svg"><path d="M38.22 33.032c0-1.178-.858-2.199-2.028-2.356-.39-.706-.936-1.334-1.56-1.884.936-2.04.39-4.475-1.404-5.81l-1.56-1.177c-.78-.628-1.248-1.491-1.248-2.512v-6.909c0-4.474-2.496-8.557-6.474-10.52L21.84.766a6.741 6.741 0 00-6.24 0l-2.106 1.021A11.9 11.9 0 007.02 12.384v6.909c0 1.02-.468 1.884-1.248 2.512l-1.56 1.178c-1.794 1.334-2.34 3.768-1.404 5.81A8.592 8.592 0 000 35.15v12.012h37.44v-3.925H39v-1.57h-.78v-8.636zM5.148 24.239l1.56-1.178c1.17-.863 1.872-2.276 1.872-3.768v-6.909c0-3.846 2.184-7.38 5.616-9.106l2.106-1.02a5.42 5.42 0 014.914 0l2.028.941a10.216 10.216 0 015.616 9.107v6.909c0 1.491.702 2.904 1.872 3.768l1.56 1.177c1.092.864 1.482 2.277 1.014 3.612-.078 0-.078-.079-.156-.079l-8.502-5.024c1.17-1.335 1.872-2.983 1.872-4.79v-3.296c0-2.434-1.638-4.632-3.978-5.26L16.77 7.674c-1.326-.393-2.808 0-3.822 1.02l-.468.393c-1.014 1.02-1.638 2.434-1.56 3.925v4.868c0 1.806.624 3.454 1.872 4.789L4.29 27.693c-.078 0-.078.079-.156.079-.468-1.256-.078-2.67 1.014-3.533zm8.892-.471l2.106 1.413c1.56 1.02 3.588 1.02 5.226 0l2.106-1.413 1.56.942v.471c0 1.335-1.014 2.355-2.34 2.355H14.82c-1.326 0-2.34-1.02-2.34-2.355v-.55l1.56-.863zm-1.56-5.888v-4.867c0-1.021.39-2.042 1.17-2.748l.468-.471c.624-.628 1.482-.864 2.262-.628l5.772 1.648c1.638.471 2.808 2.041 2.808 3.769v3.297c0 1.806-.936 3.533-2.418 4.553l-2.106 1.413a3.044 3.044 0 01-3.432 0l-2.106-1.413c-1.482-1.02-2.418-2.669-2.418-4.553zm12.714 27.713H9.36V35.387H7.8v10.206H1.56V35.15c0-2.512 1.326-4.789 3.432-6.123l5.928-3.533c.156 2.041 1.872 3.533 3.9 3.533h7.8c2.028 0 3.666-1.57 3.9-3.533l5.928 3.533c.702.392 1.326.942 1.872 1.57H21.84c-1.326 0-2.34 1.02-2.34 2.355v8.636h-.78v1.57h7.41l-.936 2.434zm1.716 0l.936-2.356h2.028l.936 2.356h-3.9zm8.97 0h-3.354l-.936-2.356h4.29v2.356zm.78-3.926h-15.6v-8.635c0-.471.312-.785.78-.785h14.04c.468 0 .78.314.78.785v8.635z" fill="#6F7A87"/><path d="M22.869 39.513l5.459-5.495 1.103 1.11-5.46 5.495-1.102-1.11zm8.331-4.911h3.9v1.57h-3.9v-1.57zm-1.56 3.14h5.46v1.57h-5.46v-1.57z" fill="#6F7A87"/></svg>