<svg width="28" height="21" viewBox="0 0 28 21" fill="none" xmlns="http://www.w3.org/2000/svg"><path d="M12.992 12.027c0 2.305-.52 4.082-1.558 5.332-1.032 1.25-2.489 1.875-4.371 1.875-1.899 0-3.368-.629-4.407-1.886-1.039-1.258-1.558-3.032-1.558-5.32V8.91c0-2.305.515-4.082 1.547-5.332 1.039-1.25 2.503-1.875 4.394-1.875 1.89 0 3.356.629 4.395 1.887 1.039 1.258 1.558 3.035 1.558 5.332v3.105zm-3.949-3.62c0-1.227-.16-2.141-.48-2.743-.32-.61-.829-.914-1.524-.914-.68 0-1.176.281-1.488.844-.305.562-.469 1.414-.492 2.554v4.36c0 1.273.16 2.207.48 2.8.32.587.828.88 1.524.88.671 0 1.167-.286 1.488-.856.32-.578.484-1.48.492-2.707V8.406zm9.61.41h1.863c1.476 0 2.215-.723 2.215-2.169 0-.562-.176-1.02-.528-1.37-.351-.36-.848-.54-1.488-.54-.524 0-.98.153-1.371.457-.383.305-.575.684-.575 1.137H14.82c0-.898.25-1.7.75-2.402.5-.703 1.192-1.25 2.075-1.64.89-.4 1.867-.599 2.93-.599 1.898 0 3.39.434 4.476 1.301 1.086.867 1.629 2.059 1.629 3.574 0 .735-.227 1.43-.68 2.086-.445.649-1.098 1.176-1.957 1.582.906.329 1.617.829 2.133 1.5.515.664.773 1.489.773 2.473 0 1.523-.586 2.742-1.758 3.656-1.171.914-2.71 1.371-4.617 1.371a7.67 7.67 0 01-3.117-.632c-.953-.43-1.676-1.02-2.168-1.77-.492-.758-.738-1.617-.738-2.578h3.972c0 .523.211.976.633 1.36.422.382.942.573 1.559.573.695 0 1.25-.19 1.664-.574.414-.39.621-.886.621-1.488 0-.86-.215-1.469-.645-1.828-.43-.36-1.023-.54-1.78-.54h-1.923v-2.94z" fill="#fff"/><path d="M11.434 17.36l-.77-.64-.002.003.772.636zM2.644 3.577l-.768-.64-.003.004.772.636zm5.918 2.086l-.885.465.003.005.883-.47zm-3.011-.07l-.874-.486-.006.01.88.476zm-.492 2.554l-1-.02v.02h1zm.48 7.16l-.88.475.003.005.877-.48zm3.012.024l.872.49.002-.005-.874-.485zm.492-2.707l1 .006v-.006h-1zm2.95-.598c0 2.168-.49 3.685-1.328 4.693L12.203 18c1.24-1.492 1.79-3.53 1.79-5.972h-2zm-1.33 4.696c-.81.981-1.962 1.511-3.6 1.511v2c2.127 0 3.889-.72 5.142-2.238l-1.543-1.273zm-3.6 1.511c-1.655 0-2.819-.534-3.636-1.523l-1.542 1.274c1.261 1.526 3.035 2.25 5.178 2.25v-2zM3.427 16.71c-.841-1.019-1.33-2.535-1.33-4.684h-2c0 2.43.551 4.46 1.788 5.958l1.542-1.274zm-1.33-4.684V8.91h-2v3.117h2zm0-3.117c0-2.169.487-3.687 1.319-4.695L1.873 2.942C.643 4.433.098 6.469.098 8.91h2zm1.317-4.693c.817-.983 1.978-1.514 3.625-1.514v-2c-2.134 0-3.902.719-5.163 2.236l1.538 1.278zm3.625-1.514c1.645 0 2.806.534 3.624 1.524l1.542-1.274c-1.26-1.526-3.03-2.25-5.166-2.25v2zm3.624 1.524c.84 1.018 1.33 2.537 1.33 4.695h2c0-2.436-.551-4.471-1.788-5.969l-1.542 1.274zm1.33 4.695v3.105h2V8.922h-2zm-1.95-.516c0-1.279-.161-2.392-.598-3.212l-1.765.94c.204.383.363 1.098.363 2.272h2zM9.448 5.2a2.687 2.687 0 00-.992-1.078 2.718 2.718 0 00-1.417-.371v2c.198 0 .315.042.388.086a.7.7 0 01.25.293l1.77-.93zM7.039 3.75c-.48 0-.95.1-1.375.341a2.593 2.593 0 00-.987 1.017l1.748.971a.602.602 0 01.225-.248.772.772 0 01.39-.081v-2zM4.671 5.117c-.418.774-.588 1.817-.612 3.01l2 .042c.022-1.088.18-1.747.371-2.099l-1.759-.953zM4.06 8.148v4.36h2v-4.36h-2zm0 4.36c0 1.316.158 2.457.6 3.275l1.76-.95c-.199-.368-.36-1.095-.36-2.325h-2zm.603 3.28c.235.431.564.796.998 1.046.432.25.912.354 1.402.354v-2a.793.793 0 01-.402-.086.659.659 0 01-.243-.273l-1.755.96zm2.4 1.4c.48 0 .95-.104 1.375-.347.425-.245.75-.6.986-1.02l-1.744-.979a.655.655 0 01-.239.265.739.739 0 01-.378.08v2zm2.363-1.371c.445-.803.61-1.912.618-3.186l-2-.012c-.008 1.18-.171 1.875-.367 2.228l1.75.97zm.618-3.192V8.406h-2v4.219h2zm8.61-3.809v-1h-1v1h1zm3.55-3.539l-.715.7.008.007.707-.707zm-2.86-.082l-.614-.788-.008.006.623.782zm-.573 1.137v1h1v-1h-1zm-3.95 0h-1v1h1v-1zm2.825-4.043l.404.915.004-.002-.409-.913zM26 8.652l-.823-.568-.001.002.824.566zm-1.957 1.582l-.427-.904-2.172 1.027 2.259.818.34-.94zm2.133 1.5l-.793.61.003.004.79-.614zm-8.719 6.868l-.411.911.009.004.402-.915zm-2.168-1.77l-.839.545.003.004.836-.549zm-.738-2.578v-1h-1v1h1zm3.972 0h1v-1h-1v1zm3.856 1.36l.679.734.007-.007-.686-.728zm-3.727-3.856h-1v1h1v-1zm0-1.942h1.864v-2h-1.864v2zm1.864 0c.887 0 1.737-.217 2.36-.827.628-.614.854-1.458.854-2.34h-2c0 .562-.142.802-.253.91-.114.113-.372.257-.961.257v2zm3.215-3.168c0-.79-.256-1.513-.82-2.078l-1.415 1.414c.139.14.235.33.235.664h2zm-.813-2.07c-.588-.6-1.371-.84-2.203-.84v2c.45 0 .658.12.773.239l1.43-1.399zm-2.203-.84c-.733 0-1.41.219-1.986.669l1.23 1.577c.204-.16.442-.246.756-.246v-2zm-1.994.675c-.6.477-.951 1.134-.951 1.919h2c0-.122.03-.222.197-.354L18.72 4.413zm.049.919h-3.95v2h3.95v-2zm-2.95 1c0-.7.19-1.296.565-1.823l-1.63-1.159a5.047 5.047 0 00-.935 2.982h2zm.565-1.823c.384-.54.926-.979 1.664-1.305l-.81-1.83c-1.026.455-1.868 1.11-2.484 1.976l1.63 1.16zm1.668-1.307c.751-.336 1.587-.51 2.521-.51v-2c-1.19 0-2.308.223-3.338.684l.817 1.826zm2.521-.51c1.754 0 3 .4 3.853 1.082l1.248-1.563c-1.319-1.053-3.058-1.52-5.1-1.52v2zm3.853 1.082c.825.658 1.253 1.55 1.253 2.792h2c0-1.788-.658-3.28-2.005-4.355l-1.248 1.563zm1.253 2.792c0 .514-.155 1.014-.503 1.518l1.646 1.137c.558-.809.857-1.7.857-2.655h-2zm-.504 1.52c-.327.475-.828.898-1.56 1.244l.854 1.808c.986-.466 1.79-1.098 2.354-1.92l-1.648-1.132zm-1.473 3.089c.752.272 1.296.668 1.68 1.168l1.586-1.217c-.647-.844-1.525-1.448-2.586-1.832l-.68 1.88zm1.683 1.173c.357.46.563 1.057.563 1.859h2c0-1.167-.31-2.218-.983-3.086l-1.58 1.227zm.563 1.859c0 1.224-.45 2.149-1.373 2.868l1.23 1.577c1.422-1.11 2.143-2.622 2.143-4.445h-2zm-1.373 2.868c-.951.742-2.255 1.16-4.002 1.16v2c2.066 0 3.84-.497 5.232-1.583l-1.23-1.577zm-4.002 1.16a6.67 6.67 0 01-2.715-.55l-.804 1.832a8.668 8.668 0 003.52.717v-2zm-2.706-.545c-.809-.365-1.371-.84-1.743-1.407l-1.672 1.098c.613.933 1.496 1.638 2.593 2.132l.822-1.823zm-1.74-1.403c-.38-.585-.577-1.253-.577-2.033h-2c0 1.141.295 2.192.9 3.123l1.677-1.09zm-1.577-1.033h3.972v-2h-3.972v2zm2.972-1c0 .832.351 1.546.961 2.1l1.344-1.481c-.233-.212-.305-.404-.305-.62h-2zm.961 2.1c.622.564 1.388.834 2.23.834v-2c-.39 0-.664-.114-.886-.315l-1.344 1.48zm2.23.834c.886 0 1.704-.25 2.344-.84L21.7 14.879c-.189.174-.48.309-.985.309v2zm2.351-.847c.627-.592.935-1.357.935-2.216h-2c0 .344-.106.57-.307.76l1.372 1.456zM24 14.125c0-.996-.247-1.963-1.003-2.595l-1.283 1.534c.103.086.286.338.286 1.061h2zm-1.003-2.595c-.664-.556-1.513-.772-2.423-.772v2c.606 0 .945.143 1.14.306l1.283-1.534zm-2.423-.772h-1.922v2h1.922v-2zm-.922 1V8.816h-2v2.942h2z" fill="#000" fill-opacity=".15"/></svg>