<svg width="52" height="47" viewBox="0 0 52 47" fill="none" xmlns="http://www.w3.org/2000/svg"><path d="M46.516 0H12.891C9.973 0 7.6 2.355 7.6 5.24l-.218 29.64H.82c-.465 0-.82.412-.82.877v4.08c0 3.819 3.053 6.942 6.737 7.113V47h28.316v-.055c.21.008.338.055.482.055h.02a7.122 7.122 0 007.077-7.163V13.91h8.548c.465 0 .82-.421.82-.886V5.539A5.526 5.526 0 0046.516 0zM7.1 45.314c-2.996 0-5.416-2.479-5.416-5.477v-3.27h26.737v3.256a7.14 7.14 0 002.08 5.063c.143.143.292.217.444.428H7.099zm33.847-5.478c0 3-2.396 5.478-5.393 5.478h-.017a5.474 5.474 0 01-5.432-5.49v-4.066a.873.873 0 00-.842-.877H9.067l.216-29.636c0-1.96 1.619-3.559 3.608-3.559h29.65c-.96 1.054-1.594 2.387-1.594 3.875v34.275zm9.369-27.612h-7.684V5.56c0-2.11 1.753-3.874 3.86-3.874h.023a3.84 3.84 0 013.8 3.861v6.677z" fill="#6F7A87"/><path d="M19.774 20.751l4.342 2.972a.829.829 0 00.941 0l4.329-2.971C30.889 19.725 32 17.578 32 15.757V9.744a.824.824 0 00-.449-.757l-6.61-3.255a.827.827 0 00-.737 0l-6.598 3.246a.823.823 0 00-.448.757v6.022c0 1.82 1.113 3.968 2.616 4.994zm-.932-10.49l5.737-2.833 5.737 2.841v5.488c0 1.27-.832 2.885-1.88 3.601l-3.867 2.647-3.851-2.647c-1.049-.716-1.876-2.331-1.876-3.601v-5.495z" fill="#6F7A87"/><path d="M23.155 17.03a.84.84 0 00.596.252h.002c.224 0 .438-.09.595-.249l3.35-3.355a.844.844 0 00-1.19-1.193l-2.752 2.754-1.1-1.112a.842.842 0 00-1.192-.005.844.844 0 00-.005 1.193l1.696 1.715zm11.898 9.104h-20.21a.843.843 0 000 1.687h20.21a.843.843 0 000-1.687zm0 3.9h-20.21a.843.843 0 000 1.686h20.21a.843.843 0 000-1.686z" fill="#6F7A87"/></svg>