<svg width="40" height="40" viewBox="0 0 40 40" fill="none" xmlns="http://www.w3.org/2000/svg"><path d="M20 0C8.972 0 0 8.972 0 20s8.972 20 20 20 20-8.972 20-20S31.028 0 20 0zm.833 38.291v-2.458a.833.833 0 10-1.666 0v2.458c-9.443-.427-17.03-8.015-17.458-17.458h2.458a.833.833 0 100-1.666H1.709c.427-9.443 8.015-17.03 17.458-17.458v2.458a.833.833 0 101.666 0V1.709c9.443.427 17.03 8.015 17.458 17.458h-2.458a.833.833 0 100 1.666h2.458c-.427 9.443-8.015 17.03-17.458 17.458z" fill="#8AD377"/><path d="M21.584 20.406c.035-.133.083-.262.083-.406 0-.349-.133-.655-.317-.923l5.238-11.225a.833.833 0 10-1.51-.704l-5.235 11.217c-.841.083-1.51.772-1.51 1.635A1.67 1.67 0 0020 21.667c.144 0 .273-.048.406-.083l6.505 6.505a.83.83 0 001.178 0 .833.833 0 000-1.178l-6.505-6.505z" fill="#8AD377"/></svg>