<svg width="49" height="49" viewBox="0 0 49 49" fill="none" xmlns="http://www.w3.org/2000/svg"><path d="M24.5 0C10.99 0 0 10.99 0 24.5S10.99 49 24.5 49 49 38.01 49 24.5 38.01 0 24.5 0zm1.02 46.907v-3.011a1.02 1.02 0 10-2.04 0v3.01c-11.568-.523-20.863-9.818-21.387-21.385h3.011a1.02 1.02 0 100-2.042h-3.01c.523-11.567 9.818-20.862 21.385-21.386v3.011a1.02 1.02 0 102.042 0v-3.01c11.567.523 20.862 9.818 21.386 21.385h-3.011a1.02 1.02 0 100 2.042h3.01c-.523 11.567-9.818 20.862-21.385 21.386z" fill="#6F7A87"/><path d="M26.441 24.997c.042-.163.1-.32.1-.497 0-.427-.162-.802-.387-1.13L32.57 9.62a1.02 1.02 0 10-1.85-.864l-6.413 13.741c-1.031.102-1.85.946-1.85 2.003 0 1.125.917 2.042 2.042 2.042.176 0 .334-.059.497-.101l7.969 7.968a1.018 1.018 0 001.443 0 1.02 1.02 0 000-1.443l-7.968-7.969z" fill="#6F7A87"/></svg>