<svg width="28" height="21" viewBox="0 0 28 21" fill="none" xmlns="http://www.w3.org/2000/svg"><path d="M12.992 12.027c0 2.305-.52 4.082-1.558 5.332-1.032 1.25-2.489 1.875-4.371 1.875-1.899 0-3.368-.629-4.407-1.886-1.039-1.258-1.558-3.032-1.558-5.32V8.91c0-2.305.515-4.082 1.547-5.332 1.039-1.25 2.503-1.875 4.394-1.875 1.89 0 3.356.629 4.395 1.887 1.039 1.258 1.558 3.035 1.558 5.332v3.105zm-3.949-3.62c0-1.227-.16-2.141-.48-2.743-.32-.61-.829-.914-1.524-.914-.68 0-1.176.281-1.488.844-.305.562-.469 1.414-.492 2.554v4.36c0 1.273.16 2.207.48 2.8.32.587.828.88 1.524.88.671 0 1.167-.286 1.488-.856.32-.578.484-1.48.492-2.707V8.406zM26.949 19H15.043v-2.578l5.484-5.766c1.352-1.539 2.028-2.761 2.028-3.668 0-.734-.16-1.293-.48-1.676-.321-.382-.786-.574-1.395-.574-.602 0-1.09.258-1.465.774-.375.508-.563 1.144-.563 1.91h-3.96c0-1.047.261-2.012.785-2.895a5.494 5.494 0 012.18-2.086c.929-.5 1.968-.75 3.116-.75 1.844 0 3.262.426 4.254 1.278 1 .851 1.5 2.074 1.5 3.668 0 .672-.125 1.328-.375 1.968-.25.633-.64 1.301-1.172 2.004-.523.696-1.37 1.63-2.543 2.801l-2.203 2.543h6.715V19z" fill="#fff"/><path d="M11.434 17.36l-.77-.64-.002.003.772.636zM2.644 3.577l-.768-.64-.003.004.772.636zm5.918 2.086l-.885.465.003.005.883-.47zm-3.011-.07l-.874-.486-.006.01.88.476zm-.492 2.554l-1-.02v.02h1zm.48 7.16l-.88.475.003.005.877-.48zm3.012.024l.872.49.002-.005-.874-.485zm.492-2.707l1 .006v-.006h-1zm2.95-.598c0 2.168-.49 3.685-1.328 4.693L12.203 18c1.24-1.492 1.79-3.53 1.79-5.972h-2zm-1.33 4.696c-.81.981-1.962 1.511-3.6 1.511v2c2.127 0 3.889-.72 5.142-2.238l-1.543-1.273zm-3.6 1.511c-1.655 0-2.819-.534-3.636-1.523l-1.542 1.274c1.261 1.526 3.035 2.25 5.178 2.25v-2zM3.427 16.71c-.841-1.019-1.33-2.535-1.33-4.684h-2c0 2.43.551 4.46 1.788 5.958l1.542-1.274zm-1.33-4.684V8.91h-2v3.117h2zm0-3.117c0-2.169.487-3.687 1.319-4.695L1.873 2.942C.643 4.433.098 6.469.098 8.91h2zm1.317-4.693c.817-.983 1.978-1.514 3.625-1.514v-2c-2.134 0-3.902.719-5.163 2.236l1.538 1.278zm3.625-1.514c1.645 0 2.806.534 3.624 1.524l1.542-1.274c-1.26-1.526-3.03-2.25-5.166-2.25v2zm3.624 1.524c.84 1.018 1.33 2.537 1.33 4.695h2c0-2.436-.551-4.471-1.788-5.969l-1.542 1.274zm1.33 4.695v3.105h2V8.922h-2zm-1.95-.516c0-1.279-.161-2.392-.598-3.212l-1.765.94c.204.383.363 1.098.363 2.272h2zM9.448 5.2a2.687 2.687 0 00-.992-1.078 2.718 2.718 0 00-1.417-.371v2c.198 0 .315.042.388.086a.7.7 0 01.25.293l1.77-.93zM7.039 3.75c-.48 0-.95.1-1.375.341a2.593 2.593 0 00-.987 1.017l1.748.971a.602.602 0 01.225-.248.772.772 0 01.39-.081v-2zM4.671 5.117c-.418.774-.588 1.817-.612 3.01l2 .042c.022-1.088.18-1.747.371-2.099l-1.759-.953zM4.06 8.148v4.36h2v-4.36h-2zm0 4.36c0 1.316.158 2.457.6 3.275l1.76-.95c-.199-.368-.36-1.095-.36-2.325h-2zm.603 3.28c.235.431.564.796.998 1.046.432.25.912.354 1.402.354v-2a.793.793 0 01-.402-.086.659.659 0 01-.243-.273l-1.755.96zm2.4 1.4c.48 0 .95-.104 1.375-.347.425-.245.75-.6.986-1.02l-1.744-.979a.655.655 0 01-.239.265.739.739 0 01-.378.08v2zm2.363-1.371c.445-.803.61-1.912.618-3.186l-2-.012c-.008 1.18-.171 1.875-.367 2.228l1.75.97zm.618-3.192V8.406h-2v4.219h2zM26.949 19v1h1v-1h-1zm-11.906 0h-1v1h1v-1zm0-2.578l-.725-.69-.275.29v.4h1zm5.484-5.766l.725.69.014-.015.013-.015-.752-.66zm-1.312-5.144l.804.594.005-.006-.81-.588zm-.563 1.91v1h1v-1h-1zm-3.96 0h-1v1h1v-1zm.785-2.895l.86.51.002-.003-.862-.507zm9.55-1.558l-.65.759.002.002.648-.761zm1.125 5.636l.93.368.002-.004-.932-.364zM24.98 10.61l-.797-.602h-.002l.8.602zm-2.543 2.801l-.707-.707-.025.025-.023.027.756.655zm-2.203 2.543l-.755-.655-1.434 1.655h2.19v-1zm6.715 0h1v-1h-1v1zm0 2.047H15.043v2h11.906v-2zm-10.906 1v-2.578h-2V19h2zm-.275-1.889l5.484-5.766-1.45-1.378-5.484 5.766 1.45 1.378zm5.51-5.795c.704-.8 1.26-1.551 1.645-2.247.38-.687.632-1.39.632-2.08h-2c0 .216-.086.576-.382 1.112-.291.527-.749 1.157-1.397 1.895l1.503 1.32zm2.277-4.328c0-.861-.186-1.686-.714-2.317l-1.534 1.283c.113.135.248.427.248 1.034h2zm-.714-2.317c-.552-.66-1.328-.933-2.161-.933v2c.385 0 .539.11.627.216l1.534-1.283zm-2.161-.933c-.944 0-1.724.43-2.274 1.186L20.024 6.1c.2-.275.396-.362.656-.362v-2zm-2.27 1.18c-.527.714-.758 1.571-.758 2.504h2c0-.598.144-1.014.367-1.316L18.41 4.918zm.242 1.504h-3.96v2h3.96v-2zm-2.96 1c0-.871.215-1.66.645-2.385l-1.72-1.02a6.572 6.572 0 00-.926 3.405h2zm.647-2.388a4.494 4.494 0 011.79-1.712l-.946-1.761a6.493 6.493 0 00-2.569 2.46l1.725 1.013zm1.79-1.712c.772-.415 1.646-.63 2.644-.63v-2c-1.298 0-2.503.284-3.59.869l.947 1.761zm2.644-.63c1.702 0 2.854.393 3.603 1.036L25.68 2.21C24.443 1.15 22.759.69 20.773.69v2zM24.38 3.73c.73.621 1.148 1.538 1.148 2.907h2c0-1.819-.58-3.348-1.851-4.43L24.379 3.73zm1.148 2.907c0 .544-.1 1.077-.306 1.605l1.863.727a6.37 6.37 0 00.443-2.332h-2zm-.305 1.601c-.208.528-.548 1.118-1.04 1.769l1.596 1.205c.571-.755 1.013-1.502 1.304-2.24l-1.86-.734zm-1.04 1.77c-.481.638-1.289 1.532-2.452 2.695l1.415 1.414c1.18-1.18 2.068-2.154 2.634-2.906l-1.598-1.203zm-2.5 2.747l-2.203 2.543 1.511 1.31 2.203-2.543-1.511-1.31zm-1.448 4.198h6.715v-2h-6.715v2zm5.715-1V19h2v-3.047h-2z" fill="#000" fill-opacity=".15"/></svg>