<svg width="45" height="45" viewBox="0 0 45 45" fill="none" xmlns="http://www.w3.org/2000/svg"><path d="M24.437 28.802l-2.663-2.106a.976.976 0 10-1.21 1.533l.1.08a6.111 6.111 0 01-2.485-10.153.977.977 0 00-1.381-1.38 8.059 8.059 0 004.374 13.648l-.61.482a.978.978 0 101.211 1.532l2.664-2.105a.975.975 0 000-1.533v.002z" fill="#8AD377"/><path d="M22.5 9.34A13.16 13.16 0 1035.66 22.5 13.176 13.176 0 0022.5 9.34zm0 24.367A11.207 11.207 0 1133.707 22.5 11.22 11.22 0 0122.5 33.707z" fill="#8AD377"/><path d="M44.023 18.58h-3.87a17.831 17.831 0 00-2.4-5.79l2.738-2.735a.976.976 0 000-1.381L36.328 4.51a.976.976 0 00-1.38 0L32.21 7.246a17.822 17.822 0 00-5.79-2.4V.977A.975.975 0 0025.445 0h-5.887a.976.976 0 00-.977.977v3.87a17.822 17.822 0 00-5.79 2.4l-2.735-2.738a.977.977 0 00-1.38 0L4.51 8.67a.976.976 0 000 1.381l2.735 2.738a17.831 17.831 0 00-2.4 5.789H.977a.977.977 0 00-.976.976v5.888a.976.976 0 00.977.976h3.87a17.831 17.831 0 002.4 5.79L4.51 34.946a.975.975 0 000 1.381l4.163 4.163a.977.977 0 001.38 0l2.738-2.738a17.823 17.823 0 005.789 2.4v3.87a.976.976 0 00.976.977h5.888a.974.974 0 00.976-.977v-3.87a17.822 17.822 0 005.79-2.4l2.738 2.737a.976.976 0 001.38 0l4.164-4.162a.974.974 0 000-1.381l-2.738-2.737a17.83 17.83 0 002.4-5.79h3.87a.974.974 0 00.977-.976v-5.887a.977.977 0 00-.977-.977zm-.977 5.886H39.35a.977.977 0 00-.962.81 15.92 15.92 0 01-2.69 6.494.977.977 0 00.107 1.252l2.615 2.616-2.781 2.781-2.616-2.615a.977.977 0 00-1.253-.108 15.93 15.93 0 01-6.492 2.691.977.977 0 00-.81.962v3.697h-3.934V39.35a.976.976 0 00-.81-.962 15.93 15.93 0 01-6.493-2.69.977.977 0 00-1.252.107L9.362 38.42 6.58 35.638l2.615-2.616a.976.976 0 00.108-1.252 15.921 15.921 0 01-2.69-6.493.977.977 0 00-.962-.81H1.953v-3.934h3.698a.977.977 0 00.962-.81 15.921 15.921 0 012.69-6.493.976.976 0 00-.108-1.253L6.58 9.362 9.362 6.58l2.616 2.615a.976.976 0 001.252.108 15.93 15.93 0 016.493-2.69.977.977 0 00.81-.963V1.953h3.933V5.65a.977.977 0 00.81.962 15.93 15.93 0 016.493 2.691.976.976 0 001.253-.108l2.616-2.615 2.781 2.782-2.615 2.615a.977.977 0 00-.108 1.253 15.92 15.92 0 012.69 6.493.977.977 0 00.963.81h3.697v3.933z" fill="#8AD377"/><path d="M23.828 14.553l.61-.482a.978.978 0 00-.49-1.74.975.975 0 00-.722.208l-2.664 2.106a.978.978 0 000 1.532l2.663 2.105a.977.977 0 101.211-1.532l-.1-.08a6.112 6.112 0 012.485 10.152.977.977 0 101.382 1.381 8.06 8.06 0 00-4.375-13.65z" fill="#8AD377"/></svg>