<svg width="43" height="41" viewBox="0 0 43 41" fill="none" xmlns="http://www.w3.org/2000/svg"><path d="M32.948 6.112c.019.001.037.003.056.003a.697.697 0 00.097-.007 1.558 1.558 0 011.525 1.557.697.697 0 101.393 0 2.957 2.957 0 00-2.318-2.886v-.67a.697.697 0 10-1.393 0v.702a2.954 2.954 0 00.762 5.807c.86 0 1.556.699 1.556 1.56a1.557 1.557 0 11-3.112-.001.697.697 0 10-1.394 0 2.958 2.958 0 002.188 2.854v.764a.697.697 0 101.393 0v-.732a2.953 2.953 0 002.301-3.203 2.95 2.95 0 00-2.932-2.636 1.557 1.557 0 01-.122-3.112z" fill="#8AD377"/><path d="M33.11 0c-4.286 0-7.944 2.8-9.314 6.55H6.505c-.383 0-.694.347-.697.73l-.164 24.475H.715c-.385 0-.715.28-.715.665v3.106a5.477 5.477 0 005.225 5.459V41h21.51v-.02c.174.006.245.02.356.02h.015a5.476 5.476 0 005.463-5.48V19.816c.174.01.359.015.539.015 5.454 0 9.892-4.454 9.892-9.916C43 4.453 38.564 0 33.11 0zM5.486 39.605a4.1 4.1 0 01-4.093-4.086v-2.368h20.204v2.358a5.477 5.477 0 001.613 3.879c.073.073.164.13.24.217H5.486zm25.69-4.086a4.082 4.082 0 01-4.071 4.086h-.013a4.112 4.112 0 01-4.102-4.095v-3.09a.645.645 0 00-.665-.665H7.037l.16-23.809h16.212a10.497 10.497 0 00-.19 1.938 9.853 9.853 0 00.84 3.993h-6.58a.697.697 0 000 1.395h7.336a9.832 9.832 0 006.36 4.37v15.877zm1.934-17.083c-4.693 0-8.498-3.81-8.498-8.51 0-4.701 3.805-8.511 8.498-8.511s8.497 3.81 8.497 8.51c-.005 4.698-3.806 8.506-8.497 8.51z" fill="#8AD377"/><path d="M13.007 18.52c-1.23 0-2.23.97-2.23 2.162 0 1.193 1 2.163 2.23 2.163s2.23-.97 2.23-2.163c0-1.192-1-2.162-2.23-2.162zm0 2.93c-.461 0-.836-.345-.836-.768 0-.423.375-.766.836-.766.462 0 .837.344.837.766 0 .423-.375.767-.837.767zm3.775-.77c0 .385.312.697.697.697h9.288a.697.697 0 000-1.395H17.48a.697.697 0 00-.697.697zm-3.775-8.225c-1.23 0-2.23.97-2.23 2.163 0 1.192 1 2.162 2.23 2.162s2.23-.97 2.23-2.162c0-1.193-1-2.163-2.23-2.163zm0 2.93c-.461 0-.836-.345-.836-.767 0-.423.375-.768.836-.768.462 0 .837.345.837.768 0 .422-.375.767-.837.767zm0 9.199c-1.23 0-2.23.97-2.23 2.163 0 1.192 1 2.162 2.23 2.162s2.23-.97 2.23-2.162c0-1.193-1-2.163-2.23-2.163zm0 2.93c-.461 0-.836-.344-.836-.767 0-.423.375-.767.836-.767.462 0 .837.344.837.767 0 .423-.375.767-.837.767zm13.76-1.427H17.48a.697.697 0 000 1.395h9.288a.697.697 0 000-1.395z" fill="#8AD377"/></svg>