<svg width="25" height="21" viewBox="0 0 25 21" fill="none" xmlns="http://www.w3.org/2000/svg"><path d="M12.992 12.027c0 2.305-.52 4.082-1.558 5.332-1.032 1.25-2.489 1.875-4.371 1.875-1.899 0-3.368-.629-4.407-1.886-1.039-1.258-1.558-3.032-1.558-5.32V8.91c0-2.305.515-4.082 1.547-5.332 1.039-1.25 2.503-1.875 4.394-1.875 1.89 0 3.356.629 4.395 1.887 1.039 1.258 1.558 3.035 1.558 5.332v3.105zm-3.949-3.62c0-1.227-.16-2.141-.48-2.743-.32-.61-.829-.914-1.524-.914-.68 0-1.176.281-1.488.844-.305.562-.469 1.414-.492 2.554v4.36c0 1.273.16 2.207.48 2.8.32.587.828.88 1.524.88.671 0 1.167-.286 1.488-.856.32-.578.484-1.48.492-2.707V8.406zM23.797 19h-3.961V6.39l-3.89 1.137v-3l7.488-2.59h.363V19z" fill="#fff"/><path d="M11.434 17.36l-.77-.64-.002.003.772.636zM2.644 3.577l-.768-.64-.003.004.772.636zm5.918 2.086l-.885.465.003.005.883-.47zm-3.011-.07l-.874-.486-.006.01.88.476zm-.492 2.554l-1-.02v.02h1zm.48 7.16l-.88.475.003.005.877-.48zm3.012.024l.872.49.002-.005-.874-.485zm.492-2.707l1 .006v-.006h-1zm2.95-.598c0 2.168-.49 3.685-1.328 4.693L12.203 18c1.24-1.492 1.79-3.53 1.79-5.972h-2zm-1.33 4.696c-.81.981-1.962 1.511-3.6 1.511v2c2.127 0 3.889-.72 5.142-2.238l-1.543-1.273zm-3.6 1.511c-1.655 0-2.819-.534-3.636-1.523l-1.542 1.274c1.261 1.526 3.035 2.25 5.178 2.25v-2zM3.427 16.71c-.841-1.019-1.33-2.535-1.33-4.684h-2c0 2.43.551 4.46 1.788 5.958l1.542-1.274zm-1.33-4.684V8.91h-2v3.117h2zm0-3.117c0-2.169.487-3.687 1.319-4.695L1.873 2.942C.643 4.433.098 6.469.098 8.91h2zm1.317-4.693c.817-.983 1.978-1.514 3.625-1.514v-2c-2.134 0-3.902.719-5.163 2.236l1.538 1.278zm3.625-1.514c1.645 0 2.806.534 3.624 1.524l1.542-1.274c-1.26-1.526-3.03-2.25-5.166-2.25v2zm3.624 1.524c.84 1.018 1.33 2.537 1.33 4.695h2c0-2.436-.551-4.471-1.788-5.969l-1.542 1.274zm1.33 4.695v3.105h2V8.922h-2zm-1.95-.516c0-1.279-.161-2.392-.598-3.212l-1.765.94c.204.383.363 1.098.363 2.272h2zM9.448 5.2a2.687 2.687 0 00-.992-1.078 2.718 2.718 0 00-1.417-.371v2c.198 0 .315.042.388.086a.7.7 0 01.25.293l1.77-.93zM7.039 3.75c-.48 0-.95.1-1.375.341a2.593 2.593 0 00-.987 1.017l1.748.971a.602.602 0 01.225-.248.772.772 0 01.39-.081v-2zM4.671 5.117c-.418.774-.588 1.817-.612 3.01l2 .042c.022-1.088.18-1.747.371-2.099l-1.759-.953zM4.06 8.148v4.36h2v-4.36h-2zm0 4.36c0 1.316.158 2.457.6 3.275l1.76-.95c-.199-.368-.36-1.095-.36-2.325h-2zm.603 3.28c.235.431.564.796.998 1.046.432.25.912.354 1.402.354v-2a.793.793 0 01-.402-.086.659.659 0 01-.243-.273l-1.755.96zm2.4 1.4c.48 0 .95-.104 1.375-.347.425-.245.75-.6.986-1.02l-1.744-.979a.655.655 0 01-.239.265.739.739 0 01-.378.08v2zm2.363-1.371c.445-.803.61-1.912.618-3.186l-2-.012c-.008 1.18-.171 1.875-.367 2.228l1.75.97zm.618-3.192V8.406h-2v4.219h2zM23.797 19v1h1v-1h-1zm-3.961 0h-1v1h1v-1zm0-12.61h1V5.058l-1.28.374.28.96zm-3.89 1.137h-1v1.334l1.28-.374-.28-.96zm0-3l-.328-.945-.673.233v.712h1zm7.488-2.59v-1h-.168l-.16.055.328.946zm.363 0h1v-1h-1v1zm0 16.063h-3.961v2h3.96v-2zm-2.961 1V6.39h-2V19h2zm-1.28-13.57l-3.891 1.137.56 1.92 3.891-1.136-.56-1.92zm-2.61 2.097v-3h-2v3h2zm-.674-2.055l7.489-2.59-.654-1.89-7.489 2.59.654 1.89zm7.162-2.535h.363v-2h-.363v2zm-.637-1V19h2V1.937h-2z" fill="#000" fill-opacity=".15"/></svg>