<svg width="31" height="21" viewBox="0 0 31 21" fill="none" xmlns="http://www.w3.org/2000/svg"><path d="M12.332 17.36l-.769-.64-.002.003.771.636zM3.543 3.577l-.769-.64-.002.004.771.636zm5.918 2.086l-.885.465.002.005.883-.47zm-3.012-.07l-.874-.486-.005.01.88.476zm-.492 2.554l-1-.02v.02h1zm.48 7.16l-.88.475.003.005.878-.48zm3.012.024l.872.49.003-.005-.875-.485zm.492-2.707l1 .006v-.006h-1zm2.95-.598c0 2.168-.49 3.685-1.328 4.693L13.101 18c1.24-1.492 1.79-3.53 1.79-5.972h-2zm-1.33 4.696c-.81.981-1.962 1.511-3.6 1.511v2c2.127 0 3.89-.72 5.142-2.238l-1.542-1.273zm-3.6 1.511c-1.655 0-2.818-.534-3.635-1.523l-1.542 1.274c1.26 1.526 3.035 2.25 5.177 2.25v-2zM4.326 16.71c-.842-1.019-1.33-2.535-1.33-4.684h-2c0 2.43.55 4.46 1.788 5.958l1.542-1.274zm-1.33-4.684V8.91h-2v3.117h2zm0-3.117c0-2.169.486-3.687 1.318-4.695L2.772 2.942C1.542 4.433.996 6.469.996 8.91h2zm1.316-4.693c.817-.983 1.978-1.514 3.625-1.514v-2c-2.133 0-3.902.719-5.163 2.236l1.538 1.278zm3.625-1.514c1.646 0 2.806.534 3.624 1.524l1.542-1.274c-1.26-1.526-3.03-2.25-5.165-2.25v2zm3.624 1.524c.84 1.018 1.33 2.537 1.33 4.695h2c0-2.436-.55-4.471-1.788-5.969l-1.542 1.274zm1.33 4.695v3.105h2V8.922h-2zm-1.95-.516c0-1.279-.16-2.392-.597-3.212l-1.766.94c.204.383.363 1.098.363 2.272h2zM10.346 5.2a2.688 2.688 0 00-.992-1.078 2.718 2.718 0 00-1.416-.371v2c.198 0 .314.042.387.086a.7.7 0 01.25.293l1.771-.93zM7.937 3.75c-.479 0-.95.1-1.375.341a2.593 2.593 0 00-.987 1.017l1.748.971a.602.602 0 01.226-.248.772.772 0 01.388-.081v-2zM5.57 5.117c-.419.774-.588 1.817-.613 3.01l2 .042c.022-1.088.181-1.747.372-2.099l-1.76-.953zm-.613 3.031v4.36h2v-4.36h-2zm0 4.36c0 1.316.159 2.457.6 3.275l1.76-.95c-.198-.368-.36-1.095-.36-2.325h-2zm.603 3.28c.236.431.565.796.999 1.046.432.25.912.354 1.402.354v-2a.797.797 0 01-.403-.086.659.659 0 01-.243-.273l-1.755.96zm2.4 1.4c.481 0 .951-.104 1.375-.347.426-.245.75-.6.986-1.02l-1.744-.979a.655.655 0 01-.238.265.739.739 0 01-.378.08v2zm2.364-1.371c.445-.803.61-1.912.617-3.186l-2-.012c-.007 1.18-.17 1.875-.367 2.228l1.75.97zm.617-3.192V8.406h-2v4.219h2zm9.81-3.809v-1h-1v1h1zm3.55-3.539l-.714.7.008.007.707-.707zm-2.859-.082l-.615-.788-.008.006.623.782zm-.574 1.137v1h1v-1h-1zm-3.95 0h-1v1h1v-1zm2.825-4.043l.405.915.003-.002-.408-.913zm8.355 6.363l-.822-.568-.002.002.824.566zm-1.957 1.582l-.427-.904-2.172 1.027 2.259.818.34-.94zm2.133 1.5l-.793.61.003.004.79-.614zm-8.719 6.868l-.41.911.009.004.401-.915zm-2.168-1.77l-.838.545.003.004.835-.549zm-.738-2.578v-1h-1v1h1zm3.973 0h1v-1h-1v1zm3.855 1.36l.68.734.007-.007-.687-.728zm-3.726-3.856h-1v1h1v-1zm0-1.942h1.863v-2h-1.863v2zm1.863 0c.887 0 1.737-.217 2.36-.827.628-.614.855-1.458.855-2.34h-2c0 .562-.143.802-.253.91-.115.113-.373.257-.962.257v2zm3.215-3.168c0-.79-.256-1.513-.82-2.078l-1.415 1.414c.14.14.235.33.235.664h2zm-.813-2.07c-.587-.6-1.37-.84-2.203-.84v2c.45 0 .659.12.774.239l1.43-1.399zm-2.203-.84c-.732 0-1.41.219-1.986.669l1.23 1.577c.205-.16.442-.246.756-.246v-2zm-1.994.675c-.599.477-.951 1.134-.951 1.919h2c0-.122.03-.222.197-.354l-1.246-1.565zm.049.919h-3.95v2h3.95v-2zm-2.95 1c0-.7.191-1.296.566-1.823l-1.63-1.159c-.626.88-.935 1.885-.935 2.982h2zm.566-1.823c.383-.54.925-.979 1.664-1.305l-.81-1.83c-1.027.455-1.868 1.11-2.484 1.976l1.63 1.16zm1.667-1.307c.751-.336 1.587-.51 2.522-.51v-2c-1.19 0-2.308.223-3.338.684l.816 1.826zm2.522-.51c1.754 0 2.999.4 3.852 1.082l1.248-1.563c-1.318-1.053-3.058-1.52-5.1-1.52v2zm3.852 1.082c.825.658 1.253 1.55 1.253 2.792h2c0-1.788-.658-3.28-2.005-4.355l-1.248 1.563zm1.253 2.792c0 .514-.154 1.014-.502 1.518l1.645 1.137c.558-.809.857-1.7.857-2.655h-2zm-.504 1.52c-.326.475-.827.898-1.56 1.244l.855 1.808c.986-.466 1.79-1.098 2.354-1.92l-1.649-1.132zm-1.473 3.089c.752.272 1.296.668 1.68 1.168l1.586-1.217c-.647-.844-1.525-1.448-2.585-1.832l-.681 1.88zm1.683 1.173c.357.46.564 1.057.564 1.859h2c0-1.167-.31-2.218-.984-3.086l-1.58 1.227zm.564 1.859c0 1.224-.451 2.149-1.373 2.868l1.23 1.577c1.422-1.11 2.143-2.622 2.143-4.445h-2zm-1.373 2.868c-.952.742-2.255 1.16-4.002 1.16v2c2.065 0 3.84-.497 5.232-1.583l-1.23-1.577zm-4.002 1.16c-.988 0-1.89-.186-2.715-.55l-.804 1.832a8.668 8.668 0 003.519.717v-2zm-2.706-.545c-.81-.365-1.372-.84-1.743-1.407l-1.672 1.098c.612.933 1.495 1.638 2.593 2.132l.822-1.823zm-1.74-1.403c-.38-.585-.578-1.253-.578-2.033h-2c0 1.141.296 2.192.9 3.123l1.677-1.09zm-1.578-1.033h3.973v-2h-3.973v2zm2.973-1c0 .832.35 1.546.96 2.1l1.345-1.481c-.234-.212-.305-.404-.305-.62h-2zm.96 2.1c.623.564 1.388.834 2.231.834v-2c-.391 0-.665-.114-.886-.315l-1.344 1.48zm2.231.834c.886 0 1.704-.25 2.343-.84L23.8 14.879c-.19.174-.48.309-.986.309v2zm2.35-.847c.627-.592.935-1.357.935-2.216h-2c0 .344-.105.57-.307.76l1.373 1.456zm.935-2.216c0-.996-.247-1.963-1.002-2.595l-1.284 1.534c.104.086.286.338.286 1.061h2zm-1.002-2.595c-.665-.556-1.514-.772-2.423-.772v2c.606 0 .944.143 1.14.306l1.283-1.534zm-2.423-.772H20.75v2h1.922v-2zm-.922 1V8.816h-2v2.942h2z" fill="#B7C1CB"/></svg>