<svg width="31" height="21" viewBox="0 0 31 21" fill="none" xmlns="http://www.w3.org/2000/svg"><path d="M12.332 17.36l-.769-.64-.002.003.771.636zM3.543 3.577l-.769-.64-.002.004.771.636zm5.918 2.086l-.885.465.002.005.883-.47zm-3.012-.07l-.874-.486-.005.01.88.476zm-.492 2.554l-1-.02v.02h1zm.48 7.16l-.88.475.003.005.878-.48zm3.012.024l.872.49.003-.005-.875-.485zm.492-2.707l1 .006v-.006h-1zm2.95-.598c0 2.168-.49 3.685-1.328 4.693L13.101 18c1.24-1.492 1.79-3.53 1.79-5.972h-2zm-1.33 4.696c-.81.981-1.962 1.511-3.6 1.511v2c2.127 0 3.89-.72 5.142-2.238l-1.542-1.273zm-3.6 1.511c-1.655 0-2.818-.534-3.635-1.523l-1.542 1.274c1.26 1.526 3.035 2.25 5.177 2.25v-2zM4.326 16.71c-.842-1.019-1.33-2.535-1.33-4.684h-2c0 2.43.55 4.46 1.788 5.958l1.542-1.274zm-1.33-4.684V8.91h-2v3.117h2zm0-3.117c0-2.169.486-3.687 1.318-4.695L2.772 2.942C1.542 4.433.996 6.469.996 8.91h2zm1.316-4.693c.817-.983 1.978-1.514 3.625-1.514v-2c-2.133 0-3.902.719-5.163 2.236l1.538 1.278zm3.625-1.514c1.646 0 2.806.534 3.624 1.524l1.542-1.274c-1.26-1.526-3.03-2.25-5.165-2.25v2zm3.624 1.524c.84 1.018 1.33 2.537 1.33 4.695h2c0-2.436-.55-4.471-1.788-5.969l-1.542 1.274zm1.33 4.695v3.105h2V8.922h-2zm-1.95-.516c0-1.279-.16-2.392-.597-3.212l-1.766.94c.204.383.363 1.098.363 2.272h2zM10.346 5.2a2.688 2.688 0 00-.992-1.078 2.718 2.718 0 00-1.416-.371v2c.198 0 .314.042.387.086a.7.7 0 01.25.293l1.771-.93zM7.937 3.75c-.479 0-.95.1-1.375.341a2.593 2.593 0 00-.987 1.017l1.748.971a.602.602 0 01.226-.248.772.772 0 01.388-.081v-2zM5.57 5.117c-.419.774-.588 1.817-.613 3.01l2 .042c.022-1.088.181-1.747.372-2.099l-1.76-.953zm-.613 3.031v4.36h2v-4.36h-2zm0 4.36c0 1.316.159 2.457.6 3.275l1.76-.95c-.198-.368-.36-1.095-.36-2.325h-2zm.603 3.28c.236.431.565.796.999 1.046.432.25.912.354 1.402.354v-2a.797.797 0 01-.403-.086.659.659 0 01-.243-.273l-1.755.96zm2.4 1.4c.481 0 .951-.104 1.375-.347.426-.245.75-.6.986-1.02l-1.744-.979a.655.655 0 01-.238.265.739.739 0 01-.378.08v2zm2.364-1.371c.445-.803.61-1.912.617-3.186l-2-.012c-.007 1.18-.17 1.875-.367 2.228l1.75.97zm.617-3.192V8.406h-2v4.219h2zm16.63-.293h-1v1h1v-1zm1.734 0h1v-1h-1v1zm0 3.047v1h1v-1h-1zm-1.734 0v-1h-1v1h1zm0 3.621v1h1v-1h-1zm-3.95 0h-1v1h1v-1zm0-3.621h1v-1h-1v1zm-6.597 0l-.995.097.088.903h.907v-1zm-.234-2.414l-.85-.528-.178.288.032.337.996-.097zm6.832-10.992l.85.528.15-.243v-.285h-1zm0-.036v-1h-1v1h1zm3.95 0h1v-1h-1v1zm-7.02 10.395l-.865-.503-.875 1.503h1.74v-1zm3.07 0v1h1v-1h-1zm0-5.25h1V3.56l-1.85 2.997.85.525zm-.246.398l-.851-.525-.007.011-.006.011.864.503zm4.195 5.852h1.734v-2h-1.734v2zm.734-1v3.047h2v-3.047h-2zm1 2.047h-1.734v2h1.734v-2zm-2.734 1V19h2v-3.621h-2zm1 2.621h-3.95v2h3.95v-2zm-2.95 1v-3.621h-2V19h2zm-1-4.621h-6.597v2h6.598v-2zm-5.601.903l-.235-2.414-1.99.194.234 2.414 1.99-.194zm-.38-1.79l6.83-10.99-1.698-1.056-6.832 10.992 1.698 1.056zm6.982-11.52v-.034h-2v.035h2zm-1 .966h3.95v-2h-3.95v2zm2.95-1v10.394h2V1.937h-2zm-6.02 11.394h3.07v-2h-3.07v2zm4.07-1v-5.25h-2v5.25h2zm-1.85-5.775l-.247.398 1.702 1.051.246-.398-1.702-1.051zm-.26.42l-2.825 4.852 1.729 1.006 2.824-4.851-1.728-1.007z" fill="#B7C1CB"/></svg>