<svg width="31" height="21" viewBox="0 0 31 21" fill="none" xmlns="http://www.w3.org/2000/svg"><path d="M12.332 17.36l-.769-.64-.002.003.771.636zM3.543 3.577l-.769-.64-.002.004.771.636zm5.918 2.086l-.885.465.002.005.883-.47zm-3.012-.07l-.874-.486-.005.01.88.476zm-.492 2.554l-1-.02v.02h1zm.48 7.16l-.88.475.003.005.878-.48zm3.012.024l.872.49.003-.005-.875-.485zm.492-2.707l1 .006v-.006h-1zm2.95-.598c0 2.168-.49 3.685-1.328 4.693L13.101 18c1.24-1.492 1.79-3.53 1.79-5.972h-2zm-1.33 4.696c-.81.981-1.962 1.511-3.6 1.511v2c2.127 0 3.89-.72 5.142-2.238l-1.542-1.273zm-3.6 1.511c-1.655 0-2.818-.534-3.635-1.523l-1.542 1.274c1.26 1.526 3.035 2.25 5.177 2.25v-2zM4.326 16.71c-.842-1.019-1.33-2.535-1.33-4.684h-2c0 2.43.55 4.46 1.788 5.958l1.542-1.274zm-1.33-4.684V8.91h-2v3.117h2zm0-3.117c0-2.169.486-3.687 1.318-4.695L2.772 2.942C1.542 4.433.996 6.469.996 8.91h2zm1.316-4.693c.817-.983 1.978-1.514 3.625-1.514v-2c-2.133 0-3.902.719-5.163 2.236l1.538 1.278zm3.625-1.514c1.646 0 2.806.534 3.624 1.524l1.542-1.274c-1.26-1.526-3.03-2.25-5.165-2.25v2zm3.624 1.524c.84 1.018 1.33 2.537 1.33 4.695h2c0-2.436-.55-4.471-1.788-5.969l-1.542 1.274zm1.33 4.695v3.105h2V8.922h-2zm-1.95-.516c0-1.279-.16-2.392-.597-3.212l-1.766.94c.204.383.363 1.098.363 2.272h2zM10.346 5.2a2.688 2.688 0 00-.992-1.078 2.718 2.718 0 00-1.416-.371v2c.198 0 .314.042.387.086a.7.7 0 01.25.293l1.771-.93zM7.937 3.75c-.479 0-.95.1-1.375.341a2.593 2.593 0 00-.987 1.017l1.748.971a.602.602 0 01.226-.248.772.772 0 01.388-.081v-2zM5.57 5.117c-.419.774-.588 1.817-.613 3.01l2 .042c.022-1.088.181-1.747.372-2.099l-1.76-.953zm-.613 3.031v4.36h2v-4.36h-2zm0 4.36c0 1.316.159 2.457.6 3.275l1.76-.95c-.198-.368-.36-1.095-.36-2.325h-2zm.603 3.28c.236.431.565.796.999 1.046.432.25.912.354 1.402.354v-2a.797.797 0 01-.403-.086.659.659 0 01-.243-.273l-1.755.96zm2.4 1.4c.481 0 .951-.104 1.375-.347.426-.245.75-.6.986-1.02l-1.744-.979a.655.655 0 01-.238.265.739.739 0 01-.378.08v2zm2.364-1.371c.445-.803.61-1.912.617-3.186l-2-.012c-.007 1.18-.17 1.875-.367 2.228l1.75.97zm.617-3.192V8.406h-2v4.219h2zM29.048 19v1h1v-1h-1zM17.14 19h-1v1h1v-1zm0-2.578l-.724-.69-.276.29v.4h1zm5.485-5.766l.724.69.014-.015.013-.015-.751-.66zm-1.313-5.144l.805.594.004-.006-.809-.588zm-.562 1.91v1h1v-1h-1zm-3.961 0h-1v1h1v-1zm.785-2.895l.86.51.002-.003-.862-.507zm9.55-1.558l-.65.759.002.002.649-.761zm1.126 5.636l.93.368.001-.004-.931-.364zm-1.172 2.004l-.798-.602h-.001l.799.602zm-2.543 2.801l-.707-.707-.026.025-.023.027.756.655zm-2.203 2.543l-.756-.655-1.434 1.655h2.19v-1zm6.715 0h1v-1h-1v1zm0 2.047H17.14v2h11.907v-2zM18.14 19v-2.578h-2V19h2zm-.275-1.889l5.484-5.766L21.9 9.967l-5.484 5.766 1.449 1.378zm5.511-5.795c.704-.8 1.26-1.551 1.645-2.247.379-.687.631-1.39.631-2.08h-2c0 .216-.085.576-.382 1.112-.291.527-.748 1.157-1.397 1.895l1.503 1.32zm2.276-4.328c0-.861-.186-1.686-.713-2.317l-1.534 1.283c.113.135.247.427.247 1.034h2zm-.713-2.317c-.552-.66-1.328-.933-2.162-.933v2c.385 0 .54.11.628.216l1.534-1.283zm-2.162-.933c-.943 0-1.723.43-2.273 1.186L22.122 6.1c.2-.275.396-.362.656-.362v-2zm-2.27 1.18c-.526.714-.757 1.571-.757 2.504h2c0-.598.144-1.014.367-1.316l-1.61-1.188zm.243 1.504h-3.96v2h3.96v-2zm-2.961 1c0-.871.215-1.66.645-2.385l-1.72-1.02a6.573 6.573 0 00-.925 3.405h2zm.647-2.388a4.495 4.495 0 011.791-1.712l-.947-1.761a6.493 6.493 0 00-2.568 2.46l1.724 1.013zm1.791-1.712c.772-.415 1.646-.63 2.644-.63v-2c-1.299 0-2.503.284-3.591.869l.947 1.761zm2.644-.63c1.702 0 2.854.393 3.602 1.036l1.303-1.518C26.541 1.15 24.857.69 22.872.69v2zm3.605 1.038c.73.621 1.149 1.538 1.149 2.907h2c0-1.819-.581-3.348-1.852-4.43L26.477 3.73zm1.149 2.907c0 .544-.1 1.077-.307 1.605l1.863.727a6.372 6.372 0 00.444-2.332h-2zm-.305 1.601c-.209.528-.548 1.118-1.04 1.769l1.596 1.205c.57-.755 1.013-1.502 1.304-2.24l-1.86-.734zm-1.041 1.77c-.48.638-1.289 1.532-2.451 2.695l1.414 1.414c1.181-1.18 2.069-2.154 2.635-2.906l-1.598-1.203zm-2.5 2.747l-2.203 2.543 1.512 1.31 2.203-2.543-1.512-1.31zm-1.447 4.198h6.715v-2h-6.715v2zm5.715-1V19h2v-3.047h-2z" fill="#B7C1CB"/></svg>