<svg width="16" height="18" viewBox="0 0 16 18" fill="none" xmlns="http://www.w3.org/2000/svg">
<path d="M14.2222 1.80001H13.3333V0H11.5556V1.80001H4.44445V0H2.66666V1.80001H1.77779C0.795581 1.80001 0.00891667 2.6055 0.00891667 3.60003L0 16.2C0 17.1945 0.79554 18 1.77779 18H14.2222C15.2044 18 16 17.1945 16 16.2V3.59998C16 2.6055 15.2044 1.80001 14.2222 1.80001ZM14.2222 16.2H1.77779V6.29998H14.2222V16.2Z" fill="#75B7F3"/>
<path d="M12.0266 9.05398L11.0844 8.09999L6.74665 12.492L4.86224 10.584L3.91999 11.538L6.74665 14.4L12.0266 9.05398Z" fill="#75B7F3"/>
</svg>
