<svg width="30" height="39" viewBox="0 0 30 39" fill="none" xmlns="http://www.w3.org/2000/svg">
<path d="M29.6182 8.54494L15.1386 0.986393C14.9238 0.874079 14.6663 0.875655 14.4531 0.990334L0.37411 8.54888C0.143208 8.67301 0 8.91025 0 9.16838V19.0418C0.00844767 27.1579 4.91693 34.5005 12.5077 37.7521L14.462 38.5864C14.6446 38.6644 14.8526 38.6648 15.0356 38.5872L17.2376 37.6556C24.9692 34.4745 29.9992 27.061 30 18.8459V9.16838C30 8.90749 29.8532 8.6675 29.6182 8.54494ZM28.5583 18.8459C28.5567 26.4947 23.8722 33.3963 16.6732 36.3563L16.6684 36.3586L14.7508 37.1697L13.0846 36.4576C6.01875 33.431 1.44937 26.5968 1.44133 19.0418V9.5865L14.8043 2.4118L28.5583 9.59162V18.8459Z" fill="#8AD377"/>
<path d="M9.4859 18.5838C9.22724 18.2871 8.77228 18.252 8.46937 18.5054C8.16646 18.7584 8.13066 19.2045 8.38932 19.5009L12.1972 23.8693C12.4514 24.1609 12.8967 24.2007 13.2 23.9588L22.0685 16.8905C22.3774 16.6446 22.4241 16.1996 22.1727 15.897C21.9216 15.5947 21.4675 15.5486 21.1585 15.7949L12.8364 22.4274L9.4859 18.5838Z" fill="#8AD377"/>
</svg>
