<svg width="16" height="11" viewBox="0 0 16 11" fill="none" xmlns="http://www.w3.org/2000/svg">
<path d="M10.606 5.582L16 8.992V2.028L10.606 5.582Z" fill="#D2D6DF"/>
<path d="M0 2.028V8.992L5.394 5.582L0 2.028Z" fill="#D2D6DF"/>
<path d="M15 0H1C0.501 0 0.105 0.372 0.03 0.851L8 6.102L15.97 0.851C15.895 0.372 15.499 0 15 0Z" fill="#D2D6DF"/>
<path d="M9.69 6.186L8.275 7.118C8.191 7.173 8.096 7.2 8 7.2C7.904 7.2 7.809 7.173 7.725 7.118L6.31 6.185L0.032 10.156C0.109 10.631 0.503 11 1 11H15C15.497 11 15.891 10.631 15.968 10.156L9.69 6.186Z" fill="#D2D6DF"/>
</svg>
