<svg width="20" height="22" viewBox="0 0 20 22" fill="none" xmlns="http://www.w3.org/2000/svg">
<path d="M9.92047 11.8542C9.94325 11.8542 9.96603 11.8542 9.99336 11.8542C10.0025 11.8542 10.0116 11.8542 10.0207 11.8542C10.0344 11.8542 10.0526 11.8542 10.0663 11.8542C11.4011 11.8314 12.4808 11.3622 13.2781 10.4647C15.0321 8.48747 14.7405 5.09795 14.7086 4.77449C14.5947 2.34624 13.4467 1.18451 12.4991 0.642369C11.7929 0.236902 10.9683 0.0182232 10.048 0H10.0161C10.0116 0 10.0025 0 9.99792 0H9.97058C9.46489 0 8.47172 0.0820046 7.51956 0.624146C6.56284 1.16629 5.39655 2.32802 5.28266 4.77449C5.25076 5.09795 4.95919 8.48747 6.71318 10.4647C7.50589 11.3622 8.58562 11.8314 9.92047 11.8542ZM6.49906 4.88838C6.49906 4.87472 6.50361 4.86105 6.50361 4.85194C6.65395 1.58542 8.97286 1.23462 9.96603 1.23462H9.98425C9.99336 1.23462 10.007 1.23462 10.0207 1.23462C11.2508 1.26196 13.3419 1.7631 13.4831 4.85194C13.4831 4.8656 13.4831 4.87927 13.4877 4.88838C13.4922 4.92027 13.8111 8.01822 12.3624 9.6492C11.7884 10.2961 11.023 10.615 10.0161 10.6241C10.007 10.6241 10.0025 10.6241 9.99336 10.6241C9.98425 10.6241 9.97969 10.6241 9.97058 10.6241C8.9683 10.615 8.19837 10.2961 7.6289 9.6492C6.18471 8.02734 6.4945 4.91572 6.49906 4.88838Z" fill="white"/>
<path d="M19.3555 17.4761C19.3555 17.4715 19.3555 17.467 19.3555 17.4624C19.3555 17.426 19.3509 17.3895 19.3509 17.3485C19.3236 16.4465 19.2644 14.3371 17.2872 13.6629C17.2735 13.6583 17.2553 13.6538 17.2416 13.6492C15.1869 13.1253 13.4785 11.9408 13.4603 11.9271C13.1824 11.7312 12.7997 11.7995 12.6038 12.0774C12.4079 12.3554 12.4762 12.738 12.7541 12.9339C12.8316 12.9886 14.6448 14.2506 16.9136 14.8337C17.9751 15.2118 18.0935 16.3462 18.1254 17.385C18.1254 17.426 18.1254 17.4624 18.13 17.4989C18.1345 17.9089 18.1072 18.5421 18.0343 18.9066C17.2963 19.3257 14.4033 20.7745 10.0024 20.7745C5.61974 20.7745 2.70858 19.3212 1.96598 18.9021C1.89309 18.5376 1.8612 17.9043 1.87031 17.4943C1.87031 17.4579 1.87486 17.4214 1.87486 17.3804C1.90675 16.3417 2.0252 15.2073 3.08671 14.8292C5.3555 14.246 7.16871 12.9795 7.24616 12.9294C7.52406 12.7335 7.5924 12.3508 7.3965 12.0729C7.2006 11.795 6.81791 11.7267 6.54001 11.9226C6.52179 11.9362 4.82247 13.1207 2.75869 13.6446C2.74047 13.6492 2.7268 13.6538 2.71313 13.6583C0.735911 14.3371 0.676685 16.4465 0.649351 17.344C0.649351 17.385 0.64935 17.4214 0.644795 17.4579C0.644795 17.4624 0.644795 17.467 0.644795 17.4715C0.640239 17.7084 0.635683 18.9248 0.877141 19.5353C0.922699 19.6538 1.0047 19.754 1.11404 19.8223C1.25072 19.9134 4.52634 22 10.007 22C15.4876 22 18.7632 19.9089 18.8999 19.8223C19.0047 19.754 19.0913 19.6538 19.1368 19.5353C19.3646 18.9294 19.3601 17.713 19.3555 17.4761Z" fill="white"/>
</svg>
