<svg width="21" height="15" viewBox="0 0 21 15" fill="none" xmlns="http://www.w3.org/2000/svg">
<path d="M20.1998 2.2596C19.962 1.37606 19.2654 0.67961 18.382 0.441691C16.7681 0 10.3122 0 10.3122 0C10.3122 0 3.85642 0 2.24245 0.424855C1.37606 0.662616 0.662459 1.37621 0.424697 2.2596C0 3.87341 0 7.22032 0 7.22032C0 7.22032 0 10.5841 0.424697 12.1811C0.662616 13.0644 1.35906 13.761 2.2426 13.999C3.87342 14.4406 10.3123 14.4406 10.3123 14.4406C10.3123 14.4406 16.7681 14.4406 18.382 14.0158C19.2656 13.778 19.962 13.0814 20.2 12.198C20.6246 10.5841 20.6246 7.23732 20.6246 7.23732C20.6246 7.23732 20.6416 3.87341 20.1998 2.2596Z" fill="white"/>
<path d="M8.25586 10.3127L13.6243 7.22068L8.25586 4.12866V10.3127Z" fill="#FF0000"/>
</svg>
