<svg width="34" height="34" viewBox="0 0 34 34" fill="none" xmlns="http://www.w3.org/2000/svg"><path d="M30.91 0H3.09A3.094 3.094 0 000 3.09v27.82A3.095 3.095 0 003.09 34h27.82A3.094 3.094 0 0034 30.91V3.09A3.095 3.095 0 0030.91 0zm1.545 30.91c0 .851-.693 1.545-1.546 1.545H3.091a1.547 1.547 0 01-1.546-1.546V3.091c0-.852.693-1.546 1.546-1.546h27.818c.853 0 1.546.694 1.546 1.546v27.818z" fill="#fff"/><path d="M26.484 9.515l-12.561 13.3L7.53 15.71a.774.774 0 00-1.15 1.034l6.954 7.727c.145.161.35.253.566.256h.01a.771.771 0 00.56-.242l13.137-13.909a.773.773 0 00-1.123-1.061z" fill="#fff"/></svg>