<svg width="38" height="38" viewBox="0 0 38 38" fill="none" xmlns="http://www.w3.org/2000/svg"><path d="M30.048 23.54c-.78-.81-1.719-1.243-2.715-1.243-.988 0-1.935.425-2.747 1.235l-2.538 2.526c-.208-.112-.417-.217-.618-.32a10.4 10.4 0 01-.795-.426c-2.378-1.508-4.538-3.473-6.61-6.015-1.005-1.267-1.68-2.334-2.17-3.417.66-.601 1.27-1.227 1.864-1.828.225-.225.45-.457.675-.682 1.687-1.684 1.687-3.866 0-5.55l-2.193-2.19a33.506 33.506 0 01-.747-.761 37.89 37.89 0 00-1.51-1.492c-.779-.77-1.71-1.179-2.69-1.179s-1.928.409-2.731 1.179l-.016.016-2.731 2.75a5.864 5.864 0 00-1.743 3.73c-.193 2.342.498 4.524 1.028 5.951 1.301 3.505 3.245 6.753 6.144 10.234 3.518 4.195 7.751 7.507 12.586 9.84 1.848.875 4.314 1.91 7.068 2.086.169.008.346.016.506.016 1.856 0 3.414-.666 4.635-1.989.008-.016.024-.024.032-.04.418-.505.9-.962 1.406-1.452.345-.329.698-.673 1.044-1.034.795-.826 1.212-1.789 1.212-2.775 0-.995-.425-1.95-1.236-2.751l-4.41-4.42zm2.875 8.445c-.008.008-.008 0 0 0-.313.337-.634.642-.98.978a21.126 21.126 0 00-1.55 1.604c-.81.867-1.767 1.276-3.02 1.276-.12 0-.249 0-.369-.008-2.386-.153-4.602-1.083-6.265-1.877-4.546-2.198-8.538-5.317-11.855-9.271-2.739-3.297-4.57-6.344-5.783-9.617-.747-1.997-1.02-3.553-.9-5.02A3.68 3.68 0 013.31 7.668l2.739-2.735c.393-.37.811-.57 1.22-.57.507 0 .916.305 1.173.562l.024.024c.49.457.956.93 1.446 1.436.25.256.506.513.763.777l2.193 2.19c.851.85.851 1.636 0 2.486-.233.233-.458.465-.69.69a41.921 41.921 0 01-2.017 1.957c-.016.016-.032.024-.04.04-.69.69-.562 1.363-.418 1.82l.024.073c.57 1.38 1.374 2.678 2.595 4.226l.008.008c2.217 2.727 4.554 4.853 7.132 6.48.33.21.667.378.988.538.29.144.562.28.795.425.032.016.064.04.096.056.274.137.53.2.796.2.666 0 1.084-.416 1.22-.553l2.747-2.742c.274-.273.707-.602 1.213-.602.498 0 .908.313 1.157.585l.016.016 4.425 4.42c.828.818.828 1.66.008 2.51zM20.538 9.04a10.19 10.19 0 015.542 2.87 10.218 10.218 0 012.876 5.534c.088.53.546.899 1.068.899.064 0 .12-.008.185-.017.594-.096.988-.657.891-1.25a12.364 12.364 0 00-3.478-6.697 12.394 12.394 0 00-6.706-3.473 1.09 1.09 0 00-1.253.882 1.071 1.071 0 00.875 1.251zm17.445 7.723c-.714-4.187-2.69-7.997-5.726-11.028A20.39 20.39 0 0021.213.017a1.08 1.08 0 10-.353 2.133c3.742.633 7.156 2.406 9.87 5.109a18.156 18.156 0 015.117 9.857c.088.529.546.898 1.068.898.065 0 .12-.008.185-.016.586-.088.988-.65.883-1.235z" fill="#fff"/></svg>