<svg width="40" height="50" viewBox="0 0 40 50" fill="none" xmlns="http://www.w3.org/2000/svg">
<path d="M39.7556 48.5775L37.4998 46.3217V17.155L33.3332 12.9883V0H0V43.3333H4.16665V47.5H36.3215L38.5773 49.7558C38.7398 49.9183 38.9531 50 39.1665 50C39.3798 50 39.5931 49.9183 39.7556 49.7558C40.0815 49.43 40.0815 48.9033 39.7556 48.5775ZM34.6548 16.6667H24.9999V7.01167L34.6548 16.6667ZM1.66666 41.6667V1.66667H31.6665V11.3217L24.5115 4.16667H4.16665V41.6667H1.66666ZM5.8333 45.8333V5.83333H23.3332V18.3333H35.8331V44.655L29.5715 38.3933C31.0215 36.6767 31.9007 34.4625 31.9007 32.0442C31.9007 26.6092 27.479 22.1875 22.0441 22.1875C16.6091 22.1875 12.1874 26.6092 12.1874 32.0442C12.1874 37.4792 16.6091 41.9008 22.0441 41.9008C24.4624 41.9008 26.6765 41.0217 28.3932 39.5717L34.6548 45.8333H5.8333ZM22.0441 40.2342C17.5282 40.2342 13.8541 36.56 13.8541 32.0442C13.8541 27.5283 17.5282 23.8542 22.0441 23.8542C26.5599 23.8542 30.234 27.5283 30.234 32.0442C30.234 36.56 26.5599 40.2342 22.0441 40.2342Z" fill="#6F7A87"/>
<path d="M17.1874 30H22.1874C22.6482 30 23.0207 29.6275 23.0207 29.1667C23.0207 28.7058 22.6482 28.3333 22.1874 28.3333H17.1874C16.7266 28.3333 16.3541 28.7058 16.3541 29.1667C16.3541 29.6275 16.7266 30 17.1874 30Z" fill="#6F7A87"/>
<path d="M27.1874 33.3333H17.1874C16.7266 33.3333 16.3541 33.7058 16.3541 34.1667C16.3541 34.6275 16.7266 35 17.1874 35H27.1874C27.6482 35 28.0207 34.6275 28.0207 34.1667C28.0207 33.7058 27.6482 33.3333 27.1874 33.3333Z" fill="#6F7A87"/>
</svg>
