<svg width="38" height="38" viewBox="0 0 38 38" fill="none" xmlns="http://www.w3.org/2000/svg">
<path d="M30.048 23.5396C29.2689 22.7296 28.3292 22.2965 27.3333 22.2965C26.3453 22.2965 25.3976 22.7216 24.5864 23.5316L22.0483 26.058C21.8395 25.9457 21.6307 25.8414 21.4299 25.7372C21.1407 25.5928 20.8676 25.4565 20.6347 25.3121C18.2573 23.8043 16.0967 21.8394 14.0245 19.297C13.0205 18.0298 12.3459 16.9631 11.8559 15.8804C12.5145 15.2789 13.1249 14.6533 13.7193 14.0518C13.9442 13.8272 14.1691 13.5946 14.394 13.3701C16.0807 11.6858 16.0807 9.50436 14.394 7.82013L12.2013 5.63062C11.9523 5.382 11.6953 5.12535 11.4543 4.86871C10.9724 4.37146 10.4664 3.85816 9.94433 3.37695C9.16525 2.60702 8.23355 2.19799 7.25367 2.19799C6.27379 2.19799 5.32603 2.60702 4.52285 3.37695C4.51481 3.38497 4.51481 3.38498 4.50678 3.393L1.77596 6.14391C0.747883 7.17049 0.161559 8.42164 0.0330498 9.87329C-0.159714 12.2152 0.531024 14.3967 1.06112 15.8242C2.36228 19.3291 4.30599 22.5772 7.20548 26.058C10.7234 30.2525 14.9562 33.5648 19.7914 35.8987C21.6387 36.7729 24.1045 37.8075 26.8594 37.984C27.028 37.992 27.2047 38 27.3654 38C29.2207 38 30.7789 37.3343 31.9998 36.011C32.0078 35.995 32.0238 35.9869 32.0319 35.9709C32.4495 35.4656 32.9314 35.0085 33.4375 34.5192C33.7828 34.1904 34.1362 33.8456 34.4816 33.4846C35.2767 32.6586 35.6944 31.6962 35.6944 30.7097C35.6944 29.7152 35.2687 28.7608 34.4575 27.9588L30.048 23.5396ZM32.9234 31.9849C32.9154 31.9929 32.9154 31.9849 32.9234 31.9849C32.6102 32.3217 32.2889 32.6265 31.9435 32.9633C31.4215 33.4606 30.8914 33.9819 30.3934 34.5674C29.5822 35.4335 28.6264 35.8426 27.3734 35.8426C27.2529 35.8426 27.1244 35.8426 27.004 35.8346C24.6185 35.6822 22.4017 34.7518 20.7391 33.9578C16.1931 31.7603 12.2013 28.6405 8.88413 24.6865C6.14528 21.3902 4.31402 18.3426 3.10121 15.0704C2.35425 13.0733 2.08117 11.5174 2.20165 10.0497C2.28196 9.11137 2.6434 8.33342 3.31004 7.66774L6.04889 4.93287C6.44245 4.56394 6.86011 4.36343 7.26973 4.36343C7.77574 4.36343 8.18536 4.6682 8.44238 4.92485C8.45041 4.93287 8.45844 4.94089 8.46648 4.94891C8.95642 5.40606 9.42226 5.87925 9.91221 6.38452C10.1612 6.64116 10.4182 6.89781 10.6752 7.16247L12.8679 9.35198C13.7193 10.2021 13.7193 10.9881 12.8679 11.8382C12.635 12.0708 12.4101 12.3034 12.1772 12.528C11.5025 13.2177 10.86 13.8593 10.1612 14.4849C10.1451 14.5009 10.1291 14.5089 10.121 14.525C9.4303 15.2147 9.55881 15.8884 9.70338 16.3456C9.71141 16.3696 9.71944 16.3937 9.72747 16.4177C10.2977 17.7972 11.1009 19.0965 12.3218 20.6444L12.3298 20.6524C14.5466 23.3792 16.8838 25.5046 19.4621 27.1327C19.7914 27.3412 20.1287 27.5096 20.45 27.67C20.7391 27.8144 21.0122 27.9507 21.2451 28.0951C21.2773 28.1111 21.3094 28.1352 21.3415 28.1512C21.6146 28.2876 21.8716 28.3517 22.1367 28.3517C22.8033 28.3517 23.221 27.9347 23.3575 27.7984L26.1044 25.0555C26.3775 24.7828 26.8112 24.4539 27.3172 24.4539C27.8152 24.4539 28.2248 24.7667 28.4738 25.0394C28.4818 25.0474 28.4818 25.0474 28.4898 25.0555L32.9154 29.4746C33.7427 30.2926 33.7427 31.1347 32.9234 31.9849Z" fill="white"/>
<path d="M20.5383 9.03919C22.6427 9.39208 24.5542 10.3866 26.0803 11.9104C27.6063 13.4342 28.5943 15.343 28.9557 17.4443C29.044 17.9737 29.5019 18.3426 30.0239 18.3426C30.0882 18.3426 30.1444 18.3346 30.2087 18.3265C30.803 18.2303 31.1966 17.6689 31.1002 17.0754C30.6665 14.533 29.4617 12.2152 27.6224 10.3786C25.7831 8.54194 23.4619 7.33892 20.9158 6.90583C20.3215 6.80959 19.7673 7.20257 19.6629 7.78805C19.5584 8.37352 19.944 8.94295 20.5383 9.03919Z" fill="white"/>
<path d="M37.9835 16.7626C37.2686 12.5761 35.2928 8.7665 32.2568 5.73488C29.2207 2.70326 25.4056 0.730301 21.213 0.0165067C20.6267 -0.0877554 20.0725 0.313253 19.9681 0.898725C19.8717 1.49222 20.2652 2.04561 20.8596 2.14987C24.6024 2.78346 28.016 4.55592 30.7307 7.25871C33.4455 9.96953 35.2125 13.3781 35.847 17.1155C35.9354 17.6448 36.3932 18.0138 36.9152 18.0138C36.9795 18.0138 37.0357 18.0057 37.1 17.9977C37.6863 17.9095 38.0879 17.3481 37.9835 16.7626Z" fill="white"/>
</svg>
