<svg width="28" height="21" viewBox="0 0 28 21" fill="none" xmlns="http://www.w3.org/2000/svg">
<path d="M12.9922 12.0273C12.9922 14.332 12.4727 16.1094 11.4336 17.3594C10.4023 18.6094 8.94531 19.2344 7.0625 19.2344C5.16406 19.2344 3.69531 18.6055 2.65625 17.3477C1.61719 16.0898 1.09766 14.3164 1.09766 12.0273V8.91016C1.09766 6.60547 1.61328 4.82813 2.64453 3.57812C3.68359 2.32812 5.14844 1.70312 7.03906 1.70312C8.92969 1.70312 10.3945 2.33203 11.4336 3.58984C12.4727 4.84766 12.9922 6.625 12.9922 8.92188V12.0273ZM9.04297 8.40625C9.04297 7.17969 8.88281 6.26562 8.5625 5.66406C8.24219 5.05469 7.73438 4.75 7.03906 4.75C6.35938 4.75 5.86328 5.03125 5.55078 5.59375C5.24609 6.15625 5.08203 7.00781 5.05859 8.14844V12.5078C5.05859 13.7812 5.21875 14.7148 5.53906 15.3086C5.85938 15.8945 6.36719 16.1875 7.0625 16.1875C7.73438 16.1875 8.23047 15.9023 8.55078 15.332C8.87109 14.7539 9.03516 13.8516 9.04297 12.625V8.40625ZM18.6523 8.81641H20.5156C21.9922 8.81641 22.7305 8.09375 22.7305 6.64844C22.7305 6.08594 22.5547 5.62891 22.2031 5.27734C21.8516 4.91797 21.3555 4.73828 20.7148 4.73828C20.1914 4.73828 19.7344 4.89062 19.3438 5.19531C18.9609 5.5 18.7695 5.87891 18.7695 6.33203H14.8203C14.8203 5.43359 15.0703 4.63281 15.5703 3.92969C16.0703 3.22656 16.7617 2.67969 17.6445 2.28906C18.5352 1.89062 19.5117 1.69141 20.5742 1.69141C22.4727 1.69141 23.9648 2.125 25.0508 2.99219C26.1367 3.85938 26.6797 5.05078 26.6797 6.56641C26.6797 7.30078 26.4531 7.99609 26 8.65234C25.5547 9.30078 24.9023 9.82812 24.043 10.2344C24.9492 10.5625 25.6602 11.0625 26.1758 11.7344C26.6914 12.3984 26.9492 13.2227 26.9492 14.207C26.9492 15.7305 26.3633 16.9492 25.1914 17.8633C24.0195 18.7773 22.4805 19.2344 20.5742 19.2344C19.457 19.2344 18.418 19.0234 17.457 18.6016C16.5039 18.1719 15.7812 17.582 15.2891 16.832C14.7969 16.0742 14.5508 15.2148 14.5508 14.2539H18.5234C18.5234 14.7773 18.7344 15.2305 19.1562 15.6133C19.5781 15.9961 20.0977 16.1875 20.7148 16.1875C21.4102 16.1875 21.9648 15.9961 22.3789 15.6133C22.793 15.2227 23 14.7266 23 14.125C23 13.2656 22.7852 12.6562 22.3555 12.2969C21.9258 11.9375 21.332 11.7578 20.5742 11.7578H18.6523V8.81641Z" fill="white"/>
<path d="M11.4336 17.3594L10.6646 16.7201L10.6622 16.723L11.4336 17.3594ZM2.64453 3.57812L1.87552 2.93888L1.87316 2.94174L2.64453 3.57812ZM8.5625 5.66406L7.67732 6.12935L7.67983 6.13406L8.5625 5.66406ZM5.55078 5.59375L4.67657 5.10808L4.67149 5.11747L5.55078 5.59375ZM5.05859 8.14844L4.0588 8.12789L4.05859 8.13816V8.14844H5.05859ZM5.53906 15.3086L4.65895 15.7834L4.66161 15.7883L5.53906 15.3086ZM8.55078 15.332L9.42269 15.8217L9.4255 15.8167L8.55078 15.332ZM9.04297 12.625L10.043 12.6314V12.625H9.04297ZM11.9922 12.0273C11.9922 14.1945 11.5028 15.7118 10.6646 16.7201L12.2026 17.9986C13.4425 16.507 13.9922 14.4696 13.9922 12.0273H11.9922ZM10.6622 16.723C9.85279 17.7041 8.70075 18.2344 7.0625 18.2344V20.2344C9.18988 20.2344 10.9519 19.5146 12.205 17.9958L10.6622 16.723ZM7.0625 18.2344C5.4079 18.2344 4.24415 17.6997 3.42721 16.7108L1.88529 17.9845C3.14647 19.5112 4.92023 20.2344 7.0625 20.2344V18.2344ZM3.42721 16.7108C2.58598 15.6924 2.09766 14.1764 2.09766 12.0273H0.0976562C0.0976562 14.4564 0.648394 16.4872 1.88529 17.9845L3.42721 16.7108ZM2.09766 12.0273V8.91016H0.0976562V12.0273H2.09766ZM2.09766 8.91016C2.09766 6.74145 2.58389 5.22301 3.4159 4.21451L1.87316 2.94174C0.64267 4.43324 0.0976562 6.46949 0.0976562 8.91016H2.09766ZM3.41354 4.21736C4.23058 3.23445 5.39161 2.70312 7.03906 2.70312V0.703125C4.90526 0.703125 3.1366 1.4218 1.87552 2.93889L3.41354 4.21736ZM7.03906 2.70312C8.68433 2.70312 9.84485 3.23678 10.6626 4.22673L12.2046 2.95296C10.9442 1.42728 9.17505 0.703125 7.03906 0.703125V2.70312ZM10.6626 4.22673C11.5034 5.24452 11.9922 6.76402 11.9922 8.92188H13.9922C13.9922 6.48598 13.4419 4.45079 12.2046 2.95296L10.6626 4.22673ZM11.9922 8.92188V12.0273H13.9922V8.92188H11.9922ZM10.043 8.40625C10.043 7.12747 9.88191 6.01429 9.44517 5.19407L7.67983 6.13406C7.88372 6.51696 8.04297 7.23191 8.04297 8.40625H10.043ZM9.44766 5.19878C9.2163 4.75863 8.89103 4.3821 8.4559 4.12102C8.02133 3.86028 7.53605 3.75 7.03906 3.75V5.75C7.23738 5.75 7.35368 5.79207 7.42691 5.83601C7.4996 5.87962 7.58839 5.96012 7.67734 6.12934L9.44766 5.19878ZM7.03906 3.75C6.55956 3.75 6.08895 3.85012 5.66404 4.09101C5.2363 4.33351 4.91039 4.68732 4.67662 5.10811L6.42494 6.07939C6.50367 5.93768 6.58206 5.86961 6.65041 5.83086C6.7216 5.79051 6.83887 5.75 7.03906 5.75V3.75ZM4.67149 5.11747C4.25265 5.89072 4.08333 6.93447 4.0588 8.12789L6.05838 8.16898C6.08074 7.08115 6.23954 6.42178 6.43007 6.07003L4.67149 5.11747ZM4.05859 8.14844V12.5078H6.05859V8.14844H4.05859ZM4.05859 12.5078C4.05859 13.8242 4.21718 14.9645 4.65896 15.7834L6.41916 14.8338C6.22032 14.4652 6.05859 13.7383 6.05859 12.5078H4.05859ZM4.66161 15.7883C4.89731 16.2194 5.22636 16.5835 5.66043 16.834C6.09237 17.0832 6.5722 17.1875 7.0625 17.1875V15.1875C6.85749 15.1875 6.73576 15.1454 6.65988 15.1016C6.58614 15.059 6.50113 14.9837 6.41651 14.8289L4.66161 15.7883ZM7.0625 17.1875C7.54264 17.1875 8.01259 17.0845 8.43682 16.8406C8.86241 16.596 9.18714 16.2411 9.42268 15.8217L7.67889 14.8423C7.59411 14.9933 7.51063 15.0661 7.44013 15.1067C7.36827 15.148 7.25423 15.1875 7.0625 15.1875V17.1875ZM9.4255 15.8167C9.87017 15.0141 10.0348 13.9047 10.0429 12.6314L8.04299 12.6186C8.03547 13.7984 7.87202 14.4937 7.67607 14.8474L9.4255 15.8167ZM10.043 12.625V8.40625H8.04297V12.625H10.043ZM18.6523 8.81641V7.81641H17.6523V8.81641H18.6523ZM22.2031 5.27734L21.4882 5.97668L21.496 5.98445L22.2031 5.27734ZM19.3438 5.19531L18.7287 4.40677L18.721 4.41289L19.3438 5.19531ZM18.7695 6.33203V7.33203H19.7695V6.33203H18.7695ZM14.8203 6.33203H13.8203V7.33203H14.8203V6.33203ZM17.6445 2.28906L18.0492 3.20355L18.0529 3.20188L17.6445 2.28906ZM26 8.65234L25.1771 8.08415L25.1757 8.08624L26 8.65234ZM24.043 10.2344L23.6156 9.3303L21.444 10.3569L23.7025 11.1746L24.043 10.2344ZM26.1758 11.7344L25.3825 12.3432L25.3859 12.3477L26.1758 11.7344ZM17.457 18.6016L17.046 19.5132L17.055 19.5172L17.457 18.6016ZM15.2891 16.832L14.4504 17.3767L14.453 17.3807L15.2891 16.832ZM14.5508 14.2539V13.2539H13.5508V14.2539H14.5508ZM18.5234 14.2539H19.5234V13.2539H18.5234V14.2539ZM22.3789 15.6133L23.0578 16.3476L23.0651 16.3407L22.3789 15.6133ZM18.6523 11.7578H17.6523V12.7578H18.6523V11.7578ZM18.6523 9.81641H20.5156V7.81641H18.6523V9.81641ZM20.5156 9.81641C21.4027 9.81641 22.2528 9.59934 22.8763 8.98904C23.5037 8.37488 23.7305 7.53072 23.7305 6.64844H21.7305C21.7305 7.21146 21.5881 7.4513 21.4773 7.55979C21.3625 7.67215 21.1051 7.81641 20.5156 7.81641V9.81641ZM23.7305 6.64844C23.7305 5.85869 23.4746 5.13458 22.9102 4.57024L21.496 5.98445C21.6348 6.12323 21.7305 6.31319 21.7305 6.64844H23.7305ZM22.918 4.57805C22.3301 3.97713 21.5468 3.73828 20.7148 3.73828V5.73828C21.1641 5.73828 21.373 5.8588 21.4883 5.97664L22.918 4.57805ZM20.7148 3.73828C19.9821 3.73828 19.3054 3.95697 18.7287 4.40681L19.9588 5.98382C20.1633 5.82428 20.4007 5.73828 20.7148 5.73828V3.73828ZM18.721 4.41289C18.1216 4.88993 17.7695 5.54741 17.7695 6.33203H19.7695C19.7695 6.21041 19.8002 6.11007 19.9665 5.97774L18.721 4.41289ZM18.7695 5.33203H14.8203V7.33203H18.7695V5.33203ZM15.8203 6.33203C15.8203 5.63216 16.0108 5.03577 16.3853 4.50921L14.7554 3.35016C14.1298 4.22986 13.8203 5.23503 13.8203 6.33203H15.8203ZM16.3853 4.50921C16.7691 3.96947 17.3107 3.53029 18.0492 3.20354L17.2399 1.37458C16.2127 1.82909 15.3715 2.48366 14.7554 3.35016L16.3853 4.50921ZM18.0529 3.20188C18.804 2.86587 19.6398 2.69141 20.5742 2.69141V0.691406C19.3836 0.691406 18.2663 0.915379 17.2362 1.37624L18.0529 3.20188ZM20.5742 2.69141C22.3283 2.69141 23.5732 3.09194 24.4268 3.7736L25.6748 2.21077C24.3565 1.15806 22.6171 0.691406 20.5742 0.691406V2.69141ZM24.4268 3.7736C25.2515 4.4322 25.6797 5.32335 25.6797 6.56641H27.6797C27.6797 4.77821 27.0219 3.28655 25.6748 2.21077L24.4268 3.7736ZM25.6797 6.56641C25.6797 7.08024 25.5253 7.57987 25.1771 8.08415L26.8229 9.22053C27.381 8.41231 27.6797 7.52133 27.6797 6.56641H25.6797ZM25.1757 8.08624C24.8494 8.56127 24.3484 8.98388 23.6156 9.3303L24.4703 11.1384C25.4563 10.6724 26.2599 10.0403 26.8243 9.21845L25.1757 8.08624ZM23.7025 11.1746C24.4547 11.447 24.9985 11.8429 25.3825 12.3432L26.9691 11.1256C26.3218 10.2821 25.4437 9.67801 24.3834 9.29411L23.7025 11.1746ZM25.3859 12.3477C25.743 12.8075 25.9492 13.4053 25.9492 14.207H27.9492C27.9492 13.04 27.6399 11.9894 26.9656 11.1211L25.3859 12.3477ZM25.9492 14.207C25.9492 15.4314 25.4983 16.3557 24.5764 17.0748L25.8064 18.6518C27.2283 17.5427 27.9492 16.0296 27.9492 14.207H25.9492ZM24.5764 17.0748C23.6246 17.8172 22.3213 18.2344 20.5742 18.2344V20.2344C22.6396 20.2344 24.4145 19.7375 25.8064 18.6518L24.5764 17.0748ZM20.5742 18.2344C19.5863 18.2344 18.6852 18.0486 17.859 17.6859L17.055 19.5172C18.1507 19.9982 19.3277 20.2344 20.5742 20.2344V18.2344ZM17.868 17.6899C17.059 17.3252 16.4967 16.8496 16.1251 16.2834L14.453 17.3807C15.0658 18.3145 15.9488 19.0186 17.046 19.5132L17.868 17.6899ZM16.1277 16.2873C15.7476 15.7021 15.5508 15.0344 15.5508 14.2539H13.5508C13.5508 15.3953 13.8461 16.4463 14.4504 17.3767L16.1277 16.2873ZM14.5508 15.2539H18.5234V13.2539H14.5508V15.2539ZM17.5234 14.2539C17.5234 15.0861 17.8742 15.8002 18.4843 16.3538L19.8282 14.8727C19.5946 14.6607 19.5234 14.4685 19.5234 14.2539H17.5234ZM18.4843 16.3538C19.1062 16.9182 19.8717 17.1875 20.7148 17.1875V15.1875C20.3236 15.1875 20.0501 15.074 19.8282 14.8727L18.4843 16.3538ZM20.7148 17.1875C21.6003 17.1875 22.4182 16.9388 23.0578 16.3476L21.7001 14.879C21.5114 15.0534 21.22 15.1875 20.7148 15.1875V17.1875ZM23.0651 16.3407C23.6919 15.7494 24 14.9844 24 14.125H22C22 14.4688 21.8941 14.6959 21.6927 14.8859L23.0651 16.3407ZM24 14.125C24 13.1289 23.7529 12.162 22.997 11.5298L21.7139 13.064C21.8174 13.1505 22 13.4024 22 14.125H24ZM22.997 11.5298C22.3327 10.9742 21.4837 10.7578 20.5742 10.7578V12.7578C21.1804 12.7578 21.5189 12.9008 21.7139 13.064L22.997 11.5298ZM20.5742 10.7578H18.6523V12.7578H20.5742V10.7578ZM19.6523 11.7578V8.81641H17.6523V11.7578H19.6523Z" fill="black" fill-opacity="0.15"/>
</svg>
