<svg width="49" height="49" viewBox="0 0 49 49" fill="none" xmlns="http://www.w3.org/2000/svg">
<path d="M24.5 0C10.9909 0 0 10.9909 0 24.5C0 38.0091 10.9909 49 24.5 49C38.0091 49 49 38.0091 49 24.5C49 10.9909 38.0091 0 24.5 0ZM25.5209 46.9066V43.8958C25.5209 43.3315 25.0643 42.8749 24.5 42.8749C23.9357 42.8749 23.4791 43.3315 23.4791 43.8958V46.9066C11.9117 46.3828 2.6171 37.0883 2.09331 25.5208H5.10413C5.6684 25.5209 6.125 25.0643 6.125 24.5C6.125 23.9357 5.6684 23.4791 5.10413 23.4791H2.09331C2.6171 11.9117 11.9116 2.6171 23.4791 2.09331V5.10413C23.4791 5.6684 23.9357 6.125 24.5 6.125C25.0643 6.125 25.5209 5.6684 25.5209 5.10413V2.09331C37.0883 2.6171 46.3829 11.9116 46.9067 23.4791H43.8959C43.3316 23.4791 42.875 23.9357 42.875 24.5C42.875 25.0643 43.3316 25.5209 43.8959 25.5209H46.9067C46.3829 37.0883 37.0883 46.3829 25.5209 46.9066Z" fill="#6F7A87"/>
<path d="M26.441 24.9975C26.4832 24.8341 26.5416 24.6764 26.5416 24.5C26.5416 24.0727 26.3791 23.6978 26.1537 23.3696L32.5709 9.61922C32.8092 9.10883 32.5889 8.50064 32.0775 8.26243C31.5681 8.02806 30.96 8.24645 30.7207 8.75588L24.3081 22.4972C23.2768 22.599 22.4584 23.4426 22.4584 24.5C22.4584 25.6255 23.3745 26.5416 24.5 26.5416C24.6763 26.5416 24.8341 26.4832 24.9975 26.441L32.9657 34.4092C33.1651 34.6085 33.4263 34.7083 33.6875 34.7083C33.9487 34.7083 34.2098 34.6085 34.4093 34.4092C34.8081 34.0104 34.8081 33.3644 34.4093 32.9657L26.441 24.9975Z" fill="#6F7A87"/>
</svg>
