<svg width="52" height="47" viewBox="0 0 52 47" fill="none" xmlns="http://www.w3.org/2000/svg">
<path d="M46.5164 0H12.8914C9.97327 0 7.59909 2.35461 7.59909 5.23942L7.3824 34.8812H0.820312C0.355263 34.8812 0 35.2928 0 35.7584V39.8378C0 43.6566 3.05263 46.7798 6.73684 46.951V47H35.0526V46.9448C35.2631 46.9535 35.3906 47 35.5354 47H35.5555C39.4848 46.9769 42.6521 43.7706 42.6316 39.837V13.9103H51.1797C51.6447 13.9103 52 13.4888 52 13.0236V5.53869C52.0053 2.49663 49.5551 0.0218172 46.5164 0ZM7.0995 45.3139C4.10403 45.3139 1.68421 42.8354 1.68421 39.837V36.5673H28.421V39.823C28.4145 41.7206 29.1632 43.5426 30.5016 44.8862C30.6439 45.0295 30.7928 45.1031 30.9449 45.3139H7.0995ZM40.9474 39.8361C40.9474 42.8354 38.551 45.3139 35.5543 45.3139H35.537C32.5255 45.2921 30.0983 42.8383 30.1053 39.8234V35.7584C30.1077 35.2862 29.7348 34.8976 29.2632 34.8812H9.06661L9.2833 5.24518C9.2833 3.28452 10.9017 1.6861 12.8914 1.6861H42.5407C41.581 2.73991 40.9474 4.07323 40.9474 5.56133V39.8361ZM50.3158 12.2242H42.6316V5.55968C42.6316 3.44959 44.3849 1.6861 46.4918 1.6861H46.5152C48.6275 1.70709 50.3256 3.4323 50.3158 5.54733V12.2242Z" fill="#6F7A87"/>
<path d="M19.7743 20.751L24.1159 23.7227C24.3993 23.9182 24.7738 23.9182 25.0572 23.7227L29.3857 20.7519C30.8894 19.7248 32 17.5777 32 15.757V9.74446C32.009 9.42667 31.8339 9.13193 31.551 8.98744L24.9404 5.73216C24.7085 5.6169 24.4363 5.6169 24.2044 5.73216L17.6061 8.97839C17.3232 9.12288 17.1484 9.41761 17.1579 9.7354V15.757C17.1579 17.5777 18.271 19.7248 19.7743 20.751ZM18.8421 10.2615L24.5789 7.42772L30.3158 10.2693V15.757C30.3158 17.0269 29.4844 18.6422 28.4354 19.358L24.5691 22.0053L20.7179 19.3584C19.669 18.6418 18.8421 17.0269 18.8421 15.757V10.2615Z" fill="#6F7A87"/>
<path d="M23.1546 17.0298C23.3117 17.1903 23.5263 17.2813 23.7508 17.2825H23.7529C23.9766 17.2817 24.1908 17.1919 24.3483 17.0331L27.6982 13.6781C28.0275 13.3488 28.0275 12.8145 27.6986 12.4852C27.3701 12.1555 26.8363 12.1555 26.5074 12.4848L23.7558 15.2391L22.6558 14.1272C22.3281 13.7963 21.7948 13.7938 21.4642 14.1219C21.1336 14.45 21.1316 14.9839 21.4589 15.3148L23.1546 17.0298Z" fill="#6F7A87"/>
<path d="M35.0526 26.1345H14.8421C14.377 26.1345 14 26.512 14 26.9776C14 27.4431 14.377 27.8206 14.8421 27.8206H35.0526C35.5177 27.8206 35.8947 27.4431 35.8947 26.9776C35.8947 26.512 35.5177 26.1345 35.0526 26.1345Z" fill="#6F7A87"/>
<path d="M35.0526 30.0336H14.8421C14.377 30.0336 14 30.4111 14 30.8767C14 31.3422 14.377 31.7197 14.8421 31.7197H35.0526C35.5177 31.7197 35.8947 31.3422 35.8947 30.8767C35.8947 30.4111 35.5177 30.0336 35.0526 30.0336Z" fill="#6F7A87"/>
</svg>
