<svg width="41" height="54" viewBox="0 0 41 54" fill="none" xmlns="http://www.w3.org/2000/svg">
<path d="M30.8208 4.09587L12.4388 22.7242C12.2928 22.8722 12.1883 23.0568 12.1365 23.2595L10.5588 29.4172C10.4556 29.8202 10.5706 30.2484 10.8611 30.543C11.0813 30.766 11.3771 30.887 11.6806 30.887C11.7778 30.887 11.8755 30.8746 11.9719 30.8494L18.0482 29.2504C18.2481 29.1977 18.4305 29.0918 18.5763 28.944L36.9579 10.316C36.9583 10.3156 36.9589 10.3152 36.9589 10.3152L36.9597 10.3143L40.6602 6.56412C41.113 6.10543 41.113 5.36171 40.6604 4.90322L36.1622 0.344161C35.9447 0.123726 35.6501 0 35.3426 0C35.0352 0 34.7404 0.123726 34.5231 0.344161L30.8227 4.09411C30.8223 4.0945 30.8218 4.09489 30.8218 4.09489C30.8218 4.09489 30.8212 4.09567 30.8208 4.09587ZM17.1605 27.0568L13.2983 28.0732L14.3011 24.1592L31.6412 6.58663L34.5005 9.4844L17.1605 27.0568ZM35.3426 2.83571L38.2018 5.73347L36.1396 7.8233L33.2804 4.92554L35.3426 2.83571Z" fill="#2281E2"/>
<path d="M39.8409 12.7293C39.2009 12.7293 38.6819 13.2553 38.6819 13.9039V51.6506H2.31815V6.73776H23.7732C24.4132 6.73776 24.9323 6.21173 24.9323 5.56315C24.9323 4.91457 24.4132 4.38854 23.7732 4.38854H1.15908C0.519073 4.38854 0 4.91457 0 5.56315V52.8254C0 53.474 0.519073 54 1.15908 54H39.8409C40.4809 54 41 53.474 41 52.8254V13.9039C41 13.2553 40.4811 12.7293 39.8409 12.7293Z" fill="#2281E2"/>
</svg>
