<svg width="58" height="49" viewBox="0 0 58 49" fill="none" xmlns="http://www.w3.org/2000/svg">
<path d="M37.0253 7.58617V0H20.9747V7.58617H0V49H58V7.58617H37.0253ZM23.4486 2.36173H34.6816V13.5501H23.4486V2.36173ZM2.47388 46.6383V10.0791H20.9865V16.0431H37.0253V10.0791H55.538V46.6383H2.47388Z" fill="#2281E2"/>
<path d="M17.5184 30.5952C20.4776 30.5952 22.9514 28.1022 23.0698 25.001C23.0698 21.8878 20.5959 19.4068 17.5184 19.4068C14.4408 19.4068 11.9669 21.8997 11.9669 25.001C11.9669 28.1022 14.4408 30.5952 17.5184 30.5952ZM17.5184 21.8878C19.2465 21.8878 20.6078 23.2595 20.6078 25.001C20.6078 26.7425 19.2465 28.1142 17.5184 28.1142C15.7902 28.1142 14.429 26.7425 14.429 25.001C14.429 23.2595 15.7902 21.8878 17.5184 21.8878Z" fill="#2281E2"/>
<path d="M17.4 32.2055C11.2331 32.2055 6.29714 37.2987 6.29714 43.3939H8.75918C8.75918 38.5392 12.5824 34.6865 17.4 34.6865C22.2176 34.6865 26.0408 38.5392 26.0408 43.3939H28.5147C28.5029 37.3106 23.5669 32.2055 17.4 32.2055Z" fill="#2281E2"/>
<path d="M49.9747 27.482H34.9184V29.9749H49.9747V27.482Z" fill="#2281E2"/>
<path d="M49.9747 35.8196H34.9184V38.3126H49.9747V35.8196Z" fill="#2281E2"/>
</svg>
