<svg width="290" height="54" viewBox="0 0 290 54" fill="none" xmlns="http://www.w3.org/2000/svg"><path d="M91.672 42.44c-3.229 0-5.929-.694-8.101-2.083-2.142-1.419-3.666-3.336-4.571-5.752l6.245-3.623c1.267 2.929 3.485 4.393 6.653 4.393 2.866 0 4.3-.86 4.3-2.581 0-.936-.468-1.661-1.404-2.174-.905-.544-2.625-1.163-5.159-1.857-1.327-.363-2.489-.77-3.485-1.223a15.83 15.83 0 01-2.941-1.766 7.664 7.664 0 01-2.172-2.808c-.483-1.117-.725-2.4-.725-3.85 0-2.929 1.041-5.269 3.123-7.02 2.112-1.751 4.616-2.627 7.513-2.627 2.594 0 4.887.62 6.878 1.857 1.992 1.208 3.56 2.974 4.707 5.299l-6.11 3.578c-.573-1.208-1.282-2.114-2.127-2.718-.844-.633-1.96-.95-3.349-.95-1.086 0-1.93.241-2.534.724-.573.453-.86 1.012-.86 1.676 0 .785.362 1.464 1.087 2.038.754.574 2.292 1.208 4.615 1.902a95.27 95.27 0 012.942.951c.694.242 1.569.65 2.625 1.223 1.086.544 1.901 1.132 2.444 1.766.573.604 1.071 1.42 1.493 2.446.453.996.679 2.144.679 3.442 0 3.02-1.086 5.405-3.258 7.156-2.173 1.721-5.009 2.581-8.508 2.581zm27.755-16.757h-4.661V33.7c0 .905.362 1.479 1.086 1.72.724.242 1.916.317 3.575.227v6.16c-4.314.452-7.301.045-8.96-1.223-1.66-1.299-2.489-3.593-2.489-6.885v-8.016h-3.621v-6.522h3.621V14.86l6.788-2.038v6.34h4.661v6.522zm18.904-6.522h6.788v22.645h-6.788v-2.128c-1.358 1.842-3.515 2.763-6.472 2.763-2.414 0-4.435-.83-6.064-2.492-1.599-1.66-2.399-3.955-2.399-6.884V19.161h6.789V32.07c0 1.328.362 2.355 1.086 3.08.754.694 1.704 1.041 2.851 1.041 1.297 0 2.323-.392 3.077-1.177s1.132-1.948 1.132-3.487V19.16zm28.194-9.058h6.789v31.703h-6.789v-2.128c-1.599 1.842-3.847 2.763-6.743 2.763-2.987 0-5.536-1.148-7.648-3.443-2.112-2.325-3.168-5.163-3.168-8.514 0-3.352 1.056-6.175 3.168-8.47 2.112-2.324 4.661-3.487 7.648-3.487 2.896 0 5.144.921 6.743 2.763V10.103zm-9.277 24.412c.995.996 2.293 1.494 3.892 1.494 1.599 0 2.896-.498 3.892-1.494.995-.997 1.493-2.34 1.493-4.031 0-1.691-.498-3.035-1.493-4.031-.996-.996-2.293-1.495-3.892-1.495-1.599 0-2.897.499-3.892 1.495-.996.996-1.494 2.34-1.494 4.03 0 1.692.498 3.035 1.494 4.032zm41.411 7.291l-1.584-4.981h-11.767l-1.584 4.981h-7.919l10.771-31.703h9.232l10.771 31.703h-7.92zm-11.178-11.775h7.422l-3.711-11.64-3.711 11.64zm35.125-10.87h7.513l-8.373 22.645h-7.693l-8.372-22.645h7.512l4.707 14.357 4.706-14.357zm23.263 6.522h-4.661V33.7c0 .905.362 1.479 1.086 1.72.724.242 1.916.317 3.575.227v6.16c-4.314.452-7.301.045-8.96-1.223-1.66-1.299-2.489-3.593-2.489-6.885v-8.016h-3.621v-6.522h3.621V14.86l6.788-2.038v6.34h4.661v6.522zm22.771 13.315c-2.323 2.295-5.159 3.443-8.508 3.443-3.349 0-6.185-1.148-8.508-3.443-2.323-2.325-3.484-5.163-3.484-8.514 0-3.352 1.161-6.175 3.484-8.47 2.323-2.324 5.159-3.487 8.508-3.487 3.349 0 6.185 1.163 8.508 3.488 2.323 2.294 3.485 5.117 3.485 8.469 0 3.351-1.162 6.19-3.485 8.514zm-12.219-4.664c.996.996 2.233 1.494 3.711 1.494 1.479 0 2.716-.498 3.711-1.495.996-.996 1.494-2.28 1.494-3.85 0-1.57-.498-2.852-1.494-3.849-.995-.996-2.232-1.494-3.711-1.494-1.478 0-2.715.498-3.711 1.494-.995.997-1.493 2.28-1.493 3.85 0 1.57.498 2.853 1.493 3.85zm26.332-11.142c.422-1.45 1.267-2.551 2.534-3.306a8.068 8.068 0 014.254-1.178v7.7c-1.659-.272-3.213.015-4.661.86-1.418.816-2.127 2.25-2.127 4.303v10.235h-6.788V19.161h6.788v4.031z" fill="#fff"/><path d="M63.014 14.876L33.326.26a2.554 2.554 0 00-2.25 0L1.389 14.876c-1.79.881-1.866 3.374-.133 4.36v32.287C1.256 52.89 2.383 54 3.772 54c1.39 0 2.516-1.109 2.516-2.477V21.719l3.27 1.61v10.478c0 .942.544 1.803 1.402 2.22l20.127 9.79a2.55 2.55 0 002.229 0l20.127-9.79a2.473 2.473 0 001.401-2.22V23.433a3048.21 3048.21 0 008.197-4.14c1.825-.925 1.814-3.51-.027-4.417zM49.812 32.267l-17.61 8.566-17.612-8.566v-6.461c17.602 8.563 16.552 8.378 17.611 8.378.82 0 .671.254 17.611-8.226v6.31zm-17.491-3.271L8.14 17.092 32.2 5.246l24.124 11.876c-4.04 2.04-19.876 10.02-24.005 11.874z" fill="#8AD377"/></svg>