<svg width="24" height="21" viewBox="0 0 24 21" fill="none" xmlns="http://www.w3.org/2000/svg"><path d="M23.483 5.785L12.419.102a.916.916 0 00-.838 0L.518 5.785c-.668.343-.696 1.312-.05 1.696v12.556c0 .532.42.963.938.963a.95.95 0 00.937-.963V8.447l1.219.625v4.075c0 .367.202.701.522.864l7.5 3.807a.915.915 0 00.831 0l7.5-3.807a.966.966 0 00.523-.864V9.113c1.715-.9 3.036-1.6 3.055-1.61.68-.36.676-1.365-.01-1.718zm-4.92 6.763L12 15.88l-6.563-3.332v-2.512c6.56 3.33 6.168 3.258 6.563 3.258.306 0 .25.098 6.563-3.2v2.454zm-6.518-1.272l-9.012-4.63L12 2.04l8.99 4.619c-1.505.793-7.407 3.896-8.945 4.617z" fill="#6F7A87" fill-opacity=".39"/></svg>