<svg width="168" height="32" viewBox="0 0 168 32" fill="none" xmlns="http://www.w3.org/2000/svg"><path d="M36.202 9.54L19.146 1.15c-.406-.2-.885-.2-1.293 0L.799 9.54a1.412 1.412 0 00-.076 2.503v18.535c0 .785.647 1.422 1.445 1.422s1.445-.637 1.445-1.422v-17.11l1.88.925v6.014c0 .541.312 1.036.805 1.275l11.563 5.62c.403.196.877.197 1.28 0l11.563-5.62a1.42 1.42 0 00.806-1.274v-5.956c2.643-1.329 4.68-2.361 4.709-2.376a1.413 1.413 0 00-.016-2.536zm-7.584 9.984L18.5 24.44 8.382 19.524v-3.71c10.113 4.916 9.51 4.81 10.118 4.81.471 0 .386.146 10.118-4.722v3.622zm-10.05-1.878L4.677 10.812l13.824-6.8 13.86 6.817C30.038 12 20.94 16.581 18.568 17.646z" fill="#C6CDD3"/><path d="M52.93 25.364c-1.855 0-3.406-.399-4.654-1.196a6.675 6.675 0 01-2.626-3.302l3.588-2.08c.728 1.681 2.002 2.522 3.822 2.522 1.647 0 2.47-.494 2.47-1.482 0-.537-.269-.953-.806-1.248-.52-.312-1.508-.667-2.964-1.066a13.352 13.352 0 01-2.002-.702 9.096 9.096 0 01-1.69-1.014 4.4 4.4 0 01-1.248-1.612c-.277-.641-.416-1.378-.416-2.21 0-1.681.598-3.025 1.794-4.03 1.213-1.005 2.652-1.508 4.316-1.508 1.49 0 2.808.355 3.952 1.066 1.144.693 2.045 1.707 2.704 3.042l-3.51 2.054c-.33-.693-.737-1.213-1.222-1.56-.485-.364-1.127-.546-1.924-.546-.624 0-1.11.139-1.456.416-.33.26-.494.58-.494.962 0 .45.208.84.624 1.17.433.33 1.317.693 2.652 1.092.728.225 1.291.407 1.69.546.399.139.901.373 1.508.702.624.312 1.092.65 1.404 1.014.33.347.615.815.858 1.404.26.572.39 1.23.39 1.976 0 1.733-.624 3.103-1.872 4.108-1.248.988-2.877 1.482-4.888 1.482zm15.946-9.62h-2.678v4.602c0 .52.208.85.624.988.416.139 1.1.182 2.054.13V25c-2.479.26-4.195.026-5.148-.702-.953-.745-1.43-2.063-1.43-3.952v-4.602h-2.08V12h2.08V9.53l3.9-1.17V12h2.678v3.744zM79.736 12h3.9v13h-3.9v-1.222c-.78 1.057-2.02 1.586-3.718 1.586-1.386 0-2.548-.477-3.484-1.43-.919-.953-1.378-2.27-1.378-3.952V12h3.9v7.41c0 .763.208 1.352.624 1.768.433.399.98.598 1.638.598.746 0 1.335-.225 1.768-.676.433-.45.65-1.118.65-2.002V12zm16.198-5.2h3.9V25h-3.9v-1.222c-.918 1.057-2.21 1.586-3.874 1.586-1.716 0-3.18-.659-4.394-1.976-1.213-1.335-1.82-2.964-1.82-4.888s.607-3.545 1.82-4.862c1.214-1.335 2.678-2.002 4.394-2.002 1.664 0 2.956.529 3.874 1.586V6.8zm-5.33 14.014c.572.572 1.318.858 2.236.858.92 0 1.664-.286 2.236-.858.572-.572.858-1.343.858-2.314 0-.97-.286-1.742-.858-2.314-.572-.572-1.317-.858-2.236-.858-.918 0-1.664.286-2.236.858-.572.572-.858 1.343-.858 2.314 0 .97.286 1.742.858 2.314zM114.396 25l-.91-2.86h-6.76l-.91 2.86h-4.55l6.188-18.2h5.304l6.188 18.2h-4.55zm-6.422-6.76h4.264l-2.132-6.682-2.132 6.682zm20.18-6.24h4.316l-4.81 13h-4.42l-4.81-13h4.316l2.704 8.242L128.154 12zm13.365 3.744h-2.678v4.602c0 .52.208.85.624.988.416.139 1.1.182 2.054.13V25c-2.479.26-4.195.026-5.148-.702-.954-.745-1.43-2.063-1.43-3.952v-4.602h-2.08V12h2.08V9.53l3.9-1.17V12h2.678v3.744zm13.082 7.644c-1.335 1.317-2.964 1.976-4.888 1.976s-3.553-.659-4.888-1.976c-1.335-1.335-2.002-2.964-2.002-4.888s.667-3.545 2.002-4.862c1.335-1.335 2.964-2.002 4.888-2.002s3.553.667 4.888 2.002c1.335 1.317 2.002 2.938 2.002 4.862s-.667 3.553-2.002 4.888zm-7.02-2.678c.572.572 1.283.858 2.132.858.849 0 1.56-.286 2.132-.858.572-.572.858-1.309.858-2.21s-.286-1.638-.858-2.21c-.572-.572-1.283-.858-2.132-.858-.849 0-1.56.286-2.132.858-.572.572-.858 1.309-.858 2.21s.286 1.638.858 2.21zm15.128-6.396c.243-.832.728-1.465 1.456-1.898a4.635 4.635 0 012.444-.676v4.42a3.91 3.91 0 00-2.678.494c-.815.468-1.222 1.291-1.222 2.47V25h-3.9V12h3.9v2.314z" fill="#fff"/></svg>