<svg width="42" height="50" viewBox="0 0 42 50" fill="none" xmlns="http://www.w3.org/2000/svg"><path d="M41.614 35.65l-23.1-18.75a1.055 1.055 0 00-1.113-.133c-.368.173-.6.54-.6.941v31.25A1.047 1.047 0 0017.85 50c.344 0 .673-.169.873-.465l8.09-12.035H40.95c.443 0 .838-.277.987-.694a1.032 1.032 0 00-.324-1.156zm-15.364-.233c-.35 0-.678.173-.873.462L18.9 45.517v-25.61l19.11 15.51H26.25zM17.85 0c-.58 0-1.05.467-1.05 1.042v8.333c0 .575.47 1.042 1.05 1.042.58 0 1.05-.467 1.05-1.042V1.042C18.9.467 18.43 0 17.85 0zm-8.4 16.667h-8.4c-.58 0-1.05.466-1.05 1.041s.47 1.042 1.05 1.042h8.4c.58 0 1.05-.467 1.05-1.042s-.47-1.041-1.05-1.041zm25.2 0h-8.4c-.58 0-1.05.466-1.05 1.041s.47 1.042 1.05 1.042h8.4c.58 0 1.05-.467 1.05-1.042s-.47-1.041-1.05-1.041zM12.653 11.08L6.712 5.186a1.057 1.057 0 00-1.485 0 1.037 1.037 0 000 1.473l5.941 5.892a1.06 1.06 0 001.485 0c.41-.406.41-1.067 0-1.473zm0 11.787a1.057 1.057 0 00-1.485 0l-5.941 5.891a1.037 1.037 0 000 1.473 1.06 1.06 0 001.485-.002l5.94-5.89c.41-.406.41-1.066 0-1.472zm17.819-17.68a1.057 1.057 0 00-1.485 0l-5.941 5.892a1.037 1.037 0 000 1.473 1.059 1.059 0 001.485 0l5.94-5.892c.41-.406.41-1.066 0-1.473z" fill="#E98D44"/></svg>