<svg width="45" height="43" viewBox="0 0 45 43" fill="none" xmlns="http://www.w3.org/2000/svg"><path d="M43.344 8.581l.216-.217A4.854 4.854 0 0045 4.898C45 2.197 42.795 0 40.084 0a4.89 4.89 0 00-3.475 1.436L33.585 4.45 18.48 5.708 6.715 3.752a.929.929 0 00-1.076.76L.014 36.293a.932.932 0 00.769 1.084l8.415 1.399.18 3.339a.937.937 0 001.038.878L24.91 41.39l9.622 1.598a.932.932 0 001.076-.76l.366-2.065 8.192-.909a.935.935 0 00.832-.981l-1.654-29.69zm-8.656-2.583l4.297 4.285L25.81 23.42a7.515 7.515 0 00-1.712-2.582 7.523 7.523 0 00-2.586-1.703L34.688 5.998zM24.23 24.544l-5.13 1.28 1.285-5.115c.605.176 1.501.565 2.388 1.45.889.887 1.28 1.783 1.457 2.385zm7.301-18.045l-1.183 1.18-4.342-.72 5.525-.46zM11.196 41.028l-.105-1.937 7.03 1.168-6.925.769zm22.729-.04l-31.9-5.3 5.298-29.94L28.72 9.302l-9.696 9.668c-.01.01-.013.03-.022.04a.874.874 0 00-.188.333c-.007.023-.028.038-.033.06l-1.875 7.479a.931.931 0 001.134 1.13l7.5-1.869c.023-.006.038-.026.058-.034a.95.95 0 00.317-.177c.017-.015.043-.017.06-.034L38.87 13.04l-4.946 27.948zm2.388-2.744l4.868-27.509.384-.383 1.511 27.142-6.763.75zm5.921-31.201L40.311 8.96l-4.298-4.285 1.924-1.92a3.017 3.017 0 012.15-.888A3.038 3.038 0 0143.126 4.9c0 .81-.317 1.57-.89 2.143z" fill="#E98D44"/></svg>