<svg width="32" height="43" viewBox="0 0 32 43" fill="none" xmlns="http://www.w3.org/2000/svg"><path d="M27.31 2.92h-6.86A4.861 4.861 0 0016 0a4.861 4.861 0 00-4.448 2.92H4.689C2.101 2.923.003 5.035 0 7.642v30.635c.003 2.607 2.1 4.72 4.69 4.723h22.62c2.59-.003 4.687-2.116 4.69-4.723V7.642c-.003-2.607-2.1-4.72-4.69-4.722zM12.325 5.07a1.07 1.07 0 001.042-.845C13.628 3.023 14.736 2.15 16 2.15s2.372.873 2.634 2.075c.107.494.54.845 1.043.845h2.116v.943a2.566 2.566 0 01-2.554 2.572H12.76a2.566 2.566 0 01-2.554-2.572V5.07h2.117zm17.541 33.207a2.566 2.566 0 01-2.554 2.573H4.689a2.566 2.566 0 01-2.554-2.573V7.642A2.566 2.566 0 014.689 5.07h3.383v.943c.003 2.607 2.1 4.72 4.69 4.722h6.477c2.588-.003 4.686-2.115 4.689-4.722V5.07h3.383a2.566 2.566 0 012.554 2.572v30.635z" fill="#E98D44"/><path d="M21.283 19.862l-7.008 6.891-3.558-3.498a1.062 1.062 0 00-1.503.01 1.08 1.08 0 00-.003 1.514l4.318 4.246a1.062 1.062 0 001.492 0l7.753-7.624a1.08 1.08 0 00.016-1.517 1.063 1.063 0 00-1.507-.021z" fill="#E98D44"/></svg>