<svg width="52" height="43" viewBox="0 0 52 43" fill="none" xmlns="http://www.w3.org/2000/svg"><path d="M33.584 15.053H3.25a1.082 1.082 0 01-1.083-1.075c0-.591.487-1.075 1.26-1.09l26-4.304c.59-.099.991-.651.891-1.236a1.082 1.082 0 00-1.245-.884L3.25 10.754C1.458 10.753 0 12.2 0 13.977v25.797C0 41.553 1.458 43 3.25 43h30.334C36.572 43 39 40.59 39 37.626V20.427c0-2.964-2.428-5.374-5.416-5.374zm3.25 22.573c0 1.778-1.458 3.224-3.25 3.224H3.25a1.082 1.082 0 01-1.083-1.075V17.018c.338.12.704.185 1.083.185h30.334c1.792 0 3.25 1.446 3.25 3.224v17.199z" fill="#E98D44"/><path d="M51.05 12.95L38.945.942a3.274 3.274 0 00-4.595 0L19.814 15.365a1.07 1.07 0 000 1.52 1.09 1.09 0 001.532 0L35.88 2.46a1.09 1.09 0 011.532 0l12.103 12.01c.423.418.423 1.1 0 1.52l-12.37 12.272a1.07 1.07 0 000 1.52 1.093 1.093 0 001.535 0L51.05 17.51a3.21 3.21 0 000-4.56z" fill="#E98D44"/><path d="M40.664 2.648a1.09 1.09 0 00-1.532 0L26.318 15.364a1.07 1.07 0 000 1.52 1.093 1.093 0 001.532 0L40.663 4.168a1.07 1.07 0 000-1.52zm3.25 3.225a1.09 1.09 0 00-1.532 0l-9.565 9.492a1.07 1.07 0 000 1.52 1.093 1.093 0 001.532 0l9.565-9.492a1.07 1.07 0 000-1.52zM31.417 25.797c-1.792 0-3.25 1.447-3.25 3.225s1.458 3.225 3.25 3.225 3.25-1.447 3.25-3.225-1.458-3.225-3.25-3.225zm0 4.3a1.082 1.082 0 01-1.083-1.075c0-.591.487-1.075 1.083-1.075s1.083.484 1.083 1.075-.487 1.075-1.083 1.075z" fill="#E98D44"/><path d="M37.917 34.397H29.25c-1.792 0-3.25-1.447-3.25-3.225v-4.3c0-1.778 1.458-3.224 3.25-3.224h8.667A1.08 1.08 0 0039 22.573a1.08 1.08 0 00-1.083-1.075H29.25c-2.988 0-5.416 2.41-5.416 5.374v4.3c0 2.964 2.428 5.374 5.416 5.374h8.667A1.08 1.08 0 0039 35.471a1.08 1.08 0 00-1.083-1.074z" fill="#E98D44"/></svg>