<svg width="52" height="49" viewBox="0 0 52 49" fill="none" xmlns="http://www.w3.org/2000/svg">
<path d="M39.8441 7.30466C39.8668 7.30629 39.8894 7.30792 39.9124 7.30792C39.9515 7.30792 39.9906 7.30466 40.0288 7.29937C41.0527 7.32014 41.8722 8.14665 41.8734 9.16004C41.8734 9.62053 42.2506 9.99388 42.7159 9.99388C43.1811 9.99388 43.5584 9.62053 43.5584 9.16004C43.5563 7.50254 42.3905 6.06856 40.7549 5.7119V4.91063C40.7549 4.45014 40.3777 4.07679 39.9124 4.07679C39.4472 4.07679 39.0699 4.45014 39.0699 4.91063V5.74976C37.3405 6.2074 36.2216 7.86327 36.4549 9.62012C36.6881 11.377 38.2011 12.6904 39.9914 12.6904C41.0309 12.6904 41.8734 13.5247 41.8734 14.5535C41.8734 15.582 41.0309 16.4163 39.9914 16.4163C38.9519 16.4163 38.1094 15.582 38.1094 14.5535C38.1094 14.0931 37.7322 13.7197 37.2669 13.7197C36.8017 13.7197 36.4244 14.0931 36.4244 14.5535C36.4265 16.1512 37.5109 17.5489 39.0699 17.9638V18.8775C39.0699 19.338 39.4472 19.7113 39.9124 19.7113C40.3777 19.7113 40.7549 19.338 40.7549 18.8775V18.0021C42.534 17.6165 43.734 15.9659 43.5378 14.1737C43.342 12.3814 41.8129 11.0232 39.9914 11.0236C38.9807 11.024 38.1501 10.2341 38.1102 9.23455C38.0707 8.235 38.8363 7.38284 39.8441 7.30507V7.30466Z" fill="#8AD377"/>
<path d="M40.0395 0C34.8567 0 30.4337 3.34717 28.7767 7.82907H7.86656C7.40336 7.82907 7.02737 8.24233 7.02408 8.70037L6.82498 37.9516H0.864692C0.399437 37.9516 0 38.2851 0 38.7464V42.4583C0.0106955 45.9529 2.79153 48.8237 6.31859 48.9817V49H32.3301V48.9756C32.5407 48.9833 32.6275 49 32.7608 49H32.7789C36.4294 48.9943 39.3859 46.0636 39.3859 42.4506V23.6826C39.5965 23.694 39.8194 23.7002 40.0375 23.7002C46.6329 23.7002 52 18.3779 52 11.8497C52 5.32185 46.6354 0 40.0395 0ZM6.63369 47.3323C3.90839 47.3287 1.6973 45.1476 1.68496 42.4498V39.6193H26.1168V42.438C26.1181 44.1781 26.8203 45.8462 28.0675 47.073C28.156 47.1605 28.2658 47.2281 28.3584 47.3323H6.63369ZM37.7009 42.4498C37.7013 45.1427 35.4985 47.327 32.7781 47.3323H32.762C30.0306 47.3274 27.8154 45.1419 27.8018 42.4388V38.7464C27.8088 38.533 27.7265 38.3266 27.5739 38.1759C27.4213 38.0253 27.2127 37.9443 26.9976 37.9516H8.50994L8.70328 9.49676H28.309C28.1597 10.2602 28.0823 11.0354 28.0782 11.8126C28.0766 13.4563 28.4229 15.0816 29.0951 16.5844H21.1376C20.672 16.5844 20.2952 16.9578 20.2952 17.4183C20.2952 17.8787 20.672 18.2521 21.1376 18.2521H30.0092C31.7472 20.9572 34.5256 22.8431 37.7009 23.4742V42.4498ZM40.0395 22.0329C34.3643 22.0329 29.7632 17.4793 29.7636 11.8619C29.7636 6.24445 34.3643 1.69089 40.0399 1.69089C45.7151 1.69089 50.3159 6.24485 50.3159 11.8619C50.3097 17.4765 45.7127 22.0268 40.0395 22.0329Z" fill="#8AD377"/>
<path d="M15.7298 22.1339C14.2427 22.1339 13.0333 23.293 13.0333 24.718C13.0333 26.1431 14.2427 27.3022 15.7298 27.3022C17.2169 27.3022 18.4267 26.1431 18.4267 24.718C18.4267 23.293 17.2169 22.1339 15.7298 22.1339ZM15.7298 25.6345C15.1716 25.6345 14.7183 25.2233 14.7183 24.718C14.7183 24.2124 15.172 23.8015 15.7298 23.8015C16.2876 23.8015 16.7418 24.2128 16.7418 24.718C16.7418 25.2233 16.2876 25.6345 15.7298 25.6345Z" fill="#8AD377"/>
<path d="M20.2952 24.7144C20.2952 25.1749 20.672 25.5482 21.1376 25.5482H32.3696C32.8349 25.5482 33.2121 25.1749 33.2121 24.7144C33.2121 24.2539 32.8349 23.8805 32.3696 23.8805H21.1376C20.672 23.8805 20.2952 24.2539 20.2952 24.7144Z" fill="#8AD377"/>
<path d="M15.7298 14.8854C14.2427 14.8854 13.0333 16.0449 13.0333 17.47C13.0333 18.895 14.2427 20.0541 15.7298 20.0541C17.2169 20.0541 18.4267 18.895 18.4267 17.47C18.4267 16.0449 17.2169 14.8854 15.7298 14.8854ZM15.7298 18.3865C15.1716 18.3865 14.7183 17.9752 14.7183 17.47C14.7183 16.9647 15.172 16.5531 15.7298 16.5531C16.2876 16.5531 16.7418 16.9643 16.7418 17.47C16.7418 17.9752 16.2876 18.3869 15.7298 18.3869V18.3865Z" fill="#8AD377"/>
<path d="M15.7298 29.3815C14.2427 29.3815 13.0333 30.5407 13.0333 31.9657C13.0333 33.3907 14.2427 34.5499 15.7298 34.5499C17.2169 34.5499 18.4267 33.3907 18.4267 31.9657C18.4267 30.5407 17.2169 29.3815 15.7298 29.3815ZM15.7298 32.8822C15.1716 32.8822 14.7183 32.4714 14.7183 31.9657C14.7183 31.4604 15.172 31.0492 15.7298 31.0492C16.2876 31.0492 16.7418 31.4604 16.7418 31.9657C16.7418 32.471 16.2876 32.8822 15.7298 32.8822Z" fill="#8AD377"/>
<path d="M32.3696 31.1766H21.1376C20.672 31.1766 20.2952 31.55 20.2952 32.0105C20.2952 32.471 20.672 32.8443 21.1376 32.8443H32.3696C32.8349 32.8443 33.2121 32.471 33.2121 32.0105C33.2121 31.55 32.8349 31.1766 32.3696 31.1766Z" fill="#8AD377"/>
</svg>
