<svg width="49" height="49" viewBox="0 0 49 49" fill="none" xmlns="http://www.w3.org/2000/svg">
<path d="M26.6095 31.362L23.7097 29.0693C23.6003 28.9816 23.4746 28.9164 23.3398 28.8774C23.2051 28.8385 23.0639 28.8266 22.9246 28.8425C22.7852 28.8583 22.6503 28.9016 22.5278 28.9698C22.4052 29.0379 22.2973 29.1297 22.2103 29.2397C22.1234 29.3498 22.059 29.476 22.021 29.611C21.983 29.746 21.9721 29.8872 21.9889 30.0265C22.0057 30.1657 22.0499 30.3003 22.1189 30.4224C22.188 30.5445 22.2805 30.6517 22.3911 30.7379L22.5011 30.8248C21.4101 30.4812 20.426 29.8621 19.6439 29.0274C18.8618 28.1927 18.3081 27.1705 18.036 26.0594C17.764 24.9484 17.7829 23.786 18.091 22.6843C18.399 21.5827 18.9857 20.5791 19.7946 19.7703C19.9882 19.5697 20.0954 19.301 20.0929 19.0222C20.0904 18.7434 19.9785 18.4767 19.7813 18.2796C19.5841 18.0824 19.3174 17.9707 19.0386 17.9683C18.7597 17.9659 18.4911 18.0732 18.2906 18.2669C17.1503 19.407 16.3462 20.8393 15.9666 22.4064C15.5869 23.9736 15.6464 25.615 16.1385 27.1506C16.6306 28.6862 17.5363 30.0564 18.7562 31.111C19.976 32.1655 21.4629 32.8636 23.0535 33.1285L22.3899 33.6529C22.2792 33.7391 22.1867 33.8464 22.1177 33.9685C22.0487 34.0906 22.0045 34.2251 21.9877 34.3644C21.9709 34.5036 21.9818 34.6448 22.0198 34.7799C22.0578 34.9149 22.1221 35.041 22.2091 35.1511C22.2961 35.2612 22.404 35.3529 22.5265 35.4211C22.6491 35.4893 22.784 35.5325 22.9233 35.5484C23.0627 35.5642 23.2038 35.5523 23.3386 35.5134C23.4734 35.4745 23.5991 35.4093 23.7085 35.3215L26.6095 33.0288C26.7355 32.9293 26.8372 32.8025 26.9072 32.658C26.9772 32.5135 27.0135 32.3551 27.0135 32.1945C27.0135 32.034 26.9772 31.8755 26.9072 31.731C26.8372 31.5865 26.7355 31.4597 26.6095 31.3602V31.362Z" fill="#8AD377"/>
<path d="M24.4997 10.1692C21.6654 10.1692 18.8947 11.0097 16.5381 12.5843C14.1815 14.159 12.3447 16.3971 11.2601 19.0157C10.1754 21.6342 9.89163 24.5156 10.4446 27.2954C10.9975 30.0753 12.3624 32.6287 14.3665 34.6329C16.3707 36.637 18.9241 38.0019 21.704 38.5548C24.4838 39.1078 27.3652 38.824 29.9837 37.7393C32.6023 36.6547 34.8404 34.8179 36.4151 32.4613C37.9897 30.1046 38.8302 27.334 38.8302 24.4997C38.826 20.7003 37.3148 17.0577 34.6283 14.3711C31.9417 11.6846 28.2991 10.1734 24.4997 10.1692ZM24.4997 36.7034C22.086 36.7034 19.7266 35.9876 17.7197 34.6467C15.7128 33.3057 14.1486 31.3998 13.225 29.1698C12.3013 26.9399 12.0596 24.4862 12.5305 22.1189C13.0014 19.7516 14.1637 17.5771 15.8704 15.8704C17.5771 14.1637 19.7516 13.0014 22.1189 12.5305C24.4862 12.0596 26.9399 12.3013 29.1698 13.225C31.3998 14.1486 33.3057 15.7128 34.6467 17.7197C35.9876 19.7266 36.7034 22.086 36.7034 24.4997C36.6998 27.7352 35.4129 30.8372 33.1251 33.1251C30.8372 35.4129 27.7352 36.6998 24.4997 36.7034Z" fill="#8AD377"/>
<path d="M47.936 20.2315H43.7212C43.2293 17.9924 42.3446 15.8582 41.1083 13.9276L44.0901 10.9488C44.1889 10.8501 44.2673 10.7329 44.3208 10.6039C44.3743 10.4749 44.4019 10.3365 44.4019 10.1969C44.4019 10.0572 44.3743 9.91887 44.3208 9.78984C44.2673 9.66081 44.1889 9.54359 44.0901 9.44488L39.5569 4.91234C39.3575 4.71307 39.0872 4.60114 38.8053 4.60114C38.5234 4.60114 38.253 4.71307 38.0536 4.91234L35.073 7.89048C33.1425 6.65401 31.0083 5.76935 28.7691 5.27754V1.06341C28.7692 0.923737 28.7418 0.78542 28.6883 0.656365C28.6349 0.52731 28.5566 0.410049 28.4578 0.311287C28.3591 0.212524 28.2418 0.134198 28.1128 0.0807852C27.9837 0.0273722 27.8454 -7.97067e-05 27.7057 1.73828e-07H21.2949C21.1552 -7.97067e-05 21.0169 0.0273722 20.8878 0.0807852C20.7588 0.134198 20.6415 0.212524 20.5428 0.311287C20.444 0.410049 20.3657 0.52731 20.3123 0.656365C20.2589 0.78542 20.2314 0.923737 20.2315 1.06341V5.27815C17.9924 5.76996 15.8581 6.65461 13.9276 7.89109L10.9488 4.9093C10.7494 4.71003 10.4791 4.5981 10.1972 4.5981C9.91527 4.5981 9.6449 4.71003 9.44549 4.9093L4.91234 9.44184C4.81351 9.54055 4.7351 9.65777 4.68161 9.7868C4.62812 9.91583 4.60058 10.0541 4.60058 10.1938C4.60058 10.3335 4.62812 10.4718 4.68161 10.6008C4.7351 10.7299 4.81351 10.8471 4.91234 10.9458L7.89048 13.9264C6.65417 15.8569 5.76952 17.9912 5.27754 20.2303H1.06341C0.923737 20.2302 0.78542 20.2576 0.656365 20.3111C0.52731 20.3645 0.410049 20.4428 0.311287 20.5416C0.212524 20.6403 0.134198 20.7576 0.0807852 20.8866C0.0273722 21.0157 -7.97067e-05 21.154 1.73829e-07 21.2937V27.7045C-7.97067e-05 27.8442 0.0273722 27.9825 0.0807852 28.1115C0.134198 28.2406 0.212524 28.3579 0.311287 28.4566C0.410049 28.5554 0.52731 28.6337 0.656365 28.6871C0.78542 28.7405 0.923737 28.768 1.06341 28.7679H5.27815C5.77013 31.007 6.65477 33.1412 7.89109 35.0718L4.9099 38.0536C4.81107 38.1523 4.73267 38.2695 4.67918 38.3985C4.62568 38.5276 4.59815 38.6659 4.59815 38.8056C4.59815 38.9452 4.62568 39.0836 4.67918 39.2126C4.73267 39.3416 4.81107 39.4588 4.9099 39.5575L9.44306 44.0901C9.64247 44.2894 9.91283 44.4013 10.1947 44.4013C10.4766 44.4013 10.747 44.2894 10.9464 44.0901L13.9264 41.1089C15.8569 42.3454 17.9911 43.23 20.2303 43.7219V47.9366C20.2302 48.0763 20.2576 48.2146 20.3111 48.3436C20.3645 48.4727 20.4428 48.59 20.5416 48.6887C20.6403 48.7875 20.7576 48.8658 20.8866 48.9192C21.0157 48.9726 21.154 49.0001 21.2937 49H27.7045C27.8442 49.0001 27.9825 48.9726 28.1115 48.9192C28.2406 48.8658 28.3579 48.7875 28.4566 48.6887C28.5554 48.59 28.6337 48.4727 28.6871 48.3436C28.7405 48.2146 28.768 48.0763 28.7679 47.9366V43.7212C31.007 43.2294 33.1413 42.3448 35.0718 41.1083L38.0536 44.0895C38.253 44.2888 38.5234 44.4007 38.8053 44.4007C39.0872 44.4007 39.3575 44.2888 39.5569 44.0895L44.0901 39.5569C44.1889 39.4582 44.2673 39.341 44.3208 39.212C44.3743 39.083 44.4019 38.9446 44.4019 38.805C44.4019 38.6653 44.3743 38.527 44.3208 38.3979C44.2673 38.2689 44.1889 38.1517 44.0901 38.053L41.1089 35.073C42.3452 33.1425 43.2299 31.0082 43.7219 28.7691H47.9366C48.0763 28.7692 48.2146 28.7418 48.3436 28.6883C48.4727 28.6349 48.59 28.5566 48.6887 28.4578C48.7875 28.3591 48.8658 28.2418 48.9192 28.1128C48.9726 27.9837 49.0001 27.8454 49 27.7057V21.2949C49.0001 21.1552 48.9726 21.0168 48.9192 20.8877C48.8657 20.7586 48.7873 20.6413 48.6885 20.5426C48.5897 20.4438 48.4723 20.3655 48.3432 20.3121C48.2141 20.2587 48.0757 20.2313 47.936 20.2315ZM46.8726 26.6411H42.8462C42.5956 26.6412 42.3531 26.7297 42.1614 26.8911C41.9698 27.0526 41.8413 27.2765 41.7986 27.5234C41.361 30.0689 40.3601 32.4845 38.8691 34.5936C38.7249 34.7984 38.6577 35.0476 38.6792 35.2972C38.7008 35.5467 38.8098 35.7807 38.987 35.9578L41.8345 38.8053L38.8053 41.8345L35.9572 38.987C35.78 38.8099 35.5461 38.701 35.2965 38.6794C35.047 38.6578 34.7978 38.725 34.593 38.8691C32.484 40.3599 30.0687 41.361 27.5234 41.7992C27.2765 41.8419 27.0526 41.9704 26.8911 42.1621C26.7297 42.3537 26.6412 42.5962 26.6411 42.8468V46.8726H22.3583V42.8468C22.3582 42.5962 22.2697 42.3537 22.1083 42.1621C21.9468 41.9704 21.7229 41.8419 21.476 41.7992C18.9307 41.361 16.5154 40.3599 14.4064 38.8691C14.2015 38.725 13.9524 38.6578 13.7029 38.6794C13.4533 38.701 13.2194 38.8099 13.0422 38.987L10.1941 41.8345L7.16494 38.8053L10.0124 35.9578C10.1896 35.7807 10.2986 35.5467 10.3202 35.2972C10.3417 35.0476 10.2745 34.7984 10.1303 34.5936C8.63932 32.4845 7.63842 30.0689 7.20079 27.5234C7.15812 27.2765 7.02961 27.0526 6.83795 26.8911C6.64628 26.7297 6.40377 26.6412 6.15318 26.6411H2.12682V22.3583H6.15318C6.40377 22.3582 6.64628 22.2697 6.83795 22.1083C7.02961 21.9468 7.15812 21.7229 7.20079 21.476C7.63842 18.9305 8.63932 16.5149 10.1303 14.4058C10.2745 14.201 10.3417 13.9518 10.3202 13.7022C10.2986 13.4527 10.1896 13.2187 10.0124 13.0416L7.16494 10.1941L10.1941 7.16494L13.0422 10.0124C13.2193 10.1897 13.4532 10.2988 13.7028 10.3204C13.9524 10.3419 14.2016 10.2746 14.4064 10.1303C16.5154 8.63948 18.9307 7.6384 21.476 7.20018C21.7229 7.15751 21.9468 7.02901 22.1083 6.83734C22.2697 6.64568 22.3582 6.40316 22.3583 6.15257V2.12682H26.6411V6.15257C26.6412 6.40316 26.7297 6.64568 26.8911 6.83734C27.0526 7.02901 27.2765 7.15751 27.5234 7.20018C30.0687 7.6384 32.484 8.63948 34.593 10.1303C34.7978 10.2746 35.047 10.3419 35.2966 10.3204C35.5462 10.2988 35.7801 10.1897 35.9572 10.0124L38.8053 7.16494L41.8345 10.1941L38.987 13.0416C38.8098 13.2187 38.7008 13.4527 38.6792 13.7022C38.6577 13.9518 38.7249 14.201 38.8691 14.4058C40.3601 16.5149 41.361 18.9305 41.7986 21.476C41.8413 21.7229 41.9698 21.9468 42.1614 22.1083C42.3531 22.2697 42.5956 22.3582 42.8462 22.3583H46.8726V26.6411Z" fill="#8AD377"/>
<path d="M25.9459 15.8466L26.6095 15.3222C26.7201 15.236 26.8127 15.1287 26.8817 15.0066C26.9507 14.8845 26.9949 14.75 27.0117 14.6107C27.0285 14.4715 27.0176 14.3302 26.9796 14.1952C26.9416 14.0602 26.8773 13.934 26.7903 13.824C26.7033 13.7139 26.5954 13.6222 26.4729 13.554C26.3503 13.4858 26.2154 13.4426 26.076 13.4267C25.9367 13.4109 25.7956 13.4228 25.6608 13.4617C25.526 13.5006 25.4003 13.5658 25.2909 13.6535L22.3899 15.9463C22.2639 16.0458 22.1621 16.1726 22.0922 16.3171C22.0222 16.4616 21.9858 16.62 21.9858 16.7806C21.9858 16.9411 22.0222 17.0996 22.0922 17.2441C22.1621 17.3886 22.2639 17.5153 22.3899 17.6149L25.2897 19.9076C25.3991 19.9953 25.5248 20.0605 25.6596 20.0995C25.7943 20.1384 25.9355 20.1503 26.0748 20.1344C26.2142 20.1186 26.3491 20.0753 26.4716 20.0072C26.5942 19.939 26.7021 19.8472 26.7891 19.7372C26.876 19.6271 26.9404 19.5009 26.9784 19.3659C27.0164 19.2309 27.0273 19.0897 27.0105 18.9504C26.9937 18.8112 26.9495 18.6766 26.8805 18.5545C26.8114 18.4324 26.7189 18.3252 26.6083 18.239L26.4983 18.1521C27.5893 18.4956 28.5734 19.1146 29.3555 19.9493C30.1376 20.7839 30.6914 21.8061 30.9634 22.9171C31.2355 24.0281 31.2165 25.1905 30.9085 26.2921C30.6005 27.3937 30.0137 28.3973 29.2048 29.206C29.0054 29.4056 28.8934 29.6763 28.8935 29.9584C28.8936 30.2406 29.0058 30.5112 29.2054 30.7106C29.405 30.91 29.6757 31.022 29.9578 31.0219C30.24 31.0218 30.5106 30.9096 30.71 30.71C31.8508 29.5699 32.6554 28.1374 33.0353 26.5699C33.4151 25.0024 33.3557 23.3605 32.8634 21.8246C32.3711 20.2887 31.465 18.9182 30.2447 17.8636C29.0243 16.809 27.537 16.1111 25.9459 15.8466Z" fill="#8AD377"/>
</svg>
