<svg width="30" height="39" viewBox="0 0 30 39" fill="none" xmlns="http://www.w3.org/2000/svg"><path d="M29.618 8.545L15.138.986a.733.733 0 00-.685.004L.374 8.55A.704.704 0 000 9.17v9.873c.008 8.116 4.917 15.459 12.508 18.71l1.954.834c.183.078.39.079.574.001l2.202-.931C24.969 34.475 29.999 27.06 30 18.846V9.168c0-.26-.147-.5-.382-.623zm-1.06 10.3c-.001 7.65-4.686 14.551-11.885 17.511l-.005.003-1.917.81-1.666-.711C6.019 33.43 1.449 26.597 1.44 19.042V9.586l13.363-7.174 13.754 7.18v9.254z" fill="#8AD377"/><path d="M9.486 18.584a.731.731 0 00-1.017-.079.696.696 0 00-.08.996l3.808 4.368a.73.73 0 001.003.09l8.869-7.069a.696.696 0 00.104-.993.731.731 0 00-1.014-.102l-8.323 6.632-3.35-3.843z" fill="#8AD377"/></svg>