<svg width="43" height="43" viewBox="0 0 43 43" fill="none" xmlns="http://www.w3.org/2000/svg">
<path d="M40.9518 2.04762C38.2201 -0.68254 33.7768 -0.68254 31.045 2.04762L2.9785 30.1135C2.96527 30.1267 2.95749 30.143 2.94581 30.157C2.92947 30.1757 2.91546 30.196 2.90067 30.2162C2.85942 30.2738 2.82751 30.3353 2.80339 30.4022C2.79638 30.4224 2.78626 30.4403 2.78082 30.4606C2.77848 30.4684 2.77381 30.4761 2.77148 30.4839L0.0202354 42.0412C0.00778286 42.0933 0.00466972 42.1462 0.00311314 42.1984C0.00311314 42.2085 0 42.2178 0 42.228C0.000778286 42.3167 0.0202354 42.4031 0.0505886 42.4863C0.0575931 42.5058 0.065376 42.5229 0.0739371 42.5416C0.112073 42.6249 0.159549 42.705 0.226481 42.772C0.300418 42.8459 0.387586 42.9027 0.481759 42.9416C0.575931 42.9805 0.67633 43 0.776729 43C0.836657 43 0.897363 42.993 0.956513 42.979L12.5141 40.2278C12.5351 40.2231 12.5538 40.2115 12.574 40.2045C12.6004 40.1959 12.6254 40.1858 12.651 40.1741C12.7071 40.1484 12.7592 40.1165 12.8075 40.0784C12.8261 40.0636 12.8456 40.0527 12.8635 40.0364C12.8697 40.0301 12.8775 40.027 12.8837 40.0208L40.9511 11.9542C43.6828 9.22246 43.6828 4.77856 40.9518 2.04762ZM39.8513 3.14809C41.7877 5.08519 41.9527 8.12666 40.3572 10.2591L32.7402 2.64221C34.8734 1.04677 37.915 1.21176 39.8513 3.14809ZM35.9988 14.7053L28.2938 7.00051L29.3943 5.90004L37.0993 13.6049L35.9988 14.7053ZM3.86108 39.1375C3.55677 38.8332 3.06489 38.8332 2.76058 39.1375L2.17142 39.7266L4.15916 31.3774L7.60074 30.9952L7.15789 34.9815C7.15478 35.0111 7.16568 35.0383 7.16568 35.0671C7.16568 35.0967 7.15478 35.1232 7.15789 35.1527C7.16101 35.1784 7.17424 35.1994 7.17969 35.2243C7.18903 35.2695 7.20226 35.3107 7.2186 35.3528C7.23884 35.4033 7.26296 35.4493 7.29254 35.4936C7.31666 35.5294 7.34079 35.5613 7.37037 35.5925C7.40772 35.6322 7.44819 35.6656 7.49256 35.6968C7.52758 35.7209 7.56105 35.7434 7.59996 35.7621C7.65133 35.7863 7.70503 35.8003 7.76107 35.8135C7.79064 35.8205 7.81477 35.8368 7.84512 35.8407C7.87314 35.8438 7.90116 35.8454 7.92995 35.8454H7.93229C7.96031 35.8454 7.98988 35.8438 8.0179 35.8407L12.0043 35.3979L11.6221 38.8394L3.27191 40.8271L3.86108 40.2379C4.16461 39.9344 4.16461 39.4418 3.86108 39.1375ZM13.6286 34.8733L31.045 17.4565C31.3494 17.1522 31.3494 16.6604 31.045 16.356C30.7407 16.0517 30.2489 16.0517 29.9445 16.356L12.5281 33.7729L8.81331 34.1854L9.2258 30.4707L26.6438 13.0546C26.9481 12.7503 26.9481 12.2585 26.6438 11.9542C26.3395 11.6499 25.8476 11.6499 25.5433 11.9542L8.1253 29.3702L5.64802 29.6457L27.1933 8.10098L34.8983 15.8058L13.353 37.3506L13.6286 34.8733ZM38.1998 12.5044L30.4948 4.79957L31.5961 3.69832L39.3011 11.4032L38.1998 12.5044Z" fill="#4D9D38"/>
</svg>
