<svg width="35" height="43" viewBox="0 0 35 43" fill="none" xmlns="http://www.w3.org/2000/svg">
<path d="M23.8884 0H0.658325V43H34.3417V10.4533L23.8884 0ZM24.3083 2.4467L31.895 10.0333H24.3083V2.4467ZM2.09166 41.5667V1.43333H22.875V11.4667H32.9083V41.5667H2.09166Z" fill="#4D9D38"/>
<path d="M26.4583 15.05H14.9917C14.5961 15.05 14.275 15.3704 14.275 15.7667C14.275 16.163 14.5961 16.4833 14.9917 16.4833H26.4583C26.8539 16.4833 27.175 16.163 27.175 15.7667C27.175 15.3704 26.8539 15.05 26.4583 15.05Z" fill="#4D9D38"/>
<path d="M12.3937 13.057L9.31136 15.523L8.33167 14.5433C8.05146 14.2631 7.59852 14.2631 7.31831 14.5433C7.03809 14.8235 7.03809 15.2765 7.31831 15.5567L8.75164 16.99C8.89067 17.1291 9.07414 17.2 9.25832 17.2C9.41599 17.2 9.57438 17.1484 9.70553 17.0431L13.2889 14.1764C13.5985 13.9284 13.6479 13.4776 13.4007 13.1688C13.1541 12.8592 12.7026 12.8097 12.3937 13.057Z" fill="#4D9D38"/>
<path d="M26.4583 22.9333H14.9917C14.5961 22.9333 14.275 23.2537 14.275 23.65C14.275 24.0463 14.5961 24.3667 14.9917 24.3667H26.4583C26.8539 24.3667 27.175 24.0463 27.175 23.65C27.175 23.2537 26.8539 22.9333 26.4583 22.9333Z" fill="#4D9D38"/>
<path d="M12.3937 20.9403L9.31136 23.4063L8.33167 22.4267C8.05146 22.1464 7.59852 22.1464 7.31831 22.4267C7.03809 22.7069 7.03809 23.1598 7.31831 23.44L8.75164 24.8734C8.89067 25.0124 9.07414 25.0833 9.25832 25.0833C9.41599 25.0833 9.57438 25.0317 9.70553 24.9264L13.2889 22.0597C13.5985 21.8118 13.6479 21.361 13.4007 21.0521C13.1541 20.7425 12.7026 20.693 12.3937 20.9403Z" fill="#4D9D38"/>
<path d="M26.4583 30.8167H14.9917C14.5961 30.8167 14.275 31.137 14.275 31.5333C14.275 31.9297 14.5961 32.25 14.9917 32.25H26.4583C26.8539 32.25 27.175 31.9297 27.175 31.5333C27.175 31.137 26.8539 30.8167 26.4583 30.8167Z" fill="#4D9D38"/>
<path d="M12.3937 28.8236L9.31136 31.2897L8.33167 30.31C8.05146 30.0298 7.59852 30.0298 7.31831 30.31C7.03809 30.5902 7.03809 31.0431 7.31831 31.3234L8.75164 32.7567C8.89067 32.8957 9.07414 32.9667 9.25832 32.9667C9.41599 32.9667 9.57438 32.9151 9.70553 32.8097L13.2889 29.9431C13.5985 29.6951 13.6479 29.2443 13.4007 28.9354C13.1541 28.6258 12.7026 28.5764 12.3937 28.8236Z" fill="#4D9D38"/>
</svg>
