<svg width="44" height="37" viewBox="0 0 44 37" fill="none" xmlns="http://www.w3.org/2000/svg">
<path d="M40.3333 0H3.66667C1.64267 0.002405 0.00238333 1.6576 0 3.7V33.3C0.00238333 35.3424 1.64267 36.9976 3.66667 37H40.3333C42.3573 36.9976 43.9976 35.3424 44 33.3V3.7C43.9976 1.6576 42.3573 0.002405 40.3333 0ZM1.46667 14.8H13.9333C15.1484 14.8 16.1333 15.7939 16.1333 17.02V19.98C16.1333 21.2061 15.1484 22.2 13.9333 22.2H1.46667V14.8ZM42.5333 33.3C42.5333 34.5261 41.5484 35.52 40.3333 35.52H3.66667C2.45163 35.52 1.46667 34.5261 1.46667 33.3V23.68H13.9333C15.9573 23.6776 17.5976 22.0224 17.6 19.98V17.02C17.5976 14.9776 15.9573 13.3224 13.9333 13.32H1.46667V3.7C1.46667 2.47391 2.45163 1.48 3.66667 1.48H40.3333C41.5484 1.48 42.5333 2.47391 42.5333 3.7V33.3Z" fill="#4D9D38"/>
<path d="M12.4667 15.54C10.8466 15.54 9.53333 16.8653 9.53333 18.5C9.53333 20.1348 10.8466 21.46 12.4667 21.46C14.0867 21.46 15.4 20.1348 15.4 18.5C15.4 16.8653 14.0867 15.54 12.4667 15.54ZM12.4667 19.98C11.6566 19.98 11 19.3174 11 18.5C11 17.6826 11.6566 17.02 12.4667 17.02C13.2767 17.02 13.9333 17.6826 13.9333 18.5C13.9333 19.3174 13.2767 19.98 12.4667 19.98Z" fill="#4D9D38"/>
</svg>
