<svg width="38" height="49" viewBox="0 0 38 49" fill="none" xmlns="http://www.w3.org/2000/svg">
<path d="M28.5656 3.71662L11.5287 20.6201C11.3933 20.7544 11.2964 20.9219 11.2485 21.1058L9.7862 26.6933C9.69059 27.0591 9.79712 27.4476 10.0664 27.715C10.2705 27.9173 10.5446 28.0271 10.8259 28.0271C10.916 28.0271 11.0066 28.0159 11.0959 27.993L16.7276 26.542C16.9129 26.4942 17.0819 26.3981 17.2171 26.264L34.2537 9.36083C34.254 9.36048 34.2546 9.36012 34.2546 9.36012L34.2553 9.35924L37.6851 5.95633C38.1047 5.54011 38.1047 4.86525 37.6852 4.44922L33.5162 0.312294C33.3146 0.11227 33.0415 0 32.7565 0C32.4716 0 32.1984 0.11227 31.997 0.312294L28.5674 3.71502C28.5671 3.71538 28.5665 3.71573 28.5665 3.71573C28.5665 3.71573 28.566 3.71644 28.5656 3.71662ZM15.9049 24.5515L12.3252 25.4738L13.2546 21.9222L29.326 5.97676L31.9761 8.60621L15.9049 24.5515ZM32.7565 2.57314L35.4065 5.2026L33.4952 7.09892L30.8452 4.46947L32.7565 2.57314Z" fill="#8AD377"/>
<path d="M36.9257 11.5506C36.3326 11.5506 35.8515 12.0279 35.8515 12.6165V46.8681H2.14853V6.1139H22.0337C22.6269 6.1139 23.108 5.63657 23.108 5.04805C23.108 4.45952 22.6269 3.9822 22.0337 3.9822H1.07427C0.481092 3.9822 0 4.45952 0 5.04805V47.9342C0 48.5227 0.481092 49 1.07427 49H36.9257C37.5189 49 38 48.5227 38 47.9342V12.6165C38 12.0279 37.5191 11.5506 36.9257 11.5506Z" fill="#8AD377"/>
</svg>
