<svg width="44" height="52" viewBox="0 0 44 52" fill="none" xmlns="http://www.w3.org/2000/svg">
<path d="M43.596 37.0759L19.3955 17.576C19.0655 17.3116 18.6123 17.2575 18.2295 17.4373C17.8445 17.6172 17.6003 17.9985 17.6003 18.4167V50.9166C17.6003 51.3933 17.9193 51.8158 18.3813 51.9545C18.4869 51.9849 18.5947 52 18.7003 52C19.0611 52 19.4065 51.8245 19.6155 51.5169L28.09 38.9999H42.9007C43.3649 38.9999 43.7785 38.7118 43.9347 38.2784C44.0931 37.8473 43.9567 37.3663 43.596 37.0759ZM27.5005 36.8333C27.133 36.8333 26.7898 37.0132 26.5852 37.3143L19.8003 47.3373V20.7025L39.8206 36.8333H27.5005Z" fill="#8AD377"/>
<path d="M18.7004 0C18.0932 0 17.6003 0.485366 17.6003 1.08337V9.74998C17.6003 10.348 18.0932 10.8333 18.7004 10.8333C19.3076 10.8333 19.8003 10.348 19.8003 9.74998V1.08337C19.8003 0.485366 19.3076 0 18.7004 0Z" fill="#8AD377"/>
<path d="M9.90016 17.3333H1.10005C0.492843 17.3333 0 17.8187 0 18.4167C0 19.0147 0.492843 19.5 1.10005 19.5H9.90016C10.5074 19.5 11.0002 19.0146 11.0002 18.4166C11.0002 17.8186 10.5074 17.3333 9.90016 17.3333Z" fill="#8AD377"/>
<path d="M36.3006 17.3333H27.5005C26.8933 17.3333 26.4004 17.8187 26.4004 18.4167C26.4004 19.0147 26.8933 19.5 27.5005 19.5H36.3006C36.9078 19.5 37.4006 19.0146 37.4006 18.4166C37.4006 17.8186 36.9078 17.3333 36.3006 17.3333Z" fill="#8AD377"/>
<path d="M13.2553 11.5223L7.03138 5.39499C6.60237 4.97249 5.90493 4.97249 5.47592 5.39499C5.04691 5.81749 5.04691 6.50435 5.47592 6.92685L11.6998 13.0542C11.9155 13.2643 12.197 13.3706 12.4786 13.3706C12.7603 13.3706 13.0418 13.2666 13.2553 13.0542C13.6843 12.6316 13.6843 11.9448 13.2553 11.5223Z" fill="#8AD377"/>
<path d="M13.2553 23.7813C12.8263 23.3588 12.1288 23.3588 11.6998 23.7813L5.47592 29.9087C5.04691 30.3312 5.04691 31.018 5.47592 31.4405C5.69156 31.6507 5.97309 31.7569 6.25473 31.7569C6.53637 31.7569 6.81791 31.6508 7.03138 31.4384L13.2553 25.3133C13.6843 24.8906 13.6843 24.2038 13.2553 23.7813Z" fill="#8AD377"/>
<path d="M31.9225 5.39499C31.4935 4.97249 30.7961 4.97249 30.3671 5.39499L24.1432 11.5223C23.7142 11.9448 23.7142 12.6317 24.1432 13.0542C24.3588 13.2643 24.6404 13.3706 24.922 13.3706C25.2036 13.3706 25.4852 13.2666 25.6986 13.0542L31.9225 6.92685C32.3516 6.50435 32.3516 5.81749 31.9225 5.39499Z" fill="#8AD377"/>
</svg>
