<svg width="290" height="54" viewBox="0 0 290 54" fill="none" xmlns="http://www.w3.org/2000/svg">
<path d="M91.6716 42.4405C88.4433 42.4405 85.7431 41.7461 83.5708 40.3571C81.4287 38.9381 79.9051 37.0208 79 34.6053L85.2453 30.9821C86.5124 33.9108 88.73 35.3752 91.8979 35.3752C94.7641 35.3752 96.1972 34.5147 96.1972 32.7937C96.1972 31.8577 95.7295 31.133 94.7942 30.6197C93.8891 30.0762 92.1694 29.4573 89.6351 28.7628C88.3076 28.4005 87.146 27.9929 86.1504 27.54C85.1548 27.0871 84.1742 26.4983 83.2088 25.7737C82.2735 25.0188 81.5494 24.0828 81.0365 22.9657C80.5538 21.8485 80.3124 20.5653 80.3124 19.116C80.3124 16.1872 81.3533 13.8472 83.4351 12.096C85.547 10.3448 88.0511 9.46915 90.9475 9.46915C93.5422 9.46915 95.8351 10.0881 97.8264 11.326C99.8176 12.5338 101.386 14.3001 102.533 16.625L96.4234 20.203C95.8502 18.9952 95.1412 18.0894 94.2964 17.4855C93.4516 16.8515 92.3353 16.5344 90.9475 16.5344C89.8614 16.5344 89.0166 16.776 88.4132 17.2591C87.8399 17.712 87.5533 18.2706 87.5533 18.9348C87.5533 19.7199 87.9154 20.3992 88.6395 20.9729C89.3937 21.5466 90.9324 22.1806 93.2555 22.8751C94.5227 23.2676 95.5032 23.5846 96.1972 23.8262C96.8911 24.0677 97.766 24.4753 98.822 25.049C99.9081 25.5925 100.723 26.1813 101.266 26.8153C101.839 27.4192 102.337 28.2344 102.759 29.261C103.212 30.2574 103.438 31.4048 103.438 32.7031C103.438 35.7224 102.352 38.1077 100.18 39.859C98.0074 41.58 95.1714 42.4405 91.6716 42.4405Z" fill="white"/>
<path d="M119.427 25.6831H114.766V33.6995C114.766 34.6053 115.128 35.179 115.852 35.4205C116.576 35.6621 117.768 35.7375 119.427 35.647V41.8064C115.113 42.2593 112.126 41.8517 110.467 40.5836C108.807 39.2853 107.978 36.9906 107.978 33.6995V25.6831H104.357V19.1613H107.978V14.8587L114.766 12.8206V19.1613H119.427V25.6831Z" fill="white"/>
<path d="M138.331 19.1613H145.119V41.8064H138.331V39.6778C136.973 41.5196 134.816 42.4405 131.859 42.4405C129.445 42.4405 127.424 41.6102 125.795 39.9495C124.196 38.2889 123.396 35.9942 123.396 33.0654V19.1613H130.185V32.069C130.185 33.3975 130.547 34.4241 131.271 35.1488C132.025 35.8432 132.975 36.1904 134.122 36.1904C135.419 36.1904 136.445 35.7979 137.199 35.0129C137.953 34.2279 138.331 33.0654 138.331 31.5255V19.1613Z" fill="white"/>
<path d="M166.525 10.1032H173.314V41.8064H166.525V39.6778C164.926 41.5196 162.678 42.4405 159.782 42.4405C156.795 42.4405 154.246 41.2931 152.134 38.9984C150.022 36.6735 148.966 33.8353 148.966 30.4839C148.966 27.1324 150.022 24.3093 152.134 22.0146C154.246 19.6897 156.795 18.5272 159.782 18.5272C162.678 18.5272 164.926 19.4481 166.525 21.2899V10.1032ZM157.248 34.5147C158.243 35.5111 159.541 36.0093 161.14 36.0093C162.739 36.0093 164.036 35.5111 165.032 34.5147C166.027 33.5183 166.525 32.1747 166.525 30.4839C166.525 28.793 166.027 27.4494 165.032 26.453C164.036 25.4566 162.739 24.9584 161.14 24.9584C159.541 24.9584 158.243 25.4566 157.248 26.453C156.252 27.4494 155.754 28.793 155.754 30.4839C155.754 32.1747 156.252 33.5183 157.248 34.5147Z" fill="white"/>
<path d="M198.659 41.8064L197.075 36.8245H185.308L183.724 41.8064H175.805L186.576 10.1032H195.808L206.579 41.8064H198.659ZM187.481 30.031H194.903L191.192 18.3913L187.481 30.031Z" fill="white"/>
<path d="M222.606 19.1613H230.119L221.746 41.8064H214.053L205.681 19.1613H213.193L217.9 33.5183L222.606 19.1613Z" fill="white"/>
<path d="M245.869 25.6831H241.208V33.6995C241.208 34.6053 241.57 35.179 242.294 35.4205C243.018 35.6621 244.21 35.7375 245.869 35.647V41.8064C241.555 42.2593 238.568 41.8517 236.909 40.5836C235.249 39.2853 234.42 36.9906 234.42 33.6995V25.6831H230.799V19.1613H234.42V14.8587L241.208 12.8206V19.1613H245.869V25.6831Z" fill="white"/>
<path d="M268.64 38.9984C266.317 41.2931 263.481 42.4405 260.132 42.4405C256.783 42.4405 253.947 41.2931 251.624 38.9984C249.301 36.6735 248.14 33.8353 248.14 30.4839C248.14 27.1324 249.301 24.3093 251.624 22.0146C253.947 19.6897 256.783 18.5272 260.132 18.5272C263.481 18.5272 266.317 19.6897 268.64 22.0146C270.963 24.3093 272.125 27.1324 272.125 30.4839C272.125 33.8353 270.963 36.6735 268.64 38.9984ZM256.421 34.3335C257.417 35.3299 258.654 35.8281 260.132 35.8281C261.611 35.8281 262.848 35.3299 263.843 34.3335C264.839 33.3371 265.337 32.0539 265.337 30.4839C265.337 28.9138 264.839 27.6306 263.843 26.6342C262.848 25.6378 261.611 25.1396 260.132 25.1396C258.654 25.1396 257.417 25.6378 256.421 26.6342C255.426 27.6306 254.928 28.9138 254.928 30.4839C254.928 32.0539 255.426 33.3371 256.421 34.3335Z" fill="white"/>
<path d="M282.753 23.1921C283.175 21.7428 284.02 20.6408 285.287 19.8859C286.585 19.1009 288.003 18.7084 289.541 18.7084V26.4077C287.882 26.136 286.328 26.4228 284.88 27.2682C283.462 28.0835 282.753 29.5177 282.753 31.5708V41.8064H275.965V19.1613H282.753V23.1921Z" fill="white"/>
<path d="M63.0137 14.8759L33.3263 0.261253C32.6183 -0.0870843 31.7844 -0.0870843 31.0759 0.261253L1.38904 14.8759C-0.40144 15.7574 -0.477108 18.2504 1.25588 19.236V51.5229C1.25588 52.8911 2.38255 54 3.77209 54C5.16113 54 6.2878 52.8911 6.2878 51.5229V21.7188L9.55822 23.3289V33.8066C9.55822 34.7491 10.1017 35.6097 10.96 36.0273L31.0867 45.817C31.7889 46.1585 32.6129 46.159 33.3155 45.817L53.4426 36.0273C54.301 35.6097 54.844 34.7491 54.844 33.8066V23.4329C59.445 21.1175 62.9906 19.3192 63.0407 19.2935C64.8661 18.368 64.8552 15.7826 63.0137 14.8759ZM49.8121 32.2671L32.2011 40.8333L14.5901 32.2671V25.806C32.1923 34.3688 31.1422 34.1835 32.2011 34.1835C33.0212 34.1835 32.8723 34.4375 49.8121 25.9584V32.2671ZM32.3205 28.9957L8.1397 17.0917L32.2011 5.24635L56.3249 17.1222C52.2855 19.1614 36.4488 27.1413 32.3205 28.9957Z" fill="#8AD377"/>
</svg>
