<svg width="43" height="43" viewBox="0 0 43 43" fill="none" xmlns="http://www.w3.org/2000/svg"><path d="M40.952 2.048a7.015 7.015 0 00-9.907 0L2.978 30.114c-.013.013-.02.029-.032.043-.017.019-.03.039-.045.06a.757.757 0 00-.098.185c-.007.02-.017.038-.022.059l-.01.023L.021 42.04a.77.77 0 00-.018.157l-.003.03a.773.773 0 00.074.314.777.777 0 00.152.23.783.783 0 00.73.207l11.558-2.751c.021-.005.04-.017.06-.023a.72.72 0 00.233-.127c.02-.014.039-.025.056-.042.007-.006.014-.009.02-.015l28.068-28.067a7.01 7.01 0 000-9.906zm-1.1 1.1c1.936 1.937 2.1 4.979.505 7.111L32.74 2.642c2.133-1.595 5.175-1.43 7.111.506zm-3.853 11.557l-7.705-7.704 1.1-1.101 7.705 7.705-1.1 1.1zM3.86 39.138a.777.777 0 00-1.1 0l-.59.589 1.988-8.35 3.442-.382-.443 3.986c-.003.03.008.057.008.086 0 .03-.011.056-.008.086.003.025.016.046.022.071a.792.792 0 00.19.369c.038.04.078.073.123.104a.795.795 0 00.107.065.803.803 0 00.161.051c.03.008.054.024.084.028a.767.767 0 00.085.004h.002a.792.792 0 00.086-.004l3.986-.443-.382 3.441-8.35 1.988.59-.59a.779.779 0 000-1.1zm9.768-4.265l17.416-17.416a.777.777 0 10-1.1-1.101L12.527 33.773l-3.715.412.413-3.714 17.418-17.416a.777.777 0 10-1.1-1.1L8.124 29.37l-2.477.276L27.193 8.1l7.705 7.705L13.353 37.35l.276-2.478zm24.57-22.369L30.496 4.8l1.101-1.102 7.705 7.705-1.101 1.101z" fill="#4D9D38"/></svg>