<svg width="35" height="43" viewBox="0 0 35 43" fill="none" xmlns="http://www.w3.org/2000/svg"><path d="M23.888 0H.658v43h33.684V10.453L23.888 0zm.42 2.447l7.587 7.586h-7.587V2.447zM2.092 41.567V1.433h20.783v10.034h10.033v30.1H2.092z" fill="#4D9D38"/><path d="M26.458 15.05H14.992a.717.717 0 100 1.433h11.466a.716.716 0 100-1.433zm-14.064-1.993L9.31 15.523l-.98-.98a.716.716 0 10-1.013 1.014l1.434 1.433a.715.715 0 00.954.053l3.583-2.867a.717.717 0 00-.895-1.119zm14.064 9.876H14.992a.717.717 0 100 1.434h11.466a.717.717 0 100-1.434zM12.394 20.94L9.31 23.406l-.98-.98a.716.716 0 10-1.013 1.014l1.434 1.433a.715.715 0 00.954.053l3.583-2.866a.717.717 0 00-.895-1.12zm14.064 9.877H14.992a.716.716 0 100 1.433h11.466a.716.716 0 100-1.433zm-14.064-1.993L9.31 31.29l-.98-.98a.716.716 0 10-1.013 1.013l1.434 1.434a.715.715 0 00.954.053l3.583-2.867a.717.717 0 00-.895-1.12z" fill="#4D9D38"/></svg>