<svg width="44" height="37" viewBox="0 0 44 37" fill="none" xmlns="http://www.w3.org/2000/svg"><path d="M40.333 0H3.667C1.643.002.002 1.658 0 3.7v29.6c.002 2.042 1.643 3.698 3.667 3.7h36.666c2.024-.002 3.665-1.658 3.667-3.7V3.7C43.998 1.658 42.357.002 40.333 0zM1.467 14.8h12.466c1.215 0 2.2.994 2.2 2.22v2.96a2.21 2.21 0 01-2.2 2.22H1.467v-7.4zm41.066 18.5a2.21 2.21 0 01-2.2 2.22H3.667a2.21 2.21 0 01-2.2-2.22v-9.62h12.466c2.024-.002 3.665-1.658 3.667-3.7v-2.96c-.002-2.042-1.643-3.698-3.667-3.7H1.467V3.7a2.21 2.21 0 012.2-2.22h36.666c1.215 0 2.2.994 2.2 2.22v29.6z" fill="#4D9D38"/><path d="M12.467 15.54c-1.62 0-2.934 1.325-2.934 2.96s1.314 2.96 2.934 2.96S15.4 20.135 15.4 18.5s-1.313-2.96-2.933-2.96zm0 4.44c-.81 0-1.467-.663-1.467-1.48s.657-1.48 1.467-1.48 1.466.663 1.466 1.48-.656 1.48-1.466 1.48z" fill="#4D9D38"/></svg>