<svg width="41" height="47" viewBox="0 0 41 47" fill="none" xmlns="http://www.w3.org/2000/svg"><path d="M39.842 47H1.317a.77.77 0 01-.77-.77v-6.985c0-4.16 3.728-7.545 8.31-7.545l5.526-.234a.785.785 0 01.803.737.77.77 0 01-.738.803l-5.559.234c-3.764.001-6.801 2.695-6.801 6.005v6.214h36.984v-6.214c0-3.31-3.037-6.004-6.77-6.004l-5.347-.225a.77.77 0 01-.737-.802c.017-.425.384-.772.802-.737l5.314.224h.002c4.55 0 8.276 3.384 8.276 7.544v6.985a.77.77 0 01-.77.77z" fill="#4D9D38"/><path d="M20.58 34.613c-2.196 0-4.392-.313-6.394-.94a.77.77 0 01-.54-.734v-6.742a.77.77 0 01.77-.77h12.328a.77.77 0 01.77.77v6.742a.77.77 0 01-.54.735c-2.002.626-4.198.939-6.394.939zm-5.393-2.25c3.418.948 7.368.948 10.786 0v-5.396H15.187v5.396zM37.53 47h-8.475a.77.77 0 01-.77-.77v-5.394a.77.77 0 01.77-.77h8.476a.77.77 0 01.77.77v5.394a.77.77 0 01-.77.77zm-7.704-1.541h6.934v-3.853h-6.934v3.853z" fill="#4D9D38"/><path d="M26.324 26.967H14.835a5.819 5.819 0 01-5.812-5.812V11.077a.77.77 0 111.54 0v10.078a4.276 4.276 0 004.272 4.271h11.49a4.277 4.277 0 004.271-4.271V9.875a.77.77 0 111.541 0v11.28a5.819 5.819 0 01-5.813 5.812z" fill="#4D9D38"/><path d="M28.411 11.557H9.793a.77.77 0 01-.77-.77V3.981A3.985 3.985 0 0113.003 0h20.675a.77.77 0 01.77.77v4.75a6.044 6.044 0 01-6.037 6.037zm-17.848-1.54h17.848a4.502 4.502 0 004.497-4.497V1.54H13.003a2.443 2.443 0 00-2.44 2.441v6.035zm9.377 10.018v-.552c0-.54.108-.809.351-1.145l1.064-1.455c.323-.431.458-.742.458-1.105 0-.58-.404-1.011-1.05-1.011-.634 0-1.024.391-1.146 1.078-.013.08-.068.121-.148.108l-1.213-.189c-.094-.012-.12-.08-.108-.161.216-1.347 1.186-2.183 2.668-2.183 1.482 0 2.533.97 2.533 2.344 0 .58-.175 1.078-.552 1.577l-1.065 1.455c-.202.256-.269.445-.269.848v.392c0 .08-.054.134-.135.134h-1.253c-.08 0-.134-.054-.134-.135zm-.054 1.185c0-.08.055-.134.135-.134h1.348c.08 0 .134.054.134.134v1.375c0 .08-.053.135-.134.135H20.02a.129.129 0 01-.135-.135V21.22z" fill="#4D9D38"/></svg>