<svg width="168" height="32" viewBox="0 0 168 32" fill="none" xmlns="http://www.w3.org/2000/svg">
<path d="M36.2022 9.53989L19.1464 1.14998C18.7396 0.950007 18.2606 0.950007 17.8535 1.14998L0.798022 9.53989C-0.230633 10.0459 -0.274105 11.4771 0.721522 12.0429V30.578C0.721522 31.3634 1.36881 32 2.16711 32C2.96514 32 3.61242 31.3634 3.61242 30.578V13.4682L5.49133 14.3925V20.4075C5.49133 20.9485 5.80354 21.4426 6.29669 21.6823L17.8597 27.3023C18.2631 27.4984 18.7365 27.4987 19.1402 27.3023L30.7035 21.6823C31.1967 21.4426 31.5086 20.9485 31.5086 20.4075V14.4522C34.1519 13.123 36.1889 12.0906 36.2177 12.0759C37.2664 11.5446 37.2602 10.0604 36.2022 9.53989ZM28.6177 19.5237L18.5 24.4414L8.38223 19.5237V15.8145C18.4949 20.7302 17.8916 20.6239 18.5 20.6239C18.9711 20.6239 18.8856 20.7697 28.6177 15.902V19.5237ZM18.5686 17.6457L4.67637 10.8119L18.5 4.01179L32.3594 10.8294C30.0387 12.0001 20.9403 16.5811 18.5686 17.6457Z" fill="#8AD377"/>
<path d="M52.93 25.364C51.0753 25.364 49.524 24.9653 48.276 24.168C47.0453 23.3533 46.17 22.2527 45.65 20.866L49.238 18.786C49.966 20.4673 51.24 21.308 53.06 21.308C54.7067 21.308 55.53 20.814 55.53 19.826C55.53 19.2887 55.2613 18.8727 54.724 18.578C54.204 18.266 53.216 17.9107 51.76 17.512C50.9973 17.304 50.33 17.07 49.758 16.81C49.186 16.55 48.6227 16.212 48.068 15.796C47.5307 15.3627 47.1147 14.8253 46.82 14.184C46.5427 13.5427 46.404 12.806 46.404 11.974C46.404 10.2927 47.002 8.94933 48.198 7.944C49.4113 6.93867 50.85 6.436 52.514 6.436C54.0047 6.436 55.322 6.79133 56.466 7.502C57.61 8.19533 58.5113 9.20933 59.17 10.544L55.66 12.598C55.3307 11.9047 54.9233 11.3847 54.438 11.038C53.9527 10.674 53.3113 10.492 52.514 10.492C51.89 10.492 51.4047 10.6307 51.058 10.908C50.7287 11.168 50.564 11.4887 50.564 11.87C50.564 12.3207 50.772 12.7107 51.188 13.04C51.6213 13.3693 52.5053 13.7333 53.84 14.132C54.568 14.3573 55.1313 14.5393 55.53 14.678C55.9287 14.8167 56.4313 15.0507 57.038 15.38C57.662 15.692 58.13 16.03 58.442 16.394C58.7713 16.7407 59.0573 17.2087 59.3 17.798C59.56 18.37 59.69 19.0287 59.69 19.774C59.69 21.5073 59.066 22.8767 57.818 23.882C56.57 24.87 54.9407 25.364 52.93 25.364ZM68.8761 15.744H66.1981V20.346C66.1981 20.866 66.4061 21.1953 66.8221 21.334C67.2381 21.4727 67.9228 21.516 68.8761 21.464V25C66.3975 25.26 64.6815 25.026 63.7281 24.298C62.7748 23.5527 62.2981 22.2353 62.2981 20.346V15.744H60.2181V12H62.2981V9.53L66.1981 8.36V12H68.8761V15.744ZM79.7362 12H83.6362V25H79.7362V23.778C78.9562 24.8353 77.7169 25.364 76.0182 25.364C74.6315 25.364 73.4702 24.8873 72.5342 23.934C71.6155 22.9807 71.1562 21.6633 71.1562 19.982V12H75.0562V19.41C75.0562 20.1727 75.2642 20.762 75.6802 21.178C76.1135 21.5767 76.6595 21.776 77.3182 21.776C78.0635 21.776 78.6529 21.5507 79.0862 21.1C79.5195 20.6493 79.7362 19.982 79.7362 19.098V12ZM95.9344 6.8H99.8344V25H95.9344V23.778C95.0157 24.8353 93.7244 25.364 92.0604 25.364C90.3444 25.364 88.8797 24.7053 87.6664 23.388C86.4531 22.0533 85.8464 20.424 85.8464 18.5C85.8464 16.576 86.4531 14.9553 87.6664 13.638C88.8797 12.3033 90.3444 11.636 92.0604 11.636C93.7244 11.636 95.0157 12.1647 95.9344 13.222V6.8ZM90.6044 20.814C91.1764 21.386 91.9217 21.672 92.8404 21.672C93.7591 21.672 94.5044 21.386 95.0764 20.814C95.6484 20.242 95.9344 19.4707 95.9344 18.5C95.9344 17.5293 95.6484 16.758 95.0764 16.186C94.5044 15.614 93.7591 15.328 92.8404 15.328C91.9217 15.328 91.1764 15.614 90.6044 16.186C90.0324 16.758 89.7464 17.5293 89.7464 18.5C89.7464 19.4707 90.0324 20.242 90.6044 20.814Z" fill="#24292D"/>
<path d="M114.396 25L113.486 22.14H106.726L105.816 25H101.266L107.454 6.8H112.758L118.946 25H114.396ZM107.974 18.24H112.238L110.106 11.558L107.974 18.24ZM128.154 12H132.47L127.66 25H123.24L118.43 12H122.746L125.45 20.242L128.154 12ZM141.519 15.744H138.841V20.346C138.841 20.866 139.049 21.1953 139.465 21.334C139.881 21.4727 140.565 21.516 141.519 21.464V25C139.04 25.26 137.324 25.026 136.371 24.298C135.417 23.5527 134.941 22.2353 134.941 20.346V15.744H132.861V12H134.941V9.53L138.841 8.36V12H141.519V15.744ZM154.601 23.388C153.266 24.7053 151.637 25.364 149.713 25.364C147.789 25.364 146.16 24.7053 144.825 23.388C143.49 22.0533 142.823 20.424 142.823 18.5C142.823 16.576 143.49 14.9553 144.825 13.638C146.16 12.3033 147.789 11.636 149.713 11.636C151.637 11.636 153.266 12.3033 154.601 13.638C155.936 14.9553 156.603 16.576 156.603 18.5C156.603 20.424 155.936 22.0533 154.601 23.388ZM147.581 20.71C148.153 21.282 148.864 21.568 149.713 21.568C150.562 21.568 151.273 21.282 151.845 20.71C152.417 20.138 152.703 19.4013 152.703 18.5C152.703 17.5987 152.417 16.862 151.845 16.29C151.273 15.718 150.562 15.432 149.713 15.432C148.864 15.432 148.153 15.718 147.581 16.29C147.009 16.862 146.723 17.5987 146.723 18.5C146.723 19.4013 147.009 20.138 147.581 20.71ZM162.709 14.314C162.952 13.482 163.437 12.8493 164.165 12.416C164.91 11.9653 165.725 11.74 166.609 11.74V16.16C165.656 16.004 164.763 16.1687 163.931 16.654C163.116 17.122 162.709 17.9453 162.709 19.124V25H158.809V12H162.709V14.314Z" fill="#6AADF1"/>
</svg>
