<svg width="24" height="21" viewBox="0 0 24 21" fill="none" xmlns="http://www.w3.org/2000/svg">
<path d="M23.4825 5.78508L12.4193 0.101598C12.1554 -0.0338661 11.8447 -0.0338661 11.5807 0.101598L0.517636 5.78508C-0.1496 6.12788 -0.177798 7.0974 0.468014 7.48065V20.0367C0.468014 20.5688 0.887875 21 1.4057 21C1.92333 21 2.34319 20.5688 2.34319 20.0367V8.44621L3.56194 9.07235V13.147C3.56194 13.5135 3.76446 13.8482 4.08434 14.0106L11.5847 17.8177C11.8464 17.9505 12.1534 17.9507 12.4153 17.8177L19.9158 14.0106C20.2357 13.8482 20.438 13.5135 20.438 13.147V9.11281C22.1526 8.21234 23.4739 7.51301 23.4926 7.50304C24.1728 7.14312 24.1688 6.13767 23.4825 5.78508ZM18.5628 12.5483L12 15.8796L5.43712 12.5483V10.0357C11.9967 13.3656 11.6054 13.2936 12 13.2936C12.3056 13.2936 12.2501 13.3924 18.5628 10.0949V12.5483ZM12.0445 11.2761L3.03332 6.64679L12 2.04025L20.9899 6.65864C19.4846 7.45167 13.5829 10.5549 12.0445 11.2761Z" fill="#6F7A87" fill-opacity="0.39"/>
</svg>
