<svg width="34" height="34" viewBox="0 0 34 34" fill="none" xmlns="http://www.w3.org/2000/svg">
<path d="M30.9091 0H3.09093C1.387 0 0 1.3862 0 3.09093V30.9091C0 32.6137 1.387 34 3.09093 34H30.9091C32.613 34 34 32.6138 34 30.9091V3.09093C33.9999 1.3862 32.613 0 30.9091 0ZM32.4545 30.9091C32.4545 31.761 31.7617 32.4545 30.9091 32.4545H3.09093C2.2382 32.4545 1.5455 31.761 1.5455 30.9091V3.09093C1.5455 2.239 2.23827 1.5455 3.09093 1.5455H30.9091C31.7618 1.5455 32.4545 2.239 32.4545 3.09093V30.9091Z" fill="white"/>
<path d="M26.484 9.51496L13.9226 22.8143L7.52952 15.7104C7.24126 15.3927 6.7538 15.3678 6.43686 15.653C6.11992 15.9382 6.09427 16.4273 6.37948 16.7442L13.334 24.4715C13.4789 24.6322 13.6841 24.7243 13.9 24.7273C13.9031 24.7273 13.906 24.7273 13.9091 24.7273C14.1219 24.7273 14.3241 24.6398 14.4705 24.485L27.6068 10.576C27.8996 10.2658 27.886 9.77685 27.5766 9.48403C27.2673 9.19049 26.7753 9.20476 26.484 9.51496Z" fill="white"/>
</svg>
