<svg width="41" height="47" viewBox="0 0 41 47" fill="none" xmlns="http://www.w3.org/2000/svg">
<path d="M39.8423 47H1.31737C0.891917 47 0.54715 46.6557 0.54715 46.2298V39.2454C0.54715 35.0853 4.27522 31.7002 8.85728 31.7002L14.3833 31.4661C14.7911 31.4542 15.168 31.7773 15.1857 32.2032C15.2037 32.6287 14.8735 32.9875 14.4481 33.0056L8.88946 33.2402C5.1248 33.2411 2.08802 35.9348 2.08802 39.2454V45.4591H39.0716V39.2454C39.0716 35.9348 36.0348 33.2411 32.3023 33.2411L26.9549 33.0162C26.5299 32.9981 26.1997 32.6393 26.2178 32.2138C26.2354 31.7888 26.6022 31.4418 27.0197 31.4767L32.3345 31.7006H32.3363C36.8857 31.7006 40.6125 35.0853 40.6125 39.2454V46.2298C40.6125 46.6557 40.2677 47 39.8423 47Z" fill="#4D9D38"/>
<path d="M20.5798 34.6127C18.3838 34.6127 16.1878 34.2996 14.1862 33.6736C13.8643 33.5735 13.6452 33.2759 13.6452 32.9387V26.1967C13.6452 25.7708 13.9904 25.4265 14.4159 25.4265H26.7437C27.1692 25.4265 27.5144 25.7708 27.5144 26.1967V32.9387C27.5144 33.2759 27.2953 33.574 26.9734 33.6736C24.9718 34.2996 22.7758 34.6127 20.5798 34.6127ZM15.1865 32.3633C18.6047 33.3112 22.5549 33.3112 25.9731 32.3633V26.9674H15.1865V32.3633Z" fill="#4D9D38"/>
<path d="M37.5307 46.9998H29.0552C28.6298 46.9998 28.2846 46.6554 28.2846 46.2295V40.8358C28.2846 40.4099 28.6298 40.0656 29.0552 40.0656H37.5307C37.9561 40.0656 38.3009 40.4099 38.3009 40.8358V46.2295C38.3009 46.6554 37.9561 46.9998 37.5307 46.9998ZM29.8255 45.4589H36.76V41.6065H29.8255V45.4589Z" fill="#4D9D38"/>
<path d="M26.3244 26.9672H14.8351C11.6299 26.9672 9.02259 24.3598 9.02259 21.1546V11.0774C9.02259 10.6515 9.36736 10.3068 9.7928 10.3068C10.2183 10.3068 10.5635 10.6515 10.5635 11.0774V21.1546C10.5635 23.5098 12.4795 25.4263 14.8351 25.4263H26.3244C28.6801 25.4263 30.5961 23.5098 30.5961 21.1546V9.87428C30.5961 9.44839 30.9413 9.10362 31.3668 9.10362C31.7922 9.10362 32.137 9.44839 32.137 9.87428V21.1546C32.137 24.3598 29.5296 26.9672 26.3244 26.9672Z" fill="#4D9D38"/>
<path d="M28.4111 11.5572H9.7928C9.36736 11.5572 9.02259 11.2129 9.02259 10.787V3.98114C9.02259 1.786 10.8081 0 13.0033 0H33.6783C34.1037 0 34.4485 0.344767 34.4485 0.770656V5.5198C34.4485 8.84888 31.7402 11.5572 28.4111 11.5572ZM10.5635 10.0163H28.4111C30.8902 10.0163 32.9076 7.99887 32.9076 5.5198V1.54087H13.0033C11.6582 1.54087 10.5635 2.63602 10.5635 3.98114V10.0163Z" fill="#4D9D38"/>
<path d="M19.9405 20.0355V19.4831C19.9405 18.9434 20.0481 18.674 20.291 18.3381L21.3549 16.8828C21.6785 16.4516 21.8134 16.1412 21.8134 15.7775C21.8134 15.1977 21.4087 14.767 20.7623 14.767C20.1292 14.767 19.7386 15.158 19.6169 15.8454C19.6037 15.9256 19.5495 15.9662 19.4688 15.9529L18.2564 15.7642C18.1616 15.7515 18.1351 15.6836 18.1484 15.6029C18.364 14.2556 19.3339 13.4201 20.8161 13.4201C22.2984 13.4201 23.349 14.39 23.349 15.7642C23.349 16.3436 23.1739 16.8422 22.7966 17.3413L21.7323 18.7957C21.5303 19.0523 21.4633 19.2406 21.4633 19.6444V20.0355C21.4633 20.1162 21.4091 20.1704 21.328 20.1704H20.0754C19.9943 20.17 19.9405 20.1157 19.9405 20.0355ZM19.8863 21.2201C19.8863 21.1399 19.9405 21.0857 20.0212 21.0857H21.3685C21.4497 21.0857 21.503 21.1399 21.503 21.2201V22.5952C21.503 22.6755 21.4497 22.7297 21.3685 22.7297H20.0212C19.9405 22.7297 19.8863 22.6755 19.8863 22.5952V21.2201Z" fill="#4D9D38"/>
</svg>
