<svg width="164" height="170" viewBox="0 0 164 170" fill="none" xmlns="http://www.w3.org/2000/svg"><path d="M45.242 53.833a2.833 2.833 0 002.828 2.834h67.861a2.827 2.827 0 002.828-2.834A2.827 2.827 0 00115.931 51H48.069c-.75 0-1.47.298-2 .83a2.836 2.836 0 00-.828 2.003zM19.793 73.667h56.552c.75 0 1.47-.299 2-.83a2.836 2.836 0 00-2-4.837H19.793c-.75 0-1.469.299-2 .83a2.836 2.836 0 002 4.837zM87.655 85h-22.62c-.75 0-1.47.299-2 .83a2.836 2.836 0 002 4.837h22.62c.75 0 1.47-.299 2-.83a2.836 2.836 0 000-4.007 2.825 2.825 0 00-2-.83zM70.69 102H19.793a2.826 2.826 0 00-2.827 2.833 2.826 2.826 0 002.828 2.834H70.69c.75 0 1.469-.299 2-.83a2.838 2.838 0 000-4.007 2.826 2.826 0 00-2-.83zM19.793 56.667H36.76c.75 0 1.469-.299 2-.83a2.836 2.836 0 00-2-4.837H19.793c-.75 0-1.469.298-2 .83a2.836 2.836 0 002 4.837zM115.931 68H87.655c-.75 0-1.469.299-2 .83a2.836 2.836 0 002 4.837h28.276a2.827 2.827 0 002.828-2.834A2.827 2.827 0 00115.931 68zM19.793 90.667h33.931c.75 0 1.47-.299 2-.83a2.836 2.836 0 000-4.007 2.825 2.825 0 00-2-.83h-33.93c-.75 0-1.47.299-2 .83a2.836 2.836 0 002 4.837zM65.035 136h-11.31a2.826 2.826 0 00-2.828 2.833 2.826 2.826 0 002.828 2.834h11.31c.75 0 1.469-.299 1.999-.83a2.838 2.838 0 000-4.007 2.826 2.826 0 00-2-.83zm-22.621 0h-22.62a2.826 2.826 0 00-2.828 2.833 2.826 2.826 0 002.828 2.834h22.62c.75 0 1.469-.299 2-.83a2.838 2.838 0 000-4.007 2.826 2.826 0 00-2-.83zm-22.621-11.333H36.76c.75 0 1.469-.299 2-.83a2.838 2.838 0 000-4.007 2.826 2.826 0 00-2-.83H19.793a2.826 2.826 0 00-2.827 2.833 2.826 2.826 0 002.828 2.834zm0-85h33.931c.75 0 1.47-.299 2-.83a2.837 2.837 0 000-4.007 2.825 2.825 0 00-2-.83h-33.93c-.75 0-1.47.298-2 .83a2.836 2.836 0 002 4.837zM65.035 119H48.069c-.75 0-1.47.299-2 .83a2.835 2.835 0 002 4.837h16.966c.75 0 1.469-.299 1.999-.83a2.838 2.838 0 000-4.007 2.826 2.826 0 00-2-.83z" fill="#fff" fill-opacity=".12"/><path d="M163.981 160.933a8.455 8.455 0 00-2.878-5.831l-21.084-18.486a31.172 31.172 0 00-4.295-27.015V36.833a2.84 2.84 0 00-.828-2.003l-33.931-34a2.82 2.82 0 00-2-.83H14.139a14.14 14.14 0 00-9.992 4.154A14.197 14.197 0 000 14.167v141.666a14.198 14.198 0 004.146 10.013A14.138 14.138 0 0014.138 170h107.448a14.139 14.139 0 009.993-4.154 14.199 14.199 0 004.145-10.013v-.393l14.209 12.457a8.47 8.47 0 009.345 1.22 8.489 8.489 0 003.59-3.377 8.511 8.511 0 001.113-4.807zm-35.406-15.712a25.308 25.308 0 01-33.891 2.265 25.405 25.405 0 01-9.294-15.675 25.441 25.441 0 013.583-17.876 25.354 25.354 0 0114.612-10.865 25.306 25.306 0 0118.113 1.746 25.38 25.38 0 0112.278 13.455 25.449 25.449 0 01.118 18.233 25.305 25.305 0 01-5.519 8.717zM101.793 9.673L126.071 34h-15.795a8.482 8.482 0 01-5.995-2.492 8.518 8.518 0 01-2.488-6.008V9.673zm19.793 154.66H14.138a8.483 8.483 0 01-5.995-2.492 8.52 8.52 0 01-2.488-6.008V14.167a8.519 8.519 0 012.488-6.008 8.484 8.484 0 015.995-2.492h82V25.5a14.196 14.196 0 004.146 10.013 14.139 14.139 0 009.992 4.154h19.793v63.809a31.038 31.038 0 00-33.05-4.154 31.12 31.12 0 00-13.003 11.497 31.208 31.208 0 000 33.377 31.12 31.12 0 0013.003 11.498 31.047 31.047 0 0033.05-4.155v4.294a8.518 8.518 0 01-2.487 6.008 8.484 8.484 0 01-5.996 2.492zm36.06-.967a2.835 2.835 0 01-1.94.962 2.826 2.826 0 01-2.051-.696l-19.057-16.708a30.928 30.928 0 003.134-4.782l19.648 17.227a2.837 2.837 0 01.266 3.998v-.001z" fill="#fff" fill-opacity=".12"/><path d="M123.285 133.736a2.822 2.822 0 00-3.959.563 11.308 11.308 0 01-8.246 4.505 11.29 11.29 0 01-8.799-3.291 11.351 11.351 0 011.211-17.08 2.84 2.84 0 00.562-3.97 2.822 2.822 0 00-3.961-.563 17.023 17.023 0 00-1.803 25.611 16.969 16.969 0 006.06 3.904 16.936 16.936 0 0019.499-5.712 2.834 2.834 0 00-.564-3.967z" fill="#fff" fill-opacity=".12"/></svg>