<svg width="25" height="21" viewBox="0 0 25 21" fill="none" xmlns="http://www.w3.org/2000/svg">
<path d="M12.9922 12.0273C12.9922 14.332 12.4727 16.1094 11.4336 17.3594C10.4023 18.6094 8.94531 19.2344 7.0625 19.2344C5.16406 19.2344 3.69531 18.6055 2.65625 17.3477C1.61719 16.0898 1.09766 14.3164 1.09766 12.0273V8.91016C1.09766 6.60547 1.61328 4.82813 2.64453 3.57812C3.68359 2.32812 5.14844 1.70312 7.03906 1.70312C8.92969 1.70312 10.3945 2.33203 11.4336 3.58984C12.4727 4.84766 12.9922 6.625 12.9922 8.92188V12.0273ZM9.04297 8.40625C9.04297 7.17969 8.88281 6.26562 8.5625 5.66406C8.24219 5.05469 7.73438 4.75 7.03906 4.75C6.35938 4.75 5.86328 5.03125 5.55078 5.59375C5.24609 6.15625 5.08203 7.00781 5.05859 8.14844V12.5078C5.05859 13.7812 5.21875 14.7148 5.53906 15.3086C5.85938 15.8945 6.36719 16.1875 7.0625 16.1875C7.73438 16.1875 8.23047 15.9023 8.55078 15.332C8.87109 14.7539 9.03516 13.8516 9.04297 12.625V8.40625ZM23.7969 19H19.8359V6.39062L15.9453 7.52734V4.52734L23.4336 1.9375H23.7969V19Z" fill="white"/>
<path d="M11.4336 17.3594L10.6646 16.7201L10.6622 16.723L11.4336 17.3594ZM2.64453 3.57812L1.87552 2.93888L1.87316 2.94174L2.64453 3.57812ZM8.5625 5.66406L7.67732 6.12935L7.67983 6.13406L8.5625 5.66406ZM5.55078 5.59375L4.67657 5.10808L4.67149 5.11747L5.55078 5.59375ZM5.05859 8.14844L4.0588 8.12789L4.05859 8.13816V8.14844H5.05859ZM5.53906 15.3086L4.65895 15.7834L4.66161 15.7883L5.53906 15.3086ZM8.55078 15.332L9.42269 15.8217L9.4255 15.8167L8.55078 15.332ZM9.04297 12.625L10.043 12.6314V12.625H9.04297ZM11.9922 12.0273C11.9922 14.1945 11.5028 15.7118 10.6646 16.7201L12.2026 17.9986C13.4425 16.507 13.9922 14.4696 13.9922 12.0273H11.9922ZM10.6622 16.723C9.85279 17.7041 8.70075 18.2344 7.0625 18.2344V20.2344C9.18988 20.2344 10.9519 19.5146 12.205 17.9958L10.6622 16.723ZM7.0625 18.2344C5.4079 18.2344 4.24415 17.6997 3.42721 16.7108L1.88529 17.9845C3.14647 19.5112 4.92023 20.2344 7.0625 20.2344V18.2344ZM3.42721 16.7108C2.58598 15.6924 2.09766 14.1764 2.09766 12.0273H0.0976562C0.0976562 14.4564 0.648394 16.4872 1.88529 17.9845L3.42721 16.7108ZM2.09766 12.0273V8.91016H0.0976562V12.0273H2.09766ZM2.09766 8.91016C2.09766 6.74145 2.58389 5.22301 3.4159 4.21451L1.87316 2.94174C0.64267 4.43324 0.0976562 6.46949 0.0976562 8.91016H2.09766ZM3.41354 4.21736C4.23058 3.23445 5.39161 2.70312 7.03906 2.70312V0.703125C4.90526 0.703125 3.1366 1.4218 1.87552 2.93889L3.41354 4.21736ZM7.03906 2.70312C8.68433 2.70312 9.84485 3.23678 10.6626 4.22673L12.2046 2.95296C10.9442 1.42728 9.17505 0.703125 7.03906 0.703125V2.70312ZM10.6626 4.22673C11.5034 5.24452 11.9922 6.76402 11.9922 8.92188H13.9922C13.9922 6.48598 13.4419 4.45079 12.2046 2.95296L10.6626 4.22673ZM11.9922 8.92188V12.0273H13.9922V8.92188H11.9922ZM10.043 8.40625C10.043 7.12747 9.88191 6.01429 9.44517 5.19407L7.67983 6.13406C7.88372 6.51696 8.04297 7.23191 8.04297 8.40625H10.043ZM9.44766 5.19878C9.2163 4.75863 8.89103 4.3821 8.4559 4.12102C8.02133 3.86028 7.53605 3.75 7.03906 3.75V5.75C7.23738 5.75 7.35368 5.79207 7.42691 5.83601C7.4996 5.87962 7.58839 5.96012 7.67734 6.12934L9.44766 5.19878ZM7.03906 3.75C6.55956 3.75 6.08895 3.85012 5.66404 4.09101C5.2363 4.33351 4.91039 4.68732 4.67662 5.10811L6.42494 6.07939C6.50367 5.93768 6.58206 5.86961 6.65041 5.83086C6.7216 5.79051 6.83887 5.75 7.03906 5.75V3.75ZM4.67149 5.11747C4.25265 5.89072 4.08333 6.93447 4.0588 8.12789L6.05838 8.16898C6.08074 7.08115 6.23954 6.42178 6.43007 6.07003L4.67149 5.11747ZM4.05859 8.14844V12.5078H6.05859V8.14844H4.05859ZM4.05859 12.5078C4.05859 13.8242 4.21718 14.9645 4.65896 15.7834L6.41916 14.8338C6.22032 14.4652 6.05859 13.7383 6.05859 12.5078H4.05859ZM4.66161 15.7883C4.89731 16.2194 5.22636 16.5835 5.66043 16.834C6.09237 17.0832 6.5722 17.1875 7.0625 17.1875V15.1875C6.85749 15.1875 6.73576 15.1454 6.65988 15.1016C6.58614 15.059 6.50113 14.9837 6.41651 14.8289L4.66161 15.7883ZM7.0625 17.1875C7.54264 17.1875 8.01259 17.0845 8.43682 16.8406C8.86241 16.596 9.18714 16.2411 9.42268 15.8217L7.67889 14.8423C7.59411 14.9933 7.51063 15.0661 7.44013 15.1067C7.36827 15.148 7.25423 15.1875 7.0625 15.1875V17.1875ZM9.4255 15.8167C9.87017 15.0141 10.0348 13.9047 10.0429 12.6314L8.04299 12.6186C8.03547 13.7984 7.87202 14.4937 7.67607 14.8474L9.4255 15.8167ZM10.043 12.625V8.40625H8.04297V12.625H10.043ZM23.7969 19V20H24.7969V19H23.7969ZM19.8359 19H18.8359V20H19.8359V19ZM19.8359 6.39062H20.8359V5.05665L19.5555 5.43075L19.8359 6.39062ZM15.9453 7.52734H14.9453V8.86132L16.2258 8.48721L15.9453 7.52734ZM15.9453 4.52734L15.6185 3.58227L14.9453 3.81508V4.52734H15.9453ZM23.4336 1.9375V0.9375H23.2656L23.1067 0.992426L23.4336 1.9375ZM23.7969 1.9375H24.7969V0.9375H23.7969V1.9375ZM23.7969 18H19.8359V20H23.7969V18ZM20.8359 19V6.39062H18.8359V19H20.8359ZM19.5555 5.43075L15.6649 6.56747L16.2258 8.48721L20.1164 7.3505L19.5555 5.43075ZM16.9453 7.52734V4.52734H14.9453V7.52734H16.9453ZM16.2722 5.47242L23.7605 2.88257L23.1067 0.992426L15.6185 3.58227L16.2722 5.47242ZM23.4336 2.9375H23.7969V0.9375H23.4336V2.9375ZM22.7969 1.9375V19H24.7969V1.9375H22.7969Z" fill="black" fill-opacity="0.15"/>
</svg>
