<svg width="40" height="40" viewBox="0 0 40 40" fill="none" xmlns="http://www.w3.org/2000/svg">
<path d="M20 0C8.97219 0 0 8.97219 0 20C0 31.0278 8.97219 40 20 40C31.0278 40 40 31.0278 40 20C40 8.97219 31.0278 0 20 0ZM20.8334 38.2911V35.8333C20.8334 35.3727 20.4606 34.9999 20 34.9999C19.5394 34.9999 19.1666 35.3727 19.1666 35.8333V38.2911C9.72383 37.8635 2.13641 30.2762 1.70883 20.8333H4.16664C4.62727 20.8334 5 20.4606 5 20C5 19.5394 4.62727 19.1666 4.16664 19.1666H1.70883C2.13641 9.72383 9.72375 2.13641 19.1666 1.70883V4.16664C19.1666 4.62727 19.5394 5 20 5C20.4606 5 20.8334 4.62727 20.8334 4.16664V1.70883C30.2762 2.13641 37.8636 9.72375 38.2912 19.1666H35.8334C35.3727 19.1666 35 19.5394 35 20C35 20.4606 35.3727 20.8334 35.8334 20.8334H38.2912C37.8636 30.2762 30.2762 37.8636 20.8334 38.2911Z" fill="#8AD377"/>
<path d="M21.5845 20.4061C21.6189 20.2727 21.6666 20.144 21.6666 20C21.6666 19.6512 21.534 19.3452 21.35 19.0773L26.5885 7.85242C26.783 7.43578 26.6032 6.9393 26.1857 6.74484C25.7698 6.55352 25.2734 6.7318 25.0781 7.14766L19.8434 18.3651C19.0015 18.4481 18.3334 19.1368 18.3334 20C18.3334 20.9188 19.0812 21.6666 20 21.6666C20.1439 21.6666 20.2727 21.6189 20.4061 21.5845L26.9108 28.0891C27.0735 28.2519 27.2868 28.3333 27.5 28.3333C27.7132 28.3333 27.9264 28.2519 28.0892 28.0891C28.4148 27.7636 28.4148 27.2362 28.0892 26.9108L21.5845 20.4061Z" fill="#8AD377"/>
</svg>
