<svg width="45" height="45" viewBox="0 0 45 45" fill="none" xmlns="http://www.w3.org/2000/svg">
<path d="M24.4373 28.8019L21.7742 26.6963C21.6737 26.6157 21.5583 26.5559 21.4345 26.5201C21.3108 26.4844 21.1812 26.4734 21.0532 26.488C20.9252 26.5025 20.8013 26.5423 20.6888 26.6049C20.5762 26.6675 20.4771 26.7518 20.3972 26.8528C20.3174 26.9539 20.2583 27.0698 20.2234 27.1938C20.1885 27.3178 20.1785 27.4474 20.1939 27.5753C20.2093 27.7032 20.2499 27.8268 20.3133 27.9389C20.3767 28.0511 20.4616 28.1496 20.5633 28.2287L20.6643 28.3085C19.6623 27.9929 18.7586 27.4244 18.0404 26.6578C17.3221 25.8912 16.8135 24.9525 16.5637 23.9321C16.3139 22.9118 16.3313 21.8443 16.6141 20.8326C16.897 19.8209 17.4359 18.8992 18.1787 18.1564C18.3565 17.9721 18.4549 17.7254 18.4527 17.4694C18.4504 17.2133 18.3476 16.9684 18.1665 16.7874C17.9854 16.6063 17.7404 16.5037 17.4844 16.5015C17.2283 16.4993 16.9817 16.5978 16.7975 16.7757C15.7503 17.8228 15.0118 19.1381 14.6632 20.5773C14.3145 22.0166 14.3691 23.524 14.8211 24.9342C15.273 26.3444 16.1048 27.6029 17.2251 28.5713C18.3454 29.5398 19.7108 30.1808 21.1715 30.4241L20.5621 30.9057C20.4605 30.9849 20.3756 31.0834 20.3122 31.1955C20.2488 31.3077 20.2082 31.4312 20.1928 31.5591C20.1774 31.687 20.1874 31.8167 20.2223 31.9407C20.2572 32.0647 20.3163 32.1806 20.3961 32.2816C20.476 32.3827 20.5751 32.467 20.6876 32.5296C20.8002 32.5922 20.9241 32.6319 21.052 32.6465C21.18 32.661 21.3096 32.6501 21.4334 32.6143C21.5572 32.5786 21.6726 32.5187 21.7731 32.4381L24.4373 30.3326C24.553 30.2412 24.6465 30.1248 24.7107 29.9921C24.775 29.8594 24.8084 29.7138 24.8084 29.5664C24.8084 29.419 24.775 29.2734 24.7107 29.1407C24.6465 29.008 24.553 28.8916 24.4373 28.8002V28.8019Z" fill="#8AD377"/>
<path d="M22.4997 9.33908C19.8968 9.33908 17.3523 10.1109 15.1881 11.557C13.0238 13.0032 11.337 15.0586 10.3409 17.4634C9.34477 19.8682 9.08415 22.5143 9.59195 25.0672C10.0998 27.6202 11.3532 29.9652 13.1937 31.8057C15.0343 33.6463 17.3793 34.8997 19.9322 35.4075C22.4851 35.9153 25.1313 35.6547 27.5361 34.6586C29.9409 33.6625 31.9963 31.9756 33.4424 29.8114C34.8885 27.6471 35.6604 25.1027 35.6604 22.4997C35.6565 19.0105 34.2687 15.6652 31.8015 13.198C29.3342 10.7307 25.989 9.34292 22.4997 9.33908ZM22.4997 33.7072C20.2831 33.7072 18.1163 33.0499 16.2732 31.8184C14.4301 30.5869 12.9937 28.8365 12.1454 26.7886C11.2971 24.7407 11.0752 22.4873 11.5076 20.3133C11.9401 18.1392 13.0075 16.1422 14.5749 14.5749C16.1422 13.0075 18.1392 11.9401 20.3133 11.5076C22.4873 11.0752 24.7407 11.2971 26.7886 12.1454C28.8365 12.9937 30.5869 14.4301 31.8184 16.2732C33.0499 18.1163 33.7072 20.2831 33.7072 22.4997C33.7039 25.4711 32.5221 28.3199 30.421 30.421C28.3199 32.5221 25.4711 33.7039 22.4997 33.7072Z" fill="#8AD377"/>
<path d="M44.0228 18.5799H40.1522C39.7003 16.5236 38.8879 14.5636 37.7525 12.7907L40.4909 10.0551C40.5817 9.96441 40.6537 9.85676 40.7028 9.73826C40.7519 9.61976 40.7772 9.49275 40.7772 9.36447C40.7772 9.23619 40.7519 9.10917 40.7028 8.99067C40.6537 8.87217 40.5817 8.76452 40.4909 8.67387L36.3278 4.51133C36.1447 4.32833 35.8964 4.22553 35.6375 4.22553C35.3786 4.22553 35.1303 4.32833 34.9472 4.51133L32.2099 7.24636C30.437 6.11082 28.477 5.29838 26.4206 4.84672V0.976599C26.4207 0.84833 26.3955 0.721304 26.3464 0.602784C26.2974 0.484265 26.2255 0.376576 26.1348 0.285876C26.0441 0.195176 25.9364 0.123243 25.8178 0.0741905C25.6993 0.0251378 25.5723 -7.32001e-05 25.444 1.59638e-07H19.5565C19.4283 -7.32001e-05 19.3012 0.0251378 19.1827 0.0741905C19.0642 0.123243 18.9565 0.195176 18.8658 0.285876C18.7751 0.376576 18.7032 0.484265 18.6541 0.602784C18.6051 0.721304 18.5799 0.84833 18.5799 0.976599V4.84728C16.5236 5.29894 14.5635 6.11138 12.7907 7.24692L10.0551 4.50854C9.87193 4.32554 9.62364 4.22274 9.36475 4.22274C9.10586 4.22274 8.85756 4.32554 8.67443 4.50854L4.51133 8.67108C4.42057 8.76173 4.34856 8.86938 4.29944 8.98788C4.25031 9.10638 4.22502 9.2334 4.22502 9.36168C4.22502 9.48995 4.25031 9.61697 4.29944 9.73547C4.34856 9.85397 4.42057 9.96162 4.51133 10.0523L7.24636 12.7895C6.11097 14.5625 5.29854 16.5225 4.84672 18.5788H0.976599C0.84833 18.5787 0.721304 18.604 0.602784 18.653C0.484265 18.7021 0.376576 18.774 0.285876 18.8647C0.195176 18.9554 0.123243 19.0631 0.0741905 19.1816C0.0251378 19.3001 -7.32001e-05 19.4271 1.59639e-07 19.5554V25.4429C-7.32001e-05 25.5712 0.0251378 25.6982 0.0741905 25.8167C0.123243 25.9352 0.195176 26.0429 0.285876 26.1336C0.376576 26.2243 0.484265 26.2963 0.602784 26.3453C0.721304 26.3944 0.84833 26.4196 0.976599 26.4195H4.84728C5.2991 28.4758 6.11153 30.4358 7.24692 32.2088L4.5091 34.9472C4.41833 35.0378 4.34633 35.1455 4.2972 35.264C4.24808 35.3825 4.22279 35.5095 4.22279 35.6378C4.22279 35.766 4.24808 35.8931 4.2972 36.0116C4.34633 36.1301 4.41833 36.2377 4.5091 36.3284L8.6722 40.4909C8.85533 40.6739 9.10362 40.7767 9.36251 40.7767C9.6214 40.7767 9.8697 40.6739 10.0528 40.4909L12.7895 37.7531C14.5624 38.8886 16.5225 39.7011 18.5788 40.1527V44.0234C18.5787 44.1517 18.604 44.2787 18.653 44.3972C18.7021 44.5157 18.774 44.6234 18.8647 44.7141C18.9554 44.8048 19.0631 44.8768 19.1816 44.9258C19.3001 44.9749 19.4271 45.0001 19.5554 45H25.4429C25.5712 45.0001 25.6982 44.9749 25.8167 44.9258C25.9352 44.8768 26.0429 44.8048 26.1336 44.7141C26.2243 44.6234 26.2963 44.5157 26.3453 44.3972C26.3944 44.2787 26.4196 44.1517 26.4195 44.0234V40.1522C28.4759 39.7005 30.4359 38.8881 32.2088 37.7525L34.9472 40.4903C35.1303 40.6733 35.3786 40.7761 35.6375 40.7761C35.8964 40.7761 36.1447 40.6733 36.3278 40.4903L40.4909 36.3278C40.5817 36.2372 40.6537 36.1295 40.7028 36.011C40.7519 35.8925 40.7772 35.7655 40.7772 35.6372C40.7772 35.5089 40.7519 35.3819 40.7028 35.2634C40.6537 35.1449 40.5817 35.0373 40.4909 34.9466L37.7531 32.2099C38.8885 30.4369 39.7009 28.4769 40.1527 26.4206H44.0234C44.1517 26.4207 44.2787 26.3955 44.3972 26.3464C44.5157 26.2974 44.6234 26.2255 44.7141 26.1348C44.8048 26.0441 44.8768 25.9364 44.9258 25.8178C44.9749 25.6993 45.0001 25.5723 45 25.444V19.5565C45.0001 19.4282 44.9748 19.3011 44.9258 19.1826C44.8767 19.064 44.8047 18.9563 44.7139 18.8656C44.6232 18.7749 44.5154 18.703 44.3968 18.654C44.2782 18.6049 44.1512 18.5798 44.0228 18.5799ZM43.0462 24.4663H39.3486C39.1184 24.4664 38.8957 24.5477 38.7197 24.6959C38.5437 24.8442 38.4257 25.0498 38.3865 25.2766C37.9846 27.6143 37.0654 29.8327 35.6961 31.7696C35.5637 31.9577 35.5019 32.1866 35.5217 32.4158C35.5415 32.645 35.6416 32.8598 35.8043 33.0224L38.4194 35.6375L35.6375 38.4194L33.0219 35.8043C32.8592 35.6417 32.6444 35.5417 32.4152 35.5219C32.186 35.5021 31.9572 35.5638 31.769 35.6961C29.8322 37.0652 27.6141 37.9846 25.2766 38.387C25.0498 38.4262 24.8442 38.5442 24.6959 38.7203C24.5477 38.8963 24.4664 39.119 24.4663 39.3491V43.0462H20.5331V39.3491C20.5331 39.119 20.4517 38.8963 20.3035 38.7203C20.1552 38.5442 19.9496 38.4262 19.7228 38.387C17.3853 37.9846 15.1672 37.0652 13.2304 35.6961C13.0422 35.5638 12.8134 35.5021 12.5843 35.5219C12.3551 35.5417 12.1403 35.6417 11.9776 35.8043L9.36196 38.4194L6.58004 35.6375L9.1951 33.0224C9.35781 32.8598 9.4579 32.645 9.4777 32.4158C9.49751 32.1866 9.43577 31.9577 9.30336 31.7696C7.93407 29.8327 7.01488 27.6143 6.61297 25.2766C6.57378 25.0498 6.45577 24.8442 6.27975 24.6959C6.10373 24.5477 5.88101 24.4664 5.65088 24.4663H1.9532V20.5331H5.65088C5.88101 20.5331 6.10373 20.4517 6.27975 20.3035C6.45577 20.1552 6.57378 19.9496 6.61297 19.7228C7.01488 17.3851 7.93407 15.1667 9.30336 13.2298C9.43577 13.0417 9.49751 12.8129 9.4777 12.5837C9.4579 12.3545 9.35781 12.1396 9.1951 11.977L6.58004 9.36196L9.36196 6.58004L11.9776 9.1951C12.1401 9.35791 12.355 9.45807 12.5842 9.47787C12.8135 9.49768 13.0423 9.43588 13.2304 9.30336C15.1672 7.93421 17.3853 7.01486 19.7228 6.61241C19.9496 6.57322 20.1552 6.45521 20.3035 6.27919C20.4517 6.10317 20.5331 5.88045 20.5331 5.65032V1.9532H24.4663V5.65032C24.4664 5.88045 24.5477 6.10317 24.6959 6.27919C24.8442 6.45521 25.0498 6.57322 25.2766 6.61241C27.6141 7.01486 29.8322 7.93421 31.769 9.30336C31.9571 9.43588 32.186 9.49768 32.4152 9.47787C32.6444 9.45807 32.8593 9.35791 33.0219 9.1951L35.6375 6.58004L38.4194 9.36196L35.8043 11.977C35.6416 12.1396 35.5415 12.3545 35.5217 12.5837C35.5019 12.8129 35.5637 13.0417 35.6961 13.2298C37.0654 15.1667 37.9846 17.3851 38.3865 19.7228C38.4257 19.9496 38.5437 20.1552 38.7197 20.3035C38.8957 20.4517 39.1184 20.5331 39.3486 20.5331H43.0462V24.4663Z" fill="#8AD377"/>
<path d="M23.8279 14.553L24.4373 14.0714C24.5389 13.9922 24.6239 13.8937 24.6873 13.7816C24.7506 13.6695 24.7912 13.5459 24.8067 13.418C24.8221 13.2901 24.8121 13.1604 24.7772 13.0364C24.7423 12.9124 24.6832 12.7966 24.6033 12.6955C24.5235 12.5944 24.4244 12.5102 24.3118 12.4475C24.1992 12.3849 24.0754 12.3452 23.9474 12.3307C23.8194 12.3161 23.6898 12.327 23.566 12.3628C23.4423 12.3985 23.3268 12.4584 23.2263 12.539L20.5621 14.6445C20.4465 14.7359 20.353 14.8524 20.2887 14.9851C20.2245 15.1178 20.1911 15.2633 20.1911 15.4107C20.1911 15.5582 20.2245 15.7037 20.2887 15.8364C20.353 15.9691 20.4465 16.0855 20.5621 16.1769L23.2252 18.2825C23.3257 18.3631 23.4412 18.4229 23.5649 18.4587C23.6887 18.4944 23.8183 18.5054 23.9463 18.4908C24.0743 18.4763 24.1981 18.4365 24.3107 18.3739C24.4233 18.3113 24.5223 18.227 24.6022 18.126C24.6821 18.0249 24.7412 17.909 24.7761 17.785C24.811 17.661 24.821 17.5313 24.8055 17.4035C24.7901 17.2756 24.7495 17.152 24.6861 17.0399C24.6227 16.9277 24.5378 16.8292 24.4362 16.7501L24.3352 16.6703C25.3371 16.9858 26.2408 17.5543 26.9591 18.3208C27.6774 19.0873 28.186 20.026 28.4358 21.0463C28.6856 22.0667 28.6682 23.1342 28.3854 24.1458C28.1025 25.1575 27.5636 26.0791 26.8208 26.8219C26.6376 27.0052 26.5348 27.2537 26.5349 27.5129C26.535 27.772 26.638 28.0205 26.8213 28.2036C27.0046 28.3868 27.2532 28.4896 27.5123 28.4895C27.7714 28.4894 28.0199 28.3864 28.2031 28.2031C29.2508 27.156 29.9896 25.8405 30.3385 24.4009C30.6874 22.9614 30.6328 21.4535 30.1806 20.043C29.7285 18.6325 28.8964 17.3738 27.7757 16.4053C26.655 15.4368 25.2891 14.7959 23.8279 14.553Z" fill="#8AD377"/>
</svg>
