<svg width="43" height="41" viewBox="0 0 43 41" fill="none" xmlns="http://www.w3.org/2000/svg">
<path d="M32.948 6.11207C32.9667 6.11343 32.9854 6.11479 33.0045 6.11479C33.0368 6.11479 33.0691 6.11207 33.1008 6.10764C33.9474 6.12501 34.6251 6.81658 34.6261 7.66453C34.6261 8.04983 34.938 8.36223 35.3227 8.36223C35.7075 8.36223 36.0194 8.04983 36.0194 7.66453C36.0177 6.27763 35.0537 5.07777 33.7012 4.77934V4.10889C33.7012 3.72359 33.3892 3.41119 33.0045 3.41119C32.6198 3.41119 32.3078 3.72359 32.3078 4.10889V4.81102C30.8778 5.19394 29.9525 6.57947 30.1454 8.04949C30.3383 9.51951 31.5894 10.6185 33.0698 10.6185C33.9294 10.6185 34.6261 11.3166 34.6261 12.1775C34.6261 13.038 33.9294 13.7361 33.0698 13.7361C32.2102 13.7361 31.5135 13.038 31.5135 12.1775C31.5135 11.7922 31.2016 11.4798 30.8169 11.4798C30.4321 11.4798 30.1202 11.7922 30.1202 12.1775C30.1219 13.5143 31.0186 14.6838 32.3078 15.031V15.7954C32.3078 16.1807 32.6198 16.4931 33.0045 16.4931C33.3892 16.4931 33.7012 16.1807 33.7012 15.7954V15.063C35.1724 14.7404 36.1647 13.3593 36.0024 11.8596C35.8405 10.36 34.5761 9.22346 33.0698 9.2238C32.234 9.22414 31.5472 8.56323 31.5142 7.72687C31.4816 6.89051 32.1146 6.17748 32.948 6.11241V6.11207Z" fill="#8AD377"/>
<path d="M33.1096 0C28.8238 0 25.1663 2.8007 23.7961 6.55086H6.50504C6.12201 6.55086 5.8111 6.89664 5.80837 7.2799L5.64373 31.7554H0.715034C0.330304 31.7554 0 32.0344 0 32.4204V35.5264C0.00884433 38.4504 2.30838 40.8525 5.22499 40.9847V41H26.7345V40.9796C26.9087 40.986 26.9805 41 27.0907 41H27.1056C30.1243 40.9952 32.5691 38.543 32.5691 35.5199V19.8161C32.7432 19.8256 32.9276 19.8307 33.1079 19.8307C38.5618 19.8307 43 15.3774 43 9.91503C43 4.45297 38.5639 0 33.1096 0ZM5.48555 39.6046C3.23194 39.6015 1.40353 37.7765 1.39333 35.5192V33.1508H21.5966V35.5093C21.5976 36.9654 22.1783 38.3611 23.2097 39.3876C23.2828 39.4608 23.3736 39.5174 23.4502 39.6046H5.48555ZM31.1757 35.5192C31.1761 37.7724 29.3545 39.6002 27.105 39.6046H27.0917C24.833 39.6005 23.0012 37.7718 22.9899 35.51V32.4204C22.9957 32.2419 22.9277 32.0692 22.8015 31.9431C22.6753 31.8171 22.5028 31.7493 22.3249 31.7554H7.03706L7.19694 7.94626H23.4094C23.2859 8.58503 23.2219 9.23368 23.2185 9.88403C23.2172 11.2593 23.5036 12.6193 24.0594 13.8768H17.4792C17.0941 13.8768 16.7825 14.1892 16.7825 14.5745C16.7825 14.9598 17.0941 15.2722 17.4792 15.2722H24.8153C26.2525 17.5356 28.55 19.1136 31.1757 19.6417V35.5192ZM33.1096 18.4357C28.4166 18.4357 24.6119 14.6256 24.6122 9.92525C24.6122 5.22495 28.4166 1.41483 33.1099 1.41483C37.8029 1.41483 41.6074 5.22529 41.6074 9.92525C41.6022 14.6232 37.8009 18.4306 33.1096 18.4357Z" fill="#8AD377"/>
<path d="M13.0074 18.5202C11.7776 18.5202 10.7776 19.4901 10.7776 20.6824C10.7776 21.8748 11.7776 22.8447 13.0074 22.8447C14.2371 22.8447 15.2375 21.8748 15.2375 20.6824C15.2375 19.4901 14.2371 18.5202 13.0074 18.5202ZM13.0074 21.4493C12.5457 21.4493 12.1709 21.1052 12.1709 20.6824C12.1709 20.2593 12.5461 19.9156 13.0074 19.9156C13.4686 19.9156 13.8442 20.2597 13.8442 20.6824C13.8442 21.1052 13.4686 21.4493 13.0074 21.4493Z" fill="#8AD377"/>
<path d="M16.7825 20.6794C16.7825 21.0647 17.0941 21.3771 17.4792 21.3771H26.7672C27.1519 21.3771 27.4638 21.0647 27.4638 20.6794C27.4638 20.2941 27.1519 19.9817 26.7672 19.9817H17.4792C17.0941 19.9817 16.7825 20.2941 16.7825 20.6794Z" fill="#8AD377"/>
<path d="M13.0074 12.4551C11.7776 12.4551 10.7776 13.4254 10.7776 14.6177C10.7776 15.8101 11.7776 16.78 13.0074 16.78C14.2371 16.78 15.2375 15.8101 15.2375 14.6177C15.2375 13.4254 14.2371 12.4551 13.0074 12.4551ZM13.0074 15.3846C12.5457 15.3846 12.1709 15.0405 12.1709 14.6177C12.1709 14.1949 12.5461 13.8505 13.0074 13.8505C13.4686 13.8505 13.8442 14.1946 13.8442 14.6177C13.8442 15.0405 13.4686 15.3849 13.0074 15.3849V15.3846Z" fill="#8AD377"/>
<path d="M13.0074 24.5845C11.7776 24.5845 10.7776 25.5544 10.7776 26.7468C10.7776 27.9392 11.7776 28.9091 13.0074 28.9091C14.2371 28.9091 15.2375 27.9392 15.2375 26.7468C15.2375 25.5544 14.2371 24.5845 13.0074 24.5845ZM13.0074 27.5137C12.5457 27.5137 12.1709 27.1699 12.1709 26.7468C12.1709 26.324 12.5461 25.9799 13.0074 25.9799C13.4686 25.9799 13.8442 26.324 13.8442 26.7468C13.8442 27.1696 13.4686 27.5137 13.0074 27.5137Z" fill="#8AD377"/>
<path d="M26.7672 26.0866H17.4792C17.0941 26.0866 16.7825 26.399 16.7825 26.7843C16.7825 27.1696 17.0941 27.482 17.4792 27.482H26.7672C27.1519 27.482 27.4638 27.1696 27.4638 26.7843C27.4638 26.399 27.1519 26.0866 26.7672 26.0866Z" fill="#8AD377"/>
</svg>
