<svg width="28" height="21" viewBox="0 0 28 21" fill="none" xmlns="http://www.w3.org/2000/svg">
<path d="M12.9922 12.0273C12.9922 14.332 12.4727 16.1094 11.4336 17.3594C10.4023 18.6094 8.94531 19.2344 7.0625 19.2344C5.16406 19.2344 3.69531 18.6055 2.65625 17.3477C1.61719 16.0898 1.09766 14.3164 1.09766 12.0273V8.91016C1.09766 6.60547 1.61328 4.82813 2.64453 3.57812C3.68359 2.32812 5.14844 1.70312 7.03906 1.70312C8.92969 1.70312 10.3945 2.33203 11.4336 3.58984C12.4727 4.84766 12.9922 6.625 12.9922 8.92188V12.0273ZM9.04297 8.40625C9.04297 7.17969 8.88281 6.26562 8.5625 5.66406C8.24219 5.05469 7.73438 4.75 7.03906 4.75C6.35938 4.75 5.86328 5.03125 5.55078 5.59375C5.24609 6.15625 5.08203 7.00781 5.05859 8.14844V12.5078C5.05859 13.7812 5.21875 14.7148 5.53906 15.3086C5.85938 15.8945 6.36719 16.1875 7.0625 16.1875C7.73438 16.1875 8.23047 15.9023 8.55078 15.332C8.87109 14.7539 9.03516 13.8516 9.04297 12.625V8.40625ZM26.9492 19H15.043V16.4219L20.5273 10.6562C21.8789 9.11719 22.5547 7.89453 22.5547 6.98828C22.5547 6.25391 22.3945 5.69531 22.0742 5.3125C21.7539 4.92969 21.2891 4.73828 20.6797 4.73828C20.0781 4.73828 19.5898 4.99609 19.2148 5.51172C18.8398 6.01953 18.6523 6.65625 18.6523 7.42188H14.6914C14.6914 6.375 14.9531 5.41016 15.4766 4.52734C16 3.63672 16.7266 2.94141 17.6562 2.44141C18.5859 1.94141 19.625 1.69141 20.7734 1.69141C22.6172 1.69141 24.0352 2.11719 25.0273 2.96875C26.0273 3.82031 26.5273 5.04297 26.5273 6.63672C26.5273 7.30859 26.4023 7.96484 26.1523 8.60547C25.9023 9.23828 25.5117 9.90625 24.9805 10.6094C24.457 11.3047 23.6094 12.2383 22.4375 13.4102L20.2344 15.9531H26.9492V19Z" fill="white"/>
<path d="M11.4336 17.3594L10.6646 16.7201L10.6622 16.723L11.4336 17.3594ZM2.64453 3.57812L1.87552 2.93888L1.87316 2.94174L2.64453 3.57812ZM8.5625 5.66406L7.67732 6.12935L7.67983 6.13406L8.5625 5.66406ZM5.55078 5.59375L4.67657 5.10808L4.67149 5.11747L5.55078 5.59375ZM5.05859 8.14844L4.0588 8.12789L4.05859 8.13816V8.14844H5.05859ZM5.53906 15.3086L4.65895 15.7834L4.66161 15.7883L5.53906 15.3086ZM8.55078 15.332L9.42269 15.8217L9.4255 15.8167L8.55078 15.332ZM9.04297 12.625L10.043 12.6314V12.625H9.04297ZM11.9922 12.0273C11.9922 14.1945 11.5028 15.7118 10.6646 16.7201L12.2026 17.9986C13.4425 16.507 13.9922 14.4696 13.9922 12.0273H11.9922ZM10.6622 16.723C9.85279 17.7041 8.70075 18.2344 7.0625 18.2344V20.2344C9.18988 20.2344 10.9519 19.5146 12.205 17.9958L10.6622 16.723ZM7.0625 18.2344C5.4079 18.2344 4.24415 17.6997 3.42721 16.7108L1.88529 17.9845C3.14647 19.5112 4.92023 20.2344 7.0625 20.2344V18.2344ZM3.42721 16.7108C2.58598 15.6924 2.09766 14.1764 2.09766 12.0273H0.0976562C0.0976562 14.4564 0.648394 16.4872 1.88529 17.9845L3.42721 16.7108ZM2.09766 12.0273V8.91016H0.0976562V12.0273H2.09766ZM2.09766 8.91016C2.09766 6.74145 2.58389 5.22301 3.4159 4.21451L1.87316 2.94174C0.64267 4.43324 0.0976562 6.46949 0.0976562 8.91016H2.09766ZM3.41354 4.21736C4.23058 3.23445 5.39161 2.70312 7.03906 2.70312V0.703125C4.90526 0.703125 3.1366 1.4218 1.87552 2.93889L3.41354 4.21736ZM7.03906 2.70312C8.68433 2.70312 9.84485 3.23678 10.6626 4.22673L12.2046 2.95296C10.9442 1.42728 9.17505 0.703125 7.03906 0.703125V2.70312ZM10.6626 4.22673C11.5034 5.24452 11.9922 6.76402 11.9922 8.92188H13.9922C13.9922 6.48598 13.4419 4.45079 12.2046 2.95296L10.6626 4.22673ZM11.9922 8.92188V12.0273H13.9922V8.92188H11.9922ZM10.043 8.40625C10.043 7.12747 9.88191 6.01429 9.44517 5.19407L7.67983 6.13406C7.88372 6.51696 8.04297 7.23191 8.04297 8.40625H10.043ZM9.44766 5.19878C9.2163 4.75863 8.89103 4.3821 8.4559 4.12102C8.02133 3.86028 7.53605 3.75 7.03906 3.75V5.75C7.23738 5.75 7.35368 5.79207 7.42691 5.83601C7.4996 5.87962 7.58839 5.96012 7.67734 6.12934L9.44766 5.19878ZM7.03906 3.75C6.55956 3.75 6.08895 3.85012 5.66404 4.09101C5.2363 4.33351 4.91039 4.68732 4.67662 5.10811L6.42494 6.07939C6.50367 5.93768 6.58206 5.86961 6.65041 5.83086C6.7216 5.79051 6.83887 5.75 7.03906 5.75V3.75ZM4.67149 5.11747C4.25265 5.89072 4.08333 6.93447 4.0588 8.12789L6.05838 8.16898C6.08074 7.08115 6.23954 6.42178 6.43007 6.07003L4.67149 5.11747ZM4.05859 8.14844V12.5078H6.05859V8.14844H4.05859ZM4.05859 12.5078C4.05859 13.8242 4.21718 14.9645 4.65896 15.7834L6.41916 14.8338C6.22032 14.4652 6.05859 13.7383 6.05859 12.5078H4.05859ZM4.66161 15.7883C4.89731 16.2194 5.22636 16.5835 5.66043 16.834C6.09237 17.0832 6.5722 17.1875 7.0625 17.1875V15.1875C6.85749 15.1875 6.73576 15.1454 6.65988 15.1016C6.58614 15.059 6.50113 14.9837 6.41651 14.8289L4.66161 15.7883ZM7.0625 17.1875C7.54264 17.1875 8.01259 17.0845 8.43682 16.8406C8.86241 16.596 9.18714 16.2411 9.42268 15.8217L7.67889 14.8423C7.59411 14.9933 7.51063 15.0661 7.44013 15.1067C7.36827 15.148 7.25423 15.1875 7.0625 15.1875V17.1875ZM9.4255 15.8167C9.87017 15.0141 10.0348 13.9047 10.0429 12.6314L8.04299 12.6186C8.03547 13.7984 7.87202 14.4937 7.67607 14.8474L9.4255 15.8167ZM10.043 12.625V8.40625H8.04297V12.625H10.043ZM26.9492 19V20H27.9492V19H26.9492ZM15.043 19H14.043V20H15.043V19ZM15.043 16.4219L14.3184 15.7327L14.043 16.0222V16.4219H15.043ZM20.5273 10.6562L21.2519 11.3455L21.2656 11.3311L21.2787 11.3161L20.5273 10.6562ZM19.2148 5.51172L20.0193 6.10578L20.0236 6.09989L19.2148 5.51172ZM18.6523 7.42188V8.42188H19.6523V7.42188H18.6523ZM14.6914 7.42188H13.6914V8.42188H14.6914V7.42188ZM15.4766 4.52734L16.3367 5.03736L16.3387 5.03403L15.4766 4.52734ZM25.0273 2.96875L24.3761 3.72759L24.379 3.7301L25.0273 2.96875ZM26.1523 8.60547L27.0824 8.9729L27.0839 8.96901L26.1523 8.60547ZM24.9805 10.6094L24.1826 10.0065L24.1815 10.0079L24.9805 10.6094ZM22.4375 13.4102L21.7304 12.703L21.7051 12.7283L21.6817 12.7554L22.4375 13.4102ZM20.2344 15.9531L19.4786 15.2983L18.0449 16.9531H20.2344V15.9531ZM26.9492 15.9531H27.9492V14.9531H26.9492V15.9531ZM26.9492 18H15.043V20H26.9492V18ZM16.043 19V16.4219H14.043V19H16.043ZM15.7675 17.1111L21.2519 11.3455L19.8028 9.96704L14.3184 15.7327L15.7675 17.1111ZM21.2787 11.3161C21.9822 10.5151 22.5383 9.76477 22.9231 9.0687C23.3024 8.38246 23.5547 7.67814 23.5547 6.98828H21.5547C21.5547 7.20467 21.4691 7.5648 21.1726 8.10122C20.8816 8.62781 20.4241 9.25837 19.7759 9.9964L21.2787 11.3161ZM23.5547 6.98828C23.5547 6.12663 23.3689 5.30154 22.8412 4.67078L21.3073 5.95422C21.4201 6.08908 21.5547 6.38119 21.5547 6.98828H23.5547ZM22.8412 4.67078C22.2892 4.01112 21.5135 3.73828 20.6797 3.73828V5.73828C21.0647 5.73828 21.2186 5.84826 21.3073 5.95422L22.8412 4.67078ZM20.6797 3.73828C19.7364 3.73828 18.9561 4.16734 18.4061 4.92355L20.0236 6.09989C20.2236 5.82485 20.4199 5.73828 20.6797 5.73828V3.73828ZM18.4104 4.91768C17.8833 5.63152 17.6523 6.48898 17.6523 7.42188H19.6523C19.6523 6.82352 19.7964 6.40754 20.0193 6.10576L18.4104 4.91768ZM18.6523 6.42188H14.6914V8.42188H18.6523V6.42188ZM15.6914 7.42188C15.6914 6.5507 15.9067 5.76258 16.3367 5.03735L14.6164 4.01733C13.9995 5.05774 13.6914 6.1993 13.6914 7.42188H15.6914ZM16.3387 5.03403C16.7672 4.30489 17.3578 3.73736 18.1299 3.32211L17.1826 1.5607C16.0953 2.14545 15.2328 2.96854 14.6144 4.02065L16.3387 5.03403ZM18.1299 3.32211C18.9014 2.90718 19.7754 2.69141 20.7734 2.69141V0.691406C19.4746 0.691406 18.2705 0.975631 17.1826 1.5607L18.1299 3.32211ZM20.7734 2.69141C22.4753 2.69141 23.6273 3.08492 24.3761 3.72758L25.6786 2.20992C24.443 1.14946 22.7591 0.691406 20.7734 0.691406V2.69141ZM24.379 3.7301C25.1085 4.35135 25.5273 5.26753 25.5273 6.63672H27.5273C27.5273 4.81841 26.9461 3.28928 25.6757 2.2074L24.379 3.7301ZM25.5273 6.63672C25.5273 7.18126 25.4266 7.71439 25.2208 8.24193L27.0839 8.96901C27.3781 8.2153 27.5273 7.43593 27.5273 6.63672H25.5273ZM25.2223 8.23804C25.0136 8.76625 24.6745 9.35553 24.1826 10.0065L25.7783 11.2122C26.349 10.457 26.7911 9.71031 27.0824 8.9729L25.2223 8.23804ZM24.1815 10.0079C23.701 10.6462 22.8931 11.5404 21.7304 12.703L23.1446 14.1173C24.3257 12.9362 25.213 11.9631 25.7794 11.2108L24.1815 10.0079ZM21.6817 12.7554L19.4786 15.2983L20.9902 16.6079L23.1933 14.065L21.6817 12.7554ZM20.2344 16.9531H26.9492V14.9531H20.2344V16.9531ZM25.9492 15.9531V19H27.9492V15.9531H25.9492Z" fill="black" fill-opacity="0.15"/>
</svg>
