<svg width="164" height="170" viewBox="0 0 164 170" fill="none" xmlns="http://www.w3.org/2000/svg">
<path d="M45.2415 53.8333C45.2415 54.5848 45.5394 55.3055 46.0697 55.8368C46.5999 56.3682 47.3191 56.6667 48.0691 56.6667H115.931C116.681 56.6667 117.4 56.3682 117.931 55.8368C118.461 55.3055 118.759 54.5848 118.759 53.8333C118.759 53.0819 118.461 52.3612 117.931 51.8299C117.4 51.2985 116.681 51 115.931 51H48.0691C47.3191 51 46.5999 51.2985 46.0697 51.8299C45.5394 52.3612 45.2415 53.0819 45.2415 53.8333Z" fill="white" fill-opacity="0.12"/>
<path d="M19.7931 73.6667H76.345C77.0949 73.6667 77.8141 73.3682 78.3444 72.8368C78.8747 72.3055 79.1726 71.5848 79.1726 70.8333C79.1726 70.0819 78.8747 69.3612 78.3444 68.8299C77.8141 68.2985 77.0949 68 76.345 68H19.7931C19.0432 68 18.324 68.2985 17.7937 68.8299C17.2635 69.3612 16.9656 70.0819 16.9656 70.8333C16.9656 71.5848 17.2635 72.3055 17.7937 72.8368C18.324 73.3682 19.0432 73.6667 19.7931 73.6667Z" fill="white" fill-opacity="0.12"/>
<path d="M87.6553 85H65.0346C64.2847 85 63.5655 85.2985 63.0352 85.8299C62.5049 86.3612 62.207 87.0819 62.207 87.8333C62.207 88.5848 62.5049 89.3055 63.0352 89.8368C63.5655 90.3682 64.2847 90.6667 65.0346 90.6667H87.6553C88.4053 90.6667 89.1245 90.3682 89.6548 89.8368C90.185 89.3055 90.4829 88.5848 90.4829 87.8333C90.4829 87.0819 90.185 86.3612 89.6548 85.8299C89.1245 85.2985 88.4053 85 87.6553 85Z" fill="white" fill-opacity="0.12"/>
<path d="M70.6898 102H19.7931C19.0432 102 18.324 102.299 17.7937 102.83C17.2635 103.361 16.9656 104.082 16.9656 104.833C16.9656 105.585 17.2635 106.305 17.7937 106.837C18.324 107.368 19.0432 107.667 19.7931 107.667H70.6898C71.4397 107.667 72.1589 107.368 72.6892 106.837C73.2195 106.305 73.5174 105.585 73.5174 104.833C73.5174 104.082 73.2195 103.361 72.6892 102.83C72.1589 102.299 71.4397 102 70.6898 102Z" fill="white" fill-opacity="0.12"/>
<path d="M19.7931 56.6667H36.7587C37.5086 56.6667 38.2278 56.3682 38.7581 55.8368C39.2884 55.3055 39.5863 54.5848 39.5863 53.8333C39.5863 53.0819 39.2884 52.3612 38.7581 51.8299C38.2278 51.2985 37.5086 51 36.7587 51H19.7931C19.0432 51 18.324 51.2985 17.7937 51.8299C17.2635 52.3612 16.9656 53.0819 16.9656 53.8333C16.9656 54.5848 17.2635 55.3055 17.7937 55.8368C18.324 56.3682 19.0432 56.6667 19.7931 56.6667Z" fill="white" fill-opacity="0.12"/>
<path d="M115.931 68H87.6553C86.9054 68 86.1862 68.2985 85.6559 68.8299C85.1257 69.3612 84.8278 70.0819 84.8278 70.8333C84.8278 71.5848 85.1257 72.3055 85.6559 72.8368C86.1862 73.3682 86.9054 73.6667 87.6553 73.6667H115.931C116.681 73.6667 117.4 73.3682 117.931 72.8368C118.461 72.3055 118.759 71.5848 118.759 70.8333C118.759 70.0819 118.461 69.3612 117.931 68.8299C117.4 68.2985 116.681 68 115.931 68Z" fill="white" fill-opacity="0.12"/>
<path d="M19.7931 90.6667H53.7242C54.4742 90.6667 55.1934 90.3682 55.7237 89.8368C56.2539 89.3055 56.5518 88.5848 56.5518 87.8333C56.5518 87.0819 56.2539 86.3612 55.7237 85.8299C55.1934 85.2985 54.4742 85 53.7242 85H19.7931C19.0432 85 18.324 85.2985 17.7937 85.8299C17.2635 86.3612 16.9656 87.0819 16.9656 87.8333C16.9656 88.5848 17.2635 89.3055 17.7937 89.8368C18.324 90.3682 19.0432 90.6667 19.7931 90.6667Z" fill="white" fill-opacity="0.12"/>
<path d="M65.0346 136H53.7242C52.9743 136 52.2551 136.299 51.7248 136.83C51.1946 137.361 50.8967 138.082 50.8967 138.833C50.8967 139.585 51.1946 140.305 51.7248 140.837C52.2551 141.368 52.9743 141.667 53.7242 141.667H65.0346C65.7845 141.667 66.5037 141.368 67.034 140.837C67.5643 140.305 67.8622 139.585 67.8622 138.833C67.8622 138.082 67.5643 137.361 67.034 136.83C66.5037 136.299 65.7845 136 65.0346 136Z" fill="white" fill-opacity="0.12"/>
<path d="M42.4139 136H19.7931C19.0432 136 18.324 136.299 17.7937 136.83C17.2635 137.361 16.9656 138.082 16.9656 138.833C16.9656 139.585 17.2635 140.305 17.7937 140.837C18.324 141.368 19.0432 141.667 19.7931 141.667H42.4139C43.1638 141.667 43.883 141.368 44.4133 140.837C44.9436 140.305 45.2415 139.585 45.2415 138.833C45.2415 138.082 44.9436 137.361 44.4133 136.83C43.883 136.299 43.1638 136 42.4139 136Z" fill="white" fill-opacity="0.12"/>
<path d="M19.7931 124.667H36.7587C37.5086 124.667 38.2278 124.368 38.7581 123.837C39.2884 123.305 39.5863 122.585 39.5863 121.833C39.5863 121.082 39.2884 120.361 38.7581 119.83C38.2278 119.299 37.5086 119 36.7587 119H19.7931C19.0432 119 18.324 119.299 17.7937 119.83C17.2635 120.361 16.9656 121.082 16.9656 121.833C16.9656 122.585 17.2635 123.305 17.7937 123.837C18.324 124.368 19.0432 124.667 19.7931 124.667Z" fill="white" fill-opacity="0.12"/>
<path d="M19.7931 39.6667H53.7242C54.4742 39.6667 55.1934 39.3682 55.7237 38.8368C56.2539 38.3054 56.5518 37.5848 56.5518 36.8333C56.5518 36.0819 56.2539 35.3612 55.7237 34.8299C55.1934 34.2985 54.4742 34 53.7242 34H19.7931C19.0432 34 18.324 34.2985 17.7937 34.8299C17.2635 35.3612 16.9656 36.0819 16.9656 36.8333C16.9656 37.5848 17.2635 38.3054 17.7937 38.8368C18.324 39.3682 19.0432 39.6667 19.7931 39.6667Z" fill="white" fill-opacity="0.12"/>
<path d="M65.0346 119H48.0691C47.3191 119 46.5999 119.299 46.0697 119.83C45.5394 120.361 45.2415 121.082 45.2415 121.833C45.2415 122.585 45.5394 123.305 46.0697 123.837C46.5999 124.368 47.3191 124.667 48.0691 124.667H65.0346C65.7845 124.667 66.5037 124.368 67.034 123.837C67.5643 123.305 67.8622 122.585 67.8622 121.833C67.8622 121.082 67.5643 120.361 67.034 119.83C66.5037 119.299 65.7845 119 65.0346 119Z" fill="white" fill-opacity="0.12"/>
<path d="M163.981 160.933C163.91 159.819 163.619 158.73 163.125 157.729C162.631 156.728 161.944 155.835 161.103 155.102L140.019 136.616C141.404 132.083 141.737 127.292 140.993 122.611C140.248 117.929 138.446 113.479 135.724 109.601V36.8333C135.724 36.4613 135.651 36.0928 135.509 35.749C135.367 35.4053 135.159 35.0929 134.896 34.8298L100.965 0.829813C100.703 0.566716 100.391 0.35802 100.048 0.215641C99.7047 0.073261 99.337 -1.35559e-05 98.9657 1.88107e-09H14.138C10.3896 0.00421832 6.79603 1.49813 4.14556 4.15398C1.49509 6.80983 0.00420977 10.4107 0 14.1667V155.833C0.00420977 159.589 1.49509 163.19 4.14556 165.846C6.79603 168.502 10.3896 169.996 14.138 170H121.586C125.335 169.996 128.928 168.502 131.579 165.846C134.229 163.19 135.72 159.589 135.724 155.833V155.44L149.933 167.897C151.196 169.003 152.758 169.71 154.421 169.927C156.084 170.144 157.775 169.862 159.278 169.117C160.782 168.372 162.031 167.196 162.868 165.74C163.705 164.283 164.093 162.611 163.981 160.933ZM128.575 145.221C124.208 149.735 118.325 152.465 112.064 152.883C105.804 153.302 99.6108 151.379 94.6836 147.486C89.7564 143.594 86.445 138.009 85.3901 131.811C84.3352 125.613 85.6117 119.244 88.9727 113.935C92.3337 108.626 97.5403 104.755 103.585 103.07C109.63 101.386 116.084 102.008 121.698 104.816C127.311 107.623 131.686 112.418 133.976 118.271C136.266 124.125 136.308 130.621 134.094 136.504C132.872 139.759 130.993 142.726 128.575 145.221ZM101.793 9.67335L126.071 34H110.276C108.027 33.9975 105.871 33.1011 104.281 31.5076C102.69 29.9141 101.796 27.7536 101.793 25.5V9.67335ZM121.586 164.333H14.138C11.889 164.331 9.73289 163.434 8.14262 161.841C6.55236 160.247 5.6578 158.087 5.65518 155.833V14.1667C5.6578 11.9131 6.55236 9.75265 8.14262 8.15916C9.73289 6.56567 11.889 5.66929 14.138 5.66667H96.1381V25.5C96.1423 29.2559 97.6332 32.8568 100.284 35.5127C102.934 38.1685 106.528 39.6624 110.276 39.6667H130.069V103.476C125.521 99.7141 119.998 97.3262 114.146 96.5907C108.294 95.8551 102.354 96.8023 97.0193 99.3217C91.6844 101.841 87.1744 105.829 84.0157 110.819C80.857 115.81 79.1798 121.598 79.1798 127.508C79.1798 133.417 80.857 139.205 84.0157 144.196C87.1744 149.187 91.6844 153.174 97.0193 155.694C102.354 158.213 108.294 159.16 114.146 158.425C119.998 157.689 125.521 155.301 130.069 151.539V155.833C130.067 158.087 129.172 160.247 127.582 161.841C125.992 163.434 123.835 164.331 121.586 164.333ZM157.646 163.366C157.401 163.646 157.104 163.875 156.771 164.04C156.438 164.205 156.076 164.303 155.706 164.328C155.335 164.352 154.963 164.304 154.611 164.184C154.26 164.065 153.935 163.878 153.655 163.632L134.598 146.924C135.788 145.43 136.837 143.83 137.732 142.142L157.38 159.369C157.659 159.614 157.888 159.911 158.052 160.245C158.217 160.579 158.314 160.941 158.339 161.313C158.364 161.684 158.315 162.057 158.196 162.409C158.077 162.762 157.89 163.087 157.646 163.367V163.366Z" fill="white" fill-opacity="0.12"/>
<path d="M123.285 133.736C122.686 133.285 121.932 133.09 121.189 133.196C120.447 133.302 119.777 133.699 119.326 134.299C118.354 135.598 117.115 136.673 115.692 137.45C114.269 138.227 112.696 138.689 111.08 138.804C109.464 138.919 107.841 138.685 106.323 138.117C104.805 137.549 103.426 136.661 102.281 135.513C101.135 134.365 100.248 132.984 99.6818 131.462C99.1152 129.941 98.8814 128.316 98.9963 126.696C99.1112 125.076 99.572 123.5 100.348 122.075C101.123 120.649 102.196 119.407 103.492 118.433C104.092 117.981 104.488 117.309 104.594 116.565C104.699 115.82 104.505 115.065 104.054 114.463C103.604 113.862 102.933 113.465 102.19 113.36C101.447 113.254 100.693 113.448 100.093 113.9C98.1513 115.362 96.5454 117.226 95.3842 119.364C94.223 121.502 93.5336 123.865 93.3627 126.293C93.1917 128.721 93.5431 131.158 94.3931 133.438C95.2431 135.719 96.572 137.789 98.2898 139.511C100.008 141.232 102.074 142.563 104.35 143.415C106.626 144.267 109.057 144.619 111.481 144.448C113.904 144.276 116.262 143.585 118.396 142.422C120.53 141.258 122.389 139.649 123.849 137.703C124.072 137.406 124.234 137.067 124.326 136.707C124.419 136.346 124.439 135.971 124.387 135.603C124.335 135.234 124.21 134.88 124.021 134.559C123.832 134.239 123.582 133.959 123.285 133.736Z" fill="white" fill-opacity="0.12"/>
</svg>
