<svg width="56" height="58" viewBox="0 0 56 58" fill="none" xmlns="http://www.w3.org/2000/svg">
<path d="M15.4483 18.3667C15.4483 18.623 15.55 18.8689 15.7311 19.0502C15.9122 19.2315 16.1578 19.3333 16.4138 19.3333H39.5863C39.8424 19.3333 40.0879 19.2315 40.269 19.0502C40.4501 18.8689 40.5518 18.623 40.5518 18.3667C40.5518 18.1103 40.4501 17.8644 40.269 17.6831C40.0879 17.5018 39.8424 17.4 39.5863 17.4H16.4138C16.1578 17.4 15.9122 17.5018 15.7311 17.6831C15.55 17.8644 15.4483 18.1103 15.4483 18.3667Z" fill="#6AADF1"/>
<path d="M6.75863 25.1333H26.069C26.3251 25.1333 26.5707 25.0315 26.7517 24.8502C26.9328 24.6689 27.0345 24.423 27.0345 24.1667C27.0345 23.9103 26.9328 23.6644 26.7517 23.4831C26.5707 23.3018 26.3251 23.2 26.069 23.2H6.75863C6.50256 23.2 6.25698 23.3018 6.07591 23.4831C5.89484 23.6644 5.79312 23.9103 5.79312 24.1667C5.79312 24.423 5.89484 24.6689 6.07591 24.8502C6.25698 25.0315 6.50256 25.1333 6.75863 25.1333Z" fill="#6AADF1"/>
<path d="M29.9311 29H22.2069C21.9509 29 21.7053 29.1018 21.5242 29.2831C21.3431 29.4644 21.2414 29.7103 21.2414 29.9667C21.2414 30.223 21.3431 30.4689 21.5242 30.6502C21.7053 30.8315 21.9509 30.9333 22.2069 30.9333H29.9311C30.1872 30.9333 30.4328 30.8315 30.6138 30.6502C30.7949 30.4689 30.8966 30.223 30.8966 29.9667C30.8966 29.7103 30.7949 29.4644 30.6138 29.2831C30.4328 29.1018 30.1872 29 29.9311 29Z" fill="#6AADF1"/>
<path d="M24.138 34.8H6.75863C6.50256 34.8 6.25698 34.9018 6.07591 35.0831C5.89484 35.2644 5.79312 35.5103 5.79312 35.7667C5.79312 36.023 5.89484 36.2689 6.07591 36.4502C6.25698 36.6315 6.50256 36.7333 6.75863 36.7333H24.138C24.3941 36.7333 24.6396 36.6315 24.8207 36.4502C25.0018 36.2689 25.1035 36.023 25.1035 35.7667C25.1035 35.5103 25.0018 35.2644 24.8207 35.0831C24.6396 34.9018 24.3941 34.8 24.138 34.8Z" fill="#6AADF1"/>
<path d="M6.75863 19.3333H12.5517C12.8078 19.3333 13.0534 19.2315 13.2345 19.0502C13.4155 18.8689 13.5173 18.623 13.5173 18.3667C13.5173 18.1103 13.4155 17.8644 13.2345 17.6831C13.0534 17.5018 12.8078 17.4 12.5517 17.4H6.75863C6.50256 17.4 6.25698 17.5018 6.07591 17.6831C5.89484 17.8644 5.79312 18.1103 5.79312 18.3667C5.79312 18.623 5.89484 18.8689 6.07591 19.0502C6.25698 19.2315 6.50256 19.3333 6.75863 19.3333Z" fill="#6AADF1"/>
<path d="M39.5863 23.2H29.9311C29.675 23.2 29.4294 23.3018 29.2484 23.4831C29.0673 23.6644 28.9656 23.9103 28.9656 24.1667C28.9656 24.423 29.0673 24.6689 29.2484 24.8502C29.4294 25.0315 29.675 25.1333 29.9311 25.1333H39.5863C39.8424 25.1333 40.0879 25.0315 40.269 24.8502C40.4501 24.6689 40.5518 24.423 40.5518 24.1667C40.5518 23.9103 40.4501 23.6644 40.269 23.4831C40.0879 23.3018 39.8424 23.2 39.5863 23.2Z" fill="#6AADF1"/>
<path d="M6.75863 30.9333H18.3449C18.6009 30.9333 18.8465 30.8315 19.0276 30.6502C19.2087 30.4689 19.3104 30.223 19.3104 29.9667C19.3104 29.7103 19.2087 29.4644 19.0276 29.2831C18.8465 29.1018 18.6009 29 18.3449 29H6.75863C6.50256 29 6.25698 29.1018 6.07591 29.2831C5.89484 29.4644 5.79312 29.7103 5.79312 29.9667C5.79312 30.223 5.89484 30.4689 6.07591 30.6502C6.25698 30.8315 6.50256 30.9333 6.75863 30.9333Z" fill="#6AADF1"/>
<path d="M22.2069 46.4H18.3449C18.0888 46.4 17.8432 46.5018 17.6621 46.6831C17.4811 46.8644 17.3793 47.1103 17.3793 47.3667C17.3793 47.623 17.4811 47.8689 17.6621 48.0502C17.8432 48.2315 18.0888 48.3333 18.3449 48.3333H22.2069C22.463 48.3333 22.7086 48.2315 22.8897 48.0502C23.0707 47.8689 23.1725 47.623 23.1725 47.3667C23.1725 47.1103 23.0707 46.8644 22.8897 46.6831C22.7086 46.5018 22.463 46.4 22.2069 46.4Z" fill="#6AADF1"/>
<path d="M14.4828 46.4H6.75863C6.50256 46.4 6.25698 46.5018 6.07591 46.6831C5.89484 46.8644 5.79312 47.1103 5.79312 47.3667C5.79312 47.623 5.89484 47.8689 6.07591 48.0502C6.25698 48.2315 6.50256 48.3333 6.75863 48.3333H14.4828C14.7389 48.3333 14.9844 48.2315 15.1655 48.0502C15.3466 47.8689 15.4483 47.623 15.4483 47.3667C15.4483 47.1103 15.3466 46.8644 15.1655 46.6831C14.9844 46.5018 14.7389 46.4 14.4828 46.4Z" fill="#6AADF1"/>
<path d="M6.75863 42.5333H12.5517C12.8078 42.5333 13.0534 42.4315 13.2345 42.2502C13.4155 42.0689 13.5173 41.823 13.5173 41.5667C13.5173 41.3103 13.4155 41.0644 13.2345 40.8831C13.0534 40.7018 12.8078 40.6 12.5517 40.6H6.75863C6.50256 40.6 6.25698 40.7018 6.07591 40.8831C5.89484 41.0644 5.79312 41.3103 5.79312 41.5667C5.79312 41.823 5.89484 42.0689 6.07591 42.2502C6.25698 42.4315 6.50256 42.5333 6.75863 42.5333Z" fill="#6AADF1"/>
<path d="M6.75863 13.5333H18.3449C18.6009 13.5333 18.8465 13.4315 19.0276 13.2502C19.2087 13.0689 19.3104 12.823 19.3104 12.5667C19.3104 12.3103 19.2087 12.0644 19.0276 11.8831C18.8465 11.7018 18.6009 11.6 18.3449 11.6H6.75863C6.50256 11.6 6.25698 11.7018 6.07591 11.8831C5.89484 12.0644 5.79312 12.3103 5.79312 12.5667C5.79312 12.823 5.89484 13.0689 6.07591 13.2502C6.25698 13.4315 6.50256 13.5333 6.75863 13.5333Z" fill="#6AADF1"/>
<path d="M22.2069 40.6H16.4138C16.1578 40.6 15.9122 40.7018 15.7311 40.8831C15.55 41.0644 15.4483 41.3103 15.4483 41.5667C15.4483 41.823 15.55 42.0689 15.7311 42.2502C15.9122 42.4315 16.1578 42.5333 16.4138 42.5333H22.2069C22.463 42.5333 22.7086 42.4315 22.8897 42.2502C23.0707 42.0689 23.1725 41.823 23.1725 41.5667C23.1725 41.3103 23.0707 41.0644 22.8897 40.8831C22.7086 40.7018 22.463 40.6 22.2069 40.6Z" fill="#6AADF1"/>
<path d="M55.9936 54.9067C55.9694 54.5265 55.87 54.1549 55.7013 53.8133C55.5327 53.4718 55.298 53.1672 55.0109 52.9171L47.8114 46.6102C48.2843 45.0636 48.398 43.4292 48.1438 41.8318C47.8897 40.2345 47.2744 38.7163 46.3449 37.3933V12.5667C46.3449 12.4397 46.32 12.314 46.2714 12.1967C46.2229 12.0794 46.1518 11.9729 46.0621 11.8831L34.4759 0.283113C34.3863 0.19335 34.2798 0.122148 34.1627 0.0735715C34.0455 0.0249949 33.92 -4.62495e-06 33.7932 6.41777e-10H4.8276C3.54768 0.00143919 2.3206 0.511126 1.41556 1.41724C0.510519 2.32335 0.00143748 3.5519 0 4.83333V53.1667C0.00143748 54.4481 0.510519 55.6766 1.41556 56.5828C2.3206 57.4889 3.54768 57.9986 4.8276 58H41.5173C42.7972 57.9986 44.0243 57.4889 44.9294 56.5828C45.8344 55.6766 46.3435 54.4481 46.3449 53.1667V53.0325L51.1967 57.2824C51.6278 57.6599 52.1611 57.9009 52.7291 57.975C53.2971 58.0492 53.8743 57.953 54.3877 57.6987C54.9011 57.4445 55.3277 57.0435 55.6136 56.5465C55.8994 56.0495 56.0317 55.4789 55.9936 54.9067ZM43.9037 49.5459C42.4124 51.0859 40.4035 52.0174 38.2658 52.1602C36.1281 52.303 34.0135 51.6469 32.331 50.3189C30.6485 48.9909 29.5178 47.0853 29.1576 44.9708C28.7974 42.8563 29.2333 40.6832 30.3809 38.8719C31.5286 37.0606 33.3065 35.7399 35.3706 35.1651C37.4347 34.5904 39.6384 34.8026 41.5553 35.7606C43.4722 36.7186 44.9661 38.3544 45.748 40.3514C46.5299 42.3485 46.5441 44.5649 45.7881 46.5719C45.3708 47.6824 44.7293 48.6948 43.9037 49.5459ZM34.7587 3.30032L43.0485 11.6H37.6552C36.8873 11.5991 36.151 11.2933 35.608 10.7497C35.065 10.206 34.7596 9.46886 34.7587 8.7V3.30032ZM41.5173 56.0667H4.8276C4.05966 56.0658 3.32342 55.7599 2.78041 55.2163C2.23739 54.6726 1.93193 53.9355 1.93104 53.1667V4.83333C1.93193 4.06448 2.23739 3.32737 2.78041 2.78371C3.32342 2.24005 4.05966 1.93423 4.8276 1.93333H32.8277V8.7C32.8291 9.98144 33.3382 11.21 34.2432 12.1161C35.1482 13.0222 36.3753 13.5319 37.6552 13.5333H44.4139V35.3035C42.8607 34.0201 40.975 33.2054 38.9767 32.9545C36.9785 32.7035 34.9503 33.0267 33.1286 33.8862C31.3069 34.7458 29.7669 36.1063 28.6883 37.809C27.6097 39.5117 27.037 41.4863 27.037 43.5026C27.037 45.5189 27.6097 47.4935 28.6883 49.1962C29.7669 50.8989 31.3069 52.2594 33.1286 53.119C34.9503 53.9785 36.9785 54.3017 38.9767 54.0507C40.975 53.7998 42.8607 52.9851 44.4139 51.7017V53.1667C44.413 53.9355 44.1075 54.6726 43.5645 55.2163C43.0215 55.7599 42.2853 56.0658 41.5173 56.0667ZM53.8302 55.7367C53.7467 55.8322 53.6452 55.9104 53.5316 55.9667C53.4179 56.0229 53.2943 56.0562 53.1677 56.0647C53.0412 56.0731 52.9142 56.0565 52.7941 56.0158C52.674 55.9751 52.5631 55.9112 52.4676 55.8275L45.9604 50.1269C46.3667 49.6174 46.7249 49.0713 47.0304 48.4956L53.7393 54.3728C53.8348 54.4564 53.9129 54.558 53.9691 54.6718C54.0253 54.7856 54.0586 54.9094 54.067 55.0361C54.0755 55.1628 54.0589 55.2899 54.0183 55.4101C53.9776 55.5304 53.9137 55.6411 53.8302 55.7367Z" fill="#6AADF1"/>
<path d="M42.0974 45.6275C41.8926 45.4736 41.6352 45.4073 41.3817 45.4434C41.1282 45.4794 40.8994 45.6148 40.7456 45.8198C40.4136 46.2629 39.9904 46.6295 39.5046 46.8947C39.0188 47.1599 38.4817 47.3174 37.9298 47.3567C37.3778 47.396 36.8239 47.316 36.3055 47.1223C35.7871 46.9286 35.3163 46.6256 34.9251 46.2339C34.5338 45.8422 34.2312 45.3708 34.0377 44.8518C33.8442 44.3328 33.7644 43.7782 33.8036 43.2257C33.8428 42.6731 34.0002 42.1354 34.2651 41.649C34.5299 41.1626 34.8961 40.7388 35.3387 40.4064C35.5436 40.2523 35.6789 40.0231 35.7149 39.7691C35.7509 39.5152 35.6846 39.2573 35.5307 39.0522C35.3768 38.8472 35.1479 38.7117 34.8942 38.6757C34.6406 38.6396 34.383 38.7059 34.1782 38.86C33.5151 39.359 32.9667 39.9947 32.5702 40.7241C32.1737 41.4536 31.9383 42.2598 31.8799 43.0883C31.8215 43.9167 31.9415 44.748 32.2318 45.526C32.522 46.304 32.9758 47.0105 33.5624 47.5978C34.1489 48.185 34.8546 48.6393 35.6317 48.9299C36.4087 49.2205 37.2391 49.3406 38.0665 49.2821C38.894 49.2237 39.6992 48.988 40.4278 48.591C41.1564 48.194 41.7914 47.645 42.2897 46.9811C42.3659 46.8796 42.4213 46.764 42.4529 46.6411C42.4844 46.5181 42.4915 46.3901 42.4736 46.2644C42.4557 46.1387 42.4133 46.0178 42.3488 45.9085C42.2842 45.7992 42.1988 45.7037 42.0974 45.6275Z" fill="#6AADF1"/>
</svg>
