<svg width="47" height="40" viewBox="0 0 47 40" fill="none" xmlns="http://www.w3.org/2000/svg">
<path d="M27.8906 0.804688V13.8711C27.8906 19.0664 29.1797 24.1055 31.7578 28.9883C34.3359 33.9102 36.875 37.5039 39.375 39.7695L45.6445 37.0742C43.6523 34.8086 41.7188 31.7813 39.8438 27.9922C38.0078 24.2422 37.0898 20.5703 37.0898 16.9766H46.7578V0.804688H27.8906ZM0 0.804688V13.8711C0 19.0664 1.28906 24.1055 3.86719 28.9883C6.44531 33.9102 8.98438 37.5039 11.4844 39.7695L17.7539 37.0742C15.7617 34.8086 13.8281 31.7813 11.9531 27.9922C10.1172 24.2422 9.19922 20.5703 9.19922 16.9766H18.8672V0.804688H0Z" fill="#8AD377"/>
</svg>
