<svg width="30" height="39" viewBox="0 0 30 39" fill="none" xmlns="http://www.w3.org/2000/svg">
<path d="M29.6182 7.89643L15.1386 0.0859366C14.9238 -0.0301213 14.6663 -0.0284925 14.4531 0.0900087L0.37411 7.9005C0.143208 8.02878 0 8.27392 0 8.54065V18.7432C0.00844767 27.1299 4.91693 34.7172 12.5077 38.0772L14.462 38.9393C14.6446 39.0199 14.8526 39.0203 15.0356 38.9401L17.2376 37.9774C24.9692 34.6903 29.9992 27.0297 30 18.5408V8.54065C30 8.27107 29.8532 8.02308 29.6182 7.89643ZM28.5583 18.5408C28.5567 26.4445 23.8722 33.5762 16.6732 36.6348L16.6684 36.6373L14.7508 37.4753L13.0846 36.7395C6.01875 33.612 1.44937 26.55 1.44133 18.7432V8.97271L14.8043 1.55885L28.5583 8.97801V18.5408Z" fill="#75B7F3"/>
<path d="M9.4859 18.27C9.22724 17.9633 8.77228 17.9271 8.46937 18.1889C8.16646 18.4504 8.13066 18.9113 8.38932 19.2176L12.1972 23.7316C12.4514 24.033 12.8967 24.0741 13.2 23.8241L22.0685 16.5201C22.3774 16.266 22.4241 15.8063 22.1727 15.4935C21.9216 15.1812 21.4675 15.1336 21.1585 15.3881L12.8364 22.2416L9.4859 18.27Z" fill="#75B7F3"/>
</svg>
