<svg width="15" height="15" viewBox="0 0 15 15" fill="none" xmlns="http://www.w3.org/2000/svg">
<path d="M4.6875 0H10.3125C12.9009 0 15 2.09906 15 4.6875V10.3125C15 12.9009 12.9009 15 10.3125 15H4.6875C2.09906 15 0 12.9009 0 10.3125V4.6875C0 2.09906 2.09906 0 4.6875 0ZM1.40625 10.3125C1.40625 12.1219 2.87812 13.5938 4.6875 13.5938H10.3125C12.1219 13.5938 13.5938 12.1219 13.5938 10.3125V4.6875C13.5938 2.87812 12.1219 1.40625 10.3125 1.40625H4.6875C2.87812 1.40625 1.40625 2.87812 1.40625 4.6875V10.3125Z" fill="white" fill-opacity="0.36"/>
<path d="M7.5 3.75C9.57094 3.75 11.25 5.42906 11.25 7.5C11.25 9.57094 9.57094 11.25 7.5 11.25C5.42906 11.25 3.75 9.57094 3.75 7.5C3.75 5.42906 5.42906 3.75 7.5 3.75ZM7.5 9.84375C8.79187 9.84375 9.84375 8.79187 9.84375 7.5C9.84375 6.20719 8.79187 5.15625 7.5 5.15625C6.20813 5.15625 5.15625 6.20719 5.15625 7.5C5.15625 8.79187 6.20813 9.84375 7.5 9.84375Z" fill="white" fill-opacity="0.36"/>
<path d="M3.4688 3.96839C3.19283 3.96839 2.96911 3.74468 2.96911 3.46871C2.96911 3.19274 3.19283 2.96902 3.4688 2.96902C3.74477 2.96902 3.96849 3.19274 3.96849 3.46871C3.96849 3.74468 3.74477 3.96839 3.4688 3.96839Z" fill="white" fill-opacity="0.36"/>
</svg>
