<svg width="18" height="24" viewBox="0 0 18 24" fill="none" xmlns="http://www.w3.org/2000/svg">
<path d="M7.81838 16.6084L7.50295 19.4448C7.48734 19.5859 7.53272 19.7275 7.62745 19.8335C7.72219 19.9395 7.85794 20 8.00002 20H10C10.1421 20 10.2779 19.9395 10.3726 19.8335C10.4673 19.7276 10.5127 19.586 10.4971 19.4448L10.1817 16.6084C10.6939 16.2359 11 15.6465 11 15C11 13.897 10.1031 13 9 13C7.89694 13 6.99998 13.897 6.99998 15C6.99998 15.6465 7.30617 16.2359 7.81838 16.6084ZM9 14C9.55125 14 9.99998 14.4487 9.99998 15C9.99998 15.3833 9.7822 15.7266 9.43163 15.8965C9.2407 15.9893 9.12891 16.1914 9.15234 16.4018L9.44142 19H8.55863L8.8477 16.4018C8.87114 16.1914 8.75934 15.9893 8.56842 15.8965C8.21784 15.7266 8.00006 15.3833 8.00006 15C8.00002 14.4487 8.44875 14 9 14Z" fill="#CFD6DC"/>
<path d="M17.5 9H16V6.99998C16 3.14016 12.8599 0 9 0C5.14012 0 2.00002 3.14016 2.00002 6.99998V9H0.500016C0.223641 9 0 9.22364 0 9.50002V22C0 23.103 0.896953 24 2.00002 24H16C17.103 24 18 23.103 18 22V9.50002C18 9.22364 17.7764 9 17.5 9ZM3 6.99998C3 3.69141 5.69142 0.999984 9 0.999984C12.3086 0.999984 15 3.69141 15 6.99998V9H14V6.99998C14 4.24312 11.7569 1.99997 9 1.99997C6.24314 1.99997 3.99998 4.24317 3.99998 6.99998V9H3V6.99998ZM13 6.99998V9H5.00002V6.99998C5.00002 4.79442 6.79444 3 9 3C11.2056 3 13 4.79442 13 6.99998ZM17 22C17 22.5512 16.5513 23 16 23H2.00002C1.44877 23 1.00003 22.5512 1.00003 22V9.99998H17V22Z" fill="#CFD6DC"/>
</svg>
