<svg width="117" height="14" viewBox="0 0 117 14" fill="none" xmlns="http://www.w3.org/2000/svg">
<rect y="6" width="35" height="1" fill="white" fill-opacity="0.45"/>
<rect x="82" y="6" width="35" height="1" fill="white" fill-opacity="0.45"/>
<path d="M64.655 3.85672L57.2795 0.0677322C57.1036 -0.0225774 56.8965 -0.0225774 56.7204 0.0677322L49.3451 3.85672C48.9003 4.08526 48.8815 4.7316 49.312 4.9871V13.3578C49.312 13.7125 49.5919 14 49.9371 14C50.2822 14 50.5621 13.7125 50.5621 13.3578V5.63081L51.3746 6.04824V8.76468C51.3746 9.00901 51.5096 9.23215 51.7229 9.3404L56.7231 11.8785C56.8976 11.967 57.1023 11.9672 57.2768 11.8785L62.2772 9.3404C62.4905 9.23215 62.6253 9.00901 62.6253 8.76468V6.0752C63.7684 5.4749 64.6493 5.00867 64.6617 5.00203C65.1152 4.76208 65.1125 4.09178 64.655 3.85672ZM61.3752 8.36556L57 10.5864L52.6247 8.36556V6.69044C56.9978 8.91043 56.7369 8.86239 57 8.86239C57.2037 8.86239 57.1667 8.92824 61.3752 6.72995V8.36556ZM57.0296 7.5174L51.0222 4.43119L57 1.36016L62.9933 4.4391C61.9897 4.96778 58.0553 7.03663 57.0296 7.5174Z" fill="white" fill-opacity="0.45"/>
</svg>
