<svg width="17" height="17" viewBox="0 0 17 17" fill="none" xmlns="http://www.w3.org/2000/svg">
<path d="M3.4 7.36667C4.72222 10.0111 6.98889 12.1833 9.63333 13.6L11.7111 11.5222C11.9944 11.2389 12.3722 11.1445 12.6556 11.3333C13.6944 11.7111 14.8277 11.9 16.0556 11.9C16.6222 11.9 17 12.2778 17 12.8444V16.0556C17 16.6222 16.6222 17 16.0556 17C7.17778 17 0 9.82222 0 0.944444C0 0.377778 0.377778 0 0.944444 0H4.25C4.81667 0 5.19444 0.377778 5.19444 0.944444C5.19444 2.07778 5.38333 3.21111 5.76111 4.34444C5.85556 4.62778 5.76111 5.00556 5.57222 5.28889L3.4 7.36667Z" fill="white" fill-opacity="0.49"/>
</svg>
