<svg width="15" height="11" viewBox="0 0 15 11" fill="none" xmlns="http://www.w3.org/2000/svg">
<path d="M14.6909 1.72122C14.518 1.0482 14.0114 0.517685 13.3689 0.336453C12.1951 0 7.49985 0 7.49985 0C7.49985 0 2.80471 0 1.63089 0.323628C1.00078 0.50474 0.481794 1.04832 0.308875 1.72122C0 2.95053 0 5.5 0 5.5C0 5.5 0 8.0623 0.308875 9.27878C0.481909 9.95168 0.988422 10.4823 1.63101 10.6635C2.81707 11 7.49997 11 7.49997 11C7.49997 11 12.1951 11 13.3689 10.6764C14.0115 10.4953 14.518 9.96463 14.6911 9.29172C14.9999 8.0623 14.9999 5.51295 14.9999 5.51295C14.9999 5.51295 15.0123 2.95053 14.6909 1.72122Z" fill="#FF0000"/>
<path d="M6 8L10 5.5L6 3V8Z" fill="white"/>
</svg>
