<svg width="55" height="38" viewBox="0 0 55 38" fill="none" xmlns="http://www.w3.org/2000/svg">
<path d="M22.6641 32.7188L21.895 32.0795L21.8927 32.0824L22.6641 32.7188ZM5.08594 5.15625L4.31692 4.51701L4.31456 4.51987L5.08594 5.15625ZM16.9219 9.32812L16.0367 9.79341L16.0392 9.79812L16.9219 9.32812ZM10.8984 9.1875L10.0242 8.70183L10.0191 8.71122L10.8984 9.1875ZM9.91406 14.2969L8.91427 14.2763L8.91406 14.2866V14.2969H9.91406ZM10.875 28.6172L9.99489 29.092L9.99755 29.0969L10.875 28.6172ZM16.8984 28.6641L17.7703 29.1538L17.7732 29.1487L16.8984 28.6641ZM17.8828 23.25L18.8828 23.2564V23.25H17.8828ZM24.7812 22.0547C24.7812 26.5265 23.7723 29.8212 21.8951 32.0795L23.4331 33.358C25.7121 30.6163 26.7812 26.8016 26.7812 22.0547H24.7812ZM21.8927 32.0824C20.052 34.3135 17.4429 35.4688 13.9219 35.4688V37.4688C17.9321 37.4688 21.1511 36.124 23.4354 33.3551L21.8927 32.0824ZM13.9219 35.4688C10.3688 35.4688 7.73634 34.3052 5.88034 32.0584L4.33841 33.3322C6.63866 36.1167 9.88116 37.4688 13.9219 37.4688V35.4688ZM5.88034 32.0584C4.00004 29.7823 2.99219 26.4928 2.99219 22.0547H0.992188C0.992188 26.7728 2.06246 30.5771 4.33841 33.3322L5.88034 32.0584ZM2.99219 22.0547V15.8203H0.992188V22.0547H2.99219ZM2.99219 15.8203C2.99219 11.3469 3.99405 8.05113 5.85731 5.79263L4.31456 4.51987C2.05283 7.26137 0.992188 11.075 0.992188 15.8203H2.99219ZM5.85495 5.79549C7.71105 3.56258 10.3369 2.40625 13.875 2.40625V0.40625C9.85057 0.40625 6.61707 1.74992 4.31693 4.51701L5.85495 5.79549ZM13.875 2.40625C17.4109 2.40625 20.0363 3.56881 21.8931 5.81657L23.435 4.54281C21.1356 1.75931 17.9016 0.40625 13.875 0.40625V2.40625ZM21.8931 5.81657C23.7729 8.09217 24.7812 11.389 24.7812 15.8438H26.7812C26.7812 11.111 25.7114 7.29845 23.435 4.54281L21.8931 5.81657ZM24.7812 15.8438V22.0547H26.7812V15.8438H24.7812ZM18.8828 14.8125C18.8828 12.3072 18.5616 10.2799 17.8045 8.85813L16.0392 9.79812C16.5634 10.7826 16.8828 12.4116 16.8828 14.8125H18.8828ZM17.807 8.86285C17.4155 8.11801 16.8832 7.51296 16.1942 7.09954C15.5057 6.68645 14.7196 6.5 13.875 6.5V8.5C14.421 8.5 14.838 8.61824 15.1652 8.81452C15.4918 9.01048 15.7876 9.31949 16.0367 9.7934L17.807 8.86285ZM13.875 6.5C13.0557 6.5 12.2911 6.67043 11.6181 7.05195C10.9424 7.43508 10.4143 7.99982 10.0243 8.70186L11.7726 9.67314C12.0076 9.25018 12.2881 8.97117 12.6045 8.7918C12.9237 8.61082 13.335 8.5 13.875 8.5V6.5ZM10.0191 8.71122C9.29561 10.047 8.96223 11.9423 8.91427 14.2763L10.9139 14.3174C10.9596 12.089 11.2825 10.578 11.7777 9.66378L10.0191 8.71122ZM8.91406 14.2969V23.0156H10.9141V14.2969H8.91406ZM8.91406 23.0156C8.91406 25.6055 9.2328 27.6793 9.9949 29.092L11.7551 28.1424C11.2359 27.1801 10.9141 25.5195 10.9141 23.0156H8.91406ZM9.99755 29.0969C10.3934 29.821 10.9295 30.4048 11.6175 30.8017C12.3033 31.1974 13.0839 31.375 13.9219 31.375V29.375C13.3692 29.375 12.9467 29.2596 12.6169 29.0694C12.2893 28.8803 11.9972 28.5853 11.7524 28.1375L9.99755 29.0969ZM13.9219 31.375C14.738 31.375 15.4999 31.2007 16.1722 30.8142C16.8458 30.427 17.3746 29.8583 17.7703 29.1538L16.0265 28.1744C15.7816 28.6105 15.494 28.8972 15.1755 29.0803C14.8556 29.2642 14.4495 29.375 13.9219 29.375V31.375ZM17.7732 29.1487C18.5381 27.768 18.8669 25.7563 18.8828 23.2564L16.8828 23.2436C16.8675 25.65 16.54 27.2476 16.0237 28.1794L17.7732 29.1487ZM18.8828 23.25V14.8125H16.8828V23.25H18.8828ZM37.1016 15.6328V14.6328H36.1016V15.6328H37.1016ZM44.2031 8.55469L43.4882 9.25402L43.496 9.2618L44.2031 8.55469ZM38.4844 8.39062L37.8693 7.60209L37.8616 7.6082L38.4844 8.39062ZM37.3359 10.6641V11.6641H38.3359V10.6641H37.3359ZM29.4375 10.6641H28.4375V11.6641H29.4375V10.6641ZM35.0859 2.57812L35.4906 3.49261L35.4943 3.49094L35.0859 2.57812ZM51.7969 15.3047L50.974 14.7365L50.9725 14.7386L51.7969 15.3047ZM47.8828 18.4688L47.4554 17.5647L45.2838 18.5913L47.5424 19.409L47.8828 18.4688ZM52.1484 21.4688L51.3551 22.0776L51.3586 22.082L52.1484 21.4688ZM34.7109 35.2031L34.2999 36.1148L34.3089 36.1188L34.7109 35.2031ZM30.375 31.6641L29.5364 32.2088L29.539 32.2127L30.375 31.6641ZM28.8984 26.5078V25.5078H27.8984V26.5078H28.8984ZM36.8438 26.5078H37.8438V25.5078H36.8438V26.5078ZM44.5547 29.2266L45.2336 29.9609L45.2409 29.954L44.5547 29.2266ZM37.1016 21.5156H36.1016V22.5156H37.1016V21.5156ZM37.1016 16.6328H40.8281V14.6328H37.1016V16.6328ZM40.8281 16.6328C42.4535 16.6328 43.8573 16.2351 44.8499 15.2635C45.8465 14.288 46.2578 12.9018 46.2578 11.2969H44.2578C44.2578 12.5826 43.9309 13.3644 43.4509 13.8342C42.967 14.3079 42.1558 14.6328 40.8281 14.6328V16.6328ZM46.2578 11.2969C46.2578 9.94463 45.8261 8.76348 44.9102 7.84758L43.496 9.2618C43.9864 9.75214 44.2578 10.3991 44.2578 11.2969H46.2578ZM44.918 7.85539C43.9785 6.8951 42.6991 6.47656 41.2266 6.47656V8.47656C42.3165 8.47656 43.0215 8.77677 43.4883 9.25398L44.918 7.85539ZM41.2266 6.47656C39.9704 6.47656 38.8367 6.8476 37.8693 7.60212L39.0994 9.17913C39.6946 8.7149 40.389 8.47656 41.2266 8.47656V6.47656ZM37.8616 7.6082C36.8795 8.38993 36.3359 9.42631 36.3359 10.6641H38.3359C38.3359 10.0893 38.558 9.61007 39.1071 9.17305L37.8616 7.6082ZM37.3359 9.66406H29.4375V11.6641H37.3359V9.66406ZM30.4375 10.6641C30.4375 9.06575 30.878 7.66858 31.7525 6.4389L30.1225 5.27985C28.997 6.86267 28.4375 8.66862 28.4375 10.6641H30.4375ZM31.7525 6.4389C32.6363 5.19603 33.8693 4.20998 35.4906 3.4926L34.6813 1.66365C32.7713 2.50877 31.2387 3.71022 30.1225 5.27985L31.7525 6.4389ZM35.4943 3.49094C37.136 2.7565 38.9484 2.38281 40.9453 2.38281V0.382812C38.6922 0.382812 36.5984 0.806004 34.6776 1.66531L35.4943 3.49094ZM40.9453 2.38281C44.5978 2.38281 47.3349 3.21694 49.2744 4.76579L50.5224 3.20296C48.1182 1.28306 44.8866 0.382812 40.9453 0.382812V2.38281ZM49.2744 4.76579C51.1851 6.29158 52.1562 8.37413 52.1562 11.1328H54.1562C54.1562 7.82899 52.9555 5.14592 50.5224 3.20296L49.2744 4.76579ZM52.1562 11.1328C52.1562 12.381 51.7753 13.576 50.974 14.7365L52.6198 15.8729C53.631 14.4084 54.1562 12.8221 54.1562 11.1328H52.1562ZM50.9725 14.7386C50.201 15.8621 49.0476 16.812 47.4554 17.5647L48.3102 19.3728C50.1555 18.5005 51.6115 17.3411 52.6212 15.8708L50.9725 14.7386ZM47.5424 19.409C49.2008 20.0095 50.4555 20.9054 51.3551 22.0776L52.9417 20.8599C51.7788 19.3446 50.1898 18.2405 48.2233 17.5285L47.5424 19.409ZM51.3586 22.082C52.2312 23.2059 52.6953 24.6279 52.6953 26.4141H54.6953C54.6953 24.2627 54.1281 22.3878 52.9383 20.8555L51.3586 22.082ZM52.6953 26.4141C52.6953 29.1618 51.6584 31.3049 49.5647 32.9381L50.7947 34.5151C53.3884 32.492 54.6953 29.76 54.6953 26.4141H52.6953ZM49.5647 32.9381C47.441 34.5945 44.5987 35.4688 40.9453 35.4688V37.4688C44.917 37.4688 48.2309 36.5149 50.7947 34.5151L49.5647 32.9381ZM40.9453 35.4688C38.8403 35.4688 36.9 35.0721 35.1129 34.2875L34.3089 36.1188C36.3656 37.0217 38.5816 37.4688 40.9453 37.4688V35.4688ZM35.1219 34.2915C33.3598 33.4971 32.0748 32.4316 31.211 31.1154L29.539 32.2127C30.6439 33.8965 32.2496 35.1904 34.2999 36.1148L35.1219 34.2915ZM31.2136 31.1194C30.3414 29.7764 29.8984 28.2492 29.8984 26.5078H27.8984C27.8984 28.6102 28.4399 30.5205 29.5364 32.2087L31.2136 31.1194ZM28.8984 27.5078H36.8438V25.5078H28.8984V27.5078ZM35.8438 26.5078C35.8438 27.8635 36.4054 29.0307 37.4374 29.9671L38.7814 28.486C38.1258 27.8912 37.8438 27.2459 37.8438 26.5078H35.8438ZM37.4374 29.9671C38.4812 30.9142 39.7663 31.375 41.2266 31.375V29.375C40.2181 29.375 39.4251 29.0701 38.7814 28.486L37.4374 29.9671ZM41.2266 31.375C42.8074 31.375 44.18 30.9349 45.2335 29.9608L43.8758 28.4923C43.2732 29.0495 42.427 29.375 41.2266 29.375V31.375ZM45.2409 29.954C46.2817 28.9721 46.7969 27.7109 46.7969 26.25H44.7969C44.7969 27.1953 44.4839 27.9186 43.8685 28.4992L45.2409 29.954ZM46.7969 26.25C46.7969 24.3945 46.3349 22.8182 45.1494 21.8267L43.8663 23.3608C44.3994 23.8068 44.7969 24.668 44.7969 26.25H46.7969ZM45.1494 21.8267C44.0554 20.9117 42.6126 20.5156 40.9453 20.5156V22.5156C42.3093 22.5156 43.2415 22.8383 43.8663 23.3608L45.1494 21.8267ZM40.9453 20.5156H37.1016V22.5156H40.9453V20.5156ZM38.1016 21.5156V15.6328H36.1016V21.5156H38.1016Z" fill="#2281E2"/>
</svg>
