<?xml version="1.0" encoding="utf-8"?><svg width="56" height="58" fill="none" xmlns="http://www.w3.org/2000/svg" viewBox="0 0 56 58"><path d="M15.448 18.367a.967.967 0 00.966.966h23.172a.965.965 0 00.966-.966.967.967 0 00-.966-.967H16.414a.965.965 0 00-.966.967zM6.759 25.133h19.31a.965.965 0 00.966-.966.967.967 0 00-.966-.967H6.759a.965.965 0 00-.966.967.967.967 0 00.966.966zM29.931 29h-7.724a.965.965 0 00-.683 1.65.965.965 0 00.683.283h7.724a.965.965 0 00.966-.966.967.967 0 00-.966-.967zM24.138 34.8H6.758a.965.965 0 00-.965.967.967.967 0 00.966.966h17.379a.965.965 0 00.965-.966.967.967 0 00-.965-.967zM6.759 19.333h5.793a.965.965 0 00.683-1.65.965.965 0 00-.683-.283H6.759a.965.965 0 00-.966.967.967.967 0 00.966.966zM39.586 23.2h-9.655a.965.965 0 00-.965.967.967.967 0 00.965.966h9.655a.965.965 0 00.966-.966.967.967 0 00-.966-.967zM6.759 30.933h11.586a.965.965 0 00.683-1.65.965.965 0 00-.683-.283H6.759a.965.965 0 00-.966.967.967.967 0 00.966.966zM22.207 46.4h-3.862a.965.965 0 00-.683 1.65.965.965 0 00.683.283h3.862a.965.965 0 00.683-1.65.965.965 0 00-.683-.283zM14.483 46.4H6.759a.965.965 0 00-.966.967.967.967 0 00.966.966h7.724a.965.965 0 00.965-.966.967.967 0 00-.965-.967zM6.759 42.533h5.793a.965.965 0 00.683-1.65.965.965 0 00-.683-.283H6.759a.965.965 0 00-.966.967.967.967 0 00.966.966zM6.759 13.533h11.586a.965.965 0 00.683-1.65.965.965 0 00-.683-.283H6.759a.965.965 0 00-.966.967.967.967 0 00.966.966zM22.207 40.6h-5.793a.965.965 0 00-.683 1.65.965.965 0 00.683.283h5.793a.965.965 0 00.683-1.65.965.965 0 00-.683-.283z" fill="#6AADF1"/><path d="M55.994 54.907a2.883 2.883 0 00-.983-1.99l-7.2-6.307a10.63 10.63 0 00-1.466-9.217V12.567a.966.966 0 00-.283-.684L34.476.283A.965.965 0 0033.793 0H4.828a4.83 4.83 0 00-3.412 1.417A4.842 4.842 0 000 4.833v48.334a4.842 4.842 0 001.416 3.416A4.83 4.83 0 004.828 58h36.69a4.83 4.83 0 003.411-1.417 4.842 4.842 0 001.416-3.416v-.135l4.852 4.25a2.894 2.894 0 004.797-2.375zm-12.09-5.361a8.65 8.65 0 01-14.746-4.575 8.674 8.674 0 011.223-6.1 8.646 8.646 0 0111.174-3.111 8.662 8.662 0 014.193 4.591 8.675 8.675 0 01-1.844 9.195zM34.759 3.3l8.29 8.3h-5.394a2.898 2.898 0 01-2.896-2.9V3.3zm6.758 52.767H4.827a2.898 2.898 0 01-2.896-2.9V4.833a2.905 2.905 0 012.897-2.9h28V8.7a4.842 4.842 0 001.415 3.416 4.83 4.83 0 003.412 1.417h6.759v21.77a10.611 10.611 0 00-15.726 2.506 10.64 10.64 0 004.44 15.31 10.607 10.607 0 0011.286-1.417v1.465a2.905 2.905 0 01-2.897 2.9zm12.313-.33a.967.967 0 01-1.362.09l-6.508-5.7c.407-.51.765-1.056 1.07-1.631l6.71 5.877a.966.966 0 01.09 1.364z" fill="#6AADF1"/><path d="M42.097 45.627a.965.965 0 00-1.351.193 3.865 3.865 0 01-2.816 1.537 3.858 3.858 0 01-3.892-2.505 3.87 3.87 0 011.3-4.446.967.967 0 00-1.16-1.546 5.8 5.8 0 00-1.946 6.666 5.8 5.8 0 003.4 3.404 5.786 5.786 0 006.658-1.949.968.968 0 00-.193-1.354z" fill="#6AADF1"/></svg>