<?xml version="1.0" encoding="utf-8"?><svg width="47" height="40" fill="none" xmlns="http://www.w3.org/2000/svg" viewBox="0 0 47 40"><path d="M27.89.805V13.87c0 5.195 1.29 10.234 3.868 15.117 2.578 4.922 5.117 8.516 7.617 10.782l6.27-2.696c-1.993-2.265-3.926-5.293-5.801-9.082-1.836-3.75-2.754-7.422-2.754-11.015h9.668V.805H27.89zM0 .805V13.87c0 5.195 1.29 10.234 3.867 15.117 2.578 4.922 5.117 8.516 7.617 10.782l6.27-2.696c-1.992-2.265-3.926-5.293-5.8-9.082-1.837-3.75-2.755-7.422-2.755-11.015h9.668V.805H0z" fill="#8AD377"/></svg>