<?xml version="1.0" encoding="utf-8"?><svg width="7" height="13" fill="none" xmlns="http://www.w3.org/2000/svg" viewBox="0 0 7 13"><path d="M6.736.003L5.057 0C3.171 0 1.952 1.256 1.952 3.2v1.474H.264A.265.265 0 000 4.94v2.137c0 .146.118.265.264.265h1.688v5.393c0 .146.118.265.264.265H4.42a.265.265 0 00.264-.265V7.342h1.974a.264.264 0 00.264-.265V4.94a.266.266 0 00-.264-.266H4.683v-1.25c0-.601.142-.906.922-.906h1.131A.265.265 0 007 2.251V.268a.265.265 0 00-.264-.265z" fill="#fff" fill-opacity=".36"/></svg>