<?xml version="1.0" encoding="utf-8"?><svg width="30" height="39" fill="none" xmlns="http://www.w3.org/2000/svg" viewBox="0 0 30 39"><path d="M29.618 7.896L15.138.086a.712.712 0 00-.685.004L.374 7.9A.731.731 0 000 8.54v10.203c.008 8.387 4.917 15.974 12.508 19.334l1.954.862c.183.08.39.081.574.001l2.202-.963C24.969 34.69 29.999 27.03 30 18.541v-10a.731.731 0 00-.382-.645zm-1.06 10.645c-.001 7.904-4.686 15.035-11.885 18.094l-.005.002-1.917.838-1.666-.736C6.019 33.612 1.449 26.55 1.44 18.744v-9.77l13.363-7.414 13.754 7.419v9.563z" fill="#75B7F3"/><path d="M9.486 18.27a.715.715 0 00-1.017-.081.736.736 0 00-.08 1.029l3.808 4.514c.254.301.7.342 1.003.092l8.869-7.304a.736.736 0 00.104-1.027.715.715 0 00-1.014-.105l-8.323 6.854-3.35-3.972z" fill="#75B7F3"/></svg>