<?xml version="1.0" encoding="utf-8"?><svg width="15" height="15" fill="none" xmlns="http://www.w3.org/2000/svg" viewBox="0 0 15 15"><path d="M4.688 0h5.625C12.9 0 15 2.1 15 4.688v5.625C15 12.9 12.9 15 10.312 15H4.689A4.688 4.688 0 010 10.312V4.689C0 2.099 2.1 0 4.688 0zM1.405 10.313a3.285 3.285 0 003.282 3.28h5.625a3.285 3.285 0 003.28-3.28V4.686a3.285 3.285 0 00-3.28-3.28H4.686a3.285 3.285 0 00-3.28 3.28v5.625z" fill="#fff" fill-opacity=".36"/><path d="M7.5 3.75a3.75 3.75 0 110 7.5 3.75 3.75 0 010-7.5zm0 6.094A2.347 2.347 0 009.844 7.5 2.346 2.346 0 007.5 5.156 2.346 2.346 0 005.156 7.5 2.347 2.347 0 007.5 9.844zM3.469 3.968a.5.5 0 110-.999.5.5 0 010 1z" fill="#fff" fill-opacity=".36"/></svg>