<?xml version="1.0" encoding="utf-8"?><svg width="117" height="14" fill="none" xmlns="http://www.w3.org/2000/svg" viewBox="0 0 117 14"><path fill="#fff" fill-opacity=".45" d="M0 6h35v1H0zM82 6h35v1H82zM64.655 3.857L57.279.067a.61.61 0 00-.559 0l-7.375 3.79a.651.651 0 00-.033 1.13v8.37c0 .356.28.643.625.643a.634.634 0 00.625-.642V5.63l.813.417v2.717c0 .244.135.467.348.575l5 2.539a.61.61 0 00.554 0l5-2.539a.644.644 0 00.348-.575v-2.69c1.143-.6 2.024-1.066 2.037-1.073a.65.65 0 00-.007-1.145zm-3.28 4.509L57 10.586l-4.375-2.22V6.69C56.998 8.91 56.737 8.862 57 8.862c.204 0 .167.066 4.375-2.132v1.636zm-4.345-.849l-6.008-3.086L57 1.361l5.993 3.078c-1.003.529-4.938 2.598-5.963 3.078z"/></svg>