<?xml version="1.0" encoding="utf-8"?><svg width="20" height="22" fill="none" xmlns="http://www.w3.org/2000/svg" viewBox="0 0 20 22"><path d="M9.92 11.854h.146c1.335-.023 2.415-.492 3.212-1.39 1.754-1.977 1.463-5.366 1.43-5.69-.113-2.428-1.261-3.59-2.209-4.132C11.793.237 10.97.018 10.048 0h-.077c-.506 0-1.5.082-2.451.624-.957.542-2.123 1.704-2.237 4.15-.032.324-.324 3.713 1.43 5.69.793.898 1.873 1.367 3.207 1.39zM6.5 4.888c0-.013.004-.027.004-.036.15-3.267 2.469-3.617 3.462-3.617H10.021c1.23.027 3.32.528 3.462 3.617 0 .014 0 .027.005.036.004.032.323 3.13-1.126 4.761-.574.647-1.339.966-2.346.975h-.045c-1.003-.009-1.773-.328-2.342-.975-1.444-1.622-1.134-4.733-1.13-4.76z" fill="#fff"/><path d="M19.355 17.476v-.014c0-.036-.004-.072-.004-.113-.027-.902-.087-3.012-2.064-3.686l-.045-.014c-2.055-.524-3.764-1.708-3.782-1.722a.614.614 0 10-.706 1.007c.078.055 1.89 1.317 4.16 1.9 1.061.378 1.18 1.512 1.211 2.551 0 .041 0 .077.005.114.005.41-.023 1.043-.096 1.408-.738.419-3.63 1.867-8.032 1.867-4.382 0-7.293-1.453-8.036-1.872-.073-.364-.105-.998-.096-1.408 0-.036.005-.073.005-.114.032-1.038.15-2.173 1.212-2.55 2.268-.584 4.082-1.85 4.16-1.9a.614.614 0 10-.707-1.007c-.018.013-1.718 1.198-3.781 1.722-.019.004-.032.009-.046.013-1.977.68-2.036 2.789-2.064 3.686 0 .041 0 .077-.004.114v.014c-.005.236-.01 1.453.232 2.063a.584.584 0 00.237.287C1.251 19.913 4.526 22 10.007 22c5.48 0 8.756-2.091 8.893-2.178a.609.609 0 00.237-.287c.228-.606.223-1.822.218-2.059z" fill="#fff"/></svg>