<svg width="413" height="346" viewBox="0 0 413 346" fill="none" xmlns="http://www.w3.org/2000/svg">
<path d="M404.095 95.3162L213.715 1.67395C209.175 -0.557984 203.828 -0.557984 199.284 1.67395L8.90765 95.3162C-2.57436 100.964 -3.0596 116.938 8.05375 123.253V330.128C8.05375 338.895 15.2788 346 24.1897 346C33.0974 346 40.3225 338.895 40.3225 330.128V139.161L61.2951 149.478V216.613C61.2951 222.651 64.78 228.166 70.2847 230.841L199.353 293.568C203.856 295.757 209.14 295.76 213.646 293.568L342.718 230.841C348.222 228.166 351.704 222.651 351.704 216.613V150.144C381.21 135.308 403.947 123.786 404.268 123.621C415.974 117.691 415.905 101.125 404.095 95.3162ZM319.435 206.749L206.5 261.636L93.5638 206.749V165.349C206.443 220.215 199.709 219.028 206.5 219.028C211.759 219.028 210.804 220.655 319.435 166.326V206.749ZM207.265 185.787L52.1984 109.514L206.5 33.6155L361.201 109.709C335.297 122.775 233.739 173.905 207.265 185.787Z" fill="#EBF0F5"/>
</svg>
