<svg width="413" height="346" viewBox="0 0 413 346" fill="none" xmlns="http://www.w3.org/2000/svg"><path d="M404.095 95.316L213.715 1.674a16.388 16.388 0 00-14.431 0L8.908 95.316c-11.482 5.648-11.968 21.622-.854 27.937v206.875c0 8.767 7.225 15.872 16.136 15.872 8.907 0 16.132-7.105 16.132-15.872V139.161l20.973 10.317v67.135c0 6.038 3.485 11.553 8.99 14.228l129.068 62.727a16.365 16.365 0 0014.293 0l129.072-62.727c5.504-2.675 8.986-8.19 8.986-14.228v-66.469a19348.38 19348.38 0 0052.564-26.523c11.706-5.93 11.637-22.496-.173-28.305zm-84.66 111.433L206.5 261.636 93.564 206.749v-41.4c112.879 54.866 106.145 53.679 112.936 53.679 5.259 0 4.304 1.627 112.935-52.702v40.423zm-112.17-20.962L52.198 109.514 206.5 33.616l154.701 76.093c-25.904 13.066-127.462 64.196-153.936 76.078z" fill="#EBF0F5"/></svg>