<svg width="580" height="226" viewBox="0 0 580 226" fill="none" xmlns="http://www.w3.org/2000/svg"><path d="M340.666 83.362c0 7.192-5.821 13.02-13.008 13.02-7.183 0-13.008-5.829-13.008-13.02 0-7.192 5.825-13.018 13.008-13.018 7.187 0 13.008 5.826 13.008 13.018zm-74.794 0c0 7.192-5.825 13.02-13.008 13.02-7.183 0-13.008-5.829-13.008-13.02 0-7.192 5.825-13.018 13.008-13.018 7.183 0 13.008 5.826 13.008 13.018zm-19.691 97.313a5.363 5.363 0 01-5.361-5.364c0-23.156 18.612-41.996 41.491-41.996h18.069c22.879 0 41.491 18.736 41.491 41.763a5.363 5.363 0 01-5.36 5.368 5.361 5.361 0 01-5.357-5.368c0-17.109-13.805-31.031-30.773-31.031h-18.069c-16.968 0-30.77 14.022-30.77 31.263a5.364 5.364 0 01-5.361 5.365z" fill="#E0E7ED"/><path d="M290.431 226c-62.25 0-112.893-50.693-112.893-113.002C177.538 50.693 228.181 0 290.431 0c62.247 0 112.89 50.693 112.89 112.998 0 62.309-50.643 113.002-112.89 113.002zm0-215.268c-56.339 0-102.172 45.876-102.172 102.266 0 56.394 45.833 102.27 102.172 102.27 56.337 0 102.169-45.876 102.169-102.27 0-56.39-45.832-102.266-102.169-102.266zM141.861 138.2h22.821v40.12h-22.821V226H89.897v-47.68H3.084L0 146.533 89.897 1.795v-.463h51.964V138.2zm-92.364 0h40.4V69.072l-3.239 5.246-37.16 63.882zm507.682 0H580v40.12h-22.821V226h-51.964v-47.68h-86.813l-3.084-31.787L505.215 1.795v-.463h51.964V138.2zm-92.364 0h40.4V69.072l-3.239 5.246-37.161 63.882z" fill="#E0E7ED"/></svg>