<svg xmlns="http://www.w3.org/2000/svg" xmlns:xlink="http://www.w3.org/1999/xlink"><symbol viewBox="0 0 9 16" id="icon-chevron"><path d="M8.707 8.707a1 1 0 000-1.414L2.343.929A1 1 0 00.93 2.343L6.586 8 .929 13.657a1 1 0 101.414 1.414l6.364-6.364zM7 9h1V7H7v2z"/></symbol><symbol viewBox="0 0 20 22" id="icon-user"><path d="M9.92 11.854h.146c1.335-.023 2.415-.492 3.212-1.39 1.754-1.977 1.463-5.366 1.43-5.69-.113-2.428-1.261-3.59-2.209-4.132C11.793.237 10.97.018 10.048 0h-.077c-.506 0-1.5.082-2.451.624-.957.542-2.123 1.704-2.237 4.15-.032.324-.324 3.713 1.43 5.69.793.898 1.873 1.367 3.207 1.39zM6.5 4.888c0-.013.004-.027.004-.036.15-3.267 2.469-3.617 3.462-3.617h.055c1.23.027 3.32.528 3.462 3.617 0 .014 0 .027.005.036.004.032.323 3.13-1.126 4.761-.574.647-1.339.966-2.346.975h-.045c-1.003-.009-1.773-.328-2.342-.975-1.444-1.622-1.134-4.733-1.13-4.76z"/><path d="M19.355 17.476v-.014c0-.036-.004-.072-.004-.113-.027-.902-.087-3.012-2.064-3.686l-.045-.014c-2.055-.524-3.764-1.708-3.782-1.722a.614.614 0 10-.706 1.007c.078.055 1.89 1.317 4.16 1.9 1.061.378 1.18 1.512 1.211 2.551 0 .041 0 .077.005.114.005.41-.023 1.043-.096 1.408-.738.419-3.63 1.867-8.032 1.867-4.382 0-7.293-1.453-8.036-1.872-.073-.364-.105-.998-.096-1.408 0-.036.005-.073.005-.114.032-1.038.15-2.173 1.212-2.55 2.268-.584 4.082-1.85 4.16-1.9a.614.614 0 10-.707-1.007c-.018.013-1.718 1.198-3.781 1.722-.019.004-.032.009-.046.013-1.977.68-2.036 2.789-2.064 3.686 0 .041 0 .077-.004.114v.014c-.005.236-.01 1.453.232 2.063a.584.584 0 00.237.287C1.251 19.913 4.526 22 10.007 22c5.48 0 8.756-2.091 8.893-2.178a.609.609 0 00.237-.287c.228-.606.223-1.822.218-2.059z"/></symbol><symbol viewBox="0 0 14 8" id="icon-arrow-small"><path d="M13.354 4.354a.5.5 0 000-.708L10.172.464a.5.5 0 00-.708.708L12.293 4 9.464 6.828a.5.5 0 10.708.708l3.182-3.182zM0 4.5h13v-1H0v1z"/></symbol><symbol viewBox="0 0 17 17" id="icon-phone"><path d="M3.4 7.367c1.322 2.644 3.589 4.816 6.233 6.233l2.078-2.078c.283-.283.661-.377.945-.189 1.038.378 2.172.567 3.4.567.566 0 .944.378.944.944v3.212c0 .566-.378.944-.944.944C7.178 17 0 9.822 0 .944 0 .378.378 0 .944 0H4.25c.567 0 .944.378.944.944 0 1.134.19 2.267.567 3.4.095.284 0 .662-.189.945L3.4 7.367z"/></symbol><symbol viewBox="0 0 168 32" id="icon-logo"><path d="M36.202 9.54L19.146 1.15c-.406-.2-.885-.2-1.293 0L.799 9.54a1.412 1.412 0 00-.076 2.503v18.535c0 .785.647 1.422 1.445 1.422s1.445-.637 1.445-1.422v-17.11l1.88.925v6.014c0 .541.312 1.036.805 1.275l11.563 5.62c.403.196.877.197 1.28 0l11.563-5.62a1.42 1.42 0 00.806-1.274v-5.956c2.643-1.329 4.68-2.361 4.709-2.376a1.413 1.413 0 00-.016-2.536zm-7.584 9.984L18.5 24.44 8.382 19.524v-3.71c10.113 4.916 9.51 4.81 10.118 4.81.471 0 .386.146 10.118-4.722v3.622zm-10.05-1.878L4.677 10.812l13.824-6.8 13.86 6.817C30.038 12 20.94 16.581 18.568 17.646z" fill="#8AD377"/><path d="M52.93 25.364c-1.855 0-3.406-.399-4.654-1.196a6.675 6.675 0 01-2.626-3.302l3.588-2.08c.728 1.681 2.002 2.522 3.822 2.522 1.647 0 2.47-.494 2.47-1.482 0-.537-.269-.953-.806-1.248-.52-.312-1.508-.667-2.964-1.066a13.352 13.352 0 01-2.002-.702 9.096 9.096 0 01-1.69-1.014 4.4 4.4 0 01-1.248-1.612c-.277-.641-.416-1.378-.416-2.21 0-1.681.598-3.025 1.794-4.03 1.213-1.005 2.652-1.508 4.316-1.508 1.49 0 2.808.355 3.952 1.066 1.144.693 2.045 1.707 2.704 3.042l-3.51 2.054c-.33-.693-.737-1.213-1.222-1.56-.485-.364-1.127-.546-1.924-.546-.624 0-1.11.139-1.456.416-.33.26-.494.58-.494.962 0 .45.208.84.624 1.17.433.33 1.317.693 2.652 1.092.728.225 1.291.407 1.69.546.399.139.901.373 1.508.702.624.312 1.092.65 1.404 1.014.33.347.615.815.858 1.404.26.572.39 1.23.39 1.976 0 1.733-.624 3.103-1.872 4.108-1.248.988-2.877 1.482-4.888 1.482zm15.946-9.62h-2.678v4.602c0 .52.208.85.624.988.416.139 1.1.182 2.054.13V25c-2.479.26-4.195.026-5.148-.702-.953-.745-1.43-2.063-1.43-3.952v-4.602h-2.08V12h2.08V9.53l3.9-1.17V12h2.678v3.744zM79.736 12h3.9v13h-3.9v-1.222c-.78 1.057-2.02 1.586-3.718 1.586-1.386 0-2.548-.477-3.484-1.43-.919-.953-1.378-2.27-1.378-3.952V12h3.9v7.41c0 .763.208 1.352.624 1.768.433.399.98.598 1.638.598.746 0 1.335-.225 1.768-.676.433-.45.65-1.118.65-2.002V12zm16.198-5.2h3.9V25h-3.9v-1.222c-.918 1.057-2.21 1.586-3.874 1.586-1.716 0-3.18-.659-4.394-1.976-1.213-1.335-1.82-2.964-1.82-4.888s.607-3.545 1.82-4.862c1.214-1.335 2.678-2.002 4.394-2.002 1.664 0 2.956.529 3.874 1.586V6.8zm-5.33 14.014c.572.572 1.318.858 2.236.858.92 0 1.664-.286 2.236-.858.572-.572.858-1.343.858-2.314 0-.97-.286-1.742-.858-2.314-.572-.572-1.317-.858-2.236-.858-.918 0-1.664.286-2.236.858-.572.572-.858 1.343-.858 2.314 0 .97.286 1.742.858 2.314z"/><path d="M114.396 25l-.91-2.86h-6.76l-.91 2.86h-4.55l6.188-18.2h5.304l6.188 18.2h-4.55zm-6.422-6.76h4.264l-2.132-6.682-2.132 6.682zm20.18-6.24h4.316l-4.81 13h-4.42l-4.81-13h4.316l2.704 8.242L128.154 12zm13.365 3.744h-2.678v4.602c0 .52.208.85.624.988.416.139 1.1.182 2.054.13V25c-2.479.26-4.195.026-5.148-.702-.954-.745-1.43-2.063-1.43-3.952v-4.602h-2.08V12h2.08V9.53l3.9-1.17V12h2.678v3.744zm13.082 7.644c-1.335 1.317-2.964 1.976-4.888 1.976s-3.553-.659-4.888-1.976c-1.335-1.335-2.002-2.964-2.002-4.888s.667-3.545 2.002-4.862c1.335-1.335 2.964-2.002 4.888-2.002s3.553.667 4.888 2.002c1.335 1.317 2.002 2.938 2.002 4.862s-.667 3.553-2.002 4.888zm-7.02-2.678c.572.572 1.283.858 2.132.858.849 0 1.56-.286 2.132-.858.572-.572.858-1.309.858-2.21s-.286-1.638-.858-2.21c-.572-.572-1.283-.858-2.132-.858-.849 0-1.56.286-2.132.858-.572.572-.858 1.309-.858 2.21s.286 1.638.858 2.21zm15.128-6.396c.243-.832.728-1.465 1.456-1.898a4.635 4.635 0 012.444-.676v4.42a3.91 3.91 0 00-2.678.494c-.815.468-1.222 1.291-1.222 2.47V25h-3.9V12h3.9v2.314z" fill="#6AADF1"/></symbol><symbol viewBox="0 0 168 32" id="icon-logo-white"><path d="M36.202 9.54L19.146 1.15c-.406-.2-.885-.2-1.293 0L.799 9.54a1.412 1.412 0 00-.076 2.503v18.535c0 .785.647 1.422 1.445 1.422s1.445-.637 1.445-1.422v-17.11l1.88.925v6.014c0 .541.312 1.036.805 1.275l11.563 5.62c.403.196.877.197 1.28 0l11.563-5.62a1.42 1.42 0 00.806-1.274v-5.956c2.643-1.329 4.68-2.361 4.709-2.376a1.413 1.413 0 00-.016-2.536zm-7.584 9.984L18.5 24.44 8.382 19.524v-3.71c10.113 4.916 9.51 4.81 10.118 4.81.471 0 .386.146 10.118-4.722v3.622zm-10.05-1.878L4.677 10.812l13.824-6.8 13.86 6.817C30.038 12 20.94 16.581 18.568 17.646z" fill="#C6CDD3"/><path d="M52.93 25.364c-1.855 0-3.406-.399-4.654-1.196a6.675 6.675 0 01-2.626-3.302l3.588-2.08c.728 1.681 2.002 2.522 3.822 2.522 1.647 0 2.47-.494 2.47-1.482 0-.537-.269-.953-.806-1.248-.52-.312-1.508-.667-2.964-1.066a13.352 13.352 0 01-2.002-.702 9.096 9.096 0 01-1.69-1.014 4.4 4.4 0 01-1.248-1.612c-.277-.641-.416-1.378-.416-2.21 0-1.681.598-3.025 1.794-4.03 1.213-1.005 2.652-1.508 4.316-1.508 1.49 0 2.808.355 3.952 1.066 1.144.693 2.045 1.707 2.704 3.042l-3.51 2.054c-.33-.693-.737-1.213-1.222-1.56-.485-.364-1.127-.546-1.924-.546-.624 0-1.11.139-1.456.416-.33.26-.494.58-.494.962 0 .45.208.84.624 1.17.433.33 1.317.693 2.652 1.092.728.225 1.291.407 1.69.546.399.139.901.373 1.508.702.624.312 1.092.65 1.404 1.014.33.347.615.815.858 1.404.26.572.39 1.23.39 1.976 0 1.733-.624 3.103-1.872 4.108-1.248.988-2.877 1.482-4.888 1.482zm15.946-9.62h-2.678v4.602c0 .52.208.85.624.988.416.139 1.1.182 2.054.13V25c-2.479.26-4.195.026-5.148-.702-.953-.745-1.43-2.063-1.43-3.952v-4.602h-2.08V12h2.08V9.53l3.9-1.17V12h2.678v3.744zM79.736 12h3.9v13h-3.9v-1.222c-.78 1.057-2.02 1.586-3.718 1.586-1.386 0-2.548-.477-3.484-1.43-.919-.953-1.378-2.27-1.378-3.952V12h3.9v7.41c0 .763.208 1.352.624 1.768.433.399.98.598 1.638.598.746 0 1.335-.225 1.768-.676.433-.45.65-1.118.65-2.002V12zm16.198-5.2h3.9V25h-3.9v-1.222c-.918 1.057-2.21 1.586-3.874 1.586-1.716 0-3.18-.659-4.394-1.976-1.213-1.335-1.82-2.964-1.82-4.888s.607-3.545 1.82-4.862c1.214-1.335 2.678-2.002 4.394-2.002 1.664 0 2.956.529 3.874 1.586V6.8zm-5.33 14.014c.572.572 1.318.858 2.236.858.92 0 1.664-.286 2.236-.858.572-.572.858-1.343.858-2.314 0-.97-.286-1.742-.858-2.314-.572-.572-1.317-.858-2.236-.858-.918 0-1.664.286-2.236.858-.572.572-.858 1.343-.858 2.314 0 .97.286 1.742.858 2.314zM114.396 25l-.91-2.86h-6.76l-.91 2.86h-4.55l6.188-18.2h5.304l6.188 18.2h-4.55zm-6.422-6.76h4.264l-2.132-6.682-2.132 6.682zm20.18-6.24h4.316l-4.81 13h-4.42l-4.81-13h4.316l2.704 8.242L128.154 12zm13.365 3.744h-2.678v4.602c0 .52.208.85.624.988.416.139 1.1.182 2.054.13V25c-2.479.26-4.195.026-5.148-.702-.954-.745-1.43-2.063-1.43-3.952v-4.602h-2.08V12h2.08V9.53l3.9-1.17V12h2.678v3.744zm13.082 7.644c-1.335 1.317-2.964 1.976-4.888 1.976s-3.553-.659-4.888-1.976c-1.335-1.335-2.002-2.964-2.002-4.888s.667-3.545 2.002-4.862c1.335-1.335 2.964-2.002 4.888-2.002s3.553.667 4.888 2.002c1.335 1.317 2.002 2.938 2.002 4.862s-.667 3.553-2.002 4.888zm-7.02-2.678c.572.572 1.283.858 2.132.858.849 0 1.56-.286 2.132-.858.572-.572.858-1.309.858-2.21s-.286-1.638-.858-2.21c-.572-.572-1.283-.858-2.132-.858-.849 0-1.56.286-2.132.858-.572.572-.858 1.309-.858 2.21s.286 1.638.858 2.21zm15.128-6.396c.243-.832.728-1.465 1.456-1.898a4.635 4.635 0 012.444-.676v4.42a3.91 3.91 0 00-2.678.494c-.815.468-1.222 1.291-1.222 2.47V25h-3.9V12h3.9v2.314z" fill="#fff"/></symbol><symbol viewBox="0 0 16 11" id="icon-mail"><path d="M10.606 5.582L16 8.992V2.028l-5.394 3.554zM0 2.028v6.964l5.394-3.41L0 2.028zM15 0H1a.988.988 0 00-.97.851L8 6.102 15.97.851A.988.988 0 0015 0zM9.69 6.186l-1.415.932a.5.5 0 01-.55 0L6.31 6.185.032 10.156A.986.986 0 001 11h14a.986.986 0 00.968-.844L9.69 6.186z"/></symbol><symbol viewBox="0 0 7 13" id="icon-fb"><path d="M6.736.003L5.057 0C3.171 0 1.952 1.256 1.952 3.2v1.474H.264A.265.265 0 000 4.94v2.137c0 .146.118.265.264.265h1.688v5.393c0 .146.118.265.264.265H4.42a.265.265 0 00.264-.265V7.342h1.974a.264.264 0 00.264-.265V4.94a.266.266 0 00-.264-.266H4.683v-1.25c0-.601.142-.906.922-.906h1.131A.265.265 0 007 2.251V.268a.265.265 0 00-.264-.265z"/></symbol><symbol viewBox="0 0 15 15" id="icon-inst"><path d="M4.688 0h5.625A4.69 4.69 0 0115 4.688v5.625A4.69 4.69 0 0110.312 15H4.689A4.688 4.688 0 010 10.312V4.689C0 2.099 2.1 0 4.688 0zM1.405 10.313a3.285 3.285 0 003.282 3.28h5.625a3.285 3.285 0 003.28-3.28V4.686a3.285 3.285 0 00-3.28-3.28H4.686a3.285 3.285 0 00-3.28 3.28v5.625z"/><path d="M7.5 3.75a3.75 3.75 0 110 7.5 3.75 3.75 0 010-7.5zm0 6.094A2.347 2.347 0 009.844 7.5 2.346 2.346 0 007.5 5.156 2.346 2.346 0 005.156 7.5 2.347 2.347 0 007.5 9.844zM3.469 3.968a.5.5 0 110-.999.5.5 0 010 1z"/></symbol><symbol viewBox="0 0 16 9" id="icon-vk"><path d="M15.857 8.027c-.043-.07-.309-.64-1.589-1.812-1.34-1.226-1.16-1.027.454-3.148.983-1.291 1.376-2.08 1.253-2.417-.117-.322-.84-.237-.84-.237l-2.404.014s-.178-.024-.31.054c-.13.077-.213.255-.213.255s-.38 1-.889 1.85c-1.071 1.793-1.5 1.887-1.675 1.776-.407-.26-.305-1.043-.305-1.6 0-1.738.267-2.462-.521-2.65C8.556.05 8.364.01 7.695.002 6.837-.007 6.11.005 5.699.203c-.274.132-.485.427-.356.444.159.02.519.095.71.352.247.33.238 1.073.238 1.073s.142 2.046-.331 2.3c-.325.175-.77-.18-1.725-1.809-.49-.833-.86-1.754-.86-1.754s-.07-.172-.198-.264c-.154-.111-.37-.147-.37-.147L.521.412S.178.422.052.57C-.06.7.043.97.043.97s1.79 4.128 3.817 6.21c1.859 1.907 3.969 1.782 3.969 1.782h.956s.289-.031.436-.188c.136-.144.13-.414.13-.414s-.018-1.265.578-1.452c.587-.183 1.341 1.223 2.14 1.764.604.41 1.063.32 1.063.32l2.137-.03s1.118-.068.588-.935z"/></symbol><symbol viewBox="0 0 15 11" id="icon-yt"><path d="M14.69 1.721A1.926 1.926 0 0013.37.336C12.195 0 7.499 0 7.499 0S2.806 0 1.632.324C1 .504.48 1.048.309 1.72 0 2.951 0 5.5 0 5.5s0 2.562.309 3.779c.173.673.68 1.203 1.322 1.385C2.817 11 7.5 11 7.5 11s4.695 0 5.869-.324a1.926 1.926 0 001.322-1.384C15 8.062 15 5.513 15 5.513s.012-2.562-.31-3.792z" fill="red"/><path d="M6 8l4-2.5L6 3v5z" fill="#fff"/></symbol><symbol viewBox="0 0 16 18" id="icon-calendar"><path d="M14.222 1.8h-.889V0h-1.777v1.8H4.444V0H2.667v1.8h-.89C.797 1.8.01 2.606.01 3.6L0 16.2c0 .995.796 1.8 1.778 1.8h12.444c.982 0 1.778-.805 1.778-1.8V3.6c0-.994-.796-1.8-1.778-1.8zm0 14.4H1.778V6.3h12.444v9.9z"/><path d="M12.027 9.054l-.943-.954-4.337 4.392-1.885-1.908-.942.954L6.747 14.4l5.28-5.346z"/></symbol><symbol viewBox="0 0 39 48" id="icon-f-adv-1"><path d="M38.22 33.032c0-1.178-.858-2.199-2.028-2.356-.39-.706-.936-1.334-1.56-1.884.936-2.04.39-4.475-1.404-5.81l-1.56-1.177c-.78-.628-1.248-1.491-1.248-2.512v-6.909c0-4.474-2.496-8.557-6.474-10.52L21.84.766a6.741 6.741 0 00-6.24 0l-2.106 1.021A11.9 11.9 0 007.02 12.384v6.909c0 1.02-.468 1.884-1.248 2.512l-1.56 1.178c-1.794 1.334-2.34 3.768-1.404 5.81A8.592 8.592 0 000 35.15v12.012h37.44v-3.925H39v-1.57h-.78v-8.636zM5.148 24.239l1.56-1.178c1.17-.863 1.872-2.276 1.872-3.768v-6.909c0-3.846 2.184-7.38 5.616-9.106l2.106-1.02a5.42 5.42 0 014.914 0l2.028.941a10.216 10.216 0 015.616 9.107v6.909c0 1.491.702 2.904 1.872 3.768l1.56 1.177c1.092.864 1.482 2.277 1.014 3.612-.078 0-.078-.079-.156-.079l-8.502-5.024c1.17-1.335 1.872-2.983 1.872-4.79v-3.296c0-2.434-1.638-4.632-3.978-5.26L16.77 7.674c-1.326-.393-2.808 0-3.822 1.02l-.468.393c-1.014 1.02-1.638 2.434-1.56 3.925v4.868c0 1.806.624 3.454 1.872 4.789L4.29 27.693c-.078 0-.078.079-.156.079-.468-1.256-.078-2.67 1.014-3.533zm8.892-.471l2.106 1.413c1.56 1.02 3.588 1.02 5.226 0l2.106-1.413 1.56.942v.471c0 1.335-1.014 2.355-2.34 2.355H14.82c-1.326 0-2.34-1.02-2.34-2.355v-.55l1.56-.863zm-1.56-5.888v-4.867c0-1.021.39-2.042 1.17-2.748l.468-.471c.624-.628 1.482-.864 2.262-.628l5.772 1.648c1.638.471 2.808 2.041 2.808 3.769v3.297c0 1.806-.936 3.533-2.418 4.553l-2.106 1.413a3.044 3.044 0 01-3.432 0l-2.106-1.413c-1.482-1.02-2.418-2.669-2.418-4.553zm12.714 27.713H9.36V35.387H7.8v10.206H1.56V35.15c0-2.512 1.326-4.789 3.432-6.123l5.928-3.533c.156 2.041 1.872 3.533 3.9 3.533h7.8c2.028 0 3.666-1.57 3.9-3.533l5.928 3.533c.702.392 1.326.942 1.872 1.57H21.84c-1.326 0-2.34 1.02-2.34 2.355v8.636h-.78v1.57h7.41l-.936 2.434zm1.716 0l.936-2.356h2.028l.936 2.356h-3.9zm8.97 0h-3.354l-.936-2.356h4.29v2.356zm.78-3.926h-15.6v-8.635c0-.471.312-.785.78-.785h14.04c.468 0 .78.314.78.785v8.635z"/><path d="M22.869 39.513l5.459-5.495 1.103 1.11-5.46 5.495-1.102-1.11zm8.331-4.911h3.9v1.57h-3.9v-1.57zm-1.56 3.14h5.46v1.57h-5.46v-1.57z"/></symbol><symbol viewBox="0 0 40 50" id="icon-f-adv-2"><path d="M39.756 48.578L37.5 46.322V17.155l-4.167-4.167V0H0v43.333h4.167V47.5h32.155l2.255 2.256a.831.831 0 001.179 0 .832.832 0 000-1.178zm-5.101-31.911H25V7.012l9.655 9.655zm-32.988 25v-40h30v9.655l-7.155-7.155H4.167v37.5h-2.5zm4.166 4.166v-40h17.5v12.5h12.5v26.322l-6.261-6.262a9.809 9.809 0 002.329-6.349c0-5.435-4.422-9.856-9.857-9.856s-9.857 4.421-9.857 9.856 4.422 9.857 9.857 9.857c2.418 0 4.633-.88 6.35-2.33l6.26 6.262H5.835zm16.211-5.599c-4.516 0-8.19-3.674-8.19-8.19s3.674-8.19 8.19-8.19 8.19 3.674 8.19 8.19-3.674 8.19-8.19 8.19z"/><path d="M17.187 30h5a.833.833 0 100-1.667h-5a.833.833 0 100 1.667zm10 3.333h-10a.833.833 0 100 1.667h10a.833.833 0 100-1.667z"/></symbol><symbol viewBox="0 0 52 47" id="icon-f-adv-3"><path d="M46.516 0H12.891C9.973 0 7.6 2.355 7.6 5.24l-.218 29.64H.82c-.465 0-.82.412-.82.877v4.08c0 3.819 3.053 6.942 6.737 7.113V47h28.316v-.055c.21.008.338.055.482.055h.02a7.122 7.122 0 007.077-7.163V13.91h8.548c.465 0 .82-.421.82-.886V5.539A5.526 5.526 0 0046.516 0zM7.1 45.314c-2.996 0-5.416-2.479-5.416-5.477v-3.27h26.737v3.256a7.14 7.14 0 002.08 5.063c.143.143.292.217.444.428H7.099zm33.847-5.478c0 3-2.396 5.478-5.393 5.478h-.017a5.474 5.474 0 01-5.432-5.49v-4.066a.873.873 0 00-.842-.877H9.067l.216-29.636c0-1.96 1.619-3.559 3.608-3.559h29.65c-.96 1.054-1.594 2.387-1.594 3.875v34.275zm9.369-27.612h-7.684V5.56c0-2.11 1.753-3.874 3.86-3.874h.023a3.84 3.84 0 013.8 3.861v6.677z"/><path d="M19.774 20.751l4.342 2.972a.829.829 0 00.941 0l4.329-2.971C30.889 19.725 32 17.578 32 15.757V9.744a.824.824 0 00-.449-.757l-6.61-3.255a.827.827 0 00-.737 0l-6.598 3.246a.823.823 0 00-.448.757v6.022c0 1.82 1.113 3.968 2.616 4.994zm-.932-10.49l5.737-2.833 5.737 2.841v5.488c0 1.27-.832 2.885-1.88 3.601l-3.867 2.647-3.851-2.647c-1.049-.716-1.876-2.331-1.876-3.601v-5.495z"/><path d="M23.155 17.03a.84.84 0 00.596.252h.002c.224 0 .438-.09.595-.249l3.35-3.355a.844.844 0 00-1.19-1.193l-2.752 2.754-1.1-1.112a.842.842 0 00-1.192-.005.844.844 0 00-.005 1.193l1.696 1.715zm11.898 9.104h-20.21a.843.843 0 000 1.687h20.21a.843.843 0 000-1.687zm0 3.9h-20.21a.843.843 0 000 1.686h20.21a.843.843 0 000-1.686z"/></symbol><symbol viewBox="0 0 24 21" id="icon-logo-part"><path d="M23.483 5.785L12.419.102a.916.916 0 00-.838 0L.518 5.785c-.668.343-.696 1.312-.05 1.696v12.556c0 .532.42.963.938.963a.95.95 0 00.937-.963V8.447l1.219.625v4.075c0 .367.202.701.522.864l7.5 3.807a.915.915 0 00.831 0l7.5-3.807a.966.966 0 00.523-.864V9.113c1.715-.9 3.036-1.6 3.055-1.61.68-.36.676-1.365-.01-1.718zm-4.92 6.763L12 15.88l-6.563-3.332v-2.512c6.56 3.33 6.168 3.258 6.563 3.258.306 0 .25.098 6.563-3.2v2.454zm-6.518-1.272l-9.012-4.63L12 2.04l8.99 4.619c-1.505.793-7.407 3.896-8.945 4.617z"/></symbol><symbol viewBox="0 0 41 54" id="icon-adv-1"><path d="M30.82 4.096L12.44 22.724c-.146.148-.25.333-.303.535l-1.577 6.158c-.103.403.012.831.302 1.126a1.152 1.152 0 001.11.306l6.077-1.599c.2-.052.383-.158.528-.306l18.382-18.628.002-.002 3.7-3.75a1.185 1.185 0 000-1.66L36.162.343a1.15 1.15 0 00-1.639 0l-3.7 3.75h-.001l-.001.002zm-13.66 22.96l-3.862 1.017 1.003-3.914 17.34-17.572 2.86 2.897-17.34 17.573zm18.183-24.22l2.859 2.897-2.062 2.09-2.86-2.897 2.063-2.09z"/><path d="M39.84 12.73c-.64 0-1.158.525-1.158 1.174V51.65H2.318V6.738h21.455c.64 0 1.16-.526 1.16-1.175 0-.648-.52-1.174-1.16-1.174H1.16C.52 4.389 0 4.915 0 5.563v47.262C0 53.474.52 54 1.16 54h38.68c.64 0 1.16-.526 1.16-1.175V13.904c0-.649-.519-1.175-1.16-1.175z"/></symbol><symbol viewBox="0 0 52 52" id="icon-adv-2"><path d="M51.68 3.113H26.937V.16h-2.205v2.953H0v39.013h16.316l-5.421 8.47 1.835 1.254 6.223-9.713H32.78l6.222 9.703 1.835-1.255-5.42-8.459H51.68V3.113zM49.59 39.86H2.204V5.265h47.387v34.594z"/><path d="M23.636 19.777l3.744 10.78L40.996 18.1l-.75 9.398 2.09.221 1.096-13.268-12.203-1.139-.221 2.162 8.617.865-11.37 10.357-3.733-10.652L8.69 29.987l1.423 1.708 13.521-11.918z"/></symbol><symbol viewBox="0 0 58 49" id="icon-adv-3"><path d="M37.025 7.586V0h-16.05v7.586H0V49h58V7.586H37.025zM23.45 2.362h11.233V13.55H23.449V2.362zM2.474 46.638V10.08h18.512v5.964h16.04V10.08h18.512v36.56H2.474z"/><path d="M17.518 30.595c2.96 0 5.433-2.493 5.552-5.594 0-3.113-2.474-5.594-5.552-5.594-3.077 0-5.551 2.493-5.551 5.594 0 3.101 2.474 5.594 5.551 5.594zm0-8.707c1.729 0 3.09 1.371 3.09 3.113 0 1.741-1.361 3.113-3.09 3.113-1.728 0-3.089-1.372-3.089-3.113 0-1.742 1.361-3.113 3.09-3.113zM17.4 32.206c-6.167 0-11.103 5.093-11.103 11.188H8.76c0-4.855 3.823-8.707 8.641-8.707s8.64 3.852 8.64 8.707h2.475c-.012-6.083-4.948-11.188-11.115-11.188zm32.575-4.724H34.918v2.493h15.057v-2.493zm0 8.338H34.918v2.493h15.057V35.82z"/></symbol><symbol viewBox="0 0 41 41" id="icon-adv-4"><path d="M39.251 0v6.652H27.135c-.41-2.368-2.393-4.1-4.719-4.1-2.393 0-4.31 1.79-4.72 4.1h-3.639c-.393-2.368-2.318-4.1-4.719-4.1-2.393 0-4.31 1.79-4.72 4.1h-2.87V0H0v41h1.749v-6.652h2.87c.41 2.368 2.393 4.1 4.719 4.1 2.393 0 4.31-1.79 4.72-4.1H16.4c.41 2.368 2.393 4.1 4.72 4.1 2.317 0 4.225-1.79 4.693-4.1h13.455V41H41V0h-1.749zM22.416 4.468c1.749 0 3.054 1.364 3.054 3.188 0 1.732-1.397 3.188-3.054 3.188-1.657 0-3.054-1.456-3.054-3.188 0-1.732 1.397-3.188 3.054-3.188zm-13.078 0c1.749 0 3.054 1.364 3.054 3.188 0 1.732-1.397 3.188-3.054 3.188-1.657 0-3.054-1.456-3.054-3.188 0-1.732 1.389-3.188 3.054-3.188zm-4.72 4.008c.41 2.368 2.394 4.1 4.72 4.1 2.401 0 4.326-1.732 4.72-4.1h3.647c.41 2.368 2.393 4.1 4.72 4.1 2.4 0 4.325-1.732 4.719-4.1H39.26v11.112h-2.352c-.41-2.368-2.393-4.1-4.719-4.1-2.401 0-4.326 1.732-4.719 4.1h-5.564c-.394-2.368-2.318-4.1-4.72-4.1-2.4 0-4.325 1.732-4.719 4.1H1.75V8.476h2.87zM35.244 20.5c0 1.732-1.397 3.188-3.054 3.188-1.657 0-3.054-1.456-3.054-3.188 0-1.732 1.397-3.188 3.054-3.188 1.749 0 3.054 1.456 3.054 3.188zm-15.002 0c0 1.732-1.398 3.188-3.055 3.188-1.656 0-3.054-1.456-3.054-3.188 0-1.732 1.398-3.188 3.054-3.188 1.657 0 3.055 1.456 3.055 3.188zM9.338 36.624c-1.657 0-3.054-1.456-3.054-3.188 0-1.732 1.397-3.188 3.054-3.188 1.749 0 3.054 1.456 3.054 3.188-.008 1.732-1.397 3.188-3.054 3.188zm11.773 0c-1.657 0-3.054-1.456-3.054-3.188 0-1.732 1.397-3.188 3.054-3.188 1.656 0 3.054 1.456 3.054 3.188 0 1.732-1.398 3.188-3.054 3.188zm4.719-4.1c-.393-2.368-2.318-4.1-4.72-4.1-2.392 0-4.308 1.79-4.718 4.1h-2.335c-.393-2.368-2.318-4.1-4.719-4.1-2.393 0-4.31 1.79-4.72 4.1h-2.87V21.412h10.72c.41 2.368 2.392 4.1 4.718 4.1 2.327 0 4.31-1.732 4.72-4.1h5.564c.41 2.368 2.393 4.1 4.72 4.1 2.325 0 4.308-1.732 4.718-4.1h2.352v11.112H25.83z"/></symbol><symbol viewBox="0 0 37 42" id="icon-adv-5"><path d="M32.904 5.988C25.471 5.988 18.491 0 18.491 0s-6.98 5.902-14.413 5.902C1.664 5.902 0 5.455 0 5.455v11.71c0 4.647 1.447 9.209 4.261 13.134 2.815 3.84 7.433 9.03 13.873 11.615L18.5 42l.366-.18c6.344-2.5 11.058-7.69 13.873-11.615C35.554 26.365 37 21.803 37 17.07V5.54c-.017 0-2.048.447-4.096.447zm.183 1.787c.82 0 1.543-.086 2.266-.18v9.475c0 1.056-.078 2.096-.235 3.127H19.31V2.869c2.37 1.71 7.712 4.906 13.777 4.906zm-31.274-.18c.723.085 1.446.085 2.265.18 5.917 0 11.032-2.964 13.507-4.708v17.13H2.048a20.732 20.732 0 01-.235-3.127V7.594zm3.99 21.63a20.473 20.473 0 01-3.424-7.327h15.206V39.68c-5.307-2.526-9.307-7.002-11.781-10.455zm25.559 0c-2.518 3.514-6.614 8.084-12.06 10.584V21.898h15.485a20.327 20.327 0 01-3.425 7.328z"/></symbol><symbol viewBox="0 0 45 45" id="icon-adv-6"><path d="M31.415 7.08V3.638A3.634 3.634 0 0027.777 0H17.425a3.634 3.634 0 00-3.638 3.637V7.08H0v12.737s1.093.267 1.626.386V45h41.941V20.149c.413-.092 1.433-.33 1.433-.33V7.08H31.415zM15.606 3.638c0-1.056.864-1.819 1.819-1.819h10.343c1.056 0 1.819.864 1.819 1.819V7.08h-13.98V3.637zM2.012 9h40.986v9.386c-2.223.532-9.177 1.983-15.23 2.645v-2.452H17.526v2.488c-6.384-.716-13.319-2.222-15.514-2.681V9zm23.744 11.397v6.125h-6.42v-6.125h6.42zM41.758 43.08H3.453V20.608c3.233.707 8.882 1.828 14.081 2.314v5.51h10.242V22.85c5.061-.579 10.793-1.68 13.98-2.333v22.565z"/></symbol><symbol viewBox="0 0 42 50" id="icon-h-icon-1"><path d="M41.614 35.65l-23.1-18.75a1.055 1.055 0 00-1.113-.133c-.368.173-.6.54-.6.941v31.25A1.047 1.047 0 0017.85 50c.344 0 .673-.169.873-.465l8.09-12.035H40.95c.443 0 .838-.277.987-.694a1.032 1.032 0 00-.324-1.156zm-15.364-.233c-.35 0-.678.173-.873.462L18.9 45.517v-25.61l19.11 15.51H26.25zM17.85 0c-.58 0-1.05.467-1.05 1.042v8.333c0 .575.47 1.042 1.05 1.042.58 0 1.05-.467 1.05-1.042V1.042C18.9.467 18.43 0 17.85 0zm-8.4 16.667h-8.4c-.58 0-1.05.466-1.05 1.041s.47 1.042 1.05 1.042h8.4c.58 0 1.05-.467 1.05-1.042s-.47-1.041-1.05-1.041zm25.2 0h-8.4c-.58 0-1.05.466-1.05 1.041s.47 1.042 1.05 1.042h8.4c.58 0 1.05-.467 1.05-1.042s-.47-1.041-1.05-1.041zM12.653 11.08L6.712 5.186a1.057 1.057 0 00-1.485 0 1.037 1.037 0 000 1.473l5.941 5.892a1.06 1.06 0 001.485 0c.41-.406.41-1.067 0-1.473zm0 11.787a1.057 1.057 0 00-1.485 0l-5.941 5.891a1.037 1.037 0 000 1.473 1.06 1.06 0 001.485-.002l5.94-5.89c.41-.406.41-1.066 0-1.472zm17.819-17.68a1.057 1.057 0 00-1.485 0l-5.941 5.892a1.037 1.037 0 000 1.473 1.059 1.059 0 001.485 0l5.94-5.892c.41-.406.41-1.066 0-1.473z"/></symbol><symbol viewBox="0 0 52 43" id="icon-h-icon-2"><path d="M33.584 15.053H3.25a1.082 1.082 0 01-1.083-1.075c0-.591.487-1.075 1.26-1.09l26-4.304c.59-.099.991-.651.891-1.236a1.082 1.082 0 00-1.245-.884L3.25 10.754C1.458 10.753 0 12.2 0 13.977v25.797C0 41.553 1.458 43 3.25 43h30.334C36.572 43 39 40.59 39 37.626V20.427c0-2.964-2.428-5.374-5.416-5.374zm3.25 22.573c0 1.778-1.458 3.224-3.25 3.224H3.25a1.082 1.082 0 01-1.083-1.075V17.018c.338.12.704.185 1.083.185h30.334c1.792 0 3.25 1.446 3.25 3.224v17.199z"/><path d="M51.05 12.95L38.945.942a3.274 3.274 0 00-4.595 0L19.814 15.365a1.07 1.07 0 000 1.52 1.09 1.09 0 001.532 0L35.88 2.46a1.09 1.09 0 011.532 0l12.103 12.01c.423.418.423 1.1 0 1.52l-12.37 12.272a1.07 1.07 0 000 1.52 1.093 1.093 0 001.535 0L51.05 17.51a3.21 3.21 0 000-4.56z"/><path d="M40.664 2.648a1.09 1.09 0 00-1.532 0L26.318 15.364a1.07 1.07 0 000 1.52 1.093 1.093 0 001.532 0L40.663 4.168a1.07 1.07 0 000-1.52zm3.25 3.225a1.09 1.09 0 00-1.532 0l-9.565 9.492a1.07 1.07 0 000 1.52 1.093 1.093 0 001.532 0l9.565-9.492a1.07 1.07 0 000-1.52zM31.417 25.797c-1.792 0-3.25 1.447-3.25 3.225s1.458 3.225 3.25 3.225 3.25-1.447 3.25-3.225-1.458-3.225-3.25-3.225zm0 4.3a1.082 1.082 0 01-1.083-1.075c0-.591.487-1.075 1.083-1.075s1.083.484 1.083 1.075-.487 1.075-1.083 1.075z"/><path d="M37.917 34.397H29.25c-1.792 0-3.25-1.447-3.25-3.225v-4.3c0-1.778 1.458-3.224 3.25-3.224h8.667A1.08 1.08 0 0039 22.573a1.08 1.08 0 00-1.083-1.075H29.25c-2.988 0-5.416 2.41-5.416 5.374v4.3c0 2.964 2.428 5.374 5.416 5.374h8.667A1.08 1.08 0 0039 35.471a1.08 1.08 0 00-1.083-1.074z"/></symbol><symbol viewBox="0 0 45 43" id="icon-h-icon-3"><path d="M43.344 8.581l.216-.217A4.854 4.854 0 0045 4.898C45 2.197 42.795 0 40.084 0a4.89 4.89 0 00-3.475 1.436L33.585 4.45 18.48 5.708 6.715 3.752a.929.929 0 00-1.076.76L.014 36.293a.932.932 0 00.769 1.084l8.415 1.399.18 3.339a.937.937 0 001.038.878L24.91 41.39l9.622 1.598a.932.932 0 001.076-.76l.366-2.065 8.192-.909a.935.935 0 00.832-.981l-1.654-29.69zm-8.656-2.583l4.297 4.285L25.81 23.42a7.515 7.515 0 00-1.712-2.582 7.523 7.523 0 00-2.586-1.703L34.688 5.998zM24.23 24.544l-5.13 1.28 1.285-5.115c.605.176 1.501.565 2.388 1.45.889.887 1.28 1.783 1.457 2.385zm7.301-18.045l-1.183 1.18-4.342-.72 5.525-.46zM11.196 41.028l-.105-1.937 7.03 1.168-6.925.769zm22.729-.04l-31.9-5.3 5.298-29.94L28.72 9.302l-9.696 9.668c-.01.01-.013.03-.022.04a.874.874 0 00-.188.333c-.007.023-.028.038-.033.06l-1.875 7.479a.931.931 0 001.134 1.13l7.5-1.869c.023-.006.038-.026.058-.034a.95.95 0 00.317-.177c.017-.015.043-.017.06-.034L38.87 13.04l-4.946 27.948zm2.388-2.744l4.868-27.509.384-.383 1.511 27.142-6.763.75zm5.921-31.201L40.311 8.96l-4.298-4.285 1.924-1.92a3.017 3.017 0 012.15-.888A3.038 3.038 0 0143.126 4.9c0 .81-.317 1.57-.89 2.143z"/></symbol><symbol viewBox="0 0 32 43" id="icon-h-icon-4"><path d="M27.31 2.92h-6.86A4.861 4.861 0 0016 0a4.861 4.861 0 00-4.448 2.92H4.689C2.101 2.923.003 5.035 0 7.642v30.635c.003 2.607 2.1 4.72 4.69 4.723h22.62c2.59-.003 4.687-2.116 4.69-4.723V7.642c-.003-2.607-2.1-4.72-4.69-4.722zM12.325 5.07a1.07 1.07 0 001.042-.845C13.628 3.023 14.736 2.15 16 2.15s2.372.873 2.634 2.075c.107.494.54.845 1.043.845h2.116v.943a2.566 2.566 0 01-2.554 2.572H12.76a2.566 2.566 0 01-2.554-2.572V5.07h2.117zm17.541 33.207a2.566 2.566 0 01-2.554 2.573H4.689a2.566 2.566 0 01-2.554-2.573V7.642A2.566 2.566 0 014.689 5.07h3.383v.943c.003 2.607 2.1 4.72 4.69 4.722h6.477c2.588-.003 4.686-2.115 4.689-4.722V5.07h3.383a2.566 2.566 0 012.554 2.572v30.635z"/><path d="M21.283 19.862l-7.008 6.891-3.558-3.498a1.062 1.062 0 00-1.503.01 1.08 1.08 0 00-.003 1.514l4.318 4.246a1.062 1.062 0 001.492 0l7.753-7.624a1.08 1.08 0 00.016-1.517 1.063 1.063 0 00-1.507-.021z"/></symbol><symbol viewBox="0 0 27 21" id="icon-h-number-1"><path d="M12.332 17.36l-.769-.64-.002.003.771.636zM3.543 3.577l-.769-.64-.002.004.771.636zm5.918 2.086l-.885.465.002.005.883-.47zm-3.012-.07l-.874-.486-.005.01.88.476zm-.492 2.554l-1-.02v.02h1zm.48 7.16l-.88.475.003.005.878-.48zm3.012.024l.872.49.003-.005-.875-.485zm.492-2.707l1 .006v-.006h-1zm2.95-.598c0 2.168-.49 3.685-1.328 4.693L13.101 18c1.24-1.492 1.79-3.53 1.79-5.972h-2zm-1.33 4.696c-.81.981-1.962 1.511-3.6 1.511v2c2.127 0 3.89-.72 5.142-2.238l-1.542-1.273zm-3.6 1.511c-1.655 0-2.818-.534-3.635-1.523l-1.542 1.274c1.26 1.526 3.035 2.25 5.177 2.25v-2zM4.326 16.71c-.842-1.019-1.33-2.535-1.33-4.684h-2c0 2.43.55 4.46 1.788 5.958l1.542-1.274zm-1.33-4.684V8.91h-2v3.117h2zm0-3.117c0-2.169.486-3.687 1.318-4.695L2.772 2.942C1.542 4.433.996 6.469.996 8.91h2zm1.316-4.693c.817-.983 1.978-1.514 3.625-1.514v-2c-2.133 0-3.902.719-5.163 2.236l1.538 1.278zm3.625-1.514c1.646 0 2.806.534 3.624 1.524l1.542-1.274c-1.26-1.526-3.03-2.25-5.165-2.25v2zm3.624 1.524c.84 1.018 1.33 2.537 1.33 4.695h2c0-2.436-.55-4.471-1.788-5.969l-1.542 1.274zm1.33 4.695v3.105h2V8.922h-2zm-1.95-.516c0-1.279-.16-2.392-.597-3.212l-1.766.94c.204.383.363 1.098.363 2.272h2zM10.346 5.2a2.688 2.688 0 00-.992-1.078 2.718 2.718 0 00-1.416-.371v2c.198 0 .314.042.387.086a.7.7 0 01.25.293l1.771-.93zM7.937 3.75c-.479 0-.95.1-1.375.341a2.593 2.593 0 00-.987 1.017l1.748.971a.602.602 0 01.226-.248.772.772 0 01.388-.081v-2zM5.57 5.117c-.419.774-.588 1.817-.613 3.01l2 .042c.022-1.088.181-1.747.372-2.099l-1.76-.953zm-.613 3.031v4.36h2v-4.36h-2zm0 4.36c0 1.316.159 2.457.6 3.275l1.76-.95c-.198-.368-.36-1.095-.36-2.325h-2zm.603 3.28c.236.431.565.796.999 1.046.432.25.912.354 1.402.354v-2a.797.797 0 01-.403-.086.659.659 0 01-.243-.273l-1.755.96zm2.4 1.4c.481 0 .951-.104 1.375-.347.426-.245.75-.6.986-1.02l-1.744-.979a.655.655 0 01-.238.265.739.739 0 01-.378.08v2zm2.364-1.371c.445-.803.61-1.912.617-3.186l-2-.012c-.007 1.18-.17 1.875-.367 2.228l1.75.97zm.617-3.192V8.406h-2v4.219h2zM25.895 19v1h1v-1h-1zm-3.96 0h-1v1h1v-1zm0-12.61h1V5.058l-1.281.374.28.96zm-3.891 1.137h-1v1.334l1.28-.374-.28-.96zm0-3l-.327-.945-.673.233v.712h1zm7.488-2.59v-1h-.168l-.159.055.327.946zm.363 0h1v-1h-1v1zm0 16.063h-3.96v2h3.96v-2zm-2.96 1V6.39h-2V19h2zM21.653 5.43l-3.89 1.137.56 1.92 3.89-1.136-.56-1.92zm-2.61 2.097v-3h-2v3h2zm-.673-2.055l7.488-2.59-.654-1.89-7.488 2.59.654 1.89zm7.161-2.535h.363v-2h-.363v2zm-.637-1V19h2V1.937h-2z"/></symbol><symbol viewBox="0 0 31 21" id="icon-h-number-2"><path d="M12.332 17.36l-.769-.64-.002.003.771.636zM3.543 3.577l-.769-.64-.002.004.771.636zm5.918 2.086l-.885.465.002.005.883-.47zm-3.012-.07l-.874-.486-.005.01.88.476zm-.492 2.554l-1-.02v.02h1zm.48 7.16l-.88.475.003.005.878-.48zm3.012.024l.872.49.003-.005-.875-.485zm.492-2.707l1 .006v-.006h-1zm2.95-.598c0 2.168-.49 3.685-1.328 4.693L13.101 18c1.24-1.492 1.79-3.53 1.79-5.972h-2zm-1.33 4.696c-.81.981-1.962 1.511-3.6 1.511v2c2.127 0 3.89-.72 5.142-2.238l-1.542-1.273zm-3.6 1.511c-1.655 0-2.818-.534-3.635-1.523l-1.542 1.274c1.26 1.526 3.035 2.25 5.177 2.25v-2zM4.326 16.71c-.842-1.019-1.33-2.535-1.33-4.684h-2c0 2.43.55 4.46 1.788 5.958l1.542-1.274zm-1.33-4.684V8.91h-2v3.117h2zm0-3.117c0-2.169.486-3.687 1.318-4.695L2.772 2.942C1.542 4.433.996 6.469.996 8.91h2zm1.316-4.693c.817-.983 1.978-1.514 3.625-1.514v-2c-2.133 0-3.902.719-5.163 2.236l1.538 1.278zm3.625-1.514c1.646 0 2.806.534 3.624 1.524l1.542-1.274c-1.26-1.526-3.03-2.25-5.165-2.25v2zm3.624 1.524c.84 1.018 1.33 2.537 1.33 4.695h2c0-2.436-.55-4.471-1.788-5.969l-1.542 1.274zm1.33 4.695v3.105h2V8.922h-2zm-1.95-.516c0-1.279-.16-2.392-.597-3.212l-1.766.94c.204.383.363 1.098.363 2.272h2zM10.346 5.2a2.688 2.688 0 00-.992-1.078 2.718 2.718 0 00-1.416-.371v2c.198 0 .314.042.387.086a.7.7 0 01.25.293l1.771-.93zM7.937 3.75c-.479 0-.95.1-1.375.341a2.593 2.593 0 00-.987 1.017l1.748.971a.602.602 0 01.226-.248.772.772 0 01.388-.081v-2zM5.57 5.117c-.419.774-.588 1.817-.613 3.01l2 .042c.022-1.088.181-1.747.372-2.099l-1.76-.953zm-.613 3.031v4.36h2v-4.36h-2zm0 4.36c0 1.316.159 2.457.6 3.275l1.76-.95c-.198-.368-.36-1.095-.36-2.325h-2zm.603 3.28c.236.431.565.796.999 1.046.432.25.912.354 1.402.354v-2a.797.797 0 01-.403-.086.659.659 0 01-.243-.273l-1.755.96zm2.4 1.4c.481 0 .951-.104 1.375-.347.426-.245.75-.6.986-1.02l-1.744-.979a.655.655 0 01-.238.265.739.739 0 01-.378.08v2zm2.364-1.371c.445-.803.61-1.912.617-3.186l-2-.012c-.007 1.18-.17 1.875-.367 2.228l1.75.97zm.617-3.192V8.406h-2v4.219h2zM29.048 19v1h1v-1h-1zM17.14 19h-1v1h1v-1zm0-2.578l-.724-.69-.276.29v.4h1zm5.485-5.766l.724.69.014-.015.013-.015-.751-.66zm-1.313-5.144l.805.594.004-.006-.809-.588zm-.562 1.91v1h1v-1h-1zm-3.961 0h-1v1h1v-1zm.785-2.895l.86.51.002-.003-.862-.507zm9.55-1.558l-.65.759.002.002.649-.761zm1.126 5.636l.93.368.001-.004-.931-.364zm-1.172 2.004l-.798-.602h-.001l.799.602zm-2.543 2.801l-.707-.707-.026.025-.023.027.756.655zm-2.203 2.543l-.756-.655-1.434 1.655h2.19v-1zm6.715 0h1v-1h-1v1zm0 2.047H17.14v2h11.907v-2zM18.14 19v-2.578h-2V19h2zm-.275-1.889l5.484-5.766L21.9 9.967l-5.484 5.766 1.449 1.378zm5.511-5.795c.704-.8 1.26-1.551 1.645-2.247.379-.687.631-1.39.631-2.08h-2c0 .216-.085.576-.382 1.112-.291.527-.748 1.157-1.397 1.895l1.503 1.32zm2.276-4.328c0-.861-.186-1.686-.713-2.317l-1.534 1.283c.113.135.247.427.247 1.034h2zm-.713-2.317c-.552-.66-1.328-.933-2.162-.933v2c.385 0 .54.11.628.216l1.534-1.283zm-2.162-.933c-.943 0-1.723.43-2.273 1.186L22.122 6.1c.2-.275.396-.362.656-.362v-2zm-2.27 1.18c-.526.714-.757 1.571-.757 2.504h2c0-.598.144-1.014.367-1.316l-1.61-1.188zm.243 1.504h-3.96v2h3.96v-2zm-2.961 1c0-.871.215-1.66.645-2.385l-1.72-1.02a6.573 6.573 0 00-.925 3.405h2zm.647-2.388a4.495 4.495 0 011.791-1.712l-.947-1.761a6.493 6.493 0 00-2.568 2.46l1.724 1.013zm1.791-1.712c.772-.415 1.646-.63 2.644-.63v-2c-1.299 0-2.503.284-3.591.869l.947 1.761zm2.644-.63c1.702 0 2.854.393 3.602 1.036l1.303-1.518C26.541 1.15 24.857.69 22.872.69v2zm3.605 1.038c.73.621 1.149 1.538 1.149 2.907h2c0-1.819-.581-3.348-1.852-4.43L26.477 3.73zm1.149 2.907c0 .544-.1 1.077-.307 1.605l1.863.727a6.372 6.372 0 00.444-2.332h-2zm-.305 1.601c-.209.528-.548 1.118-1.04 1.769l1.596 1.205c.57-.755 1.013-1.502 1.304-2.24l-1.86-.734zm-1.041 1.77c-.48.638-1.289 1.532-2.451 2.695l1.414 1.414c1.181-1.18 2.069-2.154 2.635-2.906l-1.598-1.203zm-2.5 2.747l-2.203 2.543 1.512 1.31 2.203-2.543-1.512-1.31zm-1.447 4.198h6.715v-2h-6.715v2zm5.715-1V19h2v-3.047h-2z"/></symbol><symbol viewBox="0 0 31 21" id="icon-h-number-3"><path d="M12.332 17.36l-.769-.64-.002.003.771.636zM3.543 3.577l-.769-.64-.002.004.771.636zm5.918 2.086l-.885.465.002.005.883-.47zm-3.012-.07l-.874-.486-.005.01.88.476zm-.492 2.554l-1-.02v.02h1zm.48 7.16l-.88.475.003.005.878-.48zm3.012.024l.872.49.003-.005-.875-.485zm.492-2.707l1 .006v-.006h-1zm2.95-.598c0 2.168-.49 3.685-1.328 4.693L13.101 18c1.24-1.492 1.79-3.53 1.79-5.972h-2zm-1.33 4.696c-.81.981-1.962 1.511-3.6 1.511v2c2.127 0 3.89-.72 5.142-2.238l-1.542-1.273zm-3.6 1.511c-1.655 0-2.818-.534-3.635-1.523l-1.542 1.274c1.26 1.526 3.035 2.25 5.177 2.25v-2zM4.326 16.71c-.842-1.019-1.33-2.535-1.33-4.684h-2c0 2.43.55 4.46 1.788 5.958l1.542-1.274zm-1.33-4.684V8.91h-2v3.117h2zm0-3.117c0-2.169.486-3.687 1.318-4.695L2.772 2.942C1.542 4.433.996 6.469.996 8.91h2zm1.316-4.693c.817-.983 1.978-1.514 3.625-1.514v-2c-2.133 0-3.902.719-5.163 2.236l1.538 1.278zm3.625-1.514c1.646 0 2.806.534 3.624 1.524l1.542-1.274c-1.26-1.526-3.03-2.25-5.165-2.25v2zm3.624 1.524c.84 1.018 1.33 2.537 1.33 4.695h2c0-2.436-.55-4.471-1.788-5.969l-1.542 1.274zm1.33 4.695v3.105h2V8.922h-2zm-1.95-.516c0-1.279-.16-2.392-.597-3.212l-1.766.94c.204.383.363 1.098.363 2.272h2zM10.346 5.2a2.688 2.688 0 00-.992-1.078 2.718 2.718 0 00-1.416-.371v2c.198 0 .314.042.387.086a.7.7 0 01.25.293l1.771-.93zM7.937 3.75c-.479 0-.95.1-1.375.341a2.593 2.593 0 00-.987 1.017l1.748.971a.602.602 0 01.226-.248.772.772 0 01.388-.081v-2zM5.57 5.117c-.419.774-.588 1.817-.613 3.01l2 .042c.022-1.088.181-1.747.372-2.099l-1.76-.953zm-.613 3.031v4.36h2v-4.36h-2zm0 4.36c0 1.316.159 2.457.6 3.275l1.76-.95c-.198-.368-.36-1.095-.36-2.325h-2zm.603 3.28c.236.431.565.796.999 1.046.432.25.912.354 1.402.354v-2a.797.797 0 01-.403-.086.659.659 0 01-.243-.273l-1.755.96zm2.4 1.4c.481 0 .951-.104 1.375-.347.426-.245.75-.6.986-1.02l-1.744-.979a.655.655 0 01-.238.265.739.739 0 01-.378.08v2zm2.364-1.371c.445-.803.61-1.912.617-3.186l-2-.012c-.007 1.18-.17 1.875-.367 2.228l1.75.97zm.617-3.192V8.406h-2v4.219h2zm9.81-3.809v-1h-1v1h1zm3.55-3.539l-.714.7.008.007.707-.707zm-2.859-.082l-.615-.788-.008.006.623.782zm-.574 1.137v1h1v-1h-1zm-3.95 0h-1v1h1v-1zm2.825-4.043l.405.915.003-.002-.408-.913zm8.355 6.363l-.822-.568-.002.002.824.566zm-1.957 1.582l-.427-.904-2.172 1.027 2.259.818.34-.94zm2.133 1.5l-.793.61.003.004.79-.614zm-8.719 6.868l-.41.911.009.004.401-.915zm-2.168-1.77l-.838.545.003.004.835-.549zm-.738-2.578v-1h-1v1h1zm3.973 0h1v-1h-1v1zm3.855 1.36l.68.734.007-.007-.687-.728zm-3.726-3.856h-1v1h1v-1zm0-1.942h1.863v-2h-1.863v2zm1.863 0c.887 0 1.737-.217 2.36-.827.628-.614.855-1.458.855-2.34h-2c0 .562-.143.802-.253.91-.115.113-.373.257-.962.257v2zm3.215-3.168c0-.79-.256-1.513-.82-2.078l-1.415 1.414c.14.14.235.33.235.664h2zm-.813-2.07c-.587-.6-1.37-.84-2.203-.84v2c.45 0 .659.12.774.239l1.43-1.399zm-2.203-.84c-.732 0-1.41.219-1.986.669l1.23 1.577c.205-.16.442-.246.756-.246v-2zm-1.994.675c-.599.477-.951 1.134-.951 1.919h2c0-.122.03-.222.197-.354l-1.246-1.565zm.049.919h-3.95v2h3.95v-2zm-2.95 1c0-.7.191-1.296.566-1.823l-1.63-1.159c-.626.88-.935 1.885-.935 2.982h2zm.566-1.823c.383-.54.925-.979 1.664-1.305l-.81-1.83c-1.027.455-1.868 1.11-2.484 1.976l1.63 1.16zm1.667-1.307c.751-.336 1.587-.51 2.522-.51v-2c-1.19 0-2.308.223-3.338.684l.816 1.826zm2.522-.51c1.754 0 2.999.4 3.852 1.082l1.248-1.563c-1.318-1.053-3.058-1.52-5.1-1.52v2zm3.852 1.082c.825.658 1.253 1.55 1.253 2.792h2c0-1.788-.658-3.28-2.005-4.355l-1.248 1.563zm1.253 2.792c0 .514-.154 1.014-.502 1.518l1.645 1.137c.558-.809.857-1.7.857-2.655h-2zm-.504 1.52c-.326.475-.827.898-1.56 1.244l.855 1.808c.986-.466 1.79-1.098 2.354-1.92l-1.649-1.132zm-1.473 3.089c.752.272 1.296.668 1.68 1.168l1.586-1.217c-.647-.844-1.525-1.448-2.585-1.832l-.681 1.88zm1.683 1.173c.357.46.564 1.057.564 1.859h2c0-1.167-.31-2.218-.984-3.086l-1.58 1.227zm.564 1.859c0 1.224-.451 2.149-1.373 2.868l1.23 1.577c1.422-1.11 2.143-2.622 2.143-4.445h-2zm-1.373 2.868c-.952.742-2.255 1.16-4.002 1.16v2c2.065 0 3.84-.497 5.232-1.583l-1.23-1.577zm-4.002 1.16c-.988 0-1.89-.186-2.715-.55l-.804 1.832a8.668 8.668 0 003.519.717v-2zm-2.706-.545c-.81-.365-1.372-.84-1.743-1.407l-1.672 1.098c.612.933 1.495 1.638 2.593 2.132l.822-1.823zm-1.74-1.403c-.38-.585-.578-1.253-.578-2.033h-2c0 1.141.296 2.192.9 3.123l1.677-1.09zm-1.578-1.033h3.973v-2h-3.973v2zm2.973-1c0 .832.35 1.546.96 2.1l1.345-1.481c-.234-.212-.305-.404-.305-.62h-2zm.96 2.1c.623.564 1.388.834 2.231.834v-2c-.391 0-.665-.114-.886-.315l-1.344 1.48zm2.231.834c.886 0 1.704-.25 2.343-.84L23.8 14.879c-.19.174-.48.309-.986.309v2zm2.35-.847c.627-.592.935-1.357.935-2.216h-2c0 .344-.105.57-.307.76l1.373 1.456zm.935-2.216c0-.996-.247-1.963-1.002-2.595l-1.284 1.534c.104.086.286.338.286 1.061h2zm-1.002-2.595c-.665-.556-1.514-.772-2.423-.772v2c.606 0 .944.143 1.14.306l1.283-1.534zm-2.423-.772H20.75v2h1.922v-2zm-.922 1V8.816h-2v2.942h2z"/></symbol><symbol viewBox="0 0 31 21" id="icon-h-number-4"><path d="M12.332 17.36l-.769-.64-.002.003.771.636zM3.543 3.577l-.769-.64-.002.004.771.636zm5.918 2.086l-.885.465.002.005.883-.47zm-3.012-.07l-.874-.486-.005.01.88.476zm-.492 2.554l-1-.02v.02h1zm.48 7.16l-.88.475.003.005.878-.48zm3.012.024l.872.49.003-.005-.875-.485zm.492-2.707l1 .006v-.006h-1zm2.95-.598c0 2.168-.49 3.685-1.328 4.693L13.101 18c1.24-1.492 1.79-3.53 1.79-5.972h-2zm-1.33 4.696c-.81.981-1.962 1.511-3.6 1.511v2c2.127 0 3.89-.72 5.142-2.238l-1.542-1.273zm-3.6 1.511c-1.655 0-2.818-.534-3.635-1.523l-1.542 1.274c1.26 1.526 3.035 2.25 5.177 2.25v-2zM4.326 16.71c-.842-1.019-1.33-2.535-1.33-4.684h-2c0 2.43.55 4.46 1.788 5.958l1.542-1.274zm-1.33-4.684V8.91h-2v3.117h2zm0-3.117c0-2.169.486-3.687 1.318-4.695L2.772 2.942C1.542 4.433.996 6.469.996 8.91h2zm1.316-4.693c.817-.983 1.978-1.514 3.625-1.514v-2c-2.133 0-3.902.719-5.163 2.236l1.538 1.278zm3.625-1.514c1.646 0 2.806.534 3.624 1.524l1.542-1.274c-1.26-1.526-3.03-2.25-5.165-2.25v2zm3.624 1.524c.84 1.018 1.33 2.537 1.33 4.695h2c0-2.436-.55-4.471-1.788-5.969l-1.542 1.274zm1.33 4.695v3.105h2V8.922h-2zm-1.95-.516c0-1.279-.16-2.392-.597-3.212l-1.766.94c.204.383.363 1.098.363 2.272h2zM10.346 5.2a2.688 2.688 0 00-.992-1.078 2.718 2.718 0 00-1.416-.371v2c.198 0 .314.042.387.086a.7.7 0 01.25.293l1.771-.93zM7.937 3.75c-.479 0-.95.1-1.375.341a2.593 2.593 0 00-.987 1.017l1.748.971a.602.602 0 01.226-.248.772.772 0 01.388-.081v-2zM5.57 5.117c-.419.774-.588 1.817-.613 3.01l2 .042c.022-1.088.181-1.747.372-2.099l-1.76-.953zm-.613 3.031v4.36h2v-4.36h-2zm0 4.36c0 1.316.159 2.457.6 3.275l1.76-.95c-.198-.368-.36-1.095-.36-2.325h-2zm.603 3.28c.236.431.565.796.999 1.046.432.25.912.354 1.402.354v-2a.797.797 0 01-.403-.086.659.659 0 01-.243-.273l-1.755.96zm2.4 1.4c.481 0 .951-.104 1.375-.347.426-.245.75-.6.986-1.02l-1.744-.979a.655.655 0 01-.238.265.739.739 0 01-.378.08v2zm2.364-1.371c.445-.803.61-1.912.617-3.186l-2-.012c-.007 1.18-.17 1.875-.367 2.228l1.75.97zm.617-3.192V8.406h-2v4.219h2zm16.63-.293h-1v1h1v-1zm1.734 0h1v-1h-1v1zm0 3.047v1h1v-1h-1zm-1.734 0v-1h-1v1h1zm0 3.621v1h1v-1h-1zm-3.95 0h-1v1h1v-1zm0-3.621h1v-1h-1v1zm-6.597 0l-.995.097.088.903h.907v-1zm-.234-2.414l-.85-.528-.178.288.032.337.996-.097zm6.832-10.992l.85.528.15-.243v-.285h-1zm0-.036v-1h-1v1h1zm3.95 0h1v-1h-1v1zm-7.02 10.395l-.865-.503-.875 1.503h1.74v-1zm3.07 0v1h1v-1h-1zm0-5.25h1V3.56l-1.85 2.997.85.525zm-.246.398l-.851-.525-.007.011-.006.011.864.503zm4.195 5.852h1.734v-2h-1.734v2zm.734-1v3.047h2v-3.047h-2zm1 2.047h-1.734v2h1.734v-2zm-2.734 1V19h2v-3.621h-2zm1 2.621h-3.95v2h3.95v-2zm-2.95 1v-3.621h-2V19h2zm-1-4.621h-6.597v2h6.598v-2zm-5.601.903l-.235-2.414-1.99.194.234 2.414 1.99-.194zm-.38-1.79l6.83-10.99-1.698-1.056-6.832 10.992 1.698 1.056zm6.982-11.52v-.034h-2v.035h2zm-1 .966h3.95v-2h-3.95v2zm2.95-1v10.394h2V1.937h-2zm-6.02 11.394h3.07v-2h-3.07v2zm4.07-1v-5.25h-2v5.25h2zm-1.85-5.775l-.247.398 1.702 1.051.246-.398-1.702-1.051zm-.26.42l-2.825 4.852 1.729 1.006 2.824-4.851-1.728-1.007z"/></symbol><symbol viewBox="0 0 43 43" id="icon-w-1"><path d="M40.952 2.048a7.015 7.015 0 00-9.907 0L2.978 30.114c-.013.013-.02.029-.032.043-.017.019-.03.039-.045.06a.757.757 0 00-.098.185c-.007.02-.017.038-.022.059l-.01.023L.021 42.04a.77.77 0 00-.018.157l-.003.03a.773.773 0 00.074.314.777.777 0 00.152.23.783.783 0 00.73.207l11.558-2.751c.021-.005.04-.017.06-.023a.72.72 0 00.233-.127c.02-.014.039-.025.056-.042.007-.006.014-.009.02-.015l28.068-28.067a7.01 7.01 0 000-9.906zm-1.1 1.1c1.936 1.937 2.1 4.979.505 7.111L32.74 2.642c2.133-1.595 5.175-1.43 7.111.506zm-3.853 11.557l-7.705-7.704 1.1-1.101 7.705 7.705-1.1 1.1zM3.86 39.138a.777.777 0 00-1.1 0l-.59.589 1.988-8.35 3.442-.382-.443 3.986c-.003.03.008.057.008.086 0 .03-.011.056-.008.086.003.025.016.046.022.071a.792.792 0 00.19.369c.038.04.078.073.123.104a.795.795 0 00.107.065.803.803 0 00.161.051c.03.008.054.024.084.028a.767.767 0 00.085.004h.002a.792.792 0 00.086-.004l3.986-.443-.382 3.441-8.35 1.988.59-.59a.779.779 0 000-1.1zm9.768-4.265l17.416-17.416a.777.777 0 10-1.1-1.101L12.527 33.773l-3.715.412.413-3.714 17.418-17.416a.777.777 0 10-1.1-1.1L8.124 29.37l-2.477.276L27.193 8.1l7.705 7.705L13.353 37.35l.276-2.478zm24.57-22.369L30.496 4.8l1.101-1.102 7.705 7.705-1.101 1.101z"/></symbol><symbol viewBox="0 0 35 43" id="icon-w-2"><path d="M23.888 0H.658v43h33.684V10.453L23.888 0zm.42 2.447l7.587 7.586h-7.587V2.447zM2.092 41.567V1.433h20.783v10.034h10.033v30.1H2.092z"/><path d="M26.458 15.05H14.992a.717.717 0 100 1.433h11.466a.716.716 0 100-1.433zm-14.064-1.993L9.31 15.523l-.98-.98a.716.716 0 10-1.013 1.014l1.434 1.433a.715.715 0 00.954.053l3.583-2.867a.717.717 0 00-.895-1.119zm14.064 9.876H14.992a.717.717 0 100 1.434h11.466a.717.717 0 100-1.434zM12.394 20.94L9.31 23.406l-.98-.98a.716.716 0 10-1.013 1.014l1.434 1.433a.715.715 0 00.954.053l3.583-2.866a.717.717 0 00-.895-1.12zm14.064 9.877H14.992a.716.716 0 100 1.433h11.466a.716.716 0 100-1.433zm-14.064-1.993L9.31 31.29l-.98-.98a.716.716 0 10-1.013 1.013l1.434 1.434a.715.715 0 00.954.053l3.583-2.867a.717.717 0 00-.895-1.12z"/></symbol><symbol viewBox="0 0 44 37" id="icon-w-3"><path d="M40.333 0H3.667C1.643.002.002 1.658 0 3.7v29.6c.002 2.042 1.643 3.698 3.667 3.7h36.666c2.024-.002 3.665-1.658 3.667-3.7V3.7C43.998 1.658 42.357.002 40.333 0zM1.467 14.8h12.466c1.215 0 2.2.994 2.2 2.22v2.96a2.21 2.21 0 01-2.2 2.22H1.467v-7.4zm41.066 18.5a2.21 2.21 0 01-2.2 2.22H3.667a2.21 2.21 0 01-2.2-2.22v-9.62h12.466c2.024-.002 3.665-1.658 3.667-3.7v-2.96c-.002-2.042-1.643-3.698-3.667-3.7H1.467V3.7a2.21 2.21 0 012.2-2.22h36.666c1.215 0 2.2.994 2.2 2.22v29.6z"/><path d="M12.467 15.54c-1.62 0-2.934 1.325-2.934 2.96s1.314 2.96 2.934 2.96S15.4 20.135 15.4 18.5s-1.313-2.96-2.933-2.96zm0 4.44c-.81 0-1.467-.663-1.467-1.48s.657-1.48 1.467-1.48 1.466.663 1.466 1.48-.656 1.48-1.466 1.48z"/></symbol><symbol viewBox="0 0 41 47" id="icon-w-4"><path d="M39.842 47H1.317a.77.77 0 01-.77-.77v-6.985c0-4.16 3.728-7.545 8.31-7.545l5.526-.234a.785.785 0 01.803.737.77.77 0 01-.738.803l-5.559.234c-3.764.001-6.801 2.695-6.801 6.005v6.214h36.984v-6.214c0-3.31-3.037-6.004-6.77-6.004l-5.347-.225a.77.77 0 01-.737-.802c.017-.425.384-.772.802-.737l5.314.224h.002c4.55 0 8.276 3.384 8.276 7.544v6.985a.77.77 0 01-.77.77z"/><path d="M20.58 34.613c-2.196 0-4.392-.313-6.394-.94a.77.77 0 01-.54-.734v-6.742a.77.77 0 01.77-.77h12.328a.77.77 0 01.77.77v6.742a.77.77 0 01-.54.735c-2.002.626-4.198.939-6.394.939zm-5.393-2.25c3.418.948 7.368.948 10.786 0v-5.396H15.187v5.396zM37.53 47h-8.475a.77.77 0 01-.77-.77v-5.394a.77.77 0 01.77-.77h8.476a.77.77 0 01.77.77v5.394a.77.77 0 01-.77.77zm-7.704-1.541h6.934v-3.853h-6.934v3.853z"/><path d="M26.324 26.967H14.835a5.819 5.819 0 01-5.812-5.812V11.077a.77.77 0 111.54 0v10.078a4.276 4.276 0 004.272 4.271h11.49a4.277 4.277 0 004.271-4.271V9.875a.77.77 0 111.541 0v11.28a5.819 5.819 0 01-5.813 5.812z"/><path d="M28.411 11.557H9.793a.77.77 0 01-.77-.77V3.981A3.985 3.985 0 0113.003 0h20.675a.77.77 0 01.77.77v4.75a6.044 6.044 0 01-6.037 6.037zm-17.848-1.54h17.848a4.502 4.502 0 004.497-4.497V1.54H13.003a2.443 2.443 0 00-2.44 2.441v6.035zm9.377 10.018v-.552c0-.54.108-.809.351-1.145l1.064-1.455c.323-.431.458-.742.458-1.105 0-.58-.404-1.011-1.05-1.011-.634 0-1.024.391-1.146 1.078-.013.08-.068.121-.148.108l-1.213-.189c-.094-.012-.12-.08-.108-.161.216-1.347 1.186-2.183 2.668-2.183 1.482 0 2.533.97 2.533 2.344 0 .58-.175 1.078-.552 1.577l-1.065 1.455c-.202.256-.269.445-.269.848v.392c0 .08-.054.134-.135.134h-1.253c-.08 0-.134-.054-.134-.135zm-.054 1.185c0-.08.055-.134.135-.134h1.348c.08 0 .134.054.134.134v1.375c0 .08-.053.135-.134.135H20.02a.129.129 0 01-.135-.135V21.22z"/></symbol><symbol viewBox="0 0 14 12" id="icon-home"><path d="M2.659 4.462v6.615h8.182V4.462h.944v7.077a.467.467 0 01-.472.461H2.187a.467.467 0 01-.472-.461V4.462h.944z"/><path d="M6.436.117a.48.48 0 01.628 0L13.5 5.733l-.629.688-6.12-5.34L.627 6.42 0 5.733 6.436.117z"/></symbol><symbol viewBox="0 0 18 24" id="icon-lock"><path d="M7.818 16.608l-.315 2.837A.501.501 0 008 20h2a.5.5 0 00.497-.555l-.315-2.837c.512-.372.818-.962.818-1.608 0-1.103-.897-2-2-2s-2 .897-2 2c0 .646.306 1.236.818 1.608zM9 14c.551 0 1 .449 1 1a.992.992 0 01-.568.896.5.5 0 00-.28.506L9.442 19h-.883l.289-2.598a.5.5 0 00-.28-.506A.992.992 0 018 15c0-.551.449-1 1-1z"/><path d="M17.5 9H16V7c0-3.86-3.14-7-7-7S2 3.14 2 7v2H.5a.5.5 0 00-.5.5V22c0 1.103.897 2 2 2h14c1.103 0 2-.897 2-2V9.5a.5.5 0 00-.5-.5zM3 7c0-3.309 2.691-6 6-6s6 2.691 6 6v2h-1V7c0-2.757-2.243-5-5-5S4 4.243 4 7v2H3V7zm10 0v2H5V7c0-2.206 1.794-4 4-4s4 1.794 4 4zm4 15c0 .551-.449 1-1 1H2c-.551 0-1-.449-1-1V10h16v12z"/></symbol><symbol viewBox="0 0 17 17" id="icon-geo"><path d="M16.939.076c-.081-.081-.162-.101-.264-.04L.162 6.626c-.121.04-.202.202-.141.324.02.08.08.12.141.141l7.063 2.71 2.712 7.056c.02.102.121.142.222.142s.203-.04.223-.142L16.979.38a.314.314 0 00-.04-.303z"/></symbol><symbol viewBox="0 0 21 15" id="icon-yt-white"><path d="M20.2 2.26A2.584 2.584 0 0018.382.442C16.768 0 10.312 0 10.312 0s-6.456 0-8.07.425A2.637 2.637 0 00.425 2.26C0 3.873 0 7.22 0 7.22s0 3.364.425 4.961c.238.883.934 1.58 1.818 1.818 1.63.442 8.07.442 8.07.442s6.455 0 8.069-.425a2.584 2.584 0 001.818-1.818c.425-1.614.425-4.96.425-4.96s.017-3.365-.425-4.978z" fill="#fff"/><path d="M8.256 10.313l5.368-3.092-5.368-3.092v6.184z" fill="red"/></symbol><symbol viewBox="0 0 49 38" id="icon-about-n-1"><path d="M22.664 32.719l-.769-.64-.002.003.771.637zM5.086 5.156l-.77-.639-.001.003.77.636zm11.836 4.172l-.885.465.002.005.883-.47zm-6.024-.14l-.874-.486-.005.01.88.476zm-.984 5.109l-1-.02v.02h1zm.961 14.32l-.88.475.003.005.877-.48zm6.023.047l.872.49.003-.005-.875-.485zm.985-5.414l1 .006v-.006h-1zm6.898-1.195c0 4.471-1.009 7.766-2.886 10.025l1.538 1.278c2.28-2.742 3.348-6.556 3.348-11.303h-2zm-2.888 10.027c-1.841 2.231-4.45 3.387-7.971 3.387v2c4.01 0 7.23-1.345 9.513-4.114l-1.542-1.273zm-7.971 3.387c-3.553 0-6.186-1.164-8.042-3.41l-1.542 1.273c2.3 2.785 5.543 4.137 9.584 4.137v-2zm-8.042-3.41C4 29.781 2.992 26.492 2.992 22.054h-2c0 4.718 1.07 8.522 3.346 11.277l1.542-1.274zM2.992 22.054V15.82h-2v6.235h2zm0-6.235c0-4.473 1.002-7.769 2.865-10.027L4.315 4.52C2.053 7.26.992 11.075.992 15.82h2zM5.855 5.795c1.856-2.232 4.482-3.389 8.02-3.389v-2c-4.024 0-7.258 1.344-9.558 4.111l1.538 1.278zm8.02-3.389c3.536 0 6.161 1.163 8.018 3.41l1.542-1.273c-2.3-2.784-5.533-4.137-9.56-4.137v2zm8.018 3.41c1.88 2.276 2.888 5.573 2.888 10.028h2c0-4.733-1.07-8.546-3.346-11.301l-1.542 1.274zm2.888 10.028v6.21h2v-6.21h-2zm-5.898-1.031c0-2.506-.321-4.533-1.078-5.955l-1.766.94c.524.985.844 2.614.844 5.014h2zm-1.076-5.95c-.391-.745-.924-1.35-1.613-1.763-.688-.414-1.474-.6-2.319-.6v2c.546 0 .963.118 1.29.315.327.195.623.504.872.978l1.77-.93zM13.875 6.5c-.82 0-1.584.17-2.257.552-.676.383-1.204.948-1.594 1.65l1.749.971c.235-.423.515-.702.832-.881.319-.181.73-.292 1.27-.292v-2zm-3.856 2.211c-.723 1.336-1.057 3.231-1.105 5.565l2 .041c.046-2.228.369-3.739.864-4.653l-1.759-.953zm-1.105 5.586v8.719h2v-8.72h-2zm0 8.719c0 2.59.319 4.663 1.08 6.076l1.761-.95c-.52-.962-.84-2.622-.84-5.126h-2zm1.084 6.08c.395.725.932 1.309 1.62 1.706.685.395 1.466.573 2.304.573v-2c-.553 0-.975-.115-1.305-.306-.328-.189-.62-.484-.865-.931l-1.754.959zm3.924 2.279c.816 0 1.578-.174 2.25-.56.674-.388 1.203-.957 1.598-1.661l-1.744-.98c-.244.436-.532.723-.85.906-.32.184-.726.295-1.254.295v2zm3.851-2.226c.765-1.381 1.094-3.393 1.11-5.893l-2-.012c-.015 2.406-.343 4.004-.86 4.935l1.75.97zm1.11-5.899v-8.438h-2v8.438h2zM47.39 36v1h1v-1h-1zm-7.922 0h-1v1h1v-1zm0-25.219h1V9.447l-1.28.374.28.96zm-7.782 2.274h-1v1.334l1.28-.374-.28-.96zm0-6l-.326-.945-.674.232v.713h1zm14.977-5.18v-1h-.168l-.159.055.327.945zm.727 0h1v-1h-1v1zm0 33.125h-7.922v2h7.922v-2zm-6.922 1V10.781h-2V36h2zm-1.28-26.179l-7.782 2.274.56 1.92 7.782-2.274-.56-1.92zm-6.502 3.234v-6h-2v6h2zM32.014 8l14.977-5.18-.654-1.89-14.976 5.18.653 1.89zm14.65-5.125h.727v-2h-.727v2zm-.273-1V36h2V1.875h-2z"/></symbol><symbol viewBox="0 0 55 38" id="icon-about-n-2"><path d="M22.664 32.719l-.769-.64-.002.003.771.637zM5.086 5.156l-.77-.639-.001.003.77.636zm11.836 4.172l-.885.465.002.005.883-.47zm-6.024-.14l-.874-.486-.005.01.88.476zm-.984 5.109l-1-.02v.02h1zm.961 14.32l-.88.475.003.005.877-.48zm6.023.047l.872.49.003-.005-.875-.485zm.985-5.414l1 .006v-.006h-1zm6.898-1.195c0 4.471-1.009 7.766-2.886 10.025l1.538 1.278c2.28-2.742 3.348-6.556 3.348-11.303h-2zm-2.888 10.027c-1.841 2.231-4.45 3.387-7.971 3.387v2c4.01 0 7.23-1.345 9.513-4.114l-1.542-1.273zm-7.971 3.387c-3.553 0-6.186-1.164-8.042-3.41l-1.542 1.273c2.3 2.785 5.543 4.137 9.584 4.137v-2zm-8.042-3.41C4 29.781 2.992 26.492 2.992 22.054h-2c0 4.718 1.07 8.522 3.346 11.277l1.542-1.274zM2.992 22.054V15.82h-2v6.235h2zm0-6.235c0-4.473 1.002-7.769 2.865-10.027L4.315 4.52C2.053 7.26.992 11.075.992 15.82h2zM5.855 5.795c1.856-2.232 4.482-3.389 8.02-3.389v-2c-4.024 0-7.258 1.344-9.558 4.111l1.538 1.278zm8.02-3.389c3.536 0 6.161 1.163 8.018 3.41l1.542-1.273c-2.3-2.784-5.533-4.137-9.56-4.137v2zm8.018 3.41c1.88 2.276 2.888 5.573 2.888 10.028h2c0-4.733-1.07-8.546-3.346-11.301l-1.542 1.274zm2.888 10.028v6.21h2v-6.21h-2zm-5.898-1.031c0-2.506-.321-4.533-1.078-5.955l-1.766.94c.524.985.844 2.614.844 5.014h2zm-1.076-5.95c-.391-.745-.924-1.35-1.613-1.763-.688-.414-1.474-.6-2.319-.6v2c.546 0 .963.118 1.29.315.327.195.623.504.872.978l1.77-.93zM13.875 6.5c-.82 0-1.584.17-2.257.552-.676.383-1.204.948-1.594 1.65l1.749.971c.235-.423.515-.702.832-.881.319-.181.73-.292 1.27-.292v-2zm-3.856 2.211c-.723 1.336-1.057 3.231-1.105 5.565l2 .041c.046-2.228.369-3.739.864-4.653l-1.759-.953zm-1.105 5.586v8.719h2v-8.72h-2zm0 8.719c0 2.59.319 4.663 1.08 6.076l1.761-.95c-.52-.962-.84-2.622-.84-5.126h-2zm1.084 6.08c.395.725.932 1.309 1.62 1.706.685.395 1.466.573 2.304.573v-2c-.553 0-.975-.115-1.305-.306-.328-.189-.62-.484-.865-.931l-1.754.959zm3.924 2.279c.816 0 1.578-.174 2.25-.56.674-.388 1.203-.957 1.598-1.661l-1.744-.98c-.244.436-.532.723-.85.906-.32.184-.726.295-1.254.295v2zm3.851-2.226c.765-1.381 1.094-3.393 1.11-5.893l-2-.012c-.015 2.406-.343 4.004-.86 4.935l1.75.97zm1.11-5.899v-8.438h-2v8.438h2zM53.695 36v1h1v-1h-1zm-23.812 0h-1v1h1v-1zm0-5.156l-.725-.69-.275.29v.4h1zm10.969-11.532l.724.69.014-.015.013-.015-.751-.66zM38.227 9.024l.804.595.004-.006-.808-.589zm-1.125 3.82v1h1v-1h-1zm-7.922 0h-1v1h1v-1zm1.57-5.788l.86.51.002-.004-.862-.506zm19.102-3.117l-.652.758.003.003.649-.761zm2.25 11.273l.93.367.001-.003-.931-.364zm-2.344 4.008l-.798-.603-.001.001.799.602zm-5.086 5.601l-.707-.707-.026.026-.023.027.756.654zm-4.406 5.086l-.756-.654-1.434 1.654h2.19v-1zm13.43 0h1v-1h-1v1zm0 5.094H29.882v2h23.812v-2zm-22.813 1v-5.156h-2V36h2zm-.276-4.467l10.97-11.531-1.45-1.379-10.969 11.531 1.45 1.379zm10.996-11.56c1.38-1.571 2.442-3.012 3.165-4.32.717-1.297 1.138-2.534 1.138-3.676h-2c0 .67-.254 1.561-.889 2.71-.629 1.137-1.593 2.458-2.917 3.966l1.503 1.32zm4.303-7.996c0-1.597-.346-2.98-1.194-3.994l-1.534 1.284c.434.517.728 1.368.728 2.71h2zm-1.194-3.994c-.872-1.042-2.113-1.506-3.556-1.506v2c.995 0 1.613.3 2.022.79l1.534-1.284zm-3.556-1.506c-1.545 0-2.813.686-3.738 1.958l1.617 1.177c.575-.791 1.26-1.135 2.121-1.135v-2zM37.422 8.43c-.902 1.222-1.32 2.716-1.32 4.415h2c0-1.364.331-2.417.929-3.227L37.422 8.43zm-.32 3.415H29.18v2h7.922v-2zm-6.922 1c0-1.918.477-3.671 1.43-5.28l-1.72-1.02c-1.14 1.924-1.71 4.03-1.71 6.3h2zm1.432-5.283c.952-1.62 2.27-2.882 3.971-3.797l-.947-1.762c-2.017 1.085-3.606 2.603-4.748 4.546l1.724 1.013zm3.971-3.797c1.701-.915 3.614-1.381 5.76-1.381v-2c-2.447 0-4.69.534-6.707 1.62l.947 1.76zm5.76-1.381c3.546 0 6.116.82 7.857 2.313l1.303-1.517c-2.228-1.912-5.33-2.796-9.16-2.796v2zm7.86 2.316c1.73 1.473 2.649 3.611 2.649 6.574h2c0-3.412-1.082-6.163-3.352-8.097L49.203 4.7zm2.649 6.574a9.743 9.743 0 01-.682 3.574l1.863.728c.544-1.395.819-2.83.819-4.302h-2zm-.68 3.57c-.46 1.162-1.189 2.419-2.212 3.773l1.596 1.206c1.102-1.459 1.934-2.873 2.476-4.244l-1.86-.734zm-2.213 3.774c-1.004 1.334-2.66 3.162-4.994 5.496l1.414 1.414c2.353-2.353 4.088-4.26 5.178-5.707l-1.598-1.203zm-5.043 5.549L39.51 29.25l1.511 1.31 4.407-5.086-1.512-1.31zm-3.65 6.74h13.43v-2h-13.43v2zm12.43-1V36h2v-6.094h-2z"/></symbol><symbol viewBox="0 0 55 38" id="icon-about-n-3"><path d="M22.664 32.719l-.769-.64-.002.003.771.637zM5.086 5.156l-.77-.639-.001.003.77.636zm11.836 4.172l-.885.465.002.005.883-.47zm-6.024-.14l-.874-.486-.005.01.88.476zm-.984 5.109l-1-.02v.02h1zm.961 14.32l-.88.475.003.005.877-.48zm6.023.047l.872.49.003-.005-.875-.485zm.985-5.414l1 .006v-.006h-1zm6.898-1.195c0 4.471-1.009 7.766-2.886 10.025l1.538 1.278c2.28-2.742 3.348-6.556 3.348-11.303h-2zm-2.888 10.027c-1.841 2.231-4.45 3.387-7.971 3.387v2c4.01 0 7.23-1.345 9.513-4.114l-1.542-1.273zm-7.971 3.387c-3.553 0-6.186-1.164-8.042-3.41l-1.542 1.273c2.3 2.785 5.543 4.137 9.584 4.137v-2zm-8.042-3.41C4 29.781 2.992 26.492 2.992 22.054h-2c0 4.718 1.07 8.522 3.346 11.277l1.542-1.274zM2.992 22.054V15.82h-2v6.235h2zm0-6.235c0-4.473 1.002-7.769 2.865-10.027L4.315 4.52C2.053 7.26.992 11.075.992 15.82h2zM5.855 5.795c1.856-2.232 4.482-3.389 8.02-3.389v-2c-4.024 0-7.258 1.344-9.558 4.111l1.538 1.278zm8.02-3.389c3.536 0 6.161 1.163 8.018 3.41l1.542-1.273c-2.3-2.784-5.533-4.137-9.56-4.137v2zm8.018 3.41c1.88 2.276 2.888 5.573 2.888 10.028h2c0-4.733-1.07-8.546-3.346-11.301l-1.542 1.274zm2.888 10.028v6.21h2v-6.21h-2zm-5.898-1.031c0-2.506-.321-4.533-1.078-5.955l-1.766.94c.524.985.844 2.614.844 5.014h2zm-1.076-5.95c-.391-.745-.924-1.35-1.613-1.763-.688-.414-1.474-.6-2.319-.6v2c.546 0 .963.118 1.29.315.327.195.623.504.872.978l1.77-.93zM13.875 6.5c-.82 0-1.584.17-2.257.552-.676.383-1.204.948-1.594 1.65l1.749.971c.235-.423.515-.702.832-.881.319-.181.73-.292 1.27-.292v-2zm-3.856 2.211c-.723 1.336-1.057 3.231-1.105 5.565l2 .041c.046-2.228.369-3.739.864-4.653l-1.759-.953zm-1.105 5.586v8.719h2v-8.72h-2zm0 8.719c0 2.59.319 4.663 1.08 6.076l1.761-.95c-.52-.962-.84-2.622-.84-5.126h-2zm1.084 6.08c.395.725.932 1.309 1.62 1.706.685.395 1.466.573 2.304.573v-2c-.553 0-.975-.115-1.305-.306-.328-.189-.62-.484-.865-.931l-1.754.959zm3.924 2.279c.816 0 1.578-.174 2.25-.56.674-.388 1.203-.957 1.598-1.661l-1.744-.98c-.244.436-.532.723-.85.906-.32.184-.726.295-1.254.295v2zm3.851-2.226c.765-1.381 1.094-3.393 1.11-5.893l-2-.012c-.015 2.406-.343 4.004-.86 4.935l1.75.97zm1.11-5.899v-8.438h-2v8.438h2zm18.219-7.617v-1h-1v1h1zm7.101-7.078l-.715.699.008.008.707-.707zm-5.719-.164l-.615-.789-.007.006.622.783zm-1.148 2.273v1h1v-1h-1zm-7.898 0h-1v1h1v-1zm5.648-8.086l.405.915.003-.002-.408-.913zm16.71 12.727l-.822-.569-.002.003.825.566zm-3.913 3.164l-.428-.904-2.171 1.026 2.258.818.34-.94zm4.265 3l-.793.609.004.004.79-.613zM34.711 35.203l-.411.912.009.004.402-.916zm-4.336-3.539l-.839.545.003.004.836-.549zm-1.477-5.156v-1h-1v1h1zm7.946 0h1v-1h-1v1zm7.71 2.719l.68.734.007-.007-.686-.727zm-7.452-7.711h-1v1h1v-1zm0-4.883h3.726v-2h-3.726v2zm3.726 0c1.625 0 3.03-.398 4.022-1.37.996-.975 1.408-2.361 1.408-3.966h-2c0 1.286-.327 2.067-.807 2.537-.484.474-1.295.799-2.623.799v2zm5.43-5.336c0-1.352-.432-2.534-1.348-3.45l-1.414 1.415c.49.49.762 1.137.762 2.035h2zm-1.34-3.442c-.94-.96-2.219-1.378-3.691-1.378v2c1.09 0 1.795.3 2.261.777l1.43-1.399zm-3.691-1.378c-1.257 0-2.39.37-3.358 1.125L39.1 9.18c.596-.464 1.29-.702 2.128-.702v-2zm-3.365 1.131c-.983.782-1.526 1.818-1.526 3.056h2c0-.575.222-1.054.771-1.49l-1.245-1.566zm-.526 2.056h-7.898v2h7.898v-2zm-6.898 1c0-1.598.44-2.995 1.315-4.225l-1.63-1.16c-1.126 1.584-1.686 3.39-1.686 5.385h2zm1.315-4.225c.883-1.243 2.116-2.229 3.738-2.946l-.81-1.83c-1.91.846-3.442 2.047-4.558 3.617l1.63 1.159zm3.741-2.948c1.642-.735 3.454-1.108 5.451-1.108v-2c-2.253 0-4.347.423-6.267 1.282l.816 1.826zm5.451-1.108c3.653 0 6.39.834 8.33 2.383l1.247-1.563c-2.404-1.92-5.635-2.82-9.577-2.82v2zm8.33 2.383c1.91 1.526 2.881 3.608 2.881 6.367h2c0-3.304-1.2-5.987-3.634-7.93l-1.248 1.563zm2.881 6.367c0 1.248-.38 2.443-1.182 3.604l1.646 1.136c1.011-1.465 1.536-3.05 1.536-4.74h-2zm-1.184 3.606c-.771 1.123-1.924 2.073-3.517 2.826l.855 1.808c1.846-.873 3.301-2.032 4.311-3.502l-1.649-1.132zm-3.43 4.67c1.659.6 2.913 1.496 3.813 2.669l1.587-1.218c-1.163-1.515-2.752-2.62-4.719-3.331l-.68 1.88zm3.817 2.673c.872 1.124 1.336 2.546 1.336 4.332h2c0-2.151-.567-4.026-1.757-5.559l-1.58 1.227zm1.336 4.332c0 2.748-1.037 4.89-3.13 6.524l1.23 1.577c2.593-2.023 3.9-4.755 3.9-8.1h-2zm-3.13 6.524c-2.124 1.656-4.966 2.53-8.62 2.53v2c3.972 0 7.286-.953 9.85-2.953l-1.23-1.577zm-8.62 2.53c-2.105 0-4.045-.396-5.832-1.18l-.804 1.83c2.057.904 4.273 1.35 6.636 1.35v-2zm-5.823-1.177c-1.762-.794-3.047-1.86-3.911-3.176l-1.672 1.098c1.105 1.684 2.71 2.977 4.76 3.902l.823-1.824zm-3.908-3.172c-.873-1.343-1.316-2.87-1.316-4.611h-2c0 2.102.542 4.012 1.638 5.7l1.678-1.089zm-2.316-3.611h7.946v-2h-7.946v2zm6.946-1c0 1.355.561 2.523 1.593 3.46l1.344-1.482c-.655-.595-.937-1.24-.937-1.978h-2zm1.593 3.46c1.044.946 2.33 1.407 3.79 1.407v-2c-1.009 0-1.802-.305-2.446-.889l-1.344 1.481zm3.79 1.407c1.58 0 2.953-.44 4.007-1.414l-1.358-1.469c-.603.557-1.449.883-2.65.883v2zm4.014-1.421c1.04-.982 1.556-2.243 1.556-3.704h-2c0 .945-.313 1.669-.928 2.25l1.372 1.454zm1.556-3.704c0-1.855-.462-3.432-1.648-4.423l-1.283 1.534c.533.446.93 1.307.93 2.889h2zm-1.648-4.423c-1.094-.915-2.536-1.311-4.204-1.311v2c1.364 0 2.297.322 2.921.845l1.283-1.534zm-4.204-1.311h-3.843v2h3.843v-2zm-2.843 1v-5.883h-2v5.883h2z"/></symbol><symbol viewBox="0 0 56 38" id="icon-about-n-4"><path d="M22.664 32.719l-.769-.64-.002.003.771.637zM5.086 5.156l-.77-.639-.001.003.77.636zm11.836 4.172l-.885.465.002.005.883-.47zm-6.024-.14l-.874-.486-.005.01.88.476zm-.984 5.109l-1-.02v.02h1zm.961 14.32l-.88.475.003.005.877-.48zm6.023.047l.872.49.003-.005-.875-.485zm.985-5.414l1 .006v-.006h-1zm6.898-1.195c0 4.471-1.009 7.766-2.886 10.025l1.538 1.278c2.28-2.742 3.348-6.556 3.348-11.303h-2zm-2.888 10.027c-1.841 2.231-4.45 3.387-7.971 3.387v2c4.01 0 7.23-1.345 9.513-4.114l-1.542-1.273zm-7.971 3.387c-3.553 0-6.186-1.164-8.042-3.41l-1.542 1.273c2.3 2.785 5.543 4.137 9.584 4.137v-2zm-8.042-3.41C4 29.781 2.992 26.492 2.992 22.054h-2c0 4.718 1.07 8.522 3.346 11.277l1.542-1.274zM2.992 22.054V15.82h-2v6.235h2zm0-6.235c0-4.473 1.002-7.769 2.865-10.027L4.315 4.52C2.053 7.26.992 11.075.992 15.82h2zM5.855 5.795c1.856-2.232 4.482-3.389 8.02-3.389v-2c-4.024 0-7.258 1.344-9.558 4.111l1.538 1.278zm8.02-3.389c3.536 0 6.161 1.163 8.018 3.41l1.542-1.273c-2.3-2.784-5.533-4.137-9.56-4.137v2zm8.018 3.41c1.88 2.276 2.888 5.573 2.888 10.028h2c0-4.733-1.07-8.546-3.346-11.301l-1.542 1.274zm2.888 10.028v6.21h2v-6.21h-2zm-5.898-1.031c0-2.506-.321-4.533-1.078-5.955l-1.766.94c.524.985.844 2.614.844 5.014h2zm-1.076-5.95c-.391-.745-.924-1.35-1.613-1.763-.688-.414-1.474-.6-2.319-.6v2c.546 0 .963.118 1.29.315.327.195.623.504.872.978l1.77-.93zM13.875 6.5c-.82 0-1.584.17-2.257.552-.676.383-1.204.948-1.594 1.65l1.749.971c.235-.423.515-.702.832-.881.319-.181.73-.292 1.27-.292v-2zm-3.856 2.211c-.723 1.336-1.057 3.231-1.105 5.565l2 .041c.046-2.228.369-3.739.864-4.653l-1.759-.953zm-1.105 5.586v8.719h2v-8.72h-2zm0 8.719c0 2.59.319 4.663 1.08 6.076l1.761-.95c-.52-.962-.84-2.622-.84-5.126h-2zm1.084 6.08c.395.725.932 1.309 1.62 1.706.685.395 1.466.573 2.304.573v-2c-.553 0-.975-.115-1.305-.306-.328-.189-.62-.484-.865-.931l-1.754.959zm3.924 2.279c.816 0 1.578-.174 2.25-.56.674-.388 1.203-.957 1.598-1.661l-1.744-.98c-.244.436-.532.723-.85.906-.32.184-.726.295-1.254.295v2zm3.851-2.226c.765-1.381 1.094-3.393 1.11-5.893l-2-.012c-.015 2.406-.343 4.004-.86 4.935l1.75.97zm1.11-5.899v-8.438h-2v8.438h2zm31.86-.586h-1v1h1v-1zm3.468 0h1v-1h-1v1zm0 6.094v1h1v-1h-1zm-3.469 0v-1h-1v1h1zm0 7.242v1h1v-1h-1zm-7.898 0h-1v1h1v-1zm0-7.242h1v-1h-1v1zm-13.196 0l-.995.096.088.904h.907v-1zm-.468-4.828l-.85-.528-.178.287.032.337.996-.096zM42.844 1.945l.85.528.15-.242v-.286h-1zm0-.07v-1h-1v1h1zm7.898 0h1v-1h-1v1zm-14.039 20.79l-.864-.504-.875 1.503h1.74v-1zm6.14 0v1h1v-1h-1zm0-10.5h1V8.641l-1.85 2.997.85.525zm-.491.796l-.851-.526-.007.012-.007.01.865.504zm8.39 10.703h3.469v-2h-3.469v2zm2.469-1v6.094h2v-6.094h-2zm1 5.094h-3.469v2h3.469v-2zm-4.469 1V36h2v-7.242h-2zm1 6.242h-7.898v2h7.898v-2zm-6.898 1v-7.242h-2V36h2zm-1-8.242H29.648v2h13.196v-2zm-12.2.903l-.469-4.828-1.99.193.468 4.828 1.99-.193zm-.615-4.203L43.693 2.473l-1.699-1.056L28.33 23.402l1.699 1.056zM43.844 1.945v-.07h-2v.07h2zm-1 .93h7.898v-2h-7.898v2zm6.898-1v20.79h2V1.874h-2zm-13.039 21.79h6.14v-2h-6.14v2zm7.14-1v-10.5h-2v10.5h2zm-1.85-11.026l-.492.796 1.701 1.051.492-.796-1.701-1.051zm-.506.819L35.84 22.16l1.728 1.006 5.649-9.703-1.729-1.006z"/></symbol><symbol viewBox="0 0 39 48" id="icon-authors-w-1"><path d="M38.22 33.032c0-1.178-.858-2.199-2.028-2.356-.39-.706-.936-1.334-1.56-1.884.936-2.04.39-4.475-1.404-5.81l-1.56-1.177c-.78-.628-1.248-1.491-1.248-2.512v-6.909c0-4.474-2.496-8.557-6.474-10.52L21.84.766a6.741 6.741 0 00-6.24 0l-2.106 1.021A11.9 11.9 0 007.02 12.384v6.909c0 1.02-.468 1.884-1.248 2.512l-1.56 1.178c-1.794 1.334-2.34 3.768-1.404 5.81A8.592 8.592 0 000 35.15v12.012h37.44v-3.925H39v-1.57h-.78v-8.636zM5.148 24.239l1.56-1.178c1.17-.863 1.872-2.276 1.872-3.768v-6.909c0-3.846 2.184-7.38 5.616-9.106l2.106-1.02a5.42 5.42 0 014.914 0l2.028.941a10.216 10.216 0 015.616 9.107v6.909c0 1.491.702 2.904 1.872 3.768l1.56 1.177c1.092.864 1.482 2.277 1.014 3.612-.078 0-.078-.079-.156-.079l-8.502-5.024c1.17-1.335 1.872-2.983 1.872-4.79v-3.296c0-2.434-1.638-4.632-3.978-5.26L16.77 7.674c-1.326-.393-2.808 0-3.822 1.02l-.468.393c-1.014 1.02-1.638 2.434-1.56 3.925v4.868c0 1.806.624 3.454 1.872 4.789L4.29 27.693c-.078 0-.078.079-.156.079-.468-1.256-.078-2.67 1.014-3.533zm8.892-.471l2.106 1.413c1.56 1.02 3.588 1.02 5.226 0l2.106-1.413 1.56.942v.471c0 1.335-1.014 2.355-2.34 2.355H14.82c-1.326 0-2.34-1.02-2.34-2.355v-.55l1.56-.863zm-1.56-5.888v-4.867c0-1.021.39-2.042 1.17-2.748l.468-.471c.624-.628 1.482-.864 2.262-.628l5.772 1.648c1.638.471 2.808 2.041 2.808 3.769v3.297c0 1.806-.936 3.533-2.418 4.553l-2.106 1.413a3.044 3.044 0 01-3.432 0l-2.106-1.413c-1.482-1.02-2.418-2.669-2.418-4.553zm12.714 27.713H9.36V35.387H7.8v10.206H1.56V35.15c0-2.512 1.326-4.789 3.432-6.123l5.928-3.533c.156 2.041 1.872 3.533 3.9 3.533h7.8c2.028 0 3.666-1.57 3.9-3.533l5.928 3.533c.702.392 1.326.942 1.872 1.57H21.84c-1.326 0-2.34 1.02-2.34 2.355v8.636h-.78v1.57h7.41l-.936 2.434zm1.716 0l.936-2.356h2.028l.936 2.356h-3.9zm8.97 0h-3.354l-.936-2.356h4.29v2.356zm.78-3.926h-15.6v-8.635c0-.471.312-.785.78-.785h14.04c.468 0 .78.314.78.785v8.635z"/><path d="M22.869 39.513l5.459-5.495 1.103 1.11-5.46 5.495-1.102-1.11zm8.331-4.911h3.9v1.57h-3.9v-1.57zm-1.56 3.14h5.46v1.57h-5.46v-1.57z"/></symbol><symbol viewBox="0 0 49 49" id="icon-authors-w-2"><path d="M24.5 0C10.99 0 0 10.99 0 24.5S10.99 49 24.5 49 49 38.01 49 24.5 38.01 0 24.5 0zm1.02 46.907v-3.011a1.02 1.02 0 10-2.04 0v3.01c-11.568-.523-20.863-9.818-21.387-21.385h3.011a1.02 1.02 0 100-2.042h-3.01c.523-11.567 9.818-20.862 21.385-21.386v3.011a1.02 1.02 0 102.042 0v-3.01c11.567.523 20.862 9.818 21.386 21.385h-3.011a1.02 1.02 0 100 2.042h3.01c-.523 11.567-9.818 20.862-21.385 21.386z"/><path d="M26.441 24.997c.042-.163.1-.32.1-.497 0-.427-.162-.802-.387-1.13L32.57 9.62a1.02 1.02 0 10-1.85-.864l-6.413 13.741c-1.031.102-1.85.946-1.85 2.003 0 1.125.917 2.042 2.042 2.042.176 0 .334-.059.497-.101l7.969 7.968a1.018 1.018 0 001.443 0 1.02 1.02 0 000-1.443l-7.968-7.969z"/></symbol><symbol viewBox="0 0 52 47" id="icon-authors-w-3"><path d="M46.516 0H12.891C9.973 0 7.6 2.355 7.6 5.24l-.218 29.64H.82c-.465 0-.82.412-.82.877v4.08c0 3.819 3.053 6.942 6.737 7.113V47h28.316v-.055c.21.008.338.055.482.055h.02a7.122 7.122 0 007.077-7.163V13.91h8.548c.465 0 .82-.421.82-.886V5.539A5.526 5.526 0 0046.516 0zM7.1 45.314c-2.996 0-5.416-2.479-5.416-5.477v-3.27h26.737v3.256a7.14 7.14 0 002.08 5.063c.143.143.292.217.444.428H7.099zm33.847-5.478c0 3-2.396 5.478-5.393 5.478h-.017a5.474 5.474 0 01-5.432-5.49v-4.066a.873.873 0 00-.842-.877H9.067l.216-29.636c0-1.96 1.619-3.559 3.608-3.559h29.65c-.96 1.054-1.594 2.387-1.594 3.875v34.275zm9.369-27.612h-7.684V5.56c0-2.11 1.753-3.874 3.86-3.874h.023a3.84 3.84 0 013.8 3.861v6.677z"/><path d="M19.774 20.751l4.342 2.972a.829.829 0 00.941 0l4.329-2.971C30.889 19.725 32 17.578 32 15.757V9.744a.824.824 0 00-.449-.757l-6.61-3.255a.827.827 0 00-.737 0l-6.598 3.246a.823.823 0 00-.448.757v6.022c0 1.82 1.113 3.968 2.616 4.994zm-.932-10.49l5.737-2.833 5.737 2.841v5.488c0 1.27-.832 2.885-1.88 3.601l-3.867 2.647-3.851-2.647c-1.049-.716-1.876-2.331-1.876-3.601v-5.495z"/><path d="M23.155 17.03a.84.84 0 00.596.252h.002c.224 0 .438-.09.595-.249l3.35-3.355a.844.844 0 00-1.19-1.193l-2.752 2.754-1.1-1.112a.842.842 0 00-1.192-.005.844.844 0 00-.005 1.193l1.696 1.715zm11.898 9.104h-20.21a.843.843 0 000 1.687h20.21a.843.843 0 000-1.687zm0 3.9h-20.21a.843.843 0 000 1.686h20.21a.843.843 0 000-1.686z"/></symbol></svg>