<?xml version="1.0" encoding="utf-8"?><svg viewBox="0 0 117 58" xmlns="http://www.w3.org/2000/svg" xmlns:xlink="http://www.w3.org/1999/xlink"><style>:root>svg{display:none}:root>svg:target{display:block}</style><svg fill="none" viewBox="0 0 56 58" id="antiplagiat" xmlns="http://www.w3.org/2000/svg"><path d="M15.448 18.367a.967.967 0 00.966.966h23.172a.965.965 0 00.966-.966.967.967 0 00-.966-.967H16.414a.965.965 0 00-.966.967zM6.759 25.133h19.31a.965.965 0 00.966-.966.967.967 0 00-.966-.967H6.759a.965.965 0 00-.966.967.967.967 0 00.966.966zM29.931 29h-7.724a.965.965 0 00-.683 1.65.965.965 0 00.683.283h7.724a.965.965 0 00.966-.966.967.967 0 00-.966-.967zM24.138 34.8H6.758a.965.965 0 00-.965.967.967.967 0 00.966.966h17.379a.965.965 0 00.965-.966.967.967 0 00-.965-.967zM6.759 19.333h5.793a.965.965 0 00.683-1.65.965.965 0 00-.683-.283H6.759a.965.965 0 00-.966.967.967.967 0 00.966.966zM39.586 23.2h-9.655a.965.965 0 00-.965.967.967.967 0 00.965.966h9.655a.965.965 0 00.966-.966.967.967 0 00-.966-.967zM6.759 30.933h11.586a.965.965 0 00.683-1.65.965.965 0 00-.683-.283H6.759a.965.965 0 00-.966.967.967.967 0 00.966.966zM22.207 46.4h-3.862a.965.965 0 00-.683 1.65.965.965 0 00.683.283h3.862a.965.965 0 00.683-1.65.965.965 0 00-.683-.283zM14.483 46.4H6.759a.965.965 0 00-.966.967.967.967 0 00.966.966h7.724a.965.965 0 00.965-.966.967.967 0 00-.965-.967zM6.759 42.533h5.793a.965.965 0 00.683-1.65.965.965 0 00-.683-.283H6.759a.965.965 0 00-.966.967.967.967 0 00.966.966zM6.759 13.533h11.586a.965.965 0 00.683-1.65.965.965 0 00-.683-.283H6.759a.965.965 0 00-.966.967.967.967 0 00.966.966zM22.207 40.6h-5.793a.965.965 0 00-.683 1.65.965.965 0 00.683.283h5.793a.965.965 0 00.683-1.65.965.965 0 00-.683-.283z" fill="#6AADF1"/><path d="M55.994 54.907a2.883 2.883 0 00-.983-1.99l-7.2-6.307a10.63 10.63 0 00-1.466-9.217V12.567a.966.966 0 00-.283-.684L34.476.283A.965.965 0 0033.793 0H4.828a4.83 4.83 0 00-3.412 1.417A4.842 4.842 0 000 4.833v48.334a4.842 4.842 0 001.416 3.416A4.83 4.83 0 004.828 58h36.69a4.83 4.83 0 003.411-1.417 4.842 4.842 0 001.416-3.416v-.135l4.852 4.25a2.894 2.894 0 004.797-2.375zm-12.09-5.361a8.65 8.65 0 01-14.746-4.575 8.674 8.674 0 011.223-6.1 8.646 8.646 0 0111.174-3.111 8.662 8.662 0 014.193 4.591 8.675 8.675 0 01-1.844 9.195zM34.759 3.3l8.29 8.3h-5.394a2.898 2.898 0 01-2.896-2.9V3.3zm6.758 52.767H4.827a2.898 2.898 0 01-2.896-2.9V4.833a2.905 2.905 0 012.897-2.9h28V8.7a4.842 4.842 0 001.415 3.416 4.83 4.83 0 003.412 1.417h6.759v21.77a10.611 10.611 0 00-15.726 2.506 10.64 10.64 0 004.44 15.31 10.607 10.607 0 0011.286-1.417v1.465a2.905 2.905 0 01-2.897 2.9zm12.313-.33a.967.967 0 01-1.362.09l-6.508-5.7c.407-.51.765-1.056 1.07-1.631l6.71 5.877a.966.966 0 01.09 1.364z" fill="#6AADF1"/><path d="M42.097 45.627a.965.965 0 00-1.351.193 3.865 3.865 0 01-2.816 1.537 3.858 3.858 0 01-3.892-2.505 3.87 3.87 0 011.3-4.446.967.967 0 00-1.16-1.546 5.8 5.8 0 00-1.946 6.666 5.8 5.8 0 003.4 3.404 5.786 5.786 0 006.658-1.949.968.968 0 00-.193-1.354z" fill="#6AADF1"/></svg><svg fill="none" viewBox="0 0 14 16" id="arrow--heavy" xmlns="http://www.w3.org/2000/svg"><path d="M13.707 8.707a1 1 0 000-1.414L7.343.929A1 1 0 005.93 2.343L11.586 8l-5.657 5.657a1 1 0 101.414 1.414l6.364-6.364zM0 9h13V7H0v2z" fill="#fff"/></svg><svg fill="none" viewBox="0 0 14 8" id="arrow--small" xmlns="http://www.w3.org/2000/svg"><path d="M13.354 4.354a.5.5 0 000-.708L10.172.464a.5.5 0 00-.708.708L12.293 4 9.464 6.828a.5.5 0 10.708.708l3.182-3.182zM0 4.5h13v-1H0v1z" fill="#fff"/></svg><svg fill="none" viewBox="0 0 47 40" id="blockquote" xmlns="http://www.w3.org/2000/svg"><path d="M27.89.805V13.87c0 5.195 1.29 10.234 3.868 15.117 2.578 4.922 5.117 8.516 7.617 10.782l6.27-2.696c-1.993-2.265-3.926-5.293-5.801-9.082-1.836-3.75-2.754-7.422-2.754-11.015h9.668V.805H27.89zM0 .805V13.87c0 5.195 1.29 10.234 3.867 15.117 2.578 4.922 5.117 8.516 7.617 10.782l6.27-2.696c-1.992-2.265-3.926-5.293-5.8-9.082-1.837-3.75-2.755-7.422-2.755-11.015h9.668V.805H0z" fill="#8AD377"/></svg><svg fill="none" viewBox="0 0 16 18" id="calendar" xmlns="http://www.w3.org/2000/svg"><path d="M14.222 1.8h-.889V0h-1.777v1.8H4.444V0H2.667v1.8h-.89C.797 1.8.01 2.606.01 3.6L0 16.2c0 .995.796 1.8 1.778 1.8h12.444c.982 0 1.778-.805 1.778-1.8V3.6c0-.994-.796-1.8-1.778-1.8zm0 14.4H1.778V6.3h12.444v9.9z" fill="#75B7F3"/><path d="M12.027 9.054l-.943-.954-4.337 4.392-1.885-1.908-.942.954L6.747 14.4l5.28-5.346z" fill="#75B7F3"/></svg><svg fill="none" viewBox="0 0 9 16" id="chevron" xmlns="http://www.w3.org/2000/svg"><path d="M8.707 8.707a1 1 0 000-1.414L2.343.929A1 1 0 00.93 2.343L6.586 8 .929 13.657a1 1 0 101.414 1.414l6.364-6.364zM7 9h1V7H7v2z" fill="#ABABB1"/></svg><svg fill="none" viewBox="0 0 7 13" id="fb" xmlns="http://www.w3.org/2000/svg"><path d="M6.736.003L5.057 0C3.171 0 1.952 1.256 1.952 3.2v1.474H.264A.265.265 0 000 4.94v2.137c0 .146.118.265.264.265h1.688v5.393c0 .146.118.265.264.265H4.42a.265.265 0 00.264-.265V7.342h1.974a.264.264 0 00.264-.265V4.94a.266.266 0 00-.264-.266H4.683v-1.25c0-.601.142-.906.922-.906h1.131A.265.265 0 007 2.251V.268a.265.265 0 00-.264-.265z" fill="#fff" fill-opacity=".36"/></svg><svg fill="none" viewBox="0 0 17 17" id="geo" xmlns="http://www.w3.org/2000/svg"><path d="M16.939.076c-.081-.081-.162-.101-.264-.04L.162 6.626c-.121.04-.202.202-.141.324.02.08.08.12.141.141l7.063 2.71 2.712 7.056c.02.102.121.142.222.142s.203-.04.223-.142L16.979.38a.314.314 0 00-.04-.303z" fill="#D0D2D6"/></svg><svg fill="none" viewBox="0 0 30 39" id="guarantee--green" xmlns="http://www.w3.org/2000/svg"><path d="M29.618 8.545L15.138.986a.733.733 0 00-.685.004L.374 8.55a.704.704 0 00-.374.62v9.873c.008 8.116 4.917 15.459 12.508 18.71l1.954.834c.183.078.39.079.574.001l2.202-.931C24.969 34.475 29.999 27.06 30 18.846V9.168c0-.26-.147-.5-.382-.623zm-1.06 10.3c-.001 7.65-4.686 14.551-11.885 17.511l-.005.003-1.917.81-1.666-.711C6.019 33.43 1.449 26.597 1.44 19.042V9.586l13.363-7.174 13.754 7.18v9.254z" fill="#8AD377"/><path d="M9.486 18.584a.731.731 0 00-1.017-.079.696.696 0 00-.08.996l3.808 4.368c.254.292.7.332 1.003.09l8.869-7.069a.696.696 0 00.104-.993.731.731 0 00-1.014-.102l-8.323 6.632-3.35-3.843z" fill="#8AD377"/></svg><svg fill="none" viewBox="0 0 30 39" id="guarantee-icon" xmlns="http://www.w3.org/2000/svg"><path d="M29.618 7.896L15.138.086a.712.712 0 00-.685.004L.374 7.9A.731.731 0 000 8.54v10.203c.008 8.387 4.917 15.974 12.508 19.334l1.954.862c.183.08.39.081.574.001l2.202-.963C24.969 34.69 29.999 27.03 30 18.541v-10a.731.731 0 00-.382-.645zm-1.06 10.645c-.001 7.904-4.686 15.035-11.885 18.094l-.005.002-1.917.838-1.666-.736C6.019 33.612 1.449 26.55 1.44 18.744v-9.77l13.363-7.414 13.754 7.419v9.563z" fill="#75B7F3"/><path d="M9.486 18.27a.715.715 0 00-1.017-.081.736.736 0 00-.08 1.029l3.808 4.514c.254.301.7.342 1.003.092l8.869-7.304a.736.736 0 00.104-1.027.715.715 0 00-1.014-.105l-8.323 6.854-3.35-3.972z" fill="#75B7F3"/></svg><svg fill="none" viewBox="0 0 14 12" id="home" xmlns="http://www.w3.org/2000/svg"><path d="M2.659 4.462v6.615h8.182V4.462h.944v7.077a.467.467 0 01-.472.461H2.187a.467.467 0 01-.472-.461V4.462h.944z" fill="#A0A0A8"/><path d="M6.436.117a.48.48 0 01.628 0L13.5 5.733l-.629.688-6.12-5.34L.627 6.42 0 5.733 6.436.117z" fill="#A0A0A8"/></svg><svg fill="none" viewBox="0 0 15 15" id="inst" xmlns="http://www.w3.org/2000/svg"><path d="M4.688 0h5.625C12.9 0 15 2.1 15 4.688v5.625C15 12.9 12.9 15 10.312 15H4.689A4.688 4.688 0 010 10.312V4.689C0 2.099 2.1 0 4.688 0zM1.405 10.313a3.285 3.285 0 003.282 3.28h5.625a3.285 3.285 0 003.28-3.28V4.686a3.285 3.285 0 00-3.28-3.28H4.686a3.285 3.285 0 00-3.28 3.28v5.625z" fill="#fff" fill-opacity=".36"/><path d="M7.5 3.75a3.75 3.75 0 110 7.5 3.75 3.75 0 010-7.5zm0 6.094A2.347 2.347 0 009.844 7.5 2.346 2.346 0 007.5 5.156 2.346 2.346 0 005.156 7.5 2.347 2.347 0 007.5 9.844zM3.469 3.968a.5.5 0 110-.999.5.5 0 010 1z" fill="#fff" fill-opacity=".36"/></svg><svg fill="none" viewBox="0 0 11 16" id="list-arrow" xmlns="http://www.w3.org/2000/svg"><path d="M10.707 8.707a1 1 0 000-1.414L4.343.929A1 1 0 002.93 2.343L8.586 8l-5.657 5.657a1 1 0 101.414 1.414l6.364-6.364zM0 9h10V7H0v2z" fill="#4D9D38"/></svg><svg fill="none" viewBox="0 0 18 24" id="lock" xmlns="http://www.w3.org/2000/svg"><path d="M7.818 16.608l-.315 2.837A.501.501 0 008 20h2a.5.5 0 00.497-.555l-.315-2.837c.512-.372.818-.962.818-1.608 0-1.103-.897-2-2-2s-2 .897-2 2c0 .646.306 1.236.818 1.608zM9 14c.551 0 1 .449 1 1a.992.992 0 01-.568.896.5.5 0 00-.28.506L9.442 19h-.883l.289-2.598a.5.5 0 00-.28-.506A.992.992 0 018 15c0-.551.449-1 1-1z" fill="#CFD6DC"/><path d="M17.5 9H16V7c0-3.86-3.14-7-7-7S2 3.14 2 7v2H.5a.5.5 0 00-.5.5V22c0 1.103.897 2 2 2h14c1.103 0 2-.897 2-2V9.5a.5.5 0 00-.5-.5zM3 7c0-3.309 2.691-6 6-6s6 2.691 6 6v2h-1V7c0-2.757-2.243-5-5-5S4 4.243 4 7v2H3V7zm10 0v2H5V7c0-2.206 1.794-4 4-4s4 1.794 4 4zm4 15c0 .551-.449 1-1 1H2c-.551 0-1-.449-1-1V10h16v12z" fill="#CFD6DC"/></svg><svg fill="none" viewBox="0 0 117 14" id="logo-icon" xmlns="http://www.w3.org/2000/svg"><path fill="#fff" fill-opacity=".45" d="M0 6h35v1H0zM82 6h35v1H82zM64.655 3.857L57.279.067a.61.61 0 00-.559 0l-7.375 3.79a.651.651 0 00-.033 1.13v8.37c0 .356.28.643.625.643a.634.634 0 00.625-.642V5.63l.813.417v2.717c0 .244.135.467.348.575l5 2.539a.61.61 0 00.554 0l5-2.539a.644.644 0 00.348-.575v-2.69c1.143-.6 2.024-1.066 2.037-1.073a.65.65 0 00-.007-1.145zm-3.28 4.509L57 10.586l-4.375-2.22V6.69C56.998 8.91 56.737 8.862 57 8.862c.204 0 .167.066 4.375-2.132v1.636zm-4.345-.849l-6.008-3.086L57 1.361l5.993 3.078c-1.003.529-4.938 2.598-5.963 3.078z"/></svg><svg fill="none" viewBox="0 0 16 11" id="mail" xmlns="http://www.w3.org/2000/svg"><path d="M10.606 5.582L16 8.992V2.028l-5.394 3.554zM0 2.028v6.964l5.394-3.41L0 2.028zM15 0H1a.988.988 0 00-.97.851L8 6.102 15.97.851A.988.988 0 0015 0zM9.69 6.186l-1.415.932a.5.5 0 01-.55 0L6.31 6.185.032 10.156A.986.986 0 001 11h14a.986.986 0 00.968-.844L9.69 6.186z" fill="#D2D6DF"/></svg><svg fill="none" viewBox="0 0 17 17" id="phone" xmlns="http://www.w3.org/2000/svg"><path d="M3.4 7.367c1.322 2.644 3.589 4.816 6.233 6.233l2.078-2.078c.283-.283.661-.377.945-.189 1.038.378 2.172.567 3.4.567.566 0 .944.378.944.944v3.212c0 .566-.378.944-.944.944C7.178 17 0 9.822 0 .944 0 .378.378 0 .944 0H4.25c.567 0 .944.378.944.944 0 1.134.19 2.267.567 3.4.095.284 0 .662-.189.945L3.4 7.367z" fill="#fff" fill-opacity=".49"/></svg><svg fill="none" viewBox="0 0 8 5" id="select-arrow" xmlns="http://www.w3.org/2000/svg"><path d="M3.646 4.354a.5.5 0 00.708 0l3.182-3.182a.5.5 0 10-.708-.708L4 3.293 1.172.464a.5.5 0 10-.708.708l3.182 3.182zM3.5 3v1h1V3h-1z" fill="#4B4E55"/></svg><svg fill="none" viewBox="0 0 13 12" id="star" xmlns="http://www.w3.org/2000/svg"><path d="M6.5 0l2.109 3.597 4.073.894-2.77 3.118.409 4.15L6.5 10.088l-3.82 1.67.408-4.15-2.77-3.117 4.073-.894L6.5 0z" fill="#fff"/></svg><svg fill="none" viewBox="0 0 20 22" id="user" xmlns="http://www.w3.org/2000/svg"><path d="M9.92 11.854h.146c1.335-.023 2.415-.492 3.212-1.39 1.754-1.977 1.463-5.366 1.43-5.69-.113-2.428-1.261-3.59-2.209-4.132C11.793.237 10.97.018 10.048 0h-.077c-.506 0-1.5.082-2.451.624-.957.542-2.123 1.704-2.237 4.15-.032.324-.324 3.713 1.43 5.69.793.898 1.873 1.367 3.207 1.39zM6.5 4.888c0-.013.004-.027.004-.036.15-3.267 2.469-3.617 3.462-3.617H10.021c1.23.027 3.32.528 3.462 3.617 0 .014 0 .027.005.036.004.032.323 3.13-1.126 4.761-.574.647-1.339.966-2.346.975h-.045c-1.003-.009-1.773-.328-2.342-.975-1.444-1.622-1.134-4.733-1.13-4.76z" fill="#fff"/><path d="M19.355 17.476v-.014c0-.036-.004-.072-.004-.113-.027-.902-.087-3.012-2.064-3.686l-.045-.014c-2.055-.524-3.764-1.708-3.782-1.722a.614.614 0 10-.706 1.007c.078.055 1.89 1.317 4.16 1.9 1.061.378 1.18 1.512 1.211 2.551 0 .041 0 .077.005.114.005.41-.023 1.043-.096 1.408-.738.419-3.63 1.867-8.032 1.867-4.382 0-7.293-1.453-8.036-1.872-.073-.364-.105-.998-.096-1.408 0-.036.005-.073.005-.114.032-1.038.15-2.173 1.212-2.55 2.268-.584 4.082-1.85 4.16-1.9a.614.614 0 10-.707-1.007c-.018.013-1.718 1.198-3.781 1.722-.019.004-.032.009-.046.013-1.977.68-2.036 2.789-2.064 3.686 0 .041 0 .077-.004.114v.014c-.005.236-.01 1.453.232 2.063a.584.584 0 00.237.287C1.251 19.913 4.526 22 10.007 22c5.48 0 8.756-2.091 8.893-2.178a.609.609 0 00.237-.287c.228-.606.223-1.822.218-2.059z" fill="#fff"/></svg><svg fill="none" viewBox="0 0 16 9" id="vk" xmlns="http://www.w3.org/2000/svg"><path d="M15.857 8.027c-.043-.07-.309-.64-1.589-1.812-1.34-1.226-1.16-1.027.454-3.148.983-1.291 1.376-2.08 1.253-2.417-.117-.322-.84-.237-.84-.237l-2.404.014s-.178-.024-.31.054c-.13.077-.213.255-.213.255s-.38 1-.889 1.85c-1.071 1.793-1.5 1.887-1.675 1.776-.407-.26-.305-1.043-.305-1.6 0-1.738.267-2.462-.521-2.65C8.556.05 8.364.01 7.695.002 6.837-.007 6.11.005 5.699.203c-.274.132-.485.427-.356.444.159.02.519.095.71.352.247.33.238 1.073.238 1.073s.142 2.046-.331 2.3c-.325.175-.77-.18-1.725-1.809-.49-.833-.86-1.754-.86-1.754s-.07-.172-.198-.264c-.154-.111-.37-.147-.37-.147L.521.412S.178.422.052.57C-.06.7.043.97.043.97s1.79 4.128 3.817 6.21c1.859 1.907 3.969 1.782 3.969 1.782h.956s.289-.031.436-.188c.136-.144.13-.414.13-.414s-.018-1.265.578-1.452c.587-.183 1.341 1.223 2.14 1.764.604.41 1.063.32 1.063.32l2.137-.03s1.118-.068.588-.935z" fill="#fff" fill-opacity=".36"/></svg><svg fill="none" viewBox="0 0 15 11" id="yt" xmlns="http://www.w3.org/2000/svg"><path d="M14.69 1.721A1.926 1.926 0 0013.37.336C12.195 0 7.499 0 7.499 0S2.806 0 1.632.324C1 .504.48 1.048.309 1.72 0 2.951 0 5.5 0 5.5s0 2.562.309 3.779c.173.673.68 1.203 1.322 1.385C2.817 11 7.5 11 7.5 11s4.695 0 5.869-.324a1.926 1.926 0 001.322-1.384C15 8.062 15 5.513 15 5.513s.012-2.562-.31-3.792z" fill="red"/><path d="M6 8l4-2.5L6 3v5z" fill="#fff"/></svg><svg fill="none" viewBox="0 0 21 15" id="yt--white" xmlns="http://www.w3.org/2000/svg"><path d="M20.2 2.26A2.584 2.584 0 0018.382.442C16.768 0 10.312 0 10.312 0s-6.456 0-8.07.425A2.637 2.637 0 00.425 2.26C0 3.873 0 7.22 0 7.22s0 3.364.425 4.961c.238.883.934 1.58 1.818 1.818 1.63.442 8.07.442 8.07.442s6.455 0 8.069-.425a2.584 2.584 0 001.818-1.818c.425-1.614.425-4.96.425-4.96s.017-3.365-.425-4.978z" fill="#fff"/><path d="M8.256 10.313l5.368-3.092-5.368-3.092v6.184z" fill="red"/></svg></svg>