<svg width="55" height="38" viewBox="0 0 55 38" fill="none" xmlns="http://www.w3.org/2000/svg"><path d="M22.664 32.719l-.769-.64-.002.003.771.637zM5.086 5.156l-.77-.639-.001.003.77.636zm11.836 4.172l-.885.465.002.005.883-.47zm-6.024-.14l-.874-.486-.005.01.88.476zm-.984 5.109l-1-.02v.02h1zm.961 14.32l-.88.475.003.005.877-.48zm6.023.047l.872.49.003-.005-.875-.485zm.985-5.414l1 .006v-.006h-1zm6.898-1.195c0 4.471-1.009 7.766-2.886 10.025l1.538 1.278c2.28-2.742 3.348-6.556 3.348-11.303h-2zm-2.888 10.027c-1.841 2.231-4.45 3.387-7.971 3.387v2c4.01 0 7.23-1.345 9.513-4.114l-1.542-1.273zm-7.971 3.387c-3.553 0-6.186-1.164-8.042-3.41l-1.542 1.273c2.3 2.785 5.543 4.137 9.584 4.137v-2zm-8.042-3.41C4 29.781 2.992 26.492 2.992 22.054h-2c0 4.718 1.07 8.522 3.346 11.277l1.542-1.274zM2.992 22.054V15.82h-2v6.235h2zm0-6.235c0-4.473 1.002-7.769 2.865-10.027L4.315 4.52C2.053 7.26.992 11.075.992 15.82h2zM5.855 5.795c1.856-2.232 4.482-3.389 8.02-3.389v-2c-4.024 0-7.258 1.344-9.558 4.111l1.538 1.278zm8.02-3.389c3.536 0 6.161 1.163 8.018 3.41l1.542-1.273c-2.3-2.784-5.533-4.137-9.56-4.137v2zm8.018 3.41c1.88 2.276 2.888 5.573 2.888 10.028h2c0-4.733-1.07-8.546-3.346-11.301l-1.542 1.274zm2.888 10.028v6.21h2v-6.21h-2zm-5.898-1.031c0-2.506-.321-4.533-1.078-5.955l-1.766.94c.524.985.844 2.614.844 5.014h2zm-1.076-5.95c-.391-.745-.924-1.35-1.613-1.763-.688-.414-1.474-.6-2.319-.6v2c.546 0 .963.118 1.29.315.327.195.623.504.872.978l1.77-.93zM13.875 6.5c-.82 0-1.584.17-2.257.552-.676.383-1.204.948-1.594 1.65l1.749.971c.235-.423.515-.702.832-.881.319-.181.73-.292 1.27-.292v-2zm-3.856 2.211c-.723 1.336-1.057 3.231-1.105 5.565l2 .041c.046-2.228.369-3.739.864-4.653l-1.759-.953zm-1.105 5.586v8.719h2v-8.72h-2zm0 8.719c0 2.59.319 4.663 1.08 6.076l1.761-.95c-.52-.962-.84-2.622-.84-5.126h-2zm1.084 6.08c.395.725.932 1.309 1.62 1.706.685.395 1.466.573 2.304.573v-2c-.553 0-.975-.115-1.305-.306-.328-.189-.62-.484-.865-.931l-1.754.959zm3.924 2.279c.816 0 1.578-.174 2.25-.56.674-.388 1.203-.957 1.598-1.661l-1.744-.98c-.244.436-.532.723-.85.906-.32.184-.726.295-1.254.295v2zm3.851-2.226c.765-1.381 1.094-3.393 1.11-5.893l-2-.012c-.015 2.406-.343 4.004-.86 4.935l1.75.97zm1.11-5.899v-8.438h-2v8.438h2zM53.695 36v1h1v-1h-1zm-23.812 0h-1v1h1v-1zm0-5.156l-.725-.69-.275.29v.4h1zm10.969-11.532l.724.69.014-.015.013-.015-.751-.66zM38.227 9.024l.804.595.004-.006-.808-.589zm-1.125 3.82v1h1v-1h-1zm-7.922 0h-1v1h1v-1zm1.57-5.788l.86.51.002-.004-.862-.506zm19.102-3.117l-.652.758.003.003.649-.761zm2.25 11.273l.93.367.001-.003-.931-.364zm-2.344 4.008l-.798-.603-.001.001.799.602zm-5.086 5.601l-.707-.707-.026.026-.023.027.756.654zm-4.406 5.086l-.756-.654-1.434 1.654h2.19v-1zm13.43 0h1v-1h-1v1zm0 5.094H29.882v2h23.812v-2zm-22.813 1v-5.156h-2V36h2zm-.276-4.467l10.97-11.531-1.45-1.379-10.969 11.531 1.45 1.379zm10.996-11.56c1.38-1.571 2.442-3.012 3.165-4.32.717-1.297 1.138-2.534 1.138-3.676h-2c0 .67-.254 1.561-.889 2.71-.629 1.137-1.593 2.458-2.917 3.966l1.503 1.32zm4.303-7.996c0-1.597-.346-2.98-1.194-3.994l-1.534 1.284c.434.517.728 1.368.728 2.71h2zm-1.194-3.994c-.872-1.042-2.113-1.506-3.556-1.506v2c.995 0 1.613.3 2.022.79l1.534-1.284zm-3.556-1.506c-1.545 0-2.813.686-3.738 1.958l1.617 1.177c.575-.791 1.26-1.135 2.121-1.135v-2zM37.422 8.43c-.902 1.222-1.32 2.716-1.32 4.415h2c0-1.364.331-2.417.929-3.227L37.422 8.43zm-.32 3.415H29.18v2h7.922v-2zm-6.922 1c0-1.918.477-3.671 1.43-5.28l-1.72-1.02c-1.14 1.924-1.71 4.03-1.71 6.3h2zm1.432-5.283c.952-1.62 2.27-2.882 3.971-3.797l-.947-1.762c-2.017 1.085-3.606 2.603-4.748 4.546l1.724 1.013zm3.971-3.797c1.701-.915 3.614-1.381 5.76-1.381v-2c-2.447 0-4.69.534-6.707 1.62l.947 1.76zm5.76-1.381c3.546 0 6.116.82 7.857 2.313l1.303-1.517c-2.228-1.912-5.33-2.796-9.16-2.796v2zm7.86 2.316c1.73 1.473 2.649 3.611 2.649 6.574h2c0-3.412-1.082-6.163-3.352-8.097L49.203 4.7zm2.649 6.574a9.743 9.743 0 01-.682 3.574l1.863.728c.544-1.395.819-2.83.819-4.302h-2zm-.68 3.57c-.46 1.162-1.189 2.419-2.212 3.773l1.596 1.206c1.102-1.459 1.934-2.873 2.476-4.244l-1.86-.734zm-2.213 3.774c-1.004 1.334-2.66 3.162-4.994 5.496l1.414 1.414c2.353-2.353 4.088-4.26 5.178-5.707l-1.598-1.203zm-5.043 5.549L39.51 29.25l1.511 1.31 4.407-5.086-1.512-1.31zm-3.65 6.74h13.43v-2h-13.43v2zm12.43-1V36h2v-6.094h-2z" fill="#2281E2"/></svg>