<svg width="55" height="38" viewBox="0 0 55 38" fill="none" xmlns="http://www.w3.org/2000/svg"><path d="M22.664 32.719l-.769-.64-.002.003.771.637zM5.086 5.156l-.77-.639-.001.003.77.636zm11.836 4.172l-.885.465.002.005.883-.47zm-6.024-.14l-.874-.486-.005.01.88.476zm-.984 5.109l-1-.02v.02h1zm.961 14.32l-.88.475.003.005.877-.48zm6.023.047l.872.49.003-.005-.875-.485zm.985-5.414l1 .006v-.006h-1zm6.898-1.195c0 4.471-1.009 7.766-2.886 10.025l1.538 1.278c2.28-2.742 3.348-6.556 3.348-11.303h-2zm-2.888 10.027c-1.841 2.231-4.45 3.387-7.971 3.387v2c4.01 0 7.23-1.345 9.513-4.114l-1.542-1.273zm-7.971 3.387c-3.553 0-6.186-1.164-8.042-3.41l-1.542 1.273c2.3 2.785 5.543 4.137 9.584 4.137v-2zm-8.042-3.41C4 29.781 2.992 26.492 2.992 22.054h-2c0 4.718 1.07 8.522 3.346 11.277l1.542-1.274zM2.992 22.054V15.82h-2v6.235h2zm0-6.235c0-4.473 1.002-7.769 2.865-10.027L4.315 4.52C2.053 7.26.992 11.075.992 15.82h2zM5.855 5.795c1.856-2.232 4.482-3.389 8.02-3.389v-2c-4.024 0-7.258 1.344-9.558 4.111l1.538 1.278zm8.02-3.389c3.536 0 6.161 1.163 8.018 3.41l1.542-1.273c-2.3-2.784-5.533-4.137-9.56-4.137v2zm8.018 3.41c1.88 2.276 2.888 5.573 2.888 10.028h2c0-4.733-1.07-8.546-3.346-11.301l-1.542 1.274zm2.888 10.028v6.21h2v-6.21h-2zm-5.898-1.031c0-2.506-.321-4.533-1.078-5.955l-1.766.94c.524.985.844 2.614.844 5.014h2zm-1.076-5.95c-.391-.745-.924-1.35-1.613-1.763-.688-.414-1.474-.6-2.319-.6v2c.546 0 .963.118 1.29.315.327.195.623.504.872.978l1.77-.93zM13.875 6.5c-.82 0-1.584.17-2.257.552-.676.383-1.204.948-1.594 1.65l1.749.971c.235-.423.515-.702.832-.881.319-.181.73-.292 1.27-.292v-2zm-3.856 2.211c-.723 1.336-1.057 3.231-1.105 5.565l2 .041c.046-2.228.369-3.739.864-4.653l-1.759-.953zm-1.105 5.586v8.719h2v-8.72h-2zm0 8.719c0 2.59.319 4.663 1.08 6.076l1.761-.95c-.52-.962-.84-2.622-.84-5.126h-2zm1.084 6.08c.395.725.932 1.309 1.62 1.706.685.395 1.466.573 2.304.573v-2c-.553 0-.975-.115-1.305-.306-.328-.189-.62-.484-.865-.931l-1.754.959zm3.924 2.279c.816 0 1.578-.174 2.25-.56.674-.388 1.203-.957 1.598-1.661l-1.744-.98c-.244.436-.532.723-.85.906-.32.184-.726.295-1.254.295v2zm3.851-2.226c.765-1.381 1.094-3.393 1.11-5.893l-2-.012c-.015 2.406-.343 4.004-.86 4.935l1.75.97zm1.11-5.899v-8.438h-2v8.438h2zm18.219-7.617v-1h-1v1h1zm7.101-7.078l-.715.699.008.008.707-.707zm-5.719-.164l-.615-.789-.007.006.622.783zm-1.148 2.273v1h1v-1h-1zm-7.898 0h-1v1h1v-1zm5.648-8.086l.405.915.003-.002-.408-.913zm16.71 12.727l-.822-.569-.002.003.825.566zm-3.913 3.164l-.428-.904-2.171 1.026 2.258.818.34-.94zm4.265 3l-.793.609.004.004.79-.613zM34.711 35.203l-.411.912.009.004.402-.916zm-4.336-3.539l-.839.545.003.004.836-.549zm-1.477-5.156v-1h-1v1h1zm7.946 0h1v-1h-1v1zm7.71 2.719l.68.734.007-.007-.686-.727zm-7.452-7.711h-1v1h1v-1zm0-4.883h3.726v-2h-3.726v2zm3.726 0c1.625 0 3.03-.398 4.022-1.37.996-.975 1.408-2.361 1.408-3.966h-2c0 1.286-.327 2.067-.807 2.537-.484.474-1.295.799-2.623.799v2zm5.43-5.336c0-1.352-.432-2.534-1.348-3.45l-1.414 1.415c.49.49.762 1.137.762 2.035h2zm-1.34-3.442c-.94-.96-2.219-1.378-3.691-1.378v2c1.09 0 1.795.3 2.261.777l1.43-1.399zm-3.691-1.378c-1.257 0-2.39.37-3.358 1.125L39.1 9.18c.596-.464 1.29-.702 2.128-.702v-2zm-3.365 1.131c-.983.782-1.526 1.818-1.526 3.056h2c0-.575.222-1.054.771-1.49l-1.245-1.566zm-.526 2.056h-7.898v2h7.898v-2zm-6.898 1c0-1.598.44-2.995 1.315-4.225l-1.63-1.16c-1.126 1.584-1.686 3.39-1.686 5.385h2zm1.315-4.225c.883-1.243 2.116-2.229 3.738-2.946l-.81-1.83c-1.91.846-3.442 2.047-4.558 3.617l1.63 1.159zm3.741-2.948c1.642-.735 3.454-1.108 5.451-1.108v-2c-2.253 0-4.347.423-6.267 1.282l.816 1.826zm5.451-1.108c3.653 0 6.39.834 8.33 2.383l1.247-1.563c-2.404-1.92-5.635-2.82-9.577-2.82v2zm8.33 2.383c1.91 1.526 2.881 3.608 2.881 6.367h2c0-3.304-1.2-5.987-3.634-7.93l-1.248 1.563zm2.881 6.367c0 1.248-.38 2.443-1.182 3.604l1.646 1.136c1.011-1.465 1.536-3.05 1.536-4.74h-2zm-1.184 3.606c-.771 1.123-1.924 2.073-3.517 2.826l.855 1.808c1.846-.873 3.301-2.032 4.311-3.502l-1.649-1.132zm-3.43 4.67c1.659.6 2.913 1.496 3.813 2.669l1.587-1.218c-1.163-1.515-2.752-2.62-4.719-3.331l-.68 1.88zm3.817 2.673c.872 1.124 1.336 2.546 1.336 4.332h2c0-2.151-.567-4.026-1.757-5.559l-1.58 1.227zm1.336 4.332c0 2.748-1.037 4.89-3.13 6.524l1.23 1.577c2.593-2.023 3.9-4.755 3.9-8.1h-2zm-3.13 6.524c-2.124 1.656-4.966 2.53-8.62 2.53v2c3.972 0 7.286-.953 9.85-2.953l-1.23-1.577zm-8.62 2.53c-2.105 0-4.045-.396-5.832-1.18l-.804 1.83c2.057.904 4.273 1.35 6.636 1.35v-2zm-5.823-1.177c-1.762-.794-3.047-1.86-3.911-3.176l-1.672 1.098c1.105 1.684 2.71 2.977 4.76 3.902l.823-1.824zm-3.908-3.172c-.873-1.343-1.316-2.87-1.316-4.611h-2c0 2.102.542 4.012 1.638 5.7l1.678-1.089zm-2.316-3.611h7.946v-2h-7.946v2zm6.946-1c0 1.355.561 2.523 1.593 3.46l1.344-1.482c-.655-.595-.937-1.24-.937-1.978h-2zm1.593 3.46c1.044.946 2.33 1.407 3.79 1.407v-2c-1.009 0-1.802-.305-2.446-.889l-1.344 1.481zm3.79 1.407c1.58 0 2.953-.44 4.007-1.414l-1.358-1.469c-.603.557-1.449.883-2.65.883v2zm4.014-1.421c1.04-.982 1.556-2.243 1.556-3.704h-2c0 .945-.313 1.669-.928 2.25l1.372 1.454zm1.556-3.704c0-1.855-.462-3.432-1.648-4.423l-1.283 1.534c.533.446.93 1.307.93 2.889h2zm-1.648-4.423c-1.094-.915-2.536-1.311-4.204-1.311v2c1.364 0 2.297.322 2.921.845l1.283-1.534zm-4.204-1.311h-3.843v2h3.843v-2zm-2.843 1v-5.883h-2v5.883h2z" fill="#2281E2"/></svg>