<svg width="49" height="38" viewBox="0 0 49 38" fill="none" xmlns="http://www.w3.org/2000/svg"><path d="M22.664 32.719l-.769-.64-.002.003.771.637zM5.086 5.156l-.77-.639-.001.003.77.636zm11.836 4.172l-.885.465.002.005.883-.47zm-6.024-.14l-.874-.486-.005.01.88.476zm-.984 5.109l-1-.02v.02h1zm.961 14.32l-.88.475.003.005.877-.48zm6.023.047l.872.49.003-.005-.875-.485zm.985-5.414l1 .006v-.006h-1zm6.898-1.195c0 4.471-1.009 7.766-2.886 10.025l1.538 1.278c2.28-2.742 3.348-6.556 3.348-11.303h-2zm-2.888 10.027c-1.841 2.231-4.45 3.387-7.971 3.387v2c4.01 0 7.23-1.345 9.513-4.114l-1.542-1.273zm-7.971 3.387c-3.553 0-6.186-1.164-8.042-3.41l-1.542 1.273c2.3 2.785 5.543 4.137 9.584 4.137v-2zm-8.042-3.41C4 29.781 2.992 26.492 2.992 22.054h-2c0 4.718 1.07 8.522 3.346 11.277l1.542-1.274zM2.992 22.054V15.82h-2v6.235h2zm0-6.235c0-4.473 1.002-7.769 2.865-10.027L4.315 4.52C2.053 7.26.992 11.075.992 15.82h2zM5.855 5.795c1.856-2.232 4.482-3.389 8.02-3.389v-2c-4.024 0-7.258 1.344-9.558 4.111l1.538 1.278zm8.02-3.389c3.536 0 6.161 1.163 8.018 3.41l1.542-1.273c-2.3-2.784-5.533-4.137-9.56-4.137v2zm8.018 3.41c1.88 2.276 2.888 5.573 2.888 10.028h2c0-4.733-1.07-8.546-3.346-11.301l-1.542 1.274zm2.888 10.028v6.21h2v-6.21h-2zm-5.898-1.031c0-2.506-.321-4.533-1.078-5.955l-1.766.94c.524.985.844 2.614.844 5.014h2zm-1.076-5.95c-.391-.745-.924-1.35-1.613-1.763-.688-.414-1.474-.6-2.319-.6v2c.546 0 .963.118 1.29.315.327.195.623.504.872.978l1.77-.93zM13.875 6.5c-.82 0-1.584.17-2.257.552-.676.383-1.204.948-1.594 1.65l1.749.971c.235-.423.515-.702.832-.881.319-.181.73-.292 1.27-.292v-2zm-3.856 2.211c-.723 1.336-1.057 3.231-1.105 5.565l2 .041c.046-2.228.369-3.739.864-4.653l-1.759-.953zm-1.105 5.586v8.719h2v-8.72h-2zm0 8.719c0 2.59.319 4.663 1.08 6.076l1.761-.95c-.52-.962-.84-2.622-.84-5.126h-2zm1.084 6.08c.395.725.932 1.309 1.62 1.706.685.395 1.466.573 2.304.573v-2c-.553 0-.975-.115-1.305-.306-.328-.189-.62-.484-.865-.931l-1.754.959zm3.924 2.279c.816 0 1.578-.174 2.25-.56.674-.388 1.203-.957 1.598-1.661l-1.744-.98c-.244.436-.532.723-.85.906-.32.184-.726.295-1.254.295v2zm3.851-2.226c.765-1.381 1.094-3.393 1.11-5.893l-2-.012c-.015 2.406-.343 4.004-.86 4.935l1.75.97zm1.11-5.899v-8.438h-2v8.438h2zM47.39 36v1h1v-1h-1zm-7.922 0h-1v1h1v-1zm0-25.219h1V9.447l-1.28.374.28.96zm-7.782 2.274h-1v1.334l1.28-.374-.28-.96zm0-6l-.326-.945-.674.232v.713h1zm14.977-5.18v-1h-.168l-.159.055.327.945zm.727 0h1v-1h-1v1zm0 33.125h-7.922v2h7.922v-2zm-6.922 1V10.781h-2V36h2zm-1.28-26.179l-7.782 2.274.56 1.92 7.782-2.274-.56-1.92zm-6.502 3.234v-6h-2v6h2zM32.014 8l14.977-5.18-.654-1.89-14.976 5.18.653 1.89zm14.65-5.125h.727v-2h-.727v2zm-.273-1V36h2V1.875h-2z" fill="#2281E2"/></svg>