<svg width="55" height="38" viewBox="0 0 55 38" fill="none" xmlns="http://www.w3.org/2000/svg">
<path d="M22.6641 32.7188L21.895 32.0795L21.8927 32.0824L22.6641 32.7188ZM5.08594 5.15625L4.31692 4.51701L4.31456 4.51987L5.08594 5.15625ZM16.9219 9.32812L16.0367 9.79341L16.0392 9.79812L16.9219 9.32812ZM10.8984 9.1875L10.0242 8.70183L10.0191 8.71122L10.8984 9.1875ZM9.91406 14.2969L8.91427 14.2763L8.91406 14.2866V14.2969H9.91406ZM10.875 28.6172L9.99489 29.092L9.99755 29.0969L10.875 28.6172ZM16.8984 28.6641L17.7703 29.1538L17.7732 29.1487L16.8984 28.6641ZM17.8828 23.25L18.8828 23.2564V23.25H17.8828ZM24.7812 22.0547C24.7812 26.5265 23.7723 29.8212 21.8951 32.0795L23.4331 33.358C25.7121 30.6163 26.7812 26.8016 26.7812 22.0547H24.7812ZM21.8927 32.0824C20.052 34.3135 17.4429 35.4688 13.9219 35.4688V37.4688C17.9321 37.4688 21.1511 36.124 23.4354 33.3551L21.8927 32.0824ZM13.9219 35.4688C10.3688 35.4688 7.73634 34.3052 5.88034 32.0584L4.33841 33.3322C6.63866 36.1167 9.88116 37.4688 13.9219 37.4688V35.4688ZM5.88034 32.0584C4.00004 29.7823 2.99219 26.4928 2.99219 22.0547H0.992188C0.992188 26.7728 2.06246 30.5771 4.33841 33.3322L5.88034 32.0584ZM2.99219 22.0547V15.8203H0.992188V22.0547H2.99219ZM2.99219 15.8203C2.99219 11.3469 3.99405 8.05113 5.85731 5.79263L4.31456 4.51987C2.05283 7.26137 0.992188 11.075 0.992188 15.8203H2.99219ZM5.85495 5.79549C7.71105 3.56258 10.3369 2.40625 13.875 2.40625V0.40625C9.85057 0.40625 6.61707 1.74992 4.31693 4.51701L5.85495 5.79549ZM13.875 2.40625C17.4109 2.40625 20.0363 3.56881 21.8931 5.81657L23.435 4.54281C21.1356 1.75931 17.9016 0.40625 13.875 0.40625V2.40625ZM21.8931 5.81657C23.7729 8.09217 24.7812 11.389 24.7812 15.8438H26.7812C26.7812 11.111 25.7114 7.29845 23.435 4.54281L21.8931 5.81657ZM24.7812 15.8438V22.0547H26.7812V15.8438H24.7812ZM18.8828 14.8125C18.8828 12.3072 18.5616 10.2799 17.8045 8.85813L16.0392 9.79812C16.5634 10.7826 16.8828 12.4116 16.8828 14.8125H18.8828ZM17.807 8.86285C17.4155 8.11801 16.8832 7.51296 16.1942 7.09954C15.5057 6.68645 14.7196 6.5 13.875 6.5V8.5C14.421 8.5 14.838 8.61824 15.1652 8.81452C15.4918 9.01048 15.7876 9.31949 16.0367 9.7934L17.807 8.86285ZM13.875 6.5C13.0557 6.5 12.2911 6.67043 11.6181 7.05195C10.9424 7.43508 10.4143 7.99982 10.0243 8.70186L11.7726 9.67314C12.0076 9.25018 12.2881 8.97117 12.6045 8.7918C12.9237 8.61082 13.335 8.5 13.875 8.5V6.5ZM10.0191 8.71122C9.29561 10.047 8.96223 11.9423 8.91427 14.2763L10.9139 14.3174C10.9596 12.089 11.2825 10.578 11.7777 9.66378L10.0191 8.71122ZM8.91406 14.2969V23.0156H10.9141V14.2969H8.91406ZM8.91406 23.0156C8.91406 25.6055 9.2328 27.6793 9.9949 29.092L11.7551 28.1424C11.2359 27.1801 10.9141 25.5195 10.9141 23.0156H8.91406ZM9.99755 29.0969C10.3934 29.821 10.9295 30.4048 11.6175 30.8017C12.3033 31.1974 13.0839 31.375 13.9219 31.375V29.375C13.3692 29.375 12.9467 29.2596 12.6169 29.0694C12.2893 28.8803 11.9972 28.5853 11.7524 28.1375L9.99755 29.0969ZM13.9219 31.375C14.738 31.375 15.4999 31.2007 16.1722 30.8142C16.8458 30.427 17.3746 29.8583 17.7703 29.1538L16.0265 28.1744C15.7816 28.6105 15.494 28.8972 15.1755 29.0803C14.8556 29.2642 14.4495 29.375 13.9219 29.375V31.375ZM17.7732 29.1487C18.5381 27.768 18.8669 25.7563 18.8828 23.2564L16.8828 23.2436C16.8675 25.65 16.54 27.2476 16.0237 28.1794L17.7732 29.1487ZM18.8828 23.25V14.8125H16.8828V23.25H18.8828ZM53.6953 36V37H54.6953V36H53.6953ZM29.8828 36H28.8828V37H29.8828V36ZM29.8828 30.8438L29.1583 30.1545L28.8828 30.4441V30.8438H29.8828ZM40.8516 19.3125L41.5761 20.0017L41.5898 19.9873L41.603 19.9724L40.8516 19.3125ZM38.2266 9.02344L39.031 9.6175L39.0353 9.61161L38.2266 9.02344ZM37.1016 12.8438V13.8438H38.1016V12.8438H37.1016ZM29.1797 12.8438H28.1797V13.8438H29.1797V12.8438ZM30.75 7.05469L31.6102 7.5647L31.6121 7.56138L30.75 7.05469ZM49.8516 3.9375L49.2003 4.69634L49.2032 4.69885L49.8516 3.9375ZM52.1016 15.2109L53.0316 15.5784L53.0331 15.5745L52.1016 15.2109ZM49.7578 19.2188L48.9599 18.6159L48.9589 18.6173L49.7578 19.2188ZM44.6719 24.8203L43.9648 24.1132L43.9395 24.1385L43.9161 24.1655L44.6719 24.8203ZM40.2656 29.9062L39.5098 29.2515L38.0762 30.9062H40.2656V29.9062ZM53.6953 29.9062H54.6953V28.9062H53.6953V29.9062ZM53.6953 35H29.8828V37H53.6953V35ZM30.8828 36V30.8438H28.8828V36H30.8828ZM30.6074 31.533L41.5761 20.0017L40.127 18.6233L29.1583 30.1545L30.6074 31.533ZM41.603 19.9724C42.9822 18.4018 44.0452 16.9611 44.7678 15.6537C45.485 14.3561 45.9062 13.1195 45.9062 11.9766H43.9062C43.9062 12.6461 43.6517 13.5384 43.0174 14.6862C42.3884 15.8241 41.4241 17.1451 40.1002 18.6526L41.603 19.9724ZM45.9062 11.9766C45.9062 10.3805 45.5603 8.99685 44.7122 7.98328L43.1784 9.26672C43.6115 9.7844 43.9062 10.6351 43.9062 11.9766H45.9062ZM44.7122 7.98328C43.84 6.94081 42.5994 6.47656 41.1562 6.47656V8.47656C42.1506 8.47656 42.7694 8.77794 43.1784 9.26672L44.7122 7.98328ZM41.1562 6.47656C39.6114 6.47656 38.3428 7.16343 37.4178 8.43527L39.0353 9.61161C39.6103 8.82094 40.2949 8.47656 41.1562 8.47656V6.47656ZM37.4221 8.42939C36.52 9.65105 36.1016 11.1452 36.1016 12.8438H38.1016C38.1016 11.4798 38.4331 10.4271 39.031 9.61748L37.4221 8.42939ZM37.1016 11.8438H29.1797V13.8438H37.1016V11.8438ZM30.1797 12.8438C30.1797 10.9257 30.6567 9.17273 31.6102 7.5647L29.8898 6.54468C28.7495 8.46789 28.1797 10.5743 28.1797 12.8438H30.1797ZM31.6121 7.56138C32.5641 5.94161 33.8812 4.67877 35.583 3.76352L34.6357 2.0021C32.6188 3.08686 31.0297 4.60526 29.8879 6.548L31.6121 7.56138ZM35.583 3.76352C37.2842 2.84859 39.1973 2.38281 41.3438 2.38281V0.382812C38.8964 0.382812 36.6533 0.917037 34.6357 2.0021L35.583 3.76352ZM41.3438 2.38281C44.8893 2.38281 47.4593 3.20211 49.2003 4.69633L50.5028 3.17867C48.2751 1.26664 45.1732 0.382812 41.3438 0.382812V2.38281ZM49.2032 4.69885C50.9328 6.17166 51.8516 8.3105 51.8516 11.2734H53.8516C53.8516 7.86137 52.7704 5.10959 50.4999 3.17615L49.2032 4.69885ZM51.8516 11.2734C51.8516 12.4899 51.6259 13.6792 51.17 14.8474L53.0331 15.5745C53.5773 14.1801 53.8516 12.7445 53.8516 11.2734H51.8516ZM51.1715 14.8435C50.7128 16.0045 49.9831 17.2618 48.9599 18.6159L50.5557 19.8216C51.6576 18.3632 52.4903 16.9486 53.0316 15.5784L51.1715 14.8435ZM48.9589 18.6173C47.9549 19.9509 46.2993 21.7786 43.9648 24.1132L45.379 25.5274C47.7319 23.1745 49.4669 21.2678 50.5567 19.8202L48.9589 18.6173ZM43.9161 24.1655L39.5098 29.2515L41.0214 30.561L45.4277 25.4751L43.9161 24.1655ZM40.2656 30.9062H53.6953V28.9062H40.2656V30.9062ZM52.6953 29.9062V36H54.6953V29.9062H52.6953Z" fill="#2281E2"/>
</svg>
