<svg width="56" height="38" viewBox="0 0 56 38" fill="none" xmlns="http://www.w3.org/2000/svg">
<path d="M22.6641 32.7188L21.895 32.0795L21.8927 32.0824L22.6641 32.7188ZM5.08594 5.15625L4.31692 4.51701L4.31456 4.51987L5.08594 5.15625ZM16.9219 9.32812L16.0367 9.79341L16.0392 9.79812L16.9219 9.32812ZM10.8984 9.1875L10.0242 8.70183L10.0191 8.71122L10.8984 9.1875ZM9.91406 14.2969L8.91427 14.2763L8.91406 14.2866V14.2969H9.91406ZM10.875 28.6172L9.99489 29.092L9.99755 29.0969L10.875 28.6172ZM16.8984 28.6641L17.7703 29.1538L17.7732 29.1487L16.8984 28.6641ZM17.8828 23.25L18.8828 23.2564V23.25H17.8828ZM24.7812 22.0547C24.7812 26.5265 23.7723 29.8212 21.8951 32.0795L23.4331 33.358C25.7121 30.6163 26.7812 26.8016 26.7812 22.0547H24.7812ZM21.8927 32.0824C20.052 34.3135 17.4429 35.4688 13.9219 35.4688V37.4688C17.9321 37.4688 21.1511 36.124 23.4354 33.3551L21.8927 32.0824ZM13.9219 35.4688C10.3688 35.4688 7.73634 34.3052 5.88034 32.0584L4.33841 33.3322C6.63866 36.1167 9.88116 37.4688 13.9219 37.4688V35.4688ZM5.88034 32.0584C4.00004 29.7823 2.99219 26.4928 2.99219 22.0547H0.992188C0.992188 26.7728 2.06246 30.5771 4.33841 33.3322L5.88034 32.0584ZM2.99219 22.0547V15.8203H0.992188V22.0547H2.99219ZM2.99219 15.8203C2.99219 11.3469 3.99405 8.05113 5.85731 5.79263L4.31456 4.51987C2.05283 7.26137 0.992188 11.075 0.992188 15.8203H2.99219ZM5.85495 5.79549C7.71105 3.56258 10.3369 2.40625 13.875 2.40625V0.40625C9.85057 0.40625 6.61707 1.74992 4.31693 4.51701L5.85495 5.79549ZM13.875 2.40625C17.4109 2.40625 20.0363 3.56881 21.8931 5.81657L23.435 4.54281C21.1356 1.75931 17.9016 0.40625 13.875 0.40625V2.40625ZM21.8931 5.81657C23.7729 8.09217 24.7812 11.389 24.7812 15.8438H26.7812C26.7812 11.111 25.7114 7.29845 23.435 4.54281L21.8931 5.81657ZM24.7812 15.8438V22.0547H26.7812V15.8438H24.7812ZM18.8828 14.8125C18.8828 12.3072 18.5616 10.2799 17.8045 8.85813L16.0392 9.79812C16.5634 10.7826 16.8828 12.4116 16.8828 14.8125H18.8828ZM17.807 8.86285C17.4155 8.11801 16.8832 7.51296 16.1942 7.09954C15.5057 6.68645 14.7196 6.5 13.875 6.5V8.5C14.421 8.5 14.838 8.61824 15.1652 8.81452C15.4918 9.01048 15.7876 9.31949 16.0367 9.7934L17.807 8.86285ZM13.875 6.5C13.0557 6.5 12.2911 6.67043 11.6181 7.05195C10.9424 7.43508 10.4143 7.99982 10.0243 8.70186L11.7726 9.67314C12.0076 9.25018 12.2881 8.97117 12.6045 8.7918C12.9237 8.61082 13.335 8.5 13.875 8.5V6.5ZM10.0191 8.71122C9.29561 10.047 8.96223 11.9423 8.91427 14.2763L10.9139 14.3174C10.9596 12.089 11.2825 10.578 11.7777 9.66378L10.0191 8.71122ZM8.91406 14.2969V23.0156H10.9141V14.2969H8.91406ZM8.91406 23.0156C8.91406 25.6055 9.2328 27.6793 9.9949 29.092L11.7551 28.1424C11.2359 27.1801 10.9141 25.5195 10.9141 23.0156H8.91406ZM9.99755 29.0969C10.3934 29.821 10.9295 30.4048 11.6175 30.8017C12.3033 31.1974 13.0839 31.375 13.9219 31.375V29.375C13.3692 29.375 12.9467 29.2596 12.6169 29.0694C12.2893 28.8803 11.9972 28.5853 11.7524 28.1375L9.99755 29.0969ZM13.9219 31.375C14.738 31.375 15.4999 31.2007 16.1722 30.8142C16.8458 30.427 17.3746 29.8583 17.7703 29.1538L16.0265 28.1744C15.7816 28.6105 15.494 28.8972 15.1755 29.0803C14.8556 29.2642 14.4495 29.375 13.9219 29.375V31.375ZM17.7732 29.1487C18.5381 27.768 18.8669 25.7563 18.8828 23.2564L16.8828 23.2436C16.8675 25.65 16.54 27.2476 16.0237 28.1794L17.7732 29.1487ZM18.8828 23.25V14.8125H16.8828V23.25H18.8828ZM50.7422 22.6641H49.7422V23.6641H50.7422V22.6641ZM54.2109 22.6641H55.2109V21.6641H54.2109V22.6641ZM54.2109 28.7578V29.7578H55.2109V28.7578H54.2109ZM50.7422 28.7578V27.7578H49.7422V28.7578H50.7422ZM50.7422 36V37H51.7422V36H50.7422ZM42.8438 36H41.8438V37H42.8438V36ZM42.8438 28.7578H43.8438V27.7578H42.8438V28.7578ZM29.6484 28.7578L28.6531 28.8544L28.7408 29.7578H29.6484V28.7578ZM29.1797 23.9297L28.3304 23.4018L28.1517 23.6893L28.1844 24.0263L29.1797 23.9297ZM42.8438 1.94531L43.6931 2.47319L43.8438 2.23076V1.94531H42.8438ZM42.8438 1.875V0.875H41.8438V1.875H42.8438ZM50.7422 1.875H51.7422V0.875H50.7422V1.875ZM36.7031 22.6641L35.8389 22.161L34.9639 23.6641H36.7031V22.6641ZM42.8438 22.6641V23.6641H43.8438V22.6641H42.8438ZM42.8438 12.1641H43.8438V8.64204L41.993 11.6386L42.8438 12.1641ZM42.3516 12.9609L41.5008 12.4354L41.4939 12.4466L41.4873 12.4578L42.3516 12.9609ZM50.7422 23.6641H54.2109V21.6641H50.7422V23.6641ZM53.2109 22.6641V28.7578H55.2109V22.6641H53.2109ZM54.2109 27.7578H50.7422V29.7578H54.2109V27.7578ZM49.7422 28.7578V36H51.7422V28.7578H49.7422ZM50.7422 35H42.8438V37H50.7422V35ZM43.8438 36V28.7578H41.8438V36H43.8438ZM42.8438 27.7578H29.6484V29.7578H42.8438V27.7578ZM30.6438 28.6612L30.175 23.8331L28.1844 24.0263L28.6531 28.8544L30.6438 28.6612ZM30.029 24.4576L43.6931 2.47319L41.9944 1.41743L28.3304 23.4018L30.029 24.4576ZM43.8438 1.94531V1.875H41.8438V1.94531H43.8438ZM42.8438 2.875H50.7422V0.875H42.8438V2.875ZM49.7422 1.875V22.6641H51.7422V1.875H49.7422ZM36.7031 23.6641H42.8438V21.6641H36.7031V23.6641ZM43.8438 22.6641V12.1641H41.8438V22.6641H43.8438ZM41.993 11.6386L41.5008 12.4354L43.2024 13.4864L43.6945 12.6896L41.993 11.6386ZM41.4873 12.4578L35.8389 22.161L37.5674 23.1672L43.2158 13.464L41.4873 12.4578Z" fill="#2281E2"/>
</svg>
