<svg width="27" height="21" viewBox="0 0 27 21" fill="none" xmlns="http://www.w3.org/2000/svg">
<path d="M12.332 17.3594L11.563 16.7201L11.5607 16.723L12.332 17.3594ZM3.54297 3.57812L2.77395 2.93888L2.7716 2.94174L3.54297 3.57812ZM9.46094 5.66406L8.57576 6.12935L8.57827 6.13406L9.46094 5.66406ZM6.44922 5.59375L5.57501 5.10808L5.56993 5.11747L6.44922 5.59375ZM5.95703 8.14844L4.95724 8.12789L4.95703 8.13816V8.14844H5.95703ZM6.4375 15.3086L5.55739 15.7834L5.56005 15.7883L6.4375 15.3086ZM9.44922 15.332L10.3211 15.8217L10.3239 15.8167L9.44922 15.332ZM9.94141 12.625L10.9414 12.6314V12.625H9.94141ZM12.8906 12.0273C12.8906 14.1945 12.4012 15.7118 11.563 16.7201L13.101 17.9986C14.341 16.507 14.8906 14.4696 14.8906 12.0273H12.8906ZM11.5607 16.723C10.7512 17.7041 9.59919 18.2344 7.96094 18.2344V20.2344C10.0883 20.2344 11.8503 19.5146 13.1034 17.9958L11.5607 16.723ZM7.96094 18.2344C6.30634 18.2344 5.14259 17.6997 4.32565 16.7108L2.78373 17.9845C4.04491 19.5112 5.81866 20.2344 7.96094 20.2344V18.2344ZM4.32565 16.7108C3.48442 15.6924 2.99609 14.1764 2.99609 12.0273H0.996094C0.996094 14.4564 1.54683 16.4872 2.78373 17.9845L4.32565 16.7108ZM2.99609 12.0273V8.91016H0.996094V12.0273H2.99609ZM2.99609 8.91016C2.99609 6.74145 3.48233 5.22301 4.31434 4.21451L2.7716 2.94174C1.54111 4.43324 0.996094 6.46949 0.996094 8.91016H2.99609ZM4.31198 4.21736C5.12902 3.23445 6.29005 2.70312 7.9375 2.70312V0.703125C5.8037 0.703125 4.03504 1.4218 2.77396 2.93889L4.31198 4.21736ZM7.9375 2.70312C9.58276 2.70312 10.7433 3.23678 11.5611 4.22673L13.103 2.95296C11.8426 1.42728 10.0735 0.703125 7.9375 0.703125V2.70312ZM11.5611 4.22673C12.4019 5.24452 12.8906 6.76402 12.8906 8.92188H14.8906C14.8906 6.48598 14.3403 4.45079 13.103 2.95296L11.5611 4.22673ZM12.8906 8.92188V12.0273H14.8906V8.92188H12.8906ZM10.9414 8.40625C10.9414 7.12747 10.7803 6.01429 10.3436 5.19407L8.57827 6.13406C8.78215 6.51696 8.94141 7.23191 8.94141 8.40625H10.9414ZM10.3461 5.19878C10.1147 4.75863 9.78947 4.3821 9.35434 4.12102C8.91976 3.86028 8.43449 3.75 7.9375 3.75V5.75C8.13582 5.75 8.25211 5.79207 8.32535 5.83601C8.39803 5.87962 8.48682 5.96012 8.57577 6.12934L10.3461 5.19878ZM7.9375 3.75C7.458 3.75 6.98739 3.85012 6.56248 4.09101C6.13473 4.33351 5.80883 4.68732 5.57506 5.10811L7.32338 6.07939C7.40211 5.93768 7.4805 5.86961 7.54885 5.83086C7.62003 5.79051 7.73731 5.75 7.9375 5.75V3.75ZM5.56993 5.11747C5.15108 5.89072 4.98176 6.93447 4.95724 8.12789L6.95682 8.16898C6.97917 7.08115 7.13798 6.42178 7.32851 6.07003L5.56993 5.11747ZM4.95703 8.14844V12.5078H6.95703V8.14844H4.95703ZM4.95703 12.5078C4.95703 13.8242 5.11561 14.9645 5.5574 15.7834L7.3176 14.8338C7.11876 14.4652 6.95703 13.7383 6.95703 12.5078H4.95703ZM5.56005 15.7883C5.79575 16.2194 6.1248 16.5835 6.55887 16.834C6.99081 17.0832 7.47063 17.1875 7.96094 17.1875V15.1875C7.75593 15.1875 7.63419 15.1454 7.55832 15.1016C7.48457 15.059 7.39957 14.9837 7.31495 14.8289L5.56005 15.7883ZM7.96094 17.1875C8.44108 17.1875 8.91103 17.0845 9.33526 16.8406C9.76085 16.596 10.0856 16.2411 10.3211 15.8217L8.57732 14.8423C8.49255 14.9933 8.40907 15.0661 8.33857 15.1067C8.2667 15.148 8.15267 15.1875 7.96094 15.1875V17.1875ZM10.3239 15.8167C10.7686 15.0141 10.9333 13.9047 10.9414 12.6314L8.94143 12.6186C8.93391 13.7984 8.77046 14.4937 8.5745 14.8474L10.3239 15.8167ZM10.9414 12.625V8.40625H8.94141V12.625H10.9414ZM25.8953 19V20H26.8953V19H25.8953ZM21.9344 19H20.9344V20H21.9344V19ZM21.9344 6.39062H22.9344V5.05665L21.6539 5.43075L21.9344 6.39062ZM18.0438 7.52734H17.0438V8.86132L18.3242 8.48721L18.0438 7.52734ZM18.0438 4.52734L17.7169 3.58227L17.0438 3.81508V4.52734H18.0438ZM25.532 1.9375V0.9375H25.364L25.2052 0.992426L25.532 1.9375ZM25.8953 1.9375H26.8953V0.9375H25.8953V1.9375ZM25.8953 18H21.9344V20H25.8953V18ZM22.9344 19V6.39062H20.9344V19H22.9344ZM21.6539 5.43075L17.7633 6.56747L18.3242 8.48721L22.2148 7.3505L21.6539 5.43075ZM19.0438 7.52734V4.52734H17.0438V7.52734H19.0438ZM18.3706 5.47242L25.8589 2.88257L25.2052 0.992426L17.7169 3.58227L18.3706 5.47242ZM25.532 2.9375H25.8953V0.9375H25.532V2.9375ZM24.8953 1.9375V19H26.8953V1.9375H24.8953Z" fill="#B7C1CB"/>
</svg>
