<svg width="31" height="21" viewBox="0 0 31 21" fill="none" xmlns="http://www.w3.org/2000/svg">
<path d="M12.332 17.3594L11.563 16.7201L11.5607 16.723L12.332 17.3594ZM3.54297 3.57812L2.77395 2.93888L2.7716 2.94174L3.54297 3.57812ZM9.46094 5.66406L8.57576 6.12935L8.57827 6.13406L9.46094 5.66406ZM6.44922 5.59375L5.57501 5.10808L5.56993 5.11747L6.44922 5.59375ZM5.95703 8.14844L4.95724 8.12789L4.95703 8.13816V8.14844H5.95703ZM6.4375 15.3086L5.55739 15.7834L5.56005 15.7883L6.4375 15.3086ZM9.44922 15.332L10.3211 15.8217L10.3239 15.8167L9.44922 15.332ZM9.94141 12.625L10.9414 12.6314V12.625H9.94141ZM12.8906 12.0273C12.8906 14.1945 12.4012 15.7118 11.563 16.7201L13.101 17.9986C14.341 16.507 14.8906 14.4696 14.8906 12.0273H12.8906ZM11.5607 16.723C10.7512 17.7041 9.59919 18.2344 7.96094 18.2344V20.2344C10.0883 20.2344 11.8503 19.5146 13.1034 17.9958L11.5607 16.723ZM7.96094 18.2344C6.30634 18.2344 5.14259 17.6997 4.32565 16.7108L2.78373 17.9845C4.04491 19.5112 5.81866 20.2344 7.96094 20.2344V18.2344ZM4.32565 16.7108C3.48442 15.6924 2.99609 14.1764 2.99609 12.0273H0.996094C0.996094 14.4564 1.54683 16.4872 2.78373 17.9845L4.32565 16.7108ZM2.99609 12.0273V8.91016H0.996094V12.0273H2.99609ZM2.99609 8.91016C2.99609 6.74145 3.48233 5.22301 4.31434 4.21451L2.7716 2.94174C1.54111 4.43324 0.996094 6.46949 0.996094 8.91016H2.99609ZM4.31198 4.21736C5.12902 3.23445 6.29005 2.70312 7.9375 2.70312V0.703125C5.8037 0.703125 4.03504 1.4218 2.77396 2.93889L4.31198 4.21736ZM7.9375 2.70312C9.58276 2.70312 10.7433 3.23678 11.5611 4.22673L13.103 2.95296C11.8426 1.42728 10.0735 0.703125 7.9375 0.703125V2.70312ZM11.5611 4.22673C12.4019 5.24452 12.8906 6.76402 12.8906 8.92188H14.8906C14.8906 6.48598 14.3403 4.45079 13.103 2.95296L11.5611 4.22673ZM12.8906 8.92188V12.0273H14.8906V8.92188H12.8906ZM10.9414 8.40625C10.9414 7.12747 10.7803 6.01429 10.3436 5.19407L8.57827 6.13406C8.78215 6.51696 8.94141 7.23191 8.94141 8.40625H10.9414ZM10.3461 5.19878C10.1147 4.75863 9.78947 4.3821 9.35434 4.12102C8.91976 3.86028 8.43449 3.75 7.9375 3.75V5.75C8.13582 5.75 8.25211 5.79207 8.32535 5.83601C8.39803 5.87962 8.48682 5.96012 8.57577 6.12934L10.3461 5.19878ZM7.9375 3.75C7.458 3.75 6.98739 3.85012 6.56248 4.09101C6.13473 4.33351 5.80883 4.68732 5.57506 5.10811L7.32338 6.07939C7.40211 5.93768 7.4805 5.86961 7.54885 5.83086C7.62003 5.79051 7.73731 5.75 7.9375 5.75V3.75ZM5.56993 5.11747C5.15108 5.89072 4.98176 6.93447 4.95724 8.12789L6.95682 8.16898C6.97917 7.08115 7.13798 6.42178 7.32851 6.07003L5.56993 5.11747ZM4.95703 8.14844V12.5078H6.95703V8.14844H4.95703ZM4.95703 12.5078C4.95703 13.8242 5.11561 14.9645 5.5574 15.7834L7.3176 14.8338C7.11876 14.4652 6.95703 13.7383 6.95703 12.5078H4.95703ZM5.56005 15.7883C5.79575 16.2194 6.1248 16.5835 6.55887 16.834C6.99081 17.0832 7.47063 17.1875 7.96094 17.1875V15.1875C7.75593 15.1875 7.63419 15.1454 7.55832 15.1016C7.48457 15.059 7.39957 14.9837 7.31495 14.8289L5.56005 15.7883ZM7.96094 17.1875C8.44108 17.1875 8.91103 17.0845 9.33526 16.8406C9.76085 16.596 10.0856 16.2411 10.3211 15.8217L8.57732 14.8423C8.49255 14.9933 8.40907 15.0661 8.33857 15.1067C8.2667 15.148 8.15267 15.1875 7.96094 15.1875V17.1875ZM10.3239 15.8167C10.7686 15.0141 10.9333 13.9047 10.9414 12.6314L8.94143 12.6186C8.93391 13.7984 8.77046 14.4937 8.5745 14.8474L10.3239 15.8167ZM10.9414 12.625V8.40625H8.94141V12.625H10.9414ZM29.0477 19V20H30.0477V19H29.0477ZM17.1414 19H16.1414V20H17.1414V19ZM17.1414 16.4219L16.4168 15.7327L16.1414 16.0222V16.4219H17.1414ZM22.6258 10.6562L23.3503 11.3455L23.364 11.3311L23.3772 11.3161L22.6258 10.6562ZM21.3133 5.51172L22.1177 6.10578L22.122 6.09989L21.3133 5.51172ZM20.7508 7.42188V8.42188H21.7508V7.42188H20.7508ZM16.7898 7.42188H15.7898V8.42188H16.7898V7.42188ZM17.575 4.52734L18.4352 5.03736L18.4371 5.03403L17.575 4.52734ZM27.1258 2.96875L26.4745 3.72759L26.4774 3.7301L27.1258 2.96875ZM28.2508 8.60547L29.1808 8.9729L29.1824 8.96901L28.2508 8.60547ZM27.0789 10.6094L26.281 10.0065L26.28 10.0079L27.0789 10.6094ZM24.5359 13.4102L23.8288 12.703L23.8035 12.7283L23.7801 12.7554L24.5359 13.4102ZM22.3328 15.9531L21.577 15.2983L20.1434 16.9531H22.3328V15.9531ZM29.0477 15.9531H30.0477V14.9531H29.0477V15.9531ZM29.0477 18H17.1414V20H29.0477V18ZM18.1414 19V16.4219H16.1414V19H18.1414ZM17.866 17.1111L23.3503 11.3455L21.9012 9.96704L16.4168 15.7327L17.866 17.1111ZM23.3772 11.3161C24.0806 10.5151 24.6368 9.76477 25.0215 9.0687C25.4008 8.38246 25.6531 7.67814 25.6531 6.98828H23.6531C23.6531 7.20467 23.5676 7.5648 23.2711 8.10122C22.98 8.62781 22.5225 9.25837 21.8744 9.9964L23.3772 11.3161ZM25.6531 6.98828C25.6531 6.12663 25.4674 5.30154 24.9396 4.67078L23.4057 5.95422C23.5186 6.08908 23.6531 6.38119 23.6531 6.98828H25.6531ZM24.9396 4.67078C24.3876 4.01112 23.6119 3.73828 22.7781 3.73828V5.73828C23.1631 5.73828 23.3171 5.84825 23.4057 5.95422L24.9396 4.67078ZM22.7781 3.73828C21.8348 3.73828 21.0545 4.16734 20.5045 4.92355L22.122 6.09989C22.3221 5.82485 22.5183 5.73828 22.7781 5.73828V3.73828ZM20.5088 4.91768C19.9817 5.63152 19.7508 6.48898 19.7508 7.42188H21.7508C21.7508 6.82352 21.8949 6.40754 22.1177 6.10576L20.5088 4.91768ZM20.7508 6.42188H16.7898V8.42188H20.7508V6.42188ZM17.7898 7.42188C17.7898 6.5507 18.0052 5.76258 18.4352 5.03735L16.7148 4.01733C16.098 5.05774 15.7898 6.1993 15.7898 7.42188H17.7898ZM18.4371 5.03403C18.8657 4.30489 19.4562 3.73736 20.2283 3.32211L19.281 1.5607C18.1938 2.14545 17.3312 2.96854 16.7129 4.02065L18.4371 5.03403ZM20.2283 3.32211C20.9999 2.90718 21.8739 2.69141 22.8719 2.69141V0.691406C21.573 0.691406 20.3689 0.975631 19.281 1.5607L20.2283 3.32211ZM22.8719 2.69141C24.5737 2.69141 25.7257 3.08492 26.4745 3.72758L27.7771 2.20992C26.5415 1.14946 24.8575 0.691406 22.8719 0.691406V2.69141ZM26.4774 3.7301C27.207 4.35135 27.6258 5.26753 27.6258 6.63672H29.6258C29.6258 4.81841 29.0446 3.28928 27.7741 2.2074L26.4774 3.7301ZM27.6258 6.63672C27.6258 7.18126 27.5251 7.71439 27.3192 8.24193L29.1824 8.96901C29.4765 8.2153 29.6258 7.43593 29.6258 6.63672H27.6258ZM27.3207 8.23804C27.1121 8.76625 26.7729 9.35553 26.281 10.0065L27.8768 11.2122C28.4474 10.457 28.8895 9.71031 29.1808 8.9729L27.3207 8.23804ZM26.28 10.0079C25.7995 10.6462 24.9915 11.5404 23.8288 12.703L25.243 14.1173C26.4241 12.9362 27.3115 11.9631 27.8778 11.2108L26.28 10.0079ZM23.7801 12.7554L21.577 15.2983L23.0886 16.6079L25.2917 14.065L23.7801 12.7554ZM22.3328 16.9531H29.0477V14.9531H22.3328V16.9531ZM28.0477 15.9531V19H30.0477V15.9531H28.0477Z" fill="#B7C1CB"/>
</svg>
