<svg width="580" height="226" viewBox="0 0 580 226" fill="none" xmlns="http://www.w3.org/2000/svg">
<path d="M340.666 83.3619C340.666 90.5535 334.845 96.3829 327.658 96.3829C320.475 96.3829 314.65 90.5535 314.65 83.3619C314.65 76.1703 320.475 70.3444 327.658 70.3444C334.845 70.3444 340.666 76.1703 340.666 83.3619Z" fill="#E0E7ED"/>
<path d="M265.872 83.3619C265.872 90.5535 260.047 96.3829 252.864 96.3829C245.681 96.3829 239.856 90.5535 239.856 83.3619C239.856 76.1703 245.681 70.3444 252.864 70.3444C260.047 70.3444 265.872 76.1703 265.872 83.3619Z" fill="#E0E7ED"/>
<path d="M246.181 180.675C243.222 180.675 240.82 178.275 240.82 175.311C240.82 152.155 259.432 133.315 282.311 133.315H300.38C323.259 133.315 341.871 152.051 341.871 175.078C341.871 178.043 339.473 180.446 336.511 180.446C333.551 180.446 331.154 178.043 331.154 175.078C331.154 157.969 317.349 144.047 300.381 144.047H282.312C265.344 144.047 251.542 158.069 251.542 175.31C251.541 178.275 249.14 180.675 246.181 180.675Z" fill="#E0E7ED"/>
<path d="M290.431 226C228.181 226 177.538 175.307 177.538 112.998C177.538 50.693 228.181 0 290.431 0C352.678 0 403.321 50.693 403.321 112.998C403.321 175.307 352.678 226 290.431 226ZM290.431 10.7324C234.092 10.7324 188.259 56.6084 188.259 112.998C188.259 169.392 234.092 215.268 290.431 215.268C346.768 215.268 392.6 169.392 392.6 112.998C392.6 56.608 346.768 10.7324 290.431 10.7324Z" fill="#E0E7ED"/>
<path d="M141.861 138.2H164.682V178.32H141.861V226H89.8967V178.32H3.08393L0 146.533L89.8967 1.79462V1.3317H141.861V138.2ZM49.4971 138.2H89.8967V69.0717L86.6585 74.318L49.4971 138.2Z" fill="#E0E7ED"/>
<path d="M557.179 138.2H580V178.32H557.179V226H505.215V178.32H418.402L415.318 146.533L505.215 1.79462V1.3317H557.179V138.2ZM464.815 138.2H505.215V69.0717L501.976 74.318L464.815 138.2Z" fill="#E0E7ED"/>
</svg>
