<svg width="52" height="49" viewBox="0 0 52 49" fill="none" xmlns="http://www.w3.org/2000/svg"><path d="M39.844 7.305c.023.001.045.003.068.003a.75.75 0 00.117-.009 1.873 1.873 0 011.844 1.861c0 .46.378.834.843.834a.838.838 0 00.842-.834 3.544 3.544 0 00-2.803-3.448V4.91a.838.838 0 00-.843-.834.838.838 0 00-.842.834v.839a3.53 3.53 0 00-2.615 3.87c.233 1.757 1.746 3.07 3.536 3.07 1.04 0 1.882.835 1.882 1.864a1.873 1.873 0 01-1.882 1.862 1.873 1.873 0 01-1.882-1.863.838.838 0 00-.842-.833.838.838 0 00-.843.833 3.543 3.543 0 002.646 3.41v.915c0 .46.377.833.842.833a.838.838 0 00.843-.833v-.876c1.779-.386 2.979-2.036 2.783-3.828-.196-1.793-1.725-3.15-3.547-3.15-1.01 0-1.84-.79-1.88-1.79a1.87 1.87 0 011.733-1.929z" fill="#8AD377"/><path d="M40.04 0c-5.183 0-9.606 3.347-11.263 7.83H7.867c-.464 0-.84.412-.843.87l-.199 29.252H.865c-.466 0-.865.333-.865.794v3.712c.01 3.495 2.792 6.366 6.319 6.524V49H32.33v-.024c.21.007.297.024.43.024h.019c3.65-.006 6.607-2.936 6.607-6.55V23.684c.21.011.433.017.651.017C46.633 23.7 52 18.378 52 11.85S46.635 0 40.04 0zM6.633 47.332c-2.726-.003-4.937-2.184-4.949-4.882v-2.83h24.432v2.818a6.508 6.508 0 001.95 4.635c.089.087.199.155.291.26H6.634zM37.7 42.45c0 2.693-2.203 4.877-4.923 4.882h-.016c-2.731-.005-4.947-2.19-4.96-4.893v-3.693a.766.766 0 00-.228-.57.783.783 0 00-.576-.224H8.51l.193-28.455H28.31c-.15.763-.227 1.538-.23 2.316a11.656 11.656 0 001.016 4.771h-7.957a.838.838 0 00-.843.834c0 .46.377.834.843.834h8.871a11.891 11.891 0 007.692 5.222V42.45zm2.338-20.417c-5.675 0-10.276-4.554-10.275-10.171 0-5.618 4.6-10.171 10.276-10.171 5.675 0 10.276 4.554 10.276 10.17-.006 5.616-4.603 10.166-10.277 10.172z" fill="#8AD377"/><path d="M15.73 22.134c-1.487 0-2.697 1.159-2.697 2.584s1.21 2.584 2.697 2.584 2.697-1.159 2.697-2.584-1.21-2.584-2.697-2.584zm0 3.5c-.558 0-1.012-.41-1.012-.916s.454-.916 1.012-.916 1.012.41 1.012.916c0 .505-.454.916-1.012.916zm4.565-.92c0 .46.377.834.843.834H32.37a.838.838 0 00.842-.834.838.838 0 00-.842-.833H21.138a.838.838 0 00-.843.833zm-4.565-9.829c-1.487 0-2.697 1.16-2.697 2.585s1.21 2.584 2.697 2.584 2.697-1.159 2.697-2.584-1.21-2.585-2.697-2.585zm0 3.502c-.558 0-1.012-.412-1.012-.917 0-.505.454-.917 1.012-.917s1.012.411 1.012.917c0 .505-.454.917-1.012.917zm0 10.994c-1.487 0-2.697 1.16-2.697 2.585s1.21 2.584 2.697 2.584 2.697-1.16 2.697-2.584c0-1.425-1.21-2.585-2.697-2.585zm0 3.501c-.558 0-1.012-.41-1.012-.916s.454-.917 1.012-.917 1.012.411 1.012.917c0 .505-.454.916-1.012.916zm16.64-1.705H21.138a.838.838 0 00-.843.834c0 .46.377.833.843.833H32.37a.838.838 0 00.842-.834.838.838 0 00-.842-.833z" fill="#8AD377"/></svg>