<svg width="49" height="49" viewBox="0 0 49 49" fill="none" xmlns="http://www.w3.org/2000/svg"><path d="M26.61 31.362l-2.9-2.293a1.064 1.064 0 10-1.319 1.669l.11.087a6.655 6.655 0 01-2.706-11.055 1.064 1.064 0 00-1.504-1.503 8.775 8.775 0 004.762 14.862l-.663.524a1.063 1.063 0 101.319 1.669l2.9-2.293a1.063 1.063 0 000-1.669v.002z" fill="#8AD377"/><path d="M24.5 10.17A14.33 14.33 0 1038.83 24.5 14.347 14.347 0 0024.5 10.17zm0 26.533A12.204 12.204 0 1136.703 24.5 12.218 12.218 0 0124.5 36.703z" fill="#8AD377"/><path d="M47.936 20.232h-4.215a19.414 19.414 0 00-2.613-6.304l2.982-2.98a1.063 1.063 0 000-1.503l-4.533-4.533a1.063 1.063 0 00-1.503 0L35.073 7.89a19.407 19.407 0 00-6.304-2.612V1.063A1.06 1.06 0 0027.706 0h-6.411a1.063 1.063 0 00-1.064 1.063v4.215a19.408 19.408 0 00-6.303 2.613l-2.98-2.982a1.063 1.063 0 00-1.503 0L4.912 9.442a1.063 1.063 0 000 1.504l2.978 2.98a19.415 19.415 0 00-2.612 6.304H1.063A1.06 1.06 0 000 21.294v6.41a1.062 1.062 0 001.063 1.064h4.215a19.416 19.416 0 002.613 6.304L4.91 38.054a1.063 1.063 0 000 1.503l4.533 4.533a1.063 1.063 0 001.503 0l2.98-2.981a19.408 19.408 0 006.304 2.613v4.215A1.06 1.06 0 0021.294 49h6.41a1.062 1.062 0 001.064-1.063V43.72a19.407 19.407 0 006.304-2.613l2.982 2.982a1.063 1.063 0 001.503 0l4.533-4.533a1.063 1.063 0 000-1.504l-2.981-2.98a19.416 19.416 0 002.613-6.304h4.215A1.06 1.06 0 0049 27.706v-6.411a1.064 1.064 0 00-1.064-1.064zm-1.063 6.41h-4.027a1.064 1.064 0 00-1.047.881 17.336 17.336 0 01-2.93 7.07 1.064 1.064 0 00.118 1.365l2.847 2.847-3.029 3.03-2.848-2.848a1.064 1.064 0 00-1.364-.118 17.346 17.346 0 01-7.07 2.93 1.064 1.064 0 00-.882 1.048v4.026h-4.283v-4.026a1.063 1.063 0 00-.882-1.048 17.346 17.346 0 01-7.07-2.93 1.063 1.063 0 00-1.364.118l-2.848 2.847-3.03-3.029 2.848-2.847a1.064 1.064 0 00.118-1.364 17.337 17.337 0 01-2.93-7.07 1.064 1.064 0 00-1.047-.883H2.127v-4.283h4.026a1.064 1.064 0 001.048-.882 17.337 17.337 0 012.93-7.07 1.064 1.064 0 00-.119-1.364l-2.847-2.848 3.03-3.03 2.847 2.848a1.063 1.063 0 001.364.118 17.346 17.346 0 017.07-2.93 1.064 1.064 0 00.882-1.047V2.127h4.283v4.026a1.064 1.064 0 00.882 1.047 17.352 17.352 0 017.07 2.93 1.063 1.063 0 001.364-.118l2.848-2.847 3.03 3.03-2.848 2.847a1.064 1.064 0 00-.118 1.364 17.336 17.336 0 012.93 7.07 1.064 1.064 0 001.047.882h4.027v4.283z" fill="#8AD377"/><path d="M25.946 15.847l.663-.525a1.064 1.064 0 10-1.318-1.668l-2.901 2.292a1.062 1.062 0 000 1.669l2.9 2.293a1.064 1.064 0 101.318-1.669l-.11-.087a6.654 6.654 0 012.707 11.054 1.064 1.064 0 001.505 1.504 8.776 8.776 0 00-4.764-14.863z" fill="#8AD377"/></svg>