<svg width="44" height="52" viewBox="0 0 44 52" fill="none" xmlns="http://www.w3.org/2000/svg"><path d="M43.596 37.076l-24.2-19.5a1.111 1.111 0 00-1.166-.139c-.386.18-.63.561-.63.98v32.5A1.09 1.09 0 0018.7 52c.361 0 .707-.175.916-.483L28.09 39H42.9c.465 0 .879-.288 1.035-.722a1.068 1.068 0 00-.339-1.202zm-16.095-.243c-.368 0-.711.18-.916.481L19.8 47.337V20.702l20.02 16.131H27.5zM18.7 0c-.607 0-1.1.485-1.1 1.083V9.75c0 .598.493 1.083 1.1 1.083.608 0 1.1-.485 1.1-1.083V1.083C19.8.485 19.308 0 18.7 0zM9.9 17.333H1.1c-.607 0-1.1.486-1.1 1.084 0 .598.493 1.083 1.1 1.083h8.8c.607 0 1.1-.485 1.1-1.083s-.493-1.084-1.1-1.084zm26.4 0h-8.8c-.607 0-1.1.486-1.1 1.084 0 .598.493 1.083 1.1 1.083h8.8c.608 0 1.1-.485 1.1-1.083s-.492-1.084-1.1-1.084zm-23.045-5.811L7.031 5.395a1.113 1.113 0 00-1.555 0 1.073 1.073 0 000 1.532l6.224 6.127a1.114 1.114 0 001.555 0 1.073 1.073 0 000-1.532zm0 12.259a1.113 1.113 0 00-1.555 0L5.476 29.91a1.072 1.072 0 000 1.532 1.114 1.114 0 001.555-.003l6.224-6.125a1.073 1.073 0 000-1.532zM31.922 5.395a1.113 1.113 0 00-1.555 0l-6.224 6.127a1.073 1.073 0 000 1.532 1.114 1.114 0 001.556 0l6.223-6.127a1.07 1.07 0 000-1.532z" fill="#8AD377"/></svg>