<svg width="38" height="49" viewBox="0 0 38 49" fill="none" xmlns="http://www.w3.org/2000/svg"><path d="M28.566 3.717L11.529 20.62a1.06 1.06 0 00-.28.486l-1.463 5.587c-.095.366.011.755.28 1.022a1.079 1.079 0 001.03.278l5.632-1.451c.185-.048.354-.144.49-.278L34.253 9.361l.001-.002 3.43-3.403a1.06 1.06 0 000-1.507L33.516.312a1.078 1.078 0 00-1.519 0l-3.43 3.403-.001.002zM15.905 24.552l-3.58.922.93-3.552L29.326 5.977l2.65 2.63-16.071 15.945zM32.757 2.573l2.65 2.63-1.912 1.896-2.65-2.63 1.912-1.896z" fill="#8AD377"/><path d="M36.926 11.55a1.07 1.07 0 00-1.075 1.066v34.252H2.15V6.114h19.885a1.07 1.07 0 001.074-1.066 1.07 1.07 0 00-1.074-1.066H1.074A1.07 1.07 0 000 5.048v42.886A1.07 1.07 0 001.074 49h35.852A1.07 1.07 0 0038 47.934V12.617a1.07 1.07 0 00-1.074-1.066z" fill="#8AD377"/></svg>