<svg width="41" height="54" viewBox="0 0 41 54" fill="none" xmlns="http://www.w3.org/2000/svg"><path d="M30.82 4.096L12.44 22.724c-.146.148-.25.333-.303.535l-1.577 6.158c-.103.403.012.831.302 1.126a1.152 1.152 0 001.11.306l6.077-1.599c.2-.052.383-.158.528-.306l18.382-18.628.002-.002 3.7-3.75a1.185 1.185 0 000-1.66L36.162.343a1.15 1.15 0 00-1.639 0l-3.7 3.75h-.001l-.001.002zm-13.66 22.96l-3.862 1.017 1.003-3.914 17.34-17.572 2.86 2.897-17.34 17.573zm18.183-24.22l2.859 2.897-2.062 2.09-2.86-2.897 2.063-2.09z" fill="#2281E2"/><path d="M39.84 12.73c-.64 0-1.158.525-1.158 1.174V51.65H2.318V6.738h21.455c.64 0 1.16-.526 1.16-1.175 0-.648-.52-1.174-1.16-1.174H1.16C.52 4.389 0 4.915 0 5.563v47.262C0 53.474.52 54 1.16 54h38.68c.64 0 1.16-.526 1.16-1.175V13.904c0-.649-.519-1.175-1.16-1.175z" fill="#2281E2"/></svg>