<svg width="52" height="52" viewBox="0 0 52 52" fill="none" xmlns="http://www.w3.org/2000/svg"><path d="M51.68 3.113H26.937V.16h-2.205v2.953H0v39.013h16.316l-5.421 8.47 1.835 1.254 6.223-9.713H32.78l6.222 9.703 1.835-1.255-5.42-8.459H51.68V3.113zM49.59 39.86H2.204V5.265h47.387v34.594z" fill="#2281E2"/><path d="M23.636 19.777l3.744 10.78L40.996 18.1l-.75 9.398 2.09.221 1.096-13.268-12.203-1.139-.221 2.162 8.617.865-11.37 10.357-3.733-10.652L8.69 29.987l1.423 1.708 13.521-11.918z" fill="#2281E2"/></svg>