<svg width="58" height="49" viewBox="0 0 58 49" fill="none" xmlns="http://www.w3.org/2000/svg"><path d="M37.025 7.586V0h-16.05v7.586H0V49h58V7.586H37.025zM23.45 2.362h11.233V13.55H23.449V2.362zM2.474 46.638V10.08h18.512v5.964h16.04V10.08h18.512v36.56H2.474z" fill="#2281E2"/><path d="M17.518 30.595c2.96 0 5.433-2.493 5.552-5.594 0-3.113-2.474-5.594-5.552-5.594-3.077 0-5.551 2.493-5.551 5.594 0 3.101 2.474 5.594 5.551 5.594zm0-8.707c1.729 0 3.09 1.371 3.09 3.113 0 1.741-1.361 3.113-3.09 3.113-1.728 0-3.089-1.372-3.089-3.113 0-1.742 1.361-3.113 3.09-3.113zM17.4 32.206c-6.167 0-11.103 5.093-11.103 11.188H8.76c0-4.855 3.823-8.707 8.641-8.707s8.64 3.852 8.64 8.707h2.475c-.012-6.083-4.948-11.188-11.115-11.188zm32.575-4.724H34.918v2.493h15.057v-2.493zm0 8.338H34.918v2.493h15.057V35.82z" fill="#2281E2"/></svg>