<svg width="41" height="41" viewBox="0 0 41 41" fill="none" xmlns="http://www.w3.org/2000/svg"><path d="M39.251 0v6.652H27.135c-.41-2.368-2.393-4.1-4.719-4.1-2.393 0-4.31 1.79-4.72 4.1h-3.639c-.393-2.368-2.318-4.1-4.719-4.1-2.393 0-4.31 1.79-4.72 4.1h-2.87V0H0v41h1.749v-6.652h2.87c.41 2.368 2.393 4.1 4.719 4.1 2.393 0 4.31-1.79 4.72-4.1H16.4c.41 2.368 2.393 4.1 4.72 4.1 2.317 0 4.225-1.79 4.693-4.1h13.455V41H41V0h-1.749zM22.416 4.468c1.749 0 3.054 1.364 3.054 3.188 0 1.732-1.397 3.188-3.054 3.188-1.657 0-3.054-1.456-3.054-3.188 0-1.732 1.397-3.188 3.054-3.188zm-13.078 0c1.749 0 3.054 1.364 3.054 3.188 0 1.732-1.397 3.188-3.054 3.188-1.657 0-3.054-1.456-3.054-3.188 0-1.732 1.389-3.188 3.054-3.188zm-4.72 4.008c.41 2.368 2.394 4.1 4.72 4.1 2.401 0 4.326-1.732 4.72-4.1h3.647c.41 2.368 2.393 4.1 4.72 4.1 2.4 0 4.325-1.732 4.719-4.1H39.26v11.112h-2.352c-.41-2.368-2.393-4.1-4.719-4.1-2.401 0-4.326 1.732-4.719 4.1h-5.564c-.394-2.368-2.318-4.1-4.72-4.1-2.4 0-4.325 1.732-4.719 4.1H1.75V8.476h2.87zM35.244 20.5c0 1.732-1.397 3.188-3.054 3.188-1.657 0-3.054-1.456-3.054-3.188 0-1.732 1.397-3.188 3.054-3.188 1.749 0 3.054 1.456 3.054 3.188zm-15.002 0c0 1.732-1.398 3.188-3.055 3.188-1.656 0-3.054-1.456-3.054-3.188 0-1.732 1.398-3.188 3.054-3.188 1.657 0 3.055 1.456 3.055 3.188zM9.338 36.624c-1.657 0-3.054-1.456-3.054-3.188 0-1.732 1.397-3.188 3.054-3.188 1.749 0 3.054 1.456 3.054 3.188-.008 1.732-1.397 3.188-3.054 3.188zm11.773 0c-1.657 0-3.054-1.456-3.054-3.188 0-1.732 1.397-3.188 3.054-3.188 1.656 0 3.054 1.456 3.054 3.188 0 1.732-1.398 3.188-3.054 3.188zm4.719-4.1c-.393-2.368-2.318-4.1-4.72-4.1-2.392 0-4.308 1.79-4.718 4.1h-2.335c-.393-2.368-2.318-4.1-4.719-4.1-2.393 0-4.31 1.79-4.72 4.1h-2.87V21.412h10.72c.41 2.368 2.392 4.1 4.718 4.1 2.327 0 4.31-1.732 4.72-4.1h5.564c.41 2.368 2.393 4.1 4.72 4.1 2.325 0 4.308-1.732 4.718-4.1h2.352v11.112H25.83z" fill="#2281E2"/></svg>