<svg width="37" height="42" viewBox="0 0 37 42" fill="none" xmlns="http://www.w3.org/2000/svg"><path d="M32.904 5.988C25.471 5.988 18.491 0 18.491 0s-6.98 5.902-14.413 5.902C1.664 5.902 0 5.455 0 5.455v11.71c0 4.647 1.447 9.209 4.261 13.134 2.815 3.84 7.433 9.03 13.873 11.615L18.5 42l.366-.18c6.344-2.5 11.058-7.69 13.873-11.615C35.554 26.365 37 21.803 37 17.07V5.54c-.017 0-2.048.447-4.096.447zm.183 1.787c.82 0 1.543-.086 2.266-.18v9.475c0 1.056-.078 2.096-.235 3.127H19.31V2.869c2.37 1.71 7.712 4.906 13.777 4.906zm-31.274-.18c.723.085 1.446.085 2.265.18 5.917 0 11.032-2.964 13.507-4.708v17.13H2.048a20.732 20.732 0 01-.235-3.127V7.594zm3.99 21.63a20.473 20.473 0 01-3.424-7.327h15.206V39.68c-5.307-2.526-9.307-7.002-11.781-10.455zm25.559 0c-2.518 3.514-6.614 8.084-12.06 10.584V21.898h15.485a20.327 20.327 0 01-3.425 7.328z" fill="#2281E2"/></svg>