<svg width="45" height="45" viewBox="0 0 45 45" fill="none" xmlns="http://www.w3.org/2000/svg"><path d="M31.415 7.08V3.638A3.634 3.634 0 0027.777 0H17.425a3.634 3.634 0 00-3.638 3.637V7.08H0v12.737s1.093.267 1.626.386V45h41.941V20.149c.413-.092 1.433-.33 1.433-.33V7.08H31.415zM15.606 3.638c0-1.056.864-1.819 1.819-1.819h10.343c1.056 0 1.819.864 1.819 1.819V7.08h-13.98V3.637zM2.012 9h40.986v9.386c-2.223.532-9.177 1.983-15.23 2.645v-2.452H17.526v2.488c-6.384-.716-13.319-2.222-15.514-2.681V9zm23.744 11.397v6.125h-6.42v-6.125h6.42zM41.758 43.08H3.453V20.608c3.233.707 8.882 1.828 14.081 2.314v5.51h10.242V22.85c5.061-.579 10.793-1.68 13.98-2.333v22.565z" fill="#2281E2"/></svg>