<svg width="31" height="21" viewBox="0 0 31 21" fill="none" xmlns="http://www.w3.org/2000/svg">
<path d="M12.332 17.3594L11.563 16.7201L11.5607 16.723L12.332 17.3594ZM3.54297 3.57812L2.77395 2.93888L2.7716 2.94174L3.54297 3.57812ZM9.46094 5.66406L8.57576 6.12935L8.57827 6.13406L9.46094 5.66406ZM6.44922 5.59375L5.57501 5.10808L5.56993 5.11747L6.44922 5.59375ZM5.95703 8.14844L4.95724 8.12789L4.95703 8.13816V8.14844H5.95703ZM6.4375 15.3086L5.55739 15.7834L5.56005 15.7883L6.4375 15.3086ZM9.44922 15.332L10.3211 15.8217L10.3239 15.8167L9.44922 15.332ZM9.94141 12.625L10.9414 12.6314V12.625H9.94141ZM12.8906 12.0273C12.8906 14.1945 12.4012 15.7118 11.563 16.7201L13.101 17.9986C14.341 16.507 14.8906 14.4696 14.8906 12.0273H12.8906ZM11.5607 16.723C10.7512 17.7041 9.59919 18.2344 7.96094 18.2344V20.2344C10.0883 20.2344 11.8503 19.5146 13.1034 17.9958L11.5607 16.723ZM7.96094 18.2344C6.30634 18.2344 5.14259 17.6997 4.32565 16.7108L2.78373 17.9845C4.04491 19.5112 5.81866 20.2344 7.96094 20.2344V18.2344ZM4.32565 16.7108C3.48442 15.6924 2.99609 14.1764 2.99609 12.0273H0.996094C0.996094 14.4564 1.54683 16.4872 2.78373 17.9845L4.32565 16.7108ZM2.99609 12.0273V8.91016H0.996094V12.0273H2.99609ZM2.99609 8.91016C2.99609 6.74145 3.48233 5.22301 4.31434 4.21451L2.7716 2.94174C1.54111 4.43324 0.996094 6.46949 0.996094 8.91016H2.99609ZM4.31198 4.21736C5.12902 3.23445 6.29005 2.70312 7.9375 2.70312V0.703125C5.8037 0.703125 4.03504 1.4218 2.77396 2.93889L4.31198 4.21736ZM7.9375 2.70312C9.58276 2.70312 10.7433 3.23678 11.5611 4.22673L13.103 2.95296C11.8426 1.42728 10.0735 0.703125 7.9375 0.703125V2.70312ZM11.5611 4.22673C12.4019 5.24452 12.8906 6.76402 12.8906 8.92188H14.8906C14.8906 6.48598 14.3403 4.45079 13.103 2.95296L11.5611 4.22673ZM12.8906 8.92188V12.0273H14.8906V8.92188H12.8906ZM10.9414 8.40625C10.9414 7.12747 10.7803 6.01429 10.3436 5.19407L8.57827 6.13406C8.78215 6.51696 8.94141 7.23191 8.94141 8.40625H10.9414ZM10.3461 5.19878C10.1147 4.75863 9.78947 4.3821 9.35434 4.12102C8.91976 3.86028 8.43449 3.75 7.9375 3.75V5.75C8.13582 5.75 8.25211 5.79207 8.32535 5.83601C8.39803 5.87962 8.48682 5.96012 8.57577 6.12934L10.3461 5.19878ZM7.9375 3.75C7.458 3.75 6.98739 3.85012 6.56248 4.09101C6.13473 4.33351 5.80883 4.68732 5.57506 5.10811L7.32338 6.07939C7.40211 5.93768 7.4805 5.86961 7.54885 5.83086C7.62003 5.79051 7.73731 5.75 7.9375 5.75V3.75ZM5.56993 5.11747C5.15108 5.89072 4.98176 6.93447 4.95724 8.12789L6.95682 8.16898C6.97917 7.08115 7.13798 6.42178 7.32851 6.07003L5.56993 5.11747ZM4.95703 8.14844V12.5078H6.95703V8.14844H4.95703ZM4.95703 12.5078C4.95703 13.8242 5.11561 14.9645 5.5574 15.7834L7.3176 14.8338C7.11876 14.4652 6.95703 13.7383 6.95703 12.5078H4.95703ZM5.56005 15.7883C5.79575 16.2194 6.1248 16.5835 6.55887 16.834C6.99081 17.0832 7.47063 17.1875 7.96094 17.1875V15.1875C7.75593 15.1875 7.63419 15.1454 7.55832 15.1016C7.48457 15.059 7.39957 14.9837 7.31495 14.8289L5.56005 15.7883ZM7.96094 17.1875C8.44108 17.1875 8.91103 17.0845 9.33526 16.8406C9.76085 16.596 10.0856 16.2411 10.3211 15.8217L8.57732 14.8423C8.49255 14.9933 8.40907 15.0661 8.33857 15.1067C8.2667 15.148 8.15267 15.1875 7.96094 15.1875V17.1875ZM10.3239 15.8167C10.7686 15.0141 10.9333 13.9047 10.9414 12.6314L8.94143 12.6186C8.93391 13.7984 8.77046 14.4937 8.5745 14.8474L10.3239 15.8167ZM10.9414 12.625V8.40625H8.94141V12.625H10.9414ZM20.7508 8.81641V7.81641H19.7508V8.81641H20.7508ZM24.3016 5.27734L23.5867 5.97668L23.5945 5.98445L24.3016 5.27734ZM21.4422 5.19531L20.8271 4.40677L20.8194 4.41289L21.4422 5.19531ZM20.868 6.33203V7.33203H21.868V6.33203H20.868ZM16.9187 6.33203H15.9187V7.33203H16.9187V6.33203ZM19.743 2.28906L20.1476 3.20355L20.1513 3.20188L19.743 2.28906ZM28.0984 8.65234L27.2755 8.08415L27.2741 8.08624L28.0984 8.65234ZM26.1414 10.2344L25.714 9.3303L23.5424 10.3569L25.801 11.1746L26.1414 10.2344ZM28.2742 11.7344L27.4809 12.3432L27.4844 12.3477L28.2742 11.7344ZM19.5555 18.6016L19.1445 19.5132L19.1535 19.5172L19.5555 18.6016ZM17.3875 16.832L16.5488 17.3767L16.5515 17.3807L17.3875 16.832ZM16.6492 14.2539V13.2539H15.6492V14.2539H16.6492ZM20.6219 14.2539H21.6219V13.2539H20.6219V14.2539ZM24.4773 15.6133L25.1562 16.3476L25.1636 16.3407L24.4773 15.6133ZM20.7508 11.7578H19.7508V12.7578H20.7508V11.7578ZM20.7508 9.81641H22.6141V7.81641H20.7508V9.81641ZM22.6141 9.81641C23.5012 9.81641 24.3512 9.59934 24.9747 8.98904C25.6021 8.37488 25.8289 7.53073 25.8289 6.64844H23.8289C23.8289 7.21146 23.6865 7.4513 23.5757 7.55979C23.4609 7.67215 23.2035 7.81641 22.6141 7.81641V9.81641ZM25.8289 6.64844C25.8289 5.85869 25.573 5.13458 25.0087 4.57024L23.5945 5.98445C23.7332 6.12323 23.8289 6.31319 23.8289 6.64844H25.8289ZM25.0164 4.57805C24.4285 3.97713 23.6452 3.73828 22.8133 3.73828V5.73828C23.2626 5.73828 23.4715 5.8588 23.5867 5.97664L25.0164 4.57805ZM22.8133 3.73828C22.0805 3.73828 21.4039 3.95697 20.8272 4.40681L22.0572 5.98381C22.2618 5.82428 22.4992 5.73828 22.8133 5.73828V3.73828ZM20.8194 4.41289C20.2201 4.88993 19.868 5.54741 19.868 6.33203H21.868C21.868 6.21041 21.8987 6.11007 22.0649 5.97774L20.8194 4.41289ZM20.868 5.33203H16.9187V7.33203H20.868V5.33203ZM17.9188 6.33203C17.9188 5.63216 18.1093 5.03577 18.4837 4.50921L16.8538 3.35016C16.2282 4.22986 15.9187 5.23503 15.9187 6.33203H17.9188ZM18.4837 4.50921C18.8675 3.96947 19.4092 3.53029 20.1476 3.20354L19.3383 1.37458C18.3112 1.82909 17.47 2.48366 16.8538 3.35016L18.4837 4.50921ZM20.1513 3.20188C20.9024 2.86587 21.7382 2.69141 22.6727 2.69141V0.691406C21.4821 0.691406 20.3648 0.915379 19.3346 1.37624L20.1513 3.20188ZM22.6727 2.69141C24.4267 2.69141 25.6716 3.09194 26.5252 3.7736L27.7732 2.21077C26.455 1.15806 24.7155 0.691406 22.6727 0.691406V2.69141ZM26.5252 3.7736C27.3499 4.4322 27.7781 5.32335 27.7781 6.56641H29.7781C29.7781 4.77821 29.1204 3.28655 27.7732 2.21077L26.5252 3.7736ZM27.7781 6.56641C27.7781 7.08024 27.6237 7.57987 27.2755 8.08415L28.9213 9.22053C29.4794 8.41231 29.7781 7.52133 29.7781 6.56641H27.7781ZM27.2741 8.08624C26.9479 8.56127 26.4468 8.98388 25.714 9.3303L26.5688 11.1384C27.5547 10.6724 28.3584 10.0403 28.9228 9.21845L27.2741 8.08624ZM25.801 11.1746C26.5532 11.447 27.097 11.8429 27.4809 12.3432L29.0675 11.1256C28.4202 10.2821 27.5422 9.67801 26.4818 9.29411L25.801 11.1746ZM27.4844 12.3477C27.8414 12.8075 28.0477 13.4053 28.0477 14.207H30.0477C30.0477 13.04 29.7383 11.9894 29.0641 11.1211L27.4844 12.3477ZM28.0477 14.207C28.0477 15.4314 27.5967 16.3557 26.6748 17.0748L27.9049 18.6518C29.3267 17.5427 30.0477 16.0296 30.0477 14.207H28.0477ZM26.6748 17.0748C25.723 17.8172 24.4197 18.2344 22.6727 18.2344V20.2344C24.7381 20.2344 26.5129 19.7375 27.9049 18.6518L26.6748 17.0748ZM22.6727 18.2344C21.6848 18.2344 20.7836 18.0486 19.9575 17.6859L19.1535 19.5172C20.2492 19.9982 21.4262 20.2344 22.6727 20.2344V18.2344ZM19.9665 17.6899C19.1574 17.3252 18.5951 16.8496 18.2235 16.2834L16.5515 17.3807C17.1642 18.3145 18.0473 19.0186 19.1445 19.5132L19.9665 17.6899ZM18.2261 16.2873C17.8461 15.7021 17.6492 15.0344 17.6492 14.2539H15.6492C15.6492 15.3953 15.9446 16.4463 16.5489 17.3767L18.2261 16.2873ZM16.6492 15.2539H20.6219V13.2539H16.6492V15.2539ZM19.6219 14.2539C19.6219 15.0861 19.9726 15.8002 20.5827 16.3538L21.9267 14.8727C21.693 14.6607 21.6219 14.4685 21.6219 14.2539H19.6219ZM20.5827 16.3538C21.2046 16.9182 21.9702 17.1875 22.8133 17.1875V15.1875C22.422 15.1875 22.1485 15.074 21.9267 14.8727L20.5827 16.3538ZM22.8133 17.1875C23.6988 17.1875 24.5167 16.9388 25.1562 16.3476L23.7985 14.879C23.6099 15.0534 23.3184 15.1875 22.8133 15.1875V17.1875ZM25.1636 16.3407C25.7903 15.7494 26.0984 14.9844 26.0984 14.125H24.0984C24.0984 14.4688 23.9925 14.6959 23.7911 14.8859L25.1636 16.3407ZM26.0984 14.125C26.0984 13.1289 25.8513 12.162 25.0955 11.5298L23.8124 13.064C23.9158 13.1505 24.0984 13.4024 24.0984 14.125H26.0984ZM25.0955 11.5298C24.4311 10.9742 23.5821 10.7578 22.6727 10.7578V12.7578C23.2788 12.7578 23.6173 12.9008 23.8124 13.064L25.0955 11.5298ZM22.6727 10.7578H20.7508V12.7578H22.6727V10.7578ZM21.7508 11.7578V8.81641H19.7508V11.7578H21.7508Z" fill="#B7C1CB"/>
</svg>
