<svg width="39" height="48" viewBox="0 0 39 48" fill="none" xmlns="http://www.w3.org/2000/svg">
<path d="M38.22 33.0316C38.22 31.854 37.362 30.8334 36.192 30.6764C35.802 29.9699 35.256 29.3418 34.632 28.7923C35.568 26.7511 35.022 24.3174 33.228 22.9828L31.668 21.8052C30.888 21.1771 30.42 20.3136 30.42 19.293V12.3844C30.42 7.90953 27.924 3.82719 23.946 1.86453L21.84 0.765439C19.89 -0.255146 17.55 -0.255146 15.6 0.765439L13.494 1.78602C9.516 3.82719 7.02 7.90953 7.02 12.3844V19.293C7.02 20.3136 6.552 21.1771 5.772 21.8052L4.212 22.9828C2.418 24.3174 1.872 26.7511 2.808 28.7923C1.014 30.4409 0 32.7176 0 35.1513V47.1628H37.44V43.2375H39V41.6673H38.22V33.0316ZM5.148 24.2389L6.708 23.0613C7.878 22.1977 8.58 20.7846 8.58 19.293V12.3844C8.58 8.53759 10.764 5.00479 14.196 3.27765L16.302 2.25706C17.862 1.472 19.656 1.472 21.216 2.25706L23.244 3.19914C26.676 4.92628 28.86 8.45908 28.86 12.3059V19.2145C28.86 20.7061 29.562 22.1192 30.732 22.9828L32.292 24.1604C33.384 25.024 33.774 26.4371 33.306 27.7717C33.228 27.7717 33.228 27.6932 33.15 27.6932L24.648 22.6688C25.818 21.3341 26.52 19.6855 26.52 17.8799V14.5826C26.52 12.1489 24.882 9.9507 22.542 9.32265L16.77 7.67401C15.444 7.28148 13.962 7.67401 12.948 8.6946L12.48 9.08713C11.466 10.1077 10.842 11.5208 10.92 13.0125V17.8799C10.92 19.6855 11.544 21.3341 12.792 22.6688L4.29 27.6932C4.212 27.6932 4.212 27.7717 4.134 27.7717C3.666 26.5156 4.056 25.1025 5.148 24.2389ZM14.04 23.7679L16.146 25.181C17.706 26.2016 19.734 26.2016 21.372 25.181L23.478 23.7679L25.038 24.7099V25.181C25.038 26.5156 24.024 27.5362 22.698 27.5362H14.82C13.494 27.5362 12.48 26.5156 12.48 25.181V24.6314L14.04 23.7679ZM12.48 17.8799V13.0125C12.48 11.9919 12.87 10.9713 13.65 10.2647L14.118 9.79369C14.742 9.16564 15.6 8.93012 16.38 9.16564L22.152 10.8143C23.79 11.2853 24.96 12.8554 24.96 14.5826V17.8799C24.96 19.6855 24.024 21.4127 22.542 22.4332L20.436 23.8464C19.422 24.5529 18.018 24.5529 17.004 23.8464L14.898 22.4332C13.416 21.4127 12.48 19.764 12.48 17.8799ZM25.194 45.5927H9.36V35.3868H7.8V45.5927H1.56V35.1513C1.56 32.6391 2.886 30.3624 4.992 29.0278L10.92 25.495C11.076 27.5362 12.792 29.0278 14.82 29.0278H22.62C24.648 29.0278 26.286 27.4577 26.52 25.495L32.448 29.0278C33.15 29.4203 33.774 29.9699 34.32 30.5979H21.84C20.514 30.5979 19.5 31.6185 19.5 32.9531V41.5888H18.72V43.159H26.13L25.194 45.5927ZM26.91 45.5927L27.846 43.2375H29.874L30.81 45.5927H26.91ZM35.88 45.5927H32.526L31.59 43.2375H35.88V45.5927ZM36.66 41.6673H21.06V33.0316C21.06 32.5606 21.372 32.2466 21.84 32.2466H35.88C36.348 32.2466 36.66 32.5606 36.66 33.0316V41.6673Z" fill="#6F7A87"/>
<path d="M22.8686 39.5134L28.328 34.0184L29.431 35.1285L23.9715 40.6234L22.8686 39.5134Z" fill="#6F7A87"/>
<path d="M31.2 34.6017H35.1V36.1719H31.2V34.6017Z" fill="#6F7A87"/>
<path d="M29.64 37.742H35.1V39.3121H29.64V37.742Z" fill="#6F7A87"/>
</svg>
