<svg width="42" height="50" viewBox="0 0 42 50" fill="none" xmlns="http://www.w3.org/2000/svg">
<path d="M41.6143 35.6499L18.5139 16.8999C18.1989 16.6457 17.7663 16.5937 17.4009 16.7666C17.0334 16.9396 16.8003 17.3062 16.8003 17.7083V48.9583C16.8003 49.4166 17.1048 49.8229 17.5458 49.9563C17.6466 49.9855 17.7494 50 17.8502 50C18.1947 50 18.5243 49.8313 18.7239 49.5355L26.8132 37.4999H40.9507C41.3937 37.4999 41.7886 37.2229 41.9377 36.8062C42.0889 36.3916 41.9587 35.9291 41.6143 35.6499ZM26.2504 35.4166C25.8997 35.4166 25.5721 35.5896 25.3768 35.8791L18.9003 45.5166V19.9062L38.0106 35.4166H26.2504Z" fill="#E98D44"/>
<path d="M17.8503 0C17.2707 0 16.8003 0.466698 16.8003 1.0417V9.37498C16.8003 9.94998 17.2707 10.4167 17.8503 10.4167C18.4299 10.4167 18.9003 9.94998 18.9003 9.37498V1.0417C18.9003 0.466698 18.4299 0 17.8503 0Z" fill="#E98D44"/>
<path d="M9.45016 16.6667H1.05005C0.470441 16.6667 0 17.1334 0 17.7084C0 18.2834 0.470441 18.75 1.05005 18.75H9.45016C10.0298 18.75 10.5002 18.2833 10.5002 17.7083C10.5002 17.1333 10.0298 16.6667 9.45016 16.6667Z" fill="#E98D44"/>
<path d="M34.6506 16.6667H26.2504C25.6708 16.6667 25.2004 17.1334 25.2004 17.7084C25.2004 18.2834 25.6708 18.75 26.2504 18.75H34.6506C35.2302 18.75 35.7006 18.2833 35.7006 17.7083C35.7006 17.1333 35.2302 16.6667 34.6506 16.6667Z" fill="#E98D44"/>
<path d="M12.6528 11.0792L6.71178 5.18749C6.30227 4.78124 5.63652 4.78124 5.22702 5.18749C4.81751 5.59374 4.81751 6.25419 5.22702 6.66044L11.168 12.5521C11.3739 12.7542 11.6426 12.8563 11.9114 12.8563C12.1803 12.8563 12.449 12.7563 12.6528 12.5521C13.0623 12.1458 13.0623 11.4854 12.6528 11.0792Z" fill="#E98D44"/>
<path d="M12.6528 22.8666C12.2433 22.4604 11.5775 22.4604 11.168 22.8666L5.22702 28.7583C4.81751 29.1646 4.81751 29.825 5.22702 30.2313C5.43285 30.4333 5.70159 30.5355 5.97043 30.5355C6.23927 30.5355 6.50801 30.4334 6.71178 30.2292L12.6528 24.3397C13.0623 23.9332 13.0623 23.2729 12.6528 22.8666Z" fill="#E98D44"/>
<path d="M30.4716 5.18749C30.0621 4.78124 29.3963 4.78124 28.9868 5.18749L23.0458 11.0792C22.6363 11.4854 22.6363 12.1459 23.0458 12.5521C23.2516 12.7542 23.5204 12.8563 23.7892 12.8563C24.0581 12.8563 24.3268 12.7563 24.5306 12.5521L30.4716 6.66044C30.8811 6.25419 30.8811 5.59374 30.4716 5.18749Z" fill="#E98D44"/>
</svg>
